<?xml version="1.0" encoding="UTF-8" standalone="no"?>
<!-- Created with Inkscape (http://www.inkscape.org/) -->

<svg
   width="14.780598mm"
   height="14.744285mm"
   viewBox="0 0 14.780598 14.744285"
   version="1.1"
   id="svg1"
   xml:space="preserve"
   inkscape:version="1.3.2 (091e20e, 2023-11-25, custom)"
   sodipodi:docname="icons.svg"
   xmlns:inkscape="http://www.inkscape.org/namespaces/inkscape"
   xmlns:sodipodi="http://sodipodi.sourceforge.net/DTD/sodipodi-0.dtd"
   xmlns="http://www.w3.org/2000/svg"
   xmlns:svg="http://www.w3.org/2000/svg"><sodipodi:namedview
     id="namedview1"
     pagecolor="#ffffff"
     bordercolor="#000000"
     borderopacity="0.25"
     inkscape:showpageshadow="2"
     inkscape:pageopacity="0.0"
     inkscape:pagecheckerboard="0"
     inkscape:deskcolor="#d1d1d1"
     inkscape:document-units="mm"
     inkscape:zoom="1.6151358"
     inkscape:cx="160.97718"
     inkscape:cy="116.70845"
     inkscape:window-width="1600"
     inkscape:window-height="837"
     inkscape:window-x="-8"
     inkscape:window-y="-8"
     inkscape:window-maximized="1"
     inkscape:current-layer="layer1" /><defs
     id="defs1" /><g
     inkscape:label="Camada 1"
     inkscape:groupmode="layer"
     id="layer1"
     transform="translate(-68.23633,-1.7472018)"><path
       style="fill:#000000;stroke-width:0.687501"
       d="m 74.397437,16.437405 c -0.07179,-0.07179 -0.07953,-0.120747 -0.169393,-1.071695 -0.04249,-0.449411 -0.08834,-0.838227 -0.101957,-0.864037 -0.01361,-0.02581 -0.220839,-0.112455 -0.460529,-0.192546 -0.239684,-0.08009 -0.506338,-0.186954 -0.592558,-0.237475 -0.08623,-0.05052 -0.178008,-0.08371 -0.203961,-0.07375 -0.02599,0.01 -0.363867,0.266514 -0.750917,0.570121 -0.387049,0.303607 -0.743594,0.567172 -0.792324,0.585699 -0.05741,0.02182 -0.122025,0.01985 -0.183495,-0.0056 -0.05218,-0.02162 -0.410947,-0.355676 -0.79724,-0.742353 -0.696631,-0.697317 -0.702482,-0.704488 -0.717428,-0.879315 l -0.01506,-0.176265 0.58294,-0.741348 c 0.320616,-0.40774 0.582802,-0.742755 0.58263,-0.744477 -1.65e-4,-0.0017 -0.08078,-0.189227 -0.179149,-0.41668 -0.09837,-0.227451 -0.20755,-0.509354 -0.242627,-0.62645 -0.03506,-0.117096 -0.08334,-0.212902 -0.107257,-0.212902 -0.190108,0 -1.820744,-0.192864 -1.874672,-0.221727 -0.03795,-0.02029 -0.08451,-0.07783 -0.103531,-0.127847 -0.01904,-0.05002 -0.03458,-0.5487202 -0.03458,-1.1082227 V 8.1332226 L 68.340623,8.028928 c 0.05734,-0.057365 0.143158,-0.1132728 0.190658,-0.124246 0.04751,-0.010973 0.468408,-0.059654 0.935346,-0.1081831 0.466944,-0.048531 0.860882,-0.1016694 0.87543,-0.1180931 0.01457,-0.016424 0.06964,-0.171104 0.122423,-0.3437329 0.0528,-0.1726289 0.159617,-0.4404815 0.237387,-0.5952278 L 70.843268,6.4580872 70.24796,5.6973861 C 69.732547,5.038781 69.652653,4.9193455 69.652653,4.8074959 c 0,-0.1190725 0.05473,-0.1845632 0.699079,-0.8364281 0.652164,-0.6597745 0.834716,-0.8075468 0.997619,-0.8075468 0.03568,0 0.422944,0.2533038 0.860656,0.5628974 0.437712,0.3095936 0.797199,0.5627612 0.798856,0.5625941 0.0014,-1.671e-4 0.189111,-0.080786 0.416564,-0.1791526 0.227453,-0.098367 0.509356,-0.207547 0.626451,-0.2426234 0.117096,-0.035076 0.212899,-0.083343 0.212899,-0.1072612 0,-0.1901017 0.192865,-1.8207411 0.221733,-1.8746721 0.02028,-0.037923 0.07783,-0.08451 0.127841,-0.1035275 0.05005,-0.019016 0.549616,-0.034574 1.110212,-0.034574 h 1.019262 l 0.152055,0.1543427 0.152054,0.1543434 0.08224,0.8534251 c 0.04524,0.4693841 0.08895,0.8782261 0.09714,0.9085374 0.0092,0.034127 0.131684,0.087333 0.321593,0.1397339 0.168678,0.046544 0.447694,0.1536594 0.620037,0.2380385 l 0.313349,0.1534166 0.757317,-0.5927569 c 0.636682,-0.4983423 0.776753,-0.5927575 0.87937,-0.5927575 0.110509,0 0.193236,0.071472 0.874474,0.7555311 0.731302,0.7343327 0.752415,0.7596664 0.752415,0.9029177 0,0.1532413 0.03671,0.1014566 -1.131606,1.5964423 -0.02001,0.025575 0.03513,0.1958884 0.146871,0.4539497 0.09837,0.2271622 0.207604,0.5060052 0.242736,0.6196512 0.07501,0.2426372 -0.04111,0.2087111 1.105158,0.3227802 0.805209,0.080127 0.907901,0.1089539 0.907901,0.2548699 0,0.035674 -0.01636,0.07496 -0.0363,0.087304 -0.02276,0.014073 -0.0363,0.3919941 -0.0363,1.0135717 0,1.0118673 -0.02111,1.1993153 -0.139219,1.2353683 -0.03328,0.01016 -0.477243,0.0615 -0.986579,0.114097 -0.509328,0.05259 -0.927412,0.09806 -0.929068,0.101035 -0.0014,0.003 -0.05534,0.172792 -0.119254,0.377364 -0.06394,0.204573 -0.172666,0.480214 -0.241637,0.612536 -0.06897,0.132323 -0.114386,0.259105 -0.100918,0.281738 0.01347,0.02263 0.2829,0.372796 0.598738,0.77814 0.412597,0.529528 0.574243,0.764161 0.574243,0.833522 0,0.07712 -0.151911,0.248938 -0.755351,0.854315 -0.683617,0.68581 -0.768984,0.759544 -0.898819,0.776348 -0.13957,0.01806 -0.163694,0.0027 -0.887888,-0.565376 -0.409434,-0.321169 -0.76259,-0.583945 -0.784796,-0.583945 -0.02221,0 -0.177479,0.0633 -0.345057,0.140683 -0.167579,0.07737 -0.435952,0.185096 -0.596387,0.23938 l -0.2917,0.0987 -0.09733,0.949969 c -0.08854,0.864102 -0.104383,0.955713 -0.175354,1.01352 -0.07054,0.05746 -0.185247,0.06355 -1.197194,0.06355 -0.94297,0 -1.127695,-0.0085 -1.173283,-0.0541 z m 2.104676,-4.912244 c 0.72486,-0.268451 1.235743,-0.777033 1.51295,-1.506138 0.109031,-0.2867723 0.114229,-0.3244165 0.114229,-0.8270295 0,-0.5026131 -0.0055,-0.5402573 -0.114229,-0.8270292 -0.27652,-0.7272909 -0.781187,-1.2306843 -1.51295,-1.50913 -0.279841,-0.106483 -0.320541,-0.1120366 -0.821014,-0.1120366 -0.500481,0 -0.541181,0.00557 -0.821021,0.1120366 -0.731763,0.2784457 -1.23643,0.7818391 -1.51295,1.50913 -0.109031,0.2867719 -0.114229,0.3244161 -0.114229,0.8270292 0,0.5004797 0.0055,0.5411764 0.112035,0.8210165 0.270697,0.711388 0.782398,1.236127 1.451474,1.488444 0.368673,0.139032 0.495751,0.157884 0.975475,0.144714 0.37693,-0.01035 0.475566,-0.0267 0.73023,-0.121007 z"
       id="path9" /></g></svg>
