<?xml version="1.0" encoding="UTF-8" standalone="no"?>
<!-- Created with Inkscape (http://www.inkscape.org/) -->

<svg
   width="10.877776mm"
   height="14.708632mm"
   viewBox="0 0 10.877776 14.708632"
   version="1.1"
   id="svg1"
   xml:space="preserve"
   inkscape:version="1.3.2 (091e20e, 2023-11-25, custom)"
   sodipodi:docname="icons.svg"
   xmlns:inkscape="http://www.inkscape.org/namespaces/inkscape"
   xmlns:sodipodi="http://sodipodi.sourceforge.net/DTD/sodipodi-0.dtd"
   xmlns="http://www.w3.org/2000/svg"
   xmlns:svg="http://www.w3.org/2000/svg"><sodipodi:namedview
     id="namedview1"
     pagecolor="#ffffff"
     bordercolor="#000000"
     borderopacity="0.25"
     inkscape:showpageshadow="2"
     inkscape:pageopacity="0.0"
     inkscape:pagecheckerboard="0"
     inkscape:deskcolor="#d1d1d1"
     inkscape:document-units="mm"
     inkscape:zoom="1.0791607"
     inkscape:cx="534.67477"
     inkscape:cy="66.255193"
     inkscape:window-width="1600"
     inkscape:window-height="837"
     inkscape:window-x="-8"
     inkscape:window-y="-8"
     inkscape:window-maximized="1"
     inkscape:current-layer="layer1" /><defs
     id="defs1" /><g
     inkscape:label="Camada 1"
     inkscape:groupmode="layer"
     id="layer1"
     transform="translate(-155.07012,-0.28229298)"><path
       style="fill:#000000;stroke-width:0.776673"
       d="m 164.68267,14.966992 c -0.18359,-0.03985 -0.36159,-0.139336 -0.49969,-0.279273 -0.11366,-0.115172 -0.18459,-0.232447 -1.09161,-1.805012 -0.89944,-1.559432 -0.97004,-1.687734 -0.97004,-1.762878 0,-0.139294 0.0359,-0.171448 0.47313,-0.42364 1.17847,-0.679749 1.04945,-0.612175 1.1534,-0.604171 0.0783,0.0061 0.10264,0.0168 0.15128,0.06696 0.0319,0.03289 0.20764,0.320006 0.39051,0.638054 0.18285,0.318048 0.59669,1.035626 0.91961,1.594617 0.32293,0.558993 0.60724,1.056115 0.63181,1.104716 0.11831,0.234033 0.1395,0.517204 0.0578,0.773034 -0.16226,0.508368 -0.69096,0.811606 -1.21624,0.697586 z m -2.48681,-4.324075 c -0.24611,-0.417128 -0.72774,-1.2649797 -0.72944,-1.2840836 -0.001,-0.015782 0.0692,-0.056115 0.19197,-0.1098015 0.30402,-0.1328532 0.62084,-0.3198041 0.88894,-0.5245322 0.056,-0.042764 0.10422,-0.074957 0.10715,-0.071531 0.0423,0.049645 0.77787,1.3564763 0.76823,1.3647903 -0.0164,0.01415 -1.17875,0.682901 -1.18695,0.682901 -0.003,0 -0.0211,-0.02598 -0.0399,-0.05774 z m -2.85912,-1.1691693 c -1.52112,-0.1262569 -2.83007,-0.9332761 -3.61299,-2.2275438 -0.61154,-1.0109332 -0.80573,-2.259045 -0.53267,-3.4234275 0.26252,-1.1193945 0.96531,-2.1330416 1.9186,-2.7671974 0.59145,-0.39346147 1.2016,-0.62576385 1.94508,-0.74055546 0.30491,-0.0470819 0.95829,-0.0426627 1.28795,0.008699 0.7657,0.11930176 1.50304,0.42680404 2.09318,0.87294726 1.05029,0.7940178 1.69524,1.954785 1.82424,3.2832274 0.0259,0.2668138 0.0121,0.7902113 -0.0278,1.0513966 -0.0789,0.5172058 -0.20835,0.9275894 -0.44147,1.3999298 -0.21837,0.4424749 -0.47164,0.7989415 -0.82764,1.1648929 -0.71971,0.7398036 -1.67676,1.218432 -2.69937,1.3499602 -0.26257,0.033777 -0.69728,0.046748 -0.92713,0.027665 z m 0.68432,-1.0694698 c 0.63344,-0.064076 1.25676,-0.3055622 1.76733,-0.684689 0.19087,-0.1417329 0.5162,-0.4574149 0.65698,-0.6374837 0.40033,-0.5121051 0.64738,-1.0945205 0.7372,-1.7380065 0.0357,-0.2557532 0.0267,-0.8257153 -0.0168,-1.0567983 -0.11019,-0.5863966 -0.32586,-1.0844519 -0.6654,-1.5366641 -0.58154,-0.7745101 -1.47118,-1.2805248 -2.44582,-1.3911239 -0.25877,-0.029367 -0.76253,-0.012101 -1.01219,0.034686 -0.69768,0.1307522 -1.32714,0.4555565 -1.83278,0.9457138 -0.55911,0.5419887 -0.90331,1.2068806 -1.03978,2.0085618 -0.0375,0.219829 -0.0423,0.7692807 -0.008,1.0075884 0.0919,0.6560005 0.37664,1.2942151 0.8059,1.8068174 0.73962,0.8832183 1.90647,1.3574981 3.05417,1.2413978 z"
       id="path3" /></g></svg>
