<?xml version="1.0" encoding="UTF-8" standalone="no"?>
<!-- Created with Inkscape (http://www.inkscape.org/) -->

<svg
   width="16.099396mm"
   height="16.093422mm"
   viewBox="0 0 16.099396 16.093422"
   version="1.1"
   id="svg1"
   xml:space="preserve"
   inkscape:version="1.3.2 (091e20e, 2023-11-25, custom)"
   sodipodi:docname="icons.svg"
   xmlns:inkscape="http://www.inkscape.org/namespaces/inkscape"
   xmlns:sodipodi="http://sodipodi.sourceforge.net/DTD/sodipodi-0.dtd"
   xmlns="http://www.w3.org/2000/svg"
   xmlns:svg="http://www.w3.org/2000/svg"><sodipodi:namedview
     id="namedview1"
     pagecolor="#ffffff"
     bordercolor="#000000"
     borderopacity="0.25"
     inkscape:showpageshadow="2"
     inkscape:pageopacity="0.0"
     inkscape:pagecheckerboard="0"
     inkscape:deskcolor="#d1d1d1"
     inkscape:document-units="mm"
     inkscape:zoom="1.5261637"
     inkscape:cx="513.70637"
     inkscape:cy="190.34656"
     inkscape:window-width="1600"
     inkscape:window-height="837"
     inkscape:window-x="-8"
     inkscape:window-y="-8"
     inkscape:window-maximized="1"
     inkscape:current-layer="layer1"
     showgrid="false" /><defs
     id="defs1" /><g
     inkscape:label="Camada 1"
     inkscape:groupmode="layer"
     id="layer1"
     transform="translate(-107.73812,-56.620154)"><path
       style="fill:#000000;stroke-width:0.382962"
       d="m 109.52551,72.553662 c -0.33296,-0.102262 -0.65043,-0.309242 -0.9803,-0.63911 -0.81367,-0.813668 -0.80709,-0.758671 -0.80709,-6.744273 0,-5.973749 -0.005,-5.932278 0.79646,-6.733642 0.72526,-0.725261 1.09635,-0.815096 3.36693,-0.815096 h 1.89812 l 0.26232,0.31175 c 0.35531,0.422266 0.34373,0.838335 -0.0339,1.215924 l -0.29618,0.296183 h -1.61388 c -0.94284,0 -1.75109,0.04783 -1.94388,0.115034 -0.60674,0.21151 -0.61217,0.261326 -0.61217,5.609847 0,5.348521 0.005,5.398341 0.61217,5.609847 0.46199,0.161055 9.76343,0.161055 10.22542,0 0.52312,-0.182359 0.61218,-0.53478 0.61218,-2.422637 v -1.632254 l 0.29618,-0.296182 c 0.37758,-0.377586 0.79366,-0.389174 1.21592,-0.03385 l 0.31175,0.262321 v 1.847122 c 0,2.282695 -0.0991,2.701939 -0.80578,3.408608 -0.81415,0.814154 -0.75227,0.806874 -6.78668,0.798721 -4.33098,-0.0059 -5.30947,-0.03293 -5.71763,-0.158301 z m 6.06072,-7.682752 c -0.18538,-0.185388 -0.24871,-0.357445 -0.24871,-0.675802 0,-0.422958 0.0252,-0.452435 2.60479,-3.044368 l 2.60479,-2.617271 h -1.33662 c -1.31818,0 -1.34097,-0.0039 -1.65159,-0.281423 -0.42908,-0.38338 -0.45407,-0.9239 -0.0609,-1.317317 l 0.2756,-0.275782 2.50569,-0.03209 c 1.62654,-0.02083 2.63879,0.0072 2.88506,0.07988 0.66824,0.197222 0.69834,0.349043 0.66398,3.348671 l -0.0301,2.628131 -0.26575,0.265576 c -0.36598,0.365741 -0.92629,0.365794 -1.29236,1.15e-4 -0.25676,-0.256477 -0.26688,-0.312114 -0.29917,-1.644278 l -0.0334,-1.378817 -2.60918,2.596736 c -2.58371,2.571383 -2.61336,2.596736 -3.03628,2.596736 -0.31836,0 -0.49041,-0.06332 -0.6758,-0.248708 z"
       id="path19" /></g></svg>
