<?xml version="1.0" encoding="UTF-8" standalone="no"?>
<!-- Created with Inkscape (http://www.inkscape.org/) -->

<svg
   width="21.020535mm"
   height="20.985025mm"
   viewBox="0 0 21.020535 20.985025"
   version="1.1"
   id="svg1"
   xml:space="preserve"
   inkscape:version="1.3.2 (091e20e, 2023-11-25, custom)"
   sodipodi:docname="icons.svg"
   xmlns:inkscape="http://www.inkscape.org/namespaces/inkscape"
   xmlns:sodipodi="http://sodipodi.sourceforge.net/DTD/sodipodi-0.dtd"
   xmlns="http://www.w3.org/2000/svg"
   xmlns:svg="http://www.w3.org/2000/svg"><sodipodi:namedview
     id="namedview1"
     pagecolor="#ffffff"
     bordercolor="#000000"
     borderopacity="0.25"
     inkscape:showpageshadow="2"
     inkscape:pageopacity="0.0"
     inkscape:pagecheckerboard="0"
     inkscape:deskcolor="#d1d1d1"
     inkscape:document-units="mm"
     inkscape:zoom="1.5261637"
     inkscape:cx="573.00537"
     inkscape:cy="418.36927"
     inkscape:window-width="1600"
     inkscape:window-height="837"
     inkscape:window-x="-8"
     inkscape:window-y="-8"
     inkscape:window-maximized="1"
     inkscape:current-layer="layer1"
     showgrid="false" /><defs
     id="defs1" /><g
     inkscape:label="Camada 1"
     inkscape:groupmode="layer"
     id="layer1"
     transform="translate(-149.73012,-83.222478)"><path
       style="fill:#000000;stroke-width:0.368261"
       d="m 150.99484,104.14941 c -0.1278,-0.0242 -0.44216,-0.25374 -0.69857,-0.51015 -0.36909,-0.36909 -0.47895,-0.55505 -0.52743,-0.89278 -0.0337,-0.23462 -0.0482,-4.460429 -0.0322,-9.390677 l 0.029,-8.964095 0.23844,-0.352298 c 0.13114,-0.193764 0.391,-0.456842 0.57747,-0.584614 l 0.33905,-0.232318 h 9.31984 9.31984 l 0.35101,0.267726 c 0.19305,0.147249 0.45271,0.410324 0.57703,0.584615 l 0.22602,0.316889 0.0293,9.061529 c 0.0203,6.267936 -0.003,9.172823 -0.0757,9.422523 -0.14146,0.4866 -0.54398,0.94414 -1.02137,1.16099 -0.37353,0.16967 -0.85708,0.17829 -9.40658,0.16773 -4.95704,-0.006 -9.11738,-0.0309 -9.24518,-0.0551 z m 14.77854,-4.88982 c 0.96927,-0.498566 1.49159,-1.673736 1.15691,-2.602933 -0.12838,-0.356447 -1.29549,-2.424864 -4.00666,-7.10085 -0.46608,-0.803844 -0.9646,-1.587644 -1.10782,-1.741772 -0.79468,-0.855195 -2.35533,-0.855195 -3.15234,0 -0.37243,0.399607 -5.03314,8.484444 -5.15827,8.947926 -0.2506,0.928243 0.28376,2.024141 1.2297,2.521946 0.25542,0.134419 0.94753,0.154323 5.48464,0.15773 4.92233,0.0037 5.21114,-0.0058 5.55384,-0.182047 z m -10.45623,-1.216731 c -0.29254,-0.127459 -0.53353,-0.498232 -0.53353,-0.820843 0,-0.09251 0.35532,-0.781024 0.7896,-1.53003 0.77136,-1.330348 2.47778,-4.285508 3.48699,-6.038745 0.27763,-0.482307 0.57736,-0.93173 0.66605,-0.998716 0.20792,-0.157038 0.82033,-0.157038 1.02499,0 0.17829,0.136794 4.72341,7.956589 4.87143,8.381187 0.1268,0.363758 -0.064,0.816318 -0.42232,1.001605 -0.38477,0.198971 -9.42762,0.204042 -9.88321,0.0056 z m 5.42673,-1.389343 c 0.42667,-0.386122 0.0988,-1.10541 -0.50386,-1.10541 -0.59337,0 -0.90895,0.659574 -0.5208,1.088481 0.20387,0.225273 0.78386,0.234855 1.02466,0.01694 z m -0.0389,-1.714382 c 0.1179,-0.144999 0.37075,-3.196401 0.28367,-3.423323 -0.0468,-0.122086 -0.19786,-0.157108 -0.67245,-0.155951 -0.9371,0.0022 -0.90253,-0.07814 -0.75935,1.766575 0.068,0.876406 0.16343,1.670197 0.21201,1.763982 0.10526,0.203207 0.78188,0.238416 0.93612,0.04872 z"
       id="path40" /></g></svg>
