<?xml version="1.0" encoding="UTF-8" standalone="no"?>
<!-- Created with Inkscape (http://www.inkscape.org/) -->

<svg
   width="12.435626mm"
   height="16.601315mm"
   viewBox="0 0 12.435626 16.601315"
   version="1.1"
   id="svg1"
   xml:space="preserve"
   inkscape:version="1.3.2 (091e20e, 2023-11-25, custom)"
   sodipodi:docname="icons.svg"
   xmlns:inkscape="http://www.inkscape.org/namespaces/inkscape"
   xmlns:sodipodi="http://sodipodi.sourceforge.net/DTD/sodipodi-0.dtd"
   xmlns="http://www.w3.org/2000/svg"
   xmlns:svg="http://www.w3.org/2000/svg"><sodipodi:namedview
     id="namedview1"
     pagecolor="#ffffff"
     bordercolor="#000000"
     borderopacity="0.25"
     inkscape:showpageshadow="2"
     inkscape:pageopacity="0.0"
     inkscape:pagecheckerboard="0"
     inkscape:deskcolor="#d1d1d1"
     inkscape:document-units="mm"
     inkscape:zoom="1.1420735"
     inkscape:cx="396.64698"
     inkscape:cy="181.68708"
     inkscape:window-width="1600"
     inkscape:window-height="837"
     inkscape:window-x="-8"
     inkscape:window-y="-8"
     inkscape:window-maximized="1"
     inkscape:current-layer="layer1" /><defs
     id="defs1" /><g
     inkscape:label="Camada 1"
     inkscape:groupmode="layer"
     id="layer1"
     transform="translate(-137.54866,0.10983146)"><path
       style="fill:#000000;stroke-width:0.678467"
       d="m 143.26436,16.485055 c -1.54816,-0.164597 -2.85099,-0.772286 -3.89589,-1.81718 -0.93939,-0.939386 -1.52965,-2.097142 -1.7627,-3.45736 -0.0696,-0.406114 -0.0773,-1.5794914 -0.0136,-2.0789152 0.18192,-1.426957 0.59817,-2.4727049 1.27102,-3.1931978 0.28896,-0.3094034 0.58386,-0.5098687 0.75005,-0.5098687 0.21746,0 0.28078,0.089294 0.40397,0.5697604 0.29656,1.1565471 0.83628,1.9023277 1.52867,2.112353 l 0.1331,0.040364 0.0219,-0.584382 c 0.0753,-2.0040768 0.30374,-3.145205 0.86069,-4.2983299 0.59687,-1.2357425 1.56573,-2.44179664 2.56793,-3.1965799 0.20579,-0.15498361 0.26154,-0.18155035 0.38094,-0.18155035 0.10846,0 0.15947,0.01958735 0.22709,0.08721356 0.0801,0.08012359 0.0894,0.11694739 0.11364,0.45293453 0.0353,0.48777854 0.10358,0.83596856 0.24297,1.23800656 0.22862,0.6594138 0.52285,1.1727604 1.23406,2.1531204 0.89591,1.2349745 1.01899,1.4102213 1.25736,1.7903928 0.78898,1.2583009 1.1888,2.358334 1.35603,3.7308968 0.062,0.5086283 0.0554,1.4628278 -0.0128,1.8677748 -0.22761,1.351324 -0.82182,2.517474 -1.76171,3.457361 -1.14823,1.148231 -2.63419,1.783941 -4.25319,1.819561 -0.28586,0.0061 -0.57821,0.0054 -0.64966,-0.0027 z m 1.0232,-0.747529 c 0.32802,-0.09213 0.61599,-0.267608 0.89655,-0.546315 0.6091,-0.605105 0.79736,-1.429253 0.54959,-2.405995 -0.11333,-0.446763 -0.30865,-0.830036 -0.77849,-1.527689 -0.45063,-0.669113 -0.50566,-0.764283 -0.63452,-1.097483 l -0.0859,-0.2221539 -0.14011,0.1855779 c -0.17014,0.225341 -0.40197,0.654722 -0.48711,0.902181 -0.10938,0.317914 -0.16985,0.735978 -0.19354,1.338015 -0.0188,0.479833 -0.0333,0.600417 -0.0809,0.672382 -0.15663,0.237342 -0.64867,0.178301 -1.01487,-0.121771 -0.0766,-0.06276 -0.20079,-0.209321 -0.2761,-0.325767 l -0.13692,-0.211715 -0.0393,0.09364 c -0.0778,0.184943 -0.1477,0.574838 -0.16671,0.929391 -0.0258,0.48197 0.0379,0.809025 0.23695,1.2162 0.4459,0.912104 1.42846,1.380729 2.35144,1.1215 z"
       id="path13" /></g></svg>
