<?xml version="1.0" encoding="UTF-8" standalone="no"?>
<!-- Created with Inkscape (http://www.inkscape.org/) -->

<svg
   width="17.40748mm"
   height="24.572092mm"
   viewBox="0 0 17.40748 24.572092"
   version="1.1"
   id="svg1"
   xml:space="preserve"
   inkscape:version="1.3.2 (091e20e, 2023-11-25, custom)"
   sodipodi:docname="icons.svg"
   xmlns:inkscape="http://www.inkscape.org/namespaces/inkscape"
   xmlns:sodipodi="http://sodipodi.sourceforge.net/DTD/sodipodi-0.dtd"
   xmlns="http://www.w3.org/2000/svg"
   xmlns:svg="http://www.w3.org/2000/svg"><sodipodi:namedview
     id="namedview1"
     pagecolor="#ffffff"
     bordercolor="#000000"
     borderopacity="0.25"
     inkscape:showpageshadow="2"
     inkscape:pageopacity="0.0"
     inkscape:pagecheckerboard="0"
     inkscape:deskcolor="#d1d1d1"
     inkscape:document-units="mm"
     inkscape:zoom="1.0791607"
     inkscape:cx="544.86788"
     inkscape:cy="283.09037"
     inkscape:window-width="1600"
     inkscape:window-height="837"
     inkscape:window-x="-8"
     inkscape:window-y="-8"
     inkscape:window-maximized="1"
     inkscape:current-layer="layer1"
     showgrid="false" /><defs
     id="defs1" /><g
     inkscape:label="Camada 1"
     inkscape:groupmode="layer"
     id="layer1"
     transform="translate(-118.21163,-58.654555)"><path
       id="path20"
       style="fill:#000000;stroke-width:0.389167"
       d="m 132.07359,58.654818 c -0.53192,-0.0088 -1.06638,0.204789 -1.54874,0.641304 -1.02353,0.92624 -1.71726,2.447062 -1.98024,4.339787 -0.13566,0.976338 -0.0377,3.684635 0.15554,4.30413 0.0526,0.168685 0.25103,0.375631 0.4284,0.447001 0.0768,0.0309 1.15039,0.04486 2.97863,0.03876 l 2.85874,-0.0093 0.15658,-0.112138 c 0.0863,-0.06154 0.18749,-0.170789 0.22479,-0.242879 0.14138,-0.273406 0.27259,-1.685243 0.27182,-2.923853 -0.001,-2.606993 -0.65653,-4.492628 -2.01176,-5.790344 -0.47239,-0.452336 -1.00183,-0.683649 -1.53376,-0.692464 z m -11.67215,10.126513 c -0.29165,0.0071 -0.56186,0.06394 -0.79944,0.175183 -0.81104,0.379757 -1.25634,1.205001 -1.36891,2.534729 -0.10028,1.184566 0.15081,2.454241 0.75603,3.819406 0.29508,0.665595 0.82511,1.598134 1.24178,2.185913 0.56004,0.79002 0.95038,1.285347 1.0604,1.345137 0.0692,0.03758 0.23438,0.06908 0.36691,0.07028 0.22935,0.0018 0.35561,-0.06376 2.61844,-1.367358 1.42215,-0.819289 2.43781,-1.434703 2.52801,-1.531173 0.26182,-0.279924 0.25695,-0.455649 -0.0315,-1.143599 -0.59402,-1.416663 -1.40265,-2.791741 -2.20452,-3.748092 -1.23025,-1.467263 -2.90338,-2.37123 -4.16718,-2.340426 z m 13.68547,0.63252 c 0.0587,0.0014 0.0995,0.0041 0.14469,0.0062 -0.0425,-0.0019 -0.0903,-0.0048 -0.14469,-0.0062 z m 0.36742,0.02429 c 0.0265,0.004 0.0596,0.0073 0.0785,0.0124 -0.0183,-0.0049 -0.0532,-0.0085 -0.0785,-0.0124 z m 0.10645,0.02067 c 0.0311,0.01071 0.0564,0.02252 0.0811,0.03772 -0.0245,-0.01504 -0.0506,-0.02708 -0.0811,-0.03772 z m -5.38779,1.054716 c 0.0705,0.287298 0.17139,0.628414 0.28061,0.968417 -0.10916,-0.339897 -0.21017,-0.681231 -0.28061,-0.968417 z m -2.10994,6.63112 c -0.0138,0.0028 -0.0305,0.0079 -0.0455,0.01189 0.0152,-0.004 0.0314,-0.009 0.0455,-0.01189 z m -0.18501,0.05943 c -0.0215,0.0085 -0.0434,0.01659 -0.0672,0.02687 0.0243,-0.01053 0.0452,-0.01822 0.0672,-0.02687 z m -0.32814,0.150895 c -0.14069,0.07232 -0.34374,0.185127 -0.55139,0.301791 0.21208,-0.119235 0.40854,-0.228363 0.55139,-0.301791 z m -3.17759,1.830896 c -0.39281,0.238588 -0.65389,0.406193 -0.68884,0.444418 0.0349,-0.03822 0.29602,-0.205736 0.68884,-0.444418 z" /><path
       id="path1-27"
       style="opacity:0.5;fill:#000000;stroke-width:0.389167"
       d="m 133.41408,69.40765 c -0.34739,2.9e-5 -0.80239,0.0021 -1.40302,0.0052 l -2.47426,0.0124 -0.15245,0.10852 c -0.0895,0.06382 -0.18694,0.198533 -0.23564,0.326079 -0.0803,0.210379 -0.0793,0.231177 0.0243,0.653706 0.15991,0.652027 0.46514,1.578063 0.709,2.150774 0.49865,1.171068 1.03093,1.825904 1.67277,2.058272 0.0793,0.02869 0.28927,0.05391 0.46664,0.05581 0.81108,0.0095 1.40224,-0.484297 1.97921,-1.653645 0.44177,-0.895338 0.92775,-2.360057 0.97255,-2.930571 0.0263,-0.335307 -0.0692,-0.53666 -0.33125,-0.697632 -0.11403,-0.07008 -0.18567,-0.08897 -1.22783,-0.08888 z m -6.21616,7.72511 c -0.26236,-0.0214 -0.68352,0.220776 -2.34714,1.180806 -1.1221,0.64753 -2.09741,1.240266 -2.16731,1.316716 -0.179,0.195856 -0.21699,0.472269 -0.10025,0.733805 0.15945,0.357193 1.53064,1.612765 2.389,2.187463 0.38487,0.257687 0.93066,0.529273 1.23868,0.615983 0.65289,0.183816 1.422,-0.07369 1.7849,-0.597379 0.51014,-0.735603 0.5093,-2.126194 -0.002,-4.184758 -0.19799,-0.797056 -0.30998,-1.034742 -0.54622,-1.160136 -0.0922,-0.04893 -0.16215,-0.08537 -0.2496,-0.0925 z" /></g></svg>
