<?xml version="1.0" encoding="UTF-8" standalone="no"?>
<!-- Created with Inkscape (http://www.inkscape.org/) -->

<svg
   width="20.325647mm"
   height="19.005489mm"
   viewBox="0 0 20.325647 19.005489"
   version="1.1"
   id="svg1"
   xml:space="preserve"
   inkscape:version="1.3.2 (091e20e, 2023-11-25, custom)"
   sodipodi:docname="icons.svg"
   xmlns:inkscape="http://www.inkscape.org/namespaces/inkscape"
   xmlns:sodipodi="http://sodipodi.sourceforge.net/DTD/sodipodi-0.dtd"
   xmlns="http://www.w3.org/2000/svg"
   xmlns:svg="http://www.w3.org/2000/svg"><sodipodi:namedview
     id="namedview1"
     pagecolor="#ffffff"
     bordercolor="#000000"
     borderopacity="0.25"
     inkscape:showpageshadow="2"
     inkscape:pageopacity="0.0"
     inkscape:pagecheckerboard="0"
     inkscape:deskcolor="#d1d1d1"
     inkscape:document-units="mm"
     inkscape:zoom="0.76308185"
     inkscape:cx="433.76736"
     inkscape:cy="400.35024"
     inkscape:window-width="1600"
     inkscape:window-height="837"
     inkscape:window-x="-8"
     inkscape:window-y="-8"
     inkscape:window-maximized="1"
     inkscape:current-layer="layer1"
     showgrid="false" /><defs
     id="defs1" /><g
     inkscape:label="Camada 1"
     inkscape:groupmode="layer"
     id="layer1"
     transform="translate(-116.1818,-4.6116336)"><path
       style="fill:#000000;stroke-width:0.274415"
       d="m 118.6464,23.510203 c -0.27991,-0.120076 -2.19902,-1.983318 -2.36467,-2.295842 -0.1402,-0.264487 -0.13137,-0.885856 0.017,-1.198575 0.13266,-0.279558 7.98592,-7.585085 8.39357,-7.808141 0.29087,-0.159164 0.85682,-0.164402 1.16379,-0.01076 0.28177,0.141008 1.61727,1.439509 1.76223,1.7134 0.14163,0.26761 0.12657,0.911479 -0.0281,1.201438 -0.20793,0.389776 -7.59385,8.258377 -7.87862,8.393513 -0.31052,0.14735 -0.72877,0.149304 -1.06521,0.005 z m 14.38109,-8.363404 c -0.22133,-0.038 -1.84098,-1.612155 -1.99696,-1.940855 -0.1589,-0.334856 -0.14231,-0.554786 0.0649,-0.860093 0.17199,-0.253428 0.17352,-0.265979 0.0411,-0.336858 -0.36766,-0.196764 -0.74545,-0.03017 -1.65116,0.728125 -0.41772,0.349735 -0.83554,0.65042 -0.92849,0.668189 -0.30081,0.0575 -0.56575,-0.128847 -1.39741,-0.982905 -1.01427,-1.041582 -1.01603,-1.050832 -0.3837,-2.013822 0.23821,-0.362779 0.45422,-0.772103 0.48002,-0.9096098 0.10184,-0.5428869 -0.20143,-1.3609795 -0.6454,-1.7410036 -0.55589,-0.4758253 -1.58889,-0.7513082 -2.28254,-0.6087192 -0.8678,0.178381 -0.93808,0.1744788 -1.17798,-0.065426 -0.3067,-0.3066949 -0.29107,-0.5640856 0.061,-1.0048406 0.5071,-0.6347941 0.90675,-0.9124668 1.75455,-1.2190327 0.99416,-0.3594924 2.29607,-0.3268809 3.44648,0.086328 1.42837,0.5130443 2.79958,1.3934951 3.92385,2.519479 1.03618,1.0377594 1.26746,1.3867197 1.26746,1.9123295 0,0.3481563 0.0149,0.3882511 0.12706,0.3403135 0.21871,-0.093534 0.51693,-0.1245242 0.71645,-0.074449 0.21642,0.054318 1.80228,1.5684209 1.95897,1.8703359 0.056,0.107831 0.10175,0.334424 0.10175,0.503536 0,0.300874 -0.0269,0.334591 -1.25245,1.570361 -0.68885,0.694587 -1.33413,1.320803 -1.43396,1.391588 -0.20328,0.144134 -0.52835,0.212557 -0.79351,0.167029 z"
       id="path12" /></g></svg>
