<?xml version="1.0" encoding="UTF-8" standalone="no"?>
<!-- Created with Inkscape (http://www.inkscape.org/) -->

<svg
   width="14.535611mm"
   height="15.860159mm"
   viewBox="0 0 14.535611 15.860159"
   version="1.1"
   id="svg1"
   xml:space="preserve"
   inkscape:version="1.3.2 (091e20e, 2023-11-25, custom)"
   sodipodi:docname="icons.svg"
   xmlns:inkscape="http://www.inkscape.org/namespaces/inkscape"
   xmlns:sodipodi="http://sodipodi.sourceforge.net/DTD/sodipodi-0.dtd"
   xmlns="http://www.w3.org/2000/svg"
   xmlns:svg="http://www.w3.org/2000/svg"><sodipodi:namedview
     id="namedview1"
     pagecolor="#ffffff"
     bordercolor="#000000"
     borderopacity="0.25"
     inkscape:showpageshadow="2"
     inkscape:pageopacity="0.0"
     inkscape:pagecheckerboard="0"
     inkscape:deskcolor="#d1d1d1"
     inkscape:document-units="mm"
     inkscape:zoom="1.1420735"
     inkscape:cx="396.64698"
     inkscape:cy="181.68708"
     inkscape:window-width="1600"
     inkscape:window-height="837"
     inkscape:window-x="-8"
     inkscape:window-y="-8"
     inkscape:window-maximized="1"
     inkscape:current-layer="layer1" /><defs
     id="defs1" /><g
     inkscape:label="Camada 1"
     inkscape:groupmode="layer"
     id="layer1"
     transform="translate(-116.70549,-0.6313294)"><path
       style="fill:#000000;stroke-width:0.36747"
       d="m 129.60695,16.195845 c -0.16053,-0.163315 -0.55136,-0.571398 -0.8685,-0.906851 -0.31714,-0.335454 -0.71389,-0.754372 -0.88165,-0.930929 -0.16777,-0.176558 -0.55782,-0.588052 -0.86679,-0.914433 -0.92888,-0.981212 -1.82642,-1.925668 -2.10907,-2.219289 -0.24939,-0.259074 -0.2664,-0.285543 -0.2664,-0.414448 0,-0.133021 0.0133,-0.151149 0.39128,-0.533482 0.41349,-0.4182543 0.51533,-0.4779233 0.6727,-0.3941343 0.0416,0.02214 0.34306,0.2943153 0.66995,0.6048293 0.3269,0.310515 1.43919,1.365387 2.47177,2.34416 2.60751,2.471642 2.42064,2.283825 2.41653,2.428726 -0.003,0.112089 -0.0433,0.160342 -0.56201,0.676737 -0.69862,0.695441 -0.6504,0.68374 -1.06781,0.259114 z m -6.62186,-7.2230293 -1.32421,-1.3244949 0.36954,-0.3684914 0.36954,-0.3684915 1.33182,1.3315278 1.33182,1.331527 -0.36044,0.361459 c -0.19823,0.1988023 -0.36795,0.3614583 -0.37715,0.3614583 -0.009,0 -0.61261,-0.5960233 -1.34092,-1.3244943 z m -5.46558,0.02267 c -0.43215,-0.309928 -0.79765,-0.575364 -0.81222,-0.589856 -0.0325,-0.03237 0.37887,-0.730993 0.86145,-1.4628581 1.10184,-1.6710359 2.38873,-3.0974625 3.83091,-4.2463055 0.61843,-0.4926402 1.43885,-1.0323012 2.17161,-1.4284621 0.34842,-0.1883682 1.15269,-0.57115285 1.29096,-0.61442065 l 0.0711,-0.022254 -0.0641,0.1863923 c -0.10243,0.29777445 -0.39269,0.87820925 -0.57218,1.14421435 -0.21723,0.321919 -0.51216,0.6340181 -0.77242,0.8174082 -1.01219,0.713214 -1.649,1.4438857 -1.81548,2.0830778 -0.11796,0.4528568 -7.4e-4,0.9687119 0.30941,1.3627011 0.16952,0.2152762 0.14589,0.2723241 -0.29948,0.7228125 -0.36885,0.3730937 -0.39892,0.3960981 -0.51773,0.3960981 -0.0803,0 -0.18589,-0.033987 -0.29055,-0.09352 -0.25982,-0.1477885 -0.50737,-0.2064055 -0.78878,-0.1867749 -0.32666,0.022787 -0.47248,0.088675 -0.62066,0.2804445 -0.20069,0.2597342 -0.26076,0.4268894 -0.26786,0.7452904 -0.005,0.232758 -0.0186,0.297724 -0.0793,0.38521 -0.20059,0.288848 -0.80695,1.084309 -0.82654,1.084309 -0.0123,0 -0.37598,-0.253577 -0.80813,-0.563506 z"
       id="path12" /></g></svg>
