<?xml version="1.0" encoding="UTF-8" standalone="no"?>
<!-- Created with Inkscape (http://www.inkscape.org/) -->

<svg
   width="24.556438mm"
   height="9.8941507mm"
   viewBox="0 0 24.556438 9.8941507"
   version="1.1"
   id="svg1"
   xml:space="preserve"
   inkscape:version="1.3.2 (091e20e, 2023-11-25, custom)"
   sodipodi:docname="icons.svg"
   xmlns:inkscape="http://www.inkscape.org/namespaces/inkscape"
   xmlns:sodipodi="http://sodipodi.sourceforge.net/DTD/sodipodi-0.dtd"
   xmlns="http://www.w3.org/2000/svg"
   xmlns:svg="http://www.w3.org/2000/svg"><sodipodi:namedview
     id="namedview1"
     pagecolor="#ffffff"
     bordercolor="#000000"
     borderopacity="0.25"
     inkscape:showpageshadow="2"
     inkscape:pageopacity="0.0"
     inkscape:pagecheckerboard="0"
     inkscape:deskcolor="#d1d1d1"
     inkscape:document-units="mm"
     inkscape:zoom="1.1420735"
     inkscape:cx="396.64698"
     inkscape:cy="181.68708"
     inkscape:window-width="1600"
     inkscape:window-height="837"
     inkscape:window-x="-8"
     inkscape:window-y="-8"
     inkscape:window-maximized="1"
     inkscape:current-layer="layer1" /><defs
     id="defs1" /><g
     inkscape:label="Camada 1"
     inkscape:groupmode="layer"
     id="layer1"
     transform="translate(-87.454226,-4.1722692)"><path
       style="fill:#000000;stroke-width:0.481445"
       d="m 99.272694,13.832361 c -1.497795,-0.239921 -3.034072,-0.534736 -5.278396,-1.012937 -1.41657,-0.301831 -1.799868,-0.276818 -3.246307,0.211845 -0.717046,0.242246 -1.07993,0.299244 -1.502119,0.235933 -1.099351,-0.164858 -1.947393,-1.372271 -1.767486,-2.516474 0.219837,-1.3981231 2.686497,-3.8840971 4.867651,-4.9057608 l 0.748609,-0.3506539 h 5.583974 5.58397 l 0.30746,0.3574047 c 0.42437,0.4933022 0.42201,1.2592954 -0.005,1.6865034 l -0.31266,0.3126654 h -3.19873 c -3.273496,0 -3.691497,0.055968 -3.691497,0.4942691 0,0.5102851 0.513717,0.7314004 2.738717,1.1788002 1.88857,0.3797504 3.41485,0.3791703 4.58577,-0.00173 1.34362,-0.4370964 3.30737,-1.4687825 4.53671,-2.3834349 0.92522,-0.6883771 1.17826,-0.8164795 1.61281,-0.8164795 0.41915,0 0.57699,0.073193 0.84518,0.3919209 0.78099,0.9281464 0.28739,1.6456279 -2.72739,3.9645134 -2.26931,1.745484 -4.04622,2.711633 -5.82284,3.166016 -1.16825,0.298788 -1.93089,0.296339 -3.858221,-0.01239 z m 0.358263,-9.635197 c 0.09195,-0.036797 0.201817,-0.032271 0.244145,0.010057 0.04232,0.042329 -0.03293,0.072434 -0.167186,0.066904 -0.148396,-0.00611 -0.178578,-0.036296 -0.07696,-0.076961 z"
       id="path4" /></g></svg>
