<?xml version="1.0" encoding="UTF-8" standalone="no"?>
<!-- Created with Inkscape (http://www.inkscape.org/) -->

<svg
   width="17.535254mm"
   height="15.521931mm"
   viewBox="0 0 17.535254 15.521931"
   version="1.1"
   id="svg1"
   xml:space="preserve"
   inkscape:version="1.3.2 (091e20e, 2023-11-25, custom)"
   sodipodi:docname="icons.svg"
   xmlns:inkscape="http://www.inkscape.org/namespaces/inkscape"
   xmlns:sodipodi="http://sodipodi.sourceforge.net/DTD/sodipodi-0.dtd"
   xmlns="http://www.w3.org/2000/svg"
   xmlns:svg="http://www.w3.org/2000/svg"><sodipodi:namedview
     id="namedview1"
     pagecolor="#ffffff"
     bordercolor="#000000"
     borderopacity="0.25"
     inkscape:showpageshadow="2"
     inkscape:pageopacity="0.0"
     inkscape:pagecheckerboard="0"
     inkscape:deskcolor="#d1d1d1"
     inkscape:document-units="mm"
     inkscape:zoom="1.6151358"
     inkscape:cx="160.97718"
     inkscape:cy="116.70845"
     inkscape:window-width="1600"
     inkscape:window-height="837"
     inkscape:window-x="-8"
     inkscape:window-y="-8"
     inkscape:window-maximized="1"
     inkscape:current-layer="layer1" /><defs
     id="defs1" /><g
     inkscape:label="Camada 1"
     inkscape:groupmode="layer"
     id="layer1"
     transform="translate(-40.382768,-20.811071)"><path
       style="fill:#000000;stroke-width:0.986961"
       d="m 49.041252,36.316275 c -0.314426,-0.0937 -3.067642,-2.053056 -4.260602,-3.032092 -1.125322,-0.923537 -2.209064,-1.966007 -2.762433,-2.657238 -1.145457,-1.430814 -1.708824,-3.097303 -1.627794,-4.815101 0.03563,-0.755182 0.124614,-1.247711 0.329448,-1.823407 0.641316,-1.802449 2.290685,-3.005679 4.331908,-3.160187 0.859287,-0.06504 1.674141,0.0552 2.373788,0.35027 0.569279,0.240096 1.257181,0.77528 1.58724,1.234883 0.06317,0.08789 0.123726,0.159482 0.134661,0.159075 0.011,-4.06e-4 0.08162,-0.08724 0.156976,-0.192949 0.268316,-0.376204 0.852665,-0.855809 1.346086,-1.104805 0.883843,-0.446007 2.17763,-0.581966 3.307137,-0.347533 1.729145,0.358892 3.062175,1.48525 3.622916,3.061246 0.373633,1.050107 0.439661,2.330857 0.184709,3.583094 -0.212166,1.042135 -0.727103,2.106828 -1.470739,3.040908 -0.562074,0.706033 -1.577686,1.690347 -2.689072,2.606207 -0.974634,0.803169 -2.535966,1.943215 -3.694747,2.697814 -0.637123,0.414889 -0.708598,0.447759 -0.869482,0.399815 z"
       id="path8" /></g></svg>
