<?xml version="1.0" encoding="UTF-8" standalone="no"?>
<!-- Created with Inkscape (http://www.inkscape.org/) -->

<svg
   width="9.6651917mm"
   height="11.170146mm"
   viewBox="0 0 9.6651917 11.170146"
   version="1.1"
   id="svg1"
   xml:space="preserve"
   xmlns:inkscape="http://www.inkscape.org/namespaces/inkscape"
   xmlns:sodipodi="http://sodipodi.sourceforge.net/DTD/sodipodi-0.dtd"
   xmlns="http://www.w3.org/2000/svg"
   xmlns:svg="http://www.w3.org/2000/svg"><sodipodi:namedview
     id="namedview1"
     pagecolor="#ffffff"
     bordercolor="#000000"
     borderopacity="0.25"
     inkscape:showpageshadow="2"
     inkscape:pageopacity="0.0"
     inkscape:pagecheckerboard="0"
     inkscape:deskcolor="#d1d1d1"
     inkscape:document-units="mm" /><defs
     id="defs1" /><g
     inkscape:label="Camada 1"
     inkscape:groupmode="layer"
     id="layer1"
     transform="translate(-7.6266043,-23.695682)"><path
       id="path3"
       style="fill:#000000;stroke-width:0.9226"
       d="m 14.918469,23.696228 c -0.352967,0.0047 -0.438771,0.04066 -0.568441,0.154513 -0.183327,0.160963 -0.215481,0.23485 -0.239261,0.547253 l -0.02119,0.273368 -0.33693,-0.301273 C 13.563346,24.201043 13.312873,24.018847 13.182141,23.955127 12.908069,23.821574 12.54459,23.76697 12.239563,23.81405 c -0.442418,0.06829 -0.554565,0.150933 -2.3864177,1.751831 -0.9485244,0.828938 -1.7795287,1.569318 -1.8469156,1.645378 -0.067386,0.07606 -0.1772639,0.247282 -0.2439128,0.380855 L 7.641394,27.834993 7.631059,30.665312 c -0.010176,2.736675 -0.00823,2.838757 0.064079,3.076814 0.1620629,0.533554 0.5899001,0.933542 1.1456665,1.071253 h 5.168e-4 c 0.2297125,0.05691 1.7024017,0.069 1.8949757,0.0155 0.15939,-0.04428 0.309889,-0.192007 0.38964,-0.382923 0.04993,-0.119584 0.05839,-0.400563 0.05839,-1.977657 v -1.838647 h 1.274858 1.274341 l 10e-4,1.846399 c 7.6e-4,1.714965 0.0055,1.85749 0.06976,1.996777 0.08007,0.173495 0.203383,0.296597 0.353467,0.353467 0.142082,0.05383 1.614447,0.05223 1.87017,-0.0021 0.560676,-0.119056 1.031279,-0.543819 1.193209,-1.076937 0.07456,-0.24526 0.0764,-0.324548 0.06615,-3.080949 l -0.01085,-2.829801 -0.12299,-0.259933 c -0.09409,-0.198695 -0.193353,-0.327063 -0.420129,-0.543636 l -0.296623,-0.283703 -0.01137,-1.292945 c -0.01239,-1.443554 -0.01078,-1.433093 -0.280086,-1.638659 -0.136368,-0.104092 -0.142848,-0.104806 -0.77308,-0.117306 -0.188576,-0.0037 -0.336063,-0.0057 -0.453719,-0.0041 z" /></g></svg>
