<?xml version="1.0" encoding="UTF-8" standalone="no"?>
<!-- Created with Inkscape (http://www.inkscape.org/) -->

<svg
   width="17.240173mm"
   height="17.236479mm"
   viewBox="0 0 17.240173 17.236479"
   version="1.1"
   id="svg1"
   xml:space="preserve"
   inkscape:version="1.3.2 (091e20e, 2023-11-25, custom)"
   sodipodi:docname="icons.svg"
   xmlns:inkscape="http://www.inkscape.org/namespaces/inkscape"
   xmlns:sodipodi="http://sodipodi.sourceforge.net/DTD/sodipodi-0.dtd"
   xmlns="http://www.w3.org/2000/svg"
   xmlns:svg="http://www.w3.org/2000/svg"><sodipodi:namedview
     id="namedview1"
     pagecolor="#ffffff"
     bordercolor="#000000"
     borderopacity="0.25"
     inkscape:showpageshadow="2"
     inkscape:pageopacity="0.0"
     inkscape:pagecheckerboard="0"
     inkscape:deskcolor="#d1d1d1"
     inkscape:document-units="mm"
     inkscape:zoom="1.6151358"
     inkscape:cx="160.97718"
     inkscape:cy="116.70845"
     inkscape:window-width="1600"
     inkscape:window-height="837"
     inkscape:window-x="-8"
     inkscape:window-y="-8"
     inkscape:window-maximized="1"
     inkscape:current-layer="layer1" /><defs
     id="defs1" /><g
     inkscape:label="Camada 1"
     inkscape:groupmode="layer"
     id="layer1"
     transform="translate(-60.654176,-20.807775)"><path
       style="fill:#000000;stroke-width:0.948963"
       d="m 68.683784,38.036932 c -0.83171,-0.08006 -1.367108,-0.180342 -1.973857,-0.369697 -2.288257,-0.714118 -4.198305,-2.367231 -5.226204,-4.523196 -0.154284,-0.323596 -0.268633,-0.605804 -0.438062,-1.081089 -0.120879,-0.339082 -0.29788,-1.168501 -0.357323,-1.674378 -0.04555,-0.387827 -0.04555,-1.545195 0,-1.933022 0.443299,-3.772787 3.253592,-6.80516 6.960875,-7.510949 0.615223,-0.117126 0.860825,-0.137694 1.633538,-0.136798 0.781464,8.82e-4 1.081308,0.02881 1.730666,0.161064 2.631185,0.53588 4.893356,2.312173 6.051349,4.751621 0.534115,1.125158 0.791455,2.214341 0.826349,3.497381 0.06443,2.368181 -0.835544,4.617785 -2.521969,6.304203 -1.362419,1.362419 -3.054054,2.196194 -4.999147,2.463988 -0.281111,0.0387 -1.44718,0.07389 -1.686215,0.05087 z m 1.695857,-1.12447 c 3.47604,-0.53419 6.113659,-3.32775 6.429635,-6.80976 0.250318,-2.758583 -1.043994,-5.458704 -3.347387,-6.983124 -1.211088,-0.801517 -2.518041,-1.216263 -3.964368,-1.258043 -1.290601,-0.03729 -2.407229,0.203071 -3.563524,0.767046 -0.752557,0.36705 -1.387804,0.819408 -1.989078,1.416412 -1.194983,1.186503 -1.915675,2.621311 -2.181195,4.342493 -0.06842,0.443537 -0.06851,1.594357 -1.71e-4,2.055538 0.360237,2.430802 1.741673,4.437128 3.86854,5.618459 0.895956,0.497647 1.861471,0.788832 3.024465,0.912139 0.292082,0.03097 1.373323,-0.0074 1.723083,-0.06116 z m -2.267599,-0.740383 c -1.614758,-0.287082 -2.987739,-1.072254 -4.060269,-2.321967 -0.682552,-0.7953 -1.160385,-1.720943 -1.425146,-2.760745 -0.09786,-0.384344 -0.18556,-0.977045 -0.149319,-1.009145 0.01442,-0.01278 0.409022,-0.16304 0.876852,-0.333898 0.467831,-0.170857 0.850691,-0.31713 0.850804,-0.325049 1.04e-4,-0.0078 -0.295555,-0.122301 -0.657025,-0.254181 -1.152784,-0.420579 -1.085245,-0.390122 -1.085037,-0.489316 2.76e-4,-0.129916 0.09784,-0.670325 0.174895,-0.968715 0.478448,-1.852727 1.726735,-3.434128 3.427395,-4.341992 0.712587,-0.380402 1.816868,-0.721091 2.378627,-0.733846 l 0.174695,-0.004 0.156465,0.421998 c 0.08607,0.232099 0.229375,0.621006 0.318502,0.864238 0.08911,0.243231 0.168166,0.442238 0.175653,0.442238 0.0076,0 0.08655,-0.199007 0.175663,-0.442238 0.495958,-1.353555 0.467251,-1.285474 0.546082,-1.295081 0.101757,-0.0124 0.567785,0.06662 0.939019,0.159226 2.641947,0.659025 4.651741,2.834833 5.091937,5.512557 0.02951,0.179689 0.05371,0.359328 0.05371,0.399195 9e-6,0.08292 0.0427,0.06419 -1.085209,0.475703 -0.361479,0.13188 -0.657148,0.246262 -0.657044,0.254181 9.6e-5,0.0078 0.389086,0.157055 0.864413,0.331413 0.80959,0.29697 0.864772,0.321429 0.872743,0.386841 0.01149,0.09433 -0.09157,0.694573 -0.173186,1.00853 -0.565042,2.174001 -2.180816,3.944345 -4.303223,4.714893 -0.486345,0.176567 -1.436724,0.388534 -1.61771,0.360801 -0.06083,-0.0093 -0.05694,2.1e-5 -0.531534,-1.295123 -0.08911,-0.243232 -0.168176,-0.442239 -0.175663,-0.442239 -0.0076,0 -0.08655,0.199007 -0.175653,0.442239 -0.08911,0.243231 -0.232136,0.632137 -0.317809,0.864236 l -0.155772,0.421999 -0.104187,0.0052 c -0.05732,0.0028 -0.238949,-0.01873 -0.403671,-0.04802 z m -2.436694,-3.00717 c 0.172208,-0.101709 0.502998,-0.297919 0.735096,-0.436024 0.232097,-0.138103 0.893678,-0.52974 1.470184,-0.870303 1.046907,-0.618447 1.271869,-0.751465 2.014699,-1.191228 0.292376,-0.17309 0.408264,-0.257213 0.446773,-0.324311 0.05552,-0.09677 0.168062,-0.287126 1.797368,-3.04093 0.579115,-0.978794 1.047648,-1.784913 1.041185,-1.791376 -0.01272,-0.01268 -0.280656,0.143759 -2.550229,1.488712 -0.816091,0.483615 -1.612443,0.955169 -1.769677,1.047895 -0.673385,0.39714 -0.573697,0.30424 -0.87896,0.819055 -0.150135,0.253205 -0.348782,0.589013 -0.44142,0.746242 -0.424291,0.720123 -1.343222,2.273979 -1.497372,2.531986 -0.142876,0.239126 -0.668811,1.127393 -0.715804,1.208942 -0.0076,0.01354 -0.0028,0.01825 0.01044,0.01045 0.01357,-0.0078 0.165518,-0.0974 0.337718,-0.199105 z m 3.349342,-3.061017 c -0.268984,-0.09285 -0.490643,-0.400882 -0.490643,-0.681831 0,-0.371312 0.363776,-0.735093 0.735087,-0.735093 0.159065,0 0.360312,0.08546 0.49256,0.209162 0.313036,0.292808 0.319365,0.729108 0.01499,1.033482 -0.217294,0.21729 -0.462649,0.274154 -0.751999,0.17428 z"
       id="path10" /></g></svg>
