<?xml version="1.0" encoding="UTF-8" standalone="no"?>
<!-- Created with Inkscape (http://www.inkscape.org/) -->

<svg
   width="210mm"
   height="297mm"
   viewBox="0 0 210 297"
   version="1.1"
   id="svg1"
   xml:space="preserve"
   inkscape:version="1.3.2 (091e20e, 2023-11-25, custom)"
   sodipodi:docname="icons.svg"
   xmlns:inkscape="http://www.inkscape.org/namespaces/inkscape"
   xmlns:sodipodi="http://sodipodi.sourceforge.net/DTD/sodipodi-0.dtd"
   xmlns="http://www.w3.org/2000/svg"
   xmlns:svg="http://www.w3.org/2000/svg"><sodipodi:namedview
     id="namedview1"
     pagecolor="#ffffff"
     bordercolor="#000000"
     borderopacity="0.25"
     inkscape:showpageshadow="2"
     inkscape:pageopacity="0.0"
     inkscape:pagecheckerboard="0"
     inkscape:deskcolor="#d1d1d1"
     inkscape:document-units="mm"
     inkscape:zoom="1.0791607"
     inkscape:cx="656.52873"
     inkscape:cy="134.827"
     inkscape:window-width="1600"
     inkscape:window-height="837"
     inkscape:window-x="-8"
     inkscape:window-y="-8"
     inkscape:window-maximized="1"
     inkscape:current-layer="layer1"
     showgrid="false" /><defs
     id="defs1"><filter
       inkscape:collect="always"
       style="color-interpolation-filters:sRGB"
       id="filter17"
       x="-0.090269795"
       y="-0.058971876"
       width="1.1805396"
       height="1.1179438"><feGaussianBlur
         inkscape:collect="always"
         stdDeviation="0.58360046"
         id="feGaussianBlur17" /></filter></defs><g
     inkscape:label="Camada 1"
     inkscape:groupmode="layer"
     id="layer1"><path
       style="fill:#000000"
       d="m 5.6068276,18.194699 c 0.06903,0.256399 0.124492,0.338901 0.4589,0.682614 0.4167477,0.428345 0.5963729,0.522053 1.0007019,0.522053 0.51194,0 0.267158,0.207504 3.1482875,-2.668829 2.936212,-2.931325 2.730507,-2.685993 2.730507,-3.256511 0,-0.569207 0.201626,-0.328153 -2.699104,-3.226919 C 8.1815635,8.1839499 7.6891025,7.7072449 7.5492685,7.6365369 c -0.1509,-0.0763 -0.205915,-0.08658 -0.466562,-0.08718 -0.256445,-5.84e-4 -0.319025,0.01036 -0.4736112,0.08281 -0.205347,0.09624 -0.7128867,0.567705 -0.8630297,0.801681 -0.140531,0.218999 -0.2067677,0.522438 -0.165899,0.760001 0.06909,0.401584 0.02826,0.354181 2.0588559,2.3905951 l 1.884175,1.889574 -1.868641,1.874026 c -1.027753,1.030716 -1.8982669,1.923822 -1.9344759,1.98468 -0.07997,0.134412 -0.1622217,0.43774 -0.1594287,0.587951 0.0011,0.06056 0.02191,0.183867 0.04618,0.27402 z"
       id="path1"
       inkscape:export-filename="styled-arrow-icon.svg"
       inkscape:export-xdpi="96"
       inkscape:export-ydpi="96" /><path
       style="fill:#000000;stroke-width:0.576509"
       d="m 28.983165,19.358575 c -0.141142,-0.06605 -0.280501,-0.22346 -0.318286,-0.359525 -0.01606,-0.05784 -0.02928,-0.252395 -0.02936,-0.432333 l -1.56e-4,-0.327159 h -2.963946 c -2.080174,0 -3.007245,-0.0093 -3.109159,-0.03114 -0.205861,-0.04415 -0.394925,-0.233706 -0.439253,-0.440396 -0.05861,-0.273268 0.06453,-0.531921 0.311905,-0.655195 l 0.141536,-0.07053 h 3.029459 3.029458 v -0.356498 c 0,-0.327614 0.0058,-0.368202 0.072,-0.50099 0.123691,-0.248215 0.372555,-0.36704 0.648667,-0.30972 0.121953,0.02531 0.176095,0.0566 0.283016,0.163521 0.194742,0.194742 0.197719,0.221504 0.187958,1.689766 l -0.0083,1.249033 -0.06961,0.124059 c -0.105025,0.187181 -0.268048,0.288947 -0.48087,0.300181 -0.126466,0.0067 -0.203681,-0.005 -0.28506,-0.04307 z m 2.467641,-1.15155 c -0.182395,-0.04169 -0.376432,-0.245513 -0.417929,-0.439005 -0.05861,-0.273269 0.06453,-0.531922 0.311905,-0.655196 l 0.141535,-0.07053 h 0.986703 c 0.700048,0 1.019997,0.0099 1.101306,0.03424 0.158647,0.0474 0.331255,0.226387 0.377456,0.391401 0.07681,0.274351 -0.04377,0.559715 -0.290117,0.686566 l -0.138141,0.07113 -0.975345,0.0046 c -0.569894,0.0027 -1.026071,-0.007 -1.097373,-0.02325 z M 27.24348,15.223691 c -0.133136,-0.0424 -0.314154,-0.230783 -0.35585,-0.370331 -0.04865,-0.162831 -0.04865,-2.587199 0,-2.750031 0.06763,-0.226346 0.326388,-0.406959 0.583035,-0.406959 0.140208,0 0.366691,0.123291 0.449236,0.244551 0.102396,0.150421 0.130421,0.287569 0.130595,0.639115 l 1.55e-4,0.312878 3.072117,0.0073 3.072117,0.0073 0.112151,0.07773 c 0.154096,0.106795 0.25896,0.306456 0.25896,0.493063 0,0.186607 -0.104864,0.386268 -0.25896,0.493064 l -0.112151,0.07772 -3.072117,0.0073 -3.072117,0.0073 -1.55e-4,0.312878 c -8.6e-5,0.172083 -0.01365,0.362996 -0.03015,0.424251 -0.09311,0.345728 -0.434845,0.531707 -0.776865,0.422788 z m -4.760667,-1.191218 c -0.439357,-0.177882 -0.505516,-0.767211 -0.116768,-1.040151 l 0.120733,-0.08477 h 1.39911 1.399111 l 0.112158,0.07773 c 0.339796,0.235479 0.339811,0.750598 2.8e-5,0.986127 l -0.11213,0.07772 -1.366733,0.0056 c -0.860268,0.0035 -1.392219,-0.0047 -1.435509,-0.02225 z m 6.579659,-2.96014 c -0.17496,-0.05566 -0.275524,-0.140749 -0.355106,-0.300451 -0.06617,-0.132787 -0.072,-0.173376 -0.072,-0.50099 V 9.9143951 h -3.029459 -3.029458 l -0.141536,-0.07053 C 22.18753,9.7205906 22.064398,9.4619373 22.123004,9.188669 c 0.04433,-0.2066895 0.233392,-0.3962464 0.439252,-0.4403954 0.101914,-0.021856 1.028985,-0.031143 3.109159,-0.031143 h 2.963947 l 1.55e-4,-0.3271598 c 1.85e-4,-0.3910566 0.02775,-0.5050781 0.156606,-0.6477019 0.271278,-0.300272 0.757303,-0.2429053 0.956973,0.1129538 l 0.06961,0.124059 0.0083,1.2490334 c 0.0055,0.8271039 -0.002,1.2985299 -0.02211,1.3955569 -0.06976,0.33605 -0.423717,0.549856 -0.74242,0.448461 z m 2.28231,-1.228468 C 31.097403,9.7205906 30.974271,9.4619373 31.032877,9.188669 c 0.02495,-0.1163511 0.05869,-0.1739017 0.163208,-0.2784211 0.189261,-0.1892611 0.250632,-0.1975772 1.384084,-0.1875448 l 0.943364,0.00835 0.138137,0.071133 c 0.246343,0.1268528 0.366925,0.4122174 0.290112,0.6865655 -0.0462,0.1650137 -0.218809,0.3439985 -0.377456,0.3914009 -0.08131,0.024294 -0.401258,0.034245 -1.101306,0.034245 h -0.986703 z"
       id="path2"
       inkscape:export-filename="settings-icon.svg"
       inkscape:export-xdpi="96"
       inkscape:export-ydpi="96" /><path
       style="fill:#000000;stroke-width:0.437941"
       d="M 58.010622,21.186109 C 57.777773,21.139939 57.596809,21.002803 57.4949,20.795274 57.42955,20.662197 57.42926,20.659533 57.42193,20.121829 l -0.0074,-0.539839 -0.272721,-0.01134 c -0.291988,-0.01214 -0.367774,-0.03412 -0.533739,-0.154762 -0.10176,-0.07397 -0.203376,-0.223618 -0.242343,-0.356893 -0.01382,-0.04727 -0.02241,-0.694286 -0.02188,-1.648246 8.32e-4,-1.487504 0.0032,-1.576611 0.04541,-1.68763 0.06793,-0.178764 0.18965,-0.311038 0.366227,-0.397967 0.139662,-0.06875 0.177701,-0.07653 0.419515,-0.08579 l 0.265927,-0.01018 v -2.257335 c 0,-2.155486 0.0021,-2.265303 0.04515,-2.433885 0.05425,-0.212115 0.128381,-0.364022 0.257126,-0.526897 0.09481,-0.1199473 0.341048,-0.3309464 0.386259,-0.3309853 0.01539,-1.36e-5 0.02107,0.5304093 0.01667,1.5579493 -0.0041,0.957744 0.0025,1.634403 0.01713,1.756362 0.05572,0.46443 0.368319,0.830184 0.80726,0.944513 0.115592,0.03011 0.347024,0.03578 1.460208,0.03578 h 1.322845 l 0.0089,0.241663 c 0.0083,0.223067 0.0141,0.248401 0.07574,0.32924 0.10603,0.139008 0.164762,0.152646 0.657385,0.152646 0.483929,0 0.551586,-0.01556 0.646593,-0.148754 0.0445,-0.06239 0.0532,-0.109376 0.05995,-0.323886 l 0.0079,-0.250909 1.334165,-5.69e-4 c 0.813904,-3.48e-4 1.374083,-0.0098 1.436525,-0.02417 0.161421,-0.03721 0.350642,-0.140313 0.488361,-0.266084 0.139957,-0.127815 0.212384,-0.23128 0.290797,-0.415422 0.05197,-0.122034 0.05212,-0.126631 0.06377,-1.868241 l 0.01165,-1.7459067 0.126385,0.094307 c 0.173315,0.1293266 0.339834,0.3315977 0.433557,0.5266507 0.154094,0.32068 0.15194,0.281849 0.15194,2.738562 v 2.215374 l 0.262576,0.01069 c 0.330654,0.01346 0.458673,0.06342 0.622857,0.243064 0.198676,0.217381 0.190351,0.127691 0.183002,1.9715 l -0.0064,1.620097 -0.05348,0.100164 c -0.07286,0.136448 -0.205372,0.263997 -0.344287,0.331384 -0.09674,0.04693 -0.160396,0.05769 -0.388112,0.0656 l -0.272395,0.0095 -0.0088,0.540258 c -0.0075,0.457799 -0.01528,0.554508 -0.05096,0.63362 -0.07413,0.164376 -0.191337,0.284255 -0.358289,0.366447 l -0.156437,0.07702 -0.437406,0.0083 -0.437402,0.0083 -0.0066,-1.362075 -0.0066,-1.362074 -0.07242,-0.152818 c -0.121752,-0.256933 -0.295838,-0.417277 -0.564003,-0.519489 l -0.133808,-0.051 -2.730816,-0.0068 c -1.84497,-0.0046 -2.782832,0.0013 -2.891176,0.01803 -0.333301,0.05156 -0.585065,0.234436 -0.732032,0.531743 l -0.0879,0.177811 -0.0066,1.360818 -0.0066,1.360818 -0.378561,-0.0025 c -0.208208,-0.0014 -0.421552,-0.01108 -0.474098,-0.0215 z m 1.600986,-1.261455 v -1.285511 l 0.06823,-0.06822 0.06822,-0.06823 h 2.742979 2.742977 l 0.06549,0.05632 0.06549,0.05632 0.0064,1.297418 0.0064,1.297417 h -2.883096 -2.8831 z m -0.477502,-6.690551 c -0.07636,-0.0194 -0.149381,-0.07715 -0.198955,-0.157362 -0.04614,-0.07466 -0.04709,-0.111804 -0.04712,-1.847302 l -2.8e-5,-1.7711068 0.423776,0.00688 c 0.233076,0.00377 0.432492,-0.00184 0.443147,-0.01249 0.01065,-0.010655 0.0302,-0.1240336 0.04344,-0.2519536 0.09801,-0.9470169 0.645797,-1.7453665 1.481185,-2.1586829 0.794767,-0.3932183 1.679701,-0.3878185 2.463286,0.01503 0.814505,0.4187434 1.372398,1.2671067 1.443011,2.1943174 l 0.01577,0.2068994 h 0.449319 0.449323 l -2.2e-5,1.7645755 -1.8e-5,1.764574 -0.05252,0.07716 c -0.0289,0.04244 -0.08216,0.09913 -0.118397,0.125989 -0.06478,0.04801 -0.08803,0.04893 -1.394579,0.05522 l -1.328704,0.0064 v -0.237039 c 0,-0.27759 -0.03757,-0.364859 -0.19078,-0.443015 -0.08547,-0.0436 -0.128619,-0.04674 -0.551981,-0.04012 -0.437617,0.0068 -0.462855,0.0097 -0.53547,0.06154 -0.119628,0.08533 -0.153323,0.173423 -0.164438,0.429955 l -0.0099,0.227568 -1.286835,-0.0027 c -0.70776,-0.0015 -1.307404,-0.0079 -1.332543,-0.01432 z m 4.982179,-3.8467755 c 0,-0.174759 -0.07326,-0.4464194 -0.178505,-0.6619634 C 63.85235,8.5504028 63.794486,8.4694805 63.652519,8.3264284 63.332507,8.0039704 63.003547,7.8590649 62.552486,7.8418652 c -0.328224,-0.012516 -0.511305,0.024971 -0.793571,0.1624927 -0.16213,0.078989 -0.236948,0.1353811 -0.40933,0.3085101 -0.1699,0.1706367 -0.229911,0.2504501 -0.308468,0.4102455 -0.05364,0.1091156 -0.113488,0.2666627 -0.13299,0.350104 -0.03688,0.1578247 -0.04749,0.3543169 -0.02058,0.3812249 0.0085,0.00856 0.738526,0.01556 1.62215,0.01556 h 1.606591 z"
       id="path5"
       inkscape:export-filename="inventory-icon.svg"
       inkscape:export-xdpi="96"
       inkscape:export-ydpi="96" /><path
       style="fill:#000000;stroke-width:0.592314"
       d="m 40.109034,20.249316 c -0.177155,-0.06425 -0.301055,-0.257815 -0.282166,-0.440825 0.01996,-0.193349 0.146159,-0.338168 0.334337,-0.383656 0.05917,-0.0143 0.6766,-0.01895 2.031151,-0.01527 l 1.946118,0.0053 0.0053,0.429847 0.0053,0.429847 -1.988989,-0.0014 c -1.480364,-0.0011 -2.004745,-0.0071 -2.050608,-0.02378 z m 4.901859,0.01276 c -0.02209,-0.02208 -0.01487,-2.564059 0.0075,-2.668649 0.02802,-0.130647 0.10709,-0.232267 0.227354,-0.292198 l 0.09991,-0.04979 h 0.956196 0.956196 l 0.09991,0.04979 c 0.121662,0.06063 0.200356,0.162979 0.227899,0.296416 0.01344,0.06525 0.01854,0.525567 0.01522,1.382632 l -0.0047,1.284818 -1.286263,0.0049 c -0.707442,0.0027 -1.29199,-8.88e-4 -1.298991,-0.0079 z m 3.449315,-0.417381 0.0053,-0.429847 1.946118,-0.0053 c 1.35455,-0.0037 1.971966,9.48e-4 2.03115,0.01527 0.187438,0.04531 0.314389,0.19041 0.334154,0.381928 0.01955,0.189222 -0.114068,0.392028 -0.293693,0.445846 -0.05354,0.01603 -0.604574,0.02193 -2.050537,0.02193 h -1.97735 z m -7.76996,-3.556768 c 0,-1.247084 0.0024,-2.267425 0.0059,-2.267425 0.003,0 0.08169,0.02562 0.174324,0.05693 0.311279,0.105219 0.544947,0.140469 0.915646,0.138128 0.275254,-0.0017 0.367057,-0.0099 0.547938,-0.04885 0.261838,-0.05635 0.577494,-0.172789 0.781036,-0.28811 0.08236,-0.04666 0.157935,-0.08483 0.167963,-0.08483 0.01001,0 0.04294,0.01759 0.07312,0.03909 0.1709,0.12169 0.631697,0.292742 0.94416,0.350479 0.2434,0.04497 0.735802,0.04501 0.981251,7e-5 0.300581,-0.05503 0.65748,-0.187164 0.931585,-0.344889 0.08875,-0.05107 0.09192,-0.05149 0.141705,-0.0189 0.206463,0.135175 0.622415,0.293402 0.933996,0.355288 0.273933,0.05441 0.74269,0.05841 1.015812,0.0087 0.307133,-0.05593 0.681907,-0.196109 0.949444,-0.355124 l 0.07085,-0.04211 0.07086,0.04281 c 0.122816,0.07421 0.367003,0.18565 0.538247,0.245645 0.552362,0.19352 1.253437,0.194211 1.798661,0.0018 0.08737,-0.03084 0.163781,-0.05607 0.169805,-0.05607 0.006,0 0.01096,1.020341 0.01096,2.267426 v 2.267425 l -1.724113,-0.0048 -1.724113,-0.0048 -0.0099,-0.566832 c -0.0092,-0.529527 -0.01273,-0.574913 -0.05337,-0.689645 -0.113671,-0.320847 -0.355827,-0.606673 -0.635813,-0.750462 -0.292325,-0.150126 -0.261388,-0.147021 -1.464313,-0.147021 -0.978638,0 -1.077762,0.0029 -1.190349,0.0347 -0.418926,0.118354 -0.760957,0.442716 -0.909776,0.862786 -0.04063,0.114731 -0.04419,0.160117 -0.05337,0.689645 l -0.0099,0.566831 -1.724113,0.0048 -1.724113,0.0048 z m 0.683092,-2.968488 c -0.626496,-0.131522 -1.148437,-0.559908 -1.398684,-1.147978 -0.119262,-0.28027 -0.138909,-0.402282 -0.148736,-0.923712 l -0.009,-0.477083 h 6.482862 6.482857 v 0.385967 c 0,0.457636 -0.01895,0.617572 -0.103241,0.870509 -0.216176,0.648828 -0.746949,1.130772 -1.417756,1.28733 -0.231322,0.05399 -0.662053,0.04956 -0.888038,-0.0091 -0.33355,-0.08662 -0.63996,-0.259809 -0.901146,-0.509343 l -0.148289,-0.141673 -0.146035,0.140663 c -0.250294,0.241091 -0.438863,0.357517 -0.7423,0.458313 -0.25656,0.08522 -0.460873,0.113585 -0.724044,0.100503 -0.480372,-0.02388 -0.94525,-0.232429 -1.283568,-0.575827 l -0.128721,-0.130651 -0.124102,0.128549 c -0.551995,0.571769 -1.41897,0.739786 -2.166447,0.419853 -0.205929,-0.08814 -0.388925,-0.213284 -0.57532,-0.39344 l -0.156886,-0.151634 -0.145425,0.142861 c -0.470575,0.462289 -1.126456,0.658502 -1.757999,0.52592 z M 40.035013,9.811776 c 0.542151,-1.0936327 0.953643,-1.9000726 1.005713,-1.9710075 0.15303,-0.2084678 0.412618,-0.3906754 0.688713,-0.4834198 0.09969,-0.033489 0.282314,-0.035118 4.487416,-0.040129 3.021416,-0.00361 4.424104,0.00101 4.514189,0.014832 0.322142,0.049423 0.633717,0.2413104 0.836022,0.5148747 0.04679,0.06328 0.945575,1.8225974 1.042389,2.0404267 0.0036,0.00779 -2.834375,0.014168 -6.306317,0.014168 h -6.31262 z"
       id="path6"
       inkscape:export-filename="market-icon.svg"
       inkscape:export-xdpi="96"
       inkscape:export-ydpi="96" /><path
       style="fill:#000000;stroke-width:1.29409"
       d="M 5.8222546,40.367611 C 5.612243,40.311047 5.4471183,40.212463 5.2763009,40.041645 5.027389,39.792735 4.912708,39.518641 4.912708,39.172644 c 0,-0.346264 0.1117706,-0.611686 0.3657903,-0.868642 0.2538437,-0.256778 0.5694918,-0.378058 0.9375015,-0.36021 l 0.1744745,0.0084 0.4894989,-0.549176 C 7.1491972,37.10097 7.5664716,36.634171 7.8072488,36.365684 8.0480261,36.097199 8.3411881,35.767972 8.4587187,35.63407 l 0.213692,-0.243447 -0.6360198,-0.636358 -0.6360185,-0.636359 0.287758,-0.280581 c 0.357204,-0.348296 0.4924675,-0.402742 0.7270978,-0.292673 0.138161,0.06481 3.3155488,3.249852 3.3674298,3.375538 0.09487,0.229813 0.03996,0.358782 -0.302087,0.709577 L 11.19999,37.917525 10.563652,37.281526 9.9273138,36.645527 9.6716312,36.868744 c -0.1406262,0.122771 -0.5632206,0.499448 -0.939101,0.837064 -0.3758803,0.337616 -0.8366672,0.75013 -1.02397,0.916696 l -0.3405504,0.30285 0.00686,0.196941 c 0.012553,0.364813 -0.1052872,0.664444 -0.3608728,0.917103 -0.1801788,0.17812 -0.339836,0.273063 -0.5521937,0.328375 -0.1763962,0.04594 -0.468466,0.04585 -0.6394957,-2.11e-4 z m 4.4784494,-5.35056 C 9.9013168,34.617768 9.5745576,34.278377 9.5745718,34.262849 c 1.56e-5,-0.01553 0.085345,-0.125358 0.1896206,-0.244078 0.2022288,-0.230229 0.2195787,-0.250277 1.8977626,-2.192877 2.335528,-2.703518 3.621771,-4.191131 3.989461,-4.614037 l 0.382816,-0.440302 0.632719,-0.130061 c 0.347995,-0.07154 0.720587,-0.149403 0.827981,-0.173046 0.704354,-0.155058 1.674955,-0.346892 1.688185,-0.333662 0.01377,0.01377 -0.07286,0.462978 -0.238479,1.236683 -0.02731,0.127532 -0.128503,0.610257 -0.224903,1.072725 l -0.175267,0.840851 -0.475952,0.413106 c -0.261774,0.227207 -0.62423,0.541761 -0.805458,0.699008 -0.181228,0.157246 -0.823764,0.71263 -1.427856,1.234186 -0.604094,0.521556 -1.251353,1.080741 -1.438354,1.242632 -0.187001,0.16189 -0.511738,0.442624 -0.721637,0.623851 -0.764894,0.660415 -1.416457,1.223744 -1.999859,1.729043 -0.327969,0.284062 -0.608049,0.516401 -0.622398,0.516311 -0.01435,-9e-5 -0.352862,-0.32685 -0.75225,-0.726131 z"
       id="path7"
       inkscape:export-filename="sword-icon.svg"
       inkscape:export-xdpi="96"
       inkscape:export-ydpi="96" /><path
       d="M 31.643628,41.400604 C 29.315058,40.534697 27.260941,38.489 26.543497,36.321377 26.00706,34.700631 25.841385,33.423705 25.774431,30.393847 l -0.06256,-2.830746 1.141537,-9.2e-4 c 2.241902,-0.0018 3.530433,-0.399838 4.885427,-1.509123 l 0.700076,-0.573128 0.700078,0.573128 c 1.355194,1.10945 2.643468,1.507317 4.886457,1.509123 l 1.142569,9.2e-4 -0.06697,2.830746 c -0.09584,4.051043 -0.504065,5.977303 -1.623624,7.661362 -0.965472,1.452277 -2.733532,2.825039 -4.358661,3.384167 -0.394883,0.135858 -0.723087,0.244161 -0.729345,0.240672 -0.0063,-0.0035 -0.341863,-0.129239 -0.745791,-0.279444 z m 2.181562,-1.281539 c 0.970608,-0.511234 2.441816,-1.828136 2.976156,-2.664007 0.883367,-1.381854 1.332046,-3.617576 1.386545,-6.90902 l 0.03427,-2.069793 -1.278401,-0.07179 c -1.815905,-0.101972 -2.930065,-0.473884 -4.041364,-1.349032 l -0.449665,-0.35411 -0.58523,0.416321 c -1.316697,0.936669 -2.478686,1.293033 -4.225619,1.295935 l -1.083583,0.0018 0.08371,2.161106 c 0.131777,3.401888 0.57117,5.535428 1.408831,6.840811 0.537214,0.837176 1.900935,2.090178 2.856434,2.624524 1.387162,0.775746 1.581991,0.780903 2.917912,0.07725 z m -1.386272,-6.288724 c 0,-3.380017 0.02076,-6.145487 0.04613,-6.145487 0.02537,0 0.367799,0.19375 0.760954,0.430555 0.944559,0.568928 2.067504,0.905828 3.318755,0.995675 l 1.021145,0.07333 -0.08281,1.776587 c -0.141841,3.042771 -0.544081,4.923967 -1.309844,6.12588 -0.661301,1.03795 -2.240985,2.313753 -3.419501,2.761694 l -0.334819,0.12726 z"
       style="fill:#000000;stroke-width:0.460167"
       id="path1-2"
       inkscape:export-filename="shield-icon.svg"
       inkscape:export-xdpi="96"
       inkscape:export-ydpi="96" /><path
       style="fill:#000000;stroke-width:0.986961"
       d="m 51.983353,41.219777 c -0.314426,-0.0937 -3.067642,-2.053056 -4.260602,-3.032092 -1.125322,-0.923537 -2.209064,-1.966007 -2.762433,-2.657238 -1.145457,-1.430814 -1.708824,-3.097303 -1.627794,-4.815101 0.03563,-0.755182 0.124614,-1.247711 0.329448,-1.823407 0.641316,-1.802449 2.290685,-3.005679 4.331908,-3.160187 0.859287,-0.06504 1.674141,0.0552 2.373788,0.35027 0.569279,0.240096 1.257181,0.77528 1.58724,1.234883 0.06317,0.08789 0.123726,0.159482 0.134661,0.159075 0.011,-4.06e-4 0.08162,-0.08724 0.156976,-0.192949 0.268316,-0.376204 0.852665,-0.855809 1.346086,-1.104805 0.883843,-0.446007 2.17763,-0.581966 3.307137,-0.347533 1.729145,0.358892 3.062175,1.48525 3.622916,3.061246 0.373633,1.050107 0.439661,2.330857 0.184709,3.583094 -0.212166,1.042135 -0.727103,2.106828 -1.470739,3.040908 -0.562074,0.706033 -1.577686,1.690347 -2.689072,2.606207 -0.974634,0.803169 -2.535966,1.943215 -3.694747,2.697814 -0.637123,0.414889 -0.708598,0.447759 -0.869482,0.399815 z"
       id="path8"
       inkscape:export-filename="heart-icon.svg"
       inkscape:export-xdpi="96"
       inkscape:export-ydpi="96" /><path
       style="fill:#000000;stroke-width:0.948963"
       d="m 71.625885,42.940434 c -0.83171,-0.08006 -1.367108,-0.180342 -1.973857,-0.369697 -2.288257,-0.714118 -4.198305,-2.367231 -5.226204,-4.523196 -0.154284,-0.323596 -0.268633,-0.605804 -0.438062,-1.081089 -0.120879,-0.339082 -0.29788,-1.168501 -0.357323,-1.674378 -0.04555,-0.387827 -0.04555,-1.545195 0,-1.933022 0.443299,-3.772787 3.253592,-6.80516 6.960875,-7.510949 0.615223,-0.117126 0.860825,-0.137694 1.633538,-0.136798 0.781464,8.82e-4 1.081308,0.02881 1.730666,0.161064 2.631185,0.53588 4.893356,2.312173 6.051349,4.751621 0.534115,1.125158 0.791455,2.214341 0.826349,3.497381 0.06443,2.368181 -0.835544,4.617785 -2.521969,6.304203 -1.362419,1.362419 -3.054054,2.196194 -4.999147,2.463988 -0.281111,0.0387 -1.44718,0.07389 -1.686215,0.05087 z m 1.695857,-1.12447 c 3.47604,-0.53419 6.113659,-3.32775 6.429635,-6.80976 0.250318,-2.758583 -1.043994,-5.458704 -3.347387,-6.983124 -1.211088,-0.801517 -2.518041,-1.216263 -3.964368,-1.258043 -1.290601,-0.03729 -2.407229,0.203071 -3.563524,0.767046 -0.752557,0.36705 -1.387804,0.819408 -1.989078,1.416412 -1.194983,1.186503 -1.915675,2.621311 -2.181195,4.342493 -0.06842,0.443537 -0.06851,1.594357 -1.71e-4,2.055538 0.360237,2.430802 1.741673,4.437128 3.86854,5.618459 0.895956,0.497647 1.861471,0.788832 3.024465,0.912139 0.292082,0.03097 1.373323,-0.0074 1.723083,-0.06116 z m -2.267599,-0.740383 c -1.614758,-0.287082 -2.987739,-1.072254 -4.060269,-2.321967 -0.682552,-0.7953 -1.160385,-1.720943 -1.425146,-2.760745 -0.09786,-0.384344 -0.18556,-0.977045 -0.149319,-1.009145 0.01442,-0.01278 0.409022,-0.16304 0.876852,-0.333898 0.467831,-0.170857 0.850691,-0.31713 0.850804,-0.325049 1.04e-4,-0.0078 -0.295555,-0.122301 -0.657025,-0.254181 -1.152784,-0.420579 -1.085245,-0.390122 -1.085037,-0.489316 2.76e-4,-0.129916 0.09784,-0.670325 0.174895,-0.968715 0.478448,-1.852727 1.726735,-3.434128 3.427395,-4.341992 0.712587,-0.380402 1.816868,-0.721091 2.378627,-0.733846 l 0.174695,-0.004 0.156465,0.421998 c 0.08607,0.232099 0.229375,0.621006 0.318502,0.864238 0.08911,0.243231 0.168166,0.442238 0.175653,0.442238 0.0076,0 0.08655,-0.199007 0.175663,-0.442238 0.495958,-1.353555 0.467251,-1.285474 0.546082,-1.295081 0.101757,-0.0124 0.567785,0.06662 0.939019,0.159226 2.641947,0.659025 4.651741,2.834833 5.091937,5.512557 0.02951,0.179689 0.05371,0.359328 0.05371,0.399195 9e-6,0.08292 0.0427,0.06419 -1.085209,0.475703 -0.361479,0.13188 -0.657148,0.246262 -0.657044,0.254181 9.6e-5,0.0078 0.389086,0.157055 0.864413,0.331413 0.80959,0.29697 0.864772,0.321429 0.872743,0.386841 0.01149,0.09433 -0.09157,0.694573 -0.173186,1.00853 -0.565042,2.174001 -2.180816,3.944345 -4.303223,4.714893 -0.486345,0.176567 -1.436724,0.388534 -1.61771,0.360801 -0.06083,-0.0093 -0.05694,2.1e-5 -0.531534,-1.295123 -0.08911,-0.243232 -0.168176,-0.442239 -0.175663,-0.442239 -0.0076,0 -0.08655,0.199007 -0.175653,0.442239 -0.08911,0.243231 -0.232136,0.632137 -0.317809,0.864236 l -0.155772,0.421999 -0.104187,0.0052 c -0.05732,0.0028 -0.238949,-0.01873 -0.403671,-0.04802 z m -2.436694,-3.00717 c 0.172208,-0.101709 0.502998,-0.297919 0.735096,-0.436024 0.232097,-0.138103 0.893678,-0.52974 1.470184,-0.870303 1.046907,-0.618447 1.271869,-0.751465 2.014699,-1.191228 0.292376,-0.17309 0.408264,-0.257213 0.446773,-0.324311 0.05552,-0.09677 0.168062,-0.287126 1.797368,-3.04093 0.579115,-0.978794 1.047648,-1.784913 1.041185,-1.791376 -0.01272,-0.01268 -0.280656,0.143759 -2.550229,1.488712 -0.816091,0.483615 -1.612443,0.955169 -1.769677,1.047895 -0.673385,0.39714 -0.573697,0.30424 -0.87896,0.819055 -0.150135,0.253205 -0.348782,0.589013 -0.44142,0.746242 -0.424291,0.720123 -1.343222,2.273979 -1.497372,2.531986 -0.142876,0.239126 -0.668811,1.127393 -0.715804,1.208942 -0.0076,0.01354 -0.0028,0.01825 0.01044,0.01045 0.01357,-0.0078 0.165518,-0.0974 0.337718,-0.199105 z m 3.349342,-3.061017 c -0.268984,-0.09285 -0.490643,-0.400882 -0.490643,-0.681831 0,-0.371312 0.363776,-0.735093 0.735087,-0.735093 0.159065,0 0.360312,0.08546 0.49256,0.209162 0.313036,0.292808 0.319365,0.729108 0.01499,1.033482 -0.217294,0.21729 -0.462649,0.274154 -0.751999,0.17428 z"
       id="path10"
       inkscape:export-filename="home-icon.svg"
       inkscape:export-xdpi="96"
       inkscape:export-ydpi="96" /><path
       style="fill:#000000;stroke-width:0.687501"
       d="m 77.339538,21.340907 c -0.07179,-0.07179 -0.07953,-0.120747 -0.169393,-1.071695 -0.04249,-0.449411 -0.08834,-0.838227 -0.101957,-0.864037 -0.01361,-0.02581 -0.220839,-0.112455 -0.460529,-0.192546 -0.239684,-0.08009 -0.506338,-0.186954 -0.592558,-0.237475 -0.08623,-0.05052 -0.178008,-0.08371 -0.203961,-0.07375 -0.02599,0.01 -0.363867,0.266514 -0.750917,0.570121 -0.387049,0.303607 -0.743594,0.567172 -0.792324,0.585699 -0.05741,0.02182 -0.122025,0.01985 -0.183495,-0.0056 -0.05218,-0.02162 -0.410947,-0.355676 -0.79724,-0.742353 -0.696631,-0.697317 -0.702482,-0.704488 -0.717428,-0.879315 l -0.01506,-0.176265 0.58294,-0.741348 c 0.320616,-0.40774 0.582802,-0.742755 0.58263,-0.744477 -1.65e-4,-0.0017 -0.08078,-0.189227 -0.179149,-0.41668 -0.09837,-0.227451 -0.20755,-0.509354 -0.242627,-0.62645 -0.03506,-0.117096 -0.08334,-0.212902 -0.107257,-0.212902 -0.190108,0 -1.820744,-0.192864 -1.874672,-0.221727 -0.03795,-0.02029 -0.08451,-0.07783 -0.103531,-0.127847 -0.01904,-0.05002 -0.03458,-0.54872 -0.03458,-1.108223 v -1.017312 l 0.104294,-0.104295 c 0.05734,-0.05737 0.143158,-0.113273 0.190658,-0.124246 0.04751,-0.01097 0.468408,-0.05965 0.935346,-0.108183 0.466944,-0.04853 0.860882,-0.101669 0.87543,-0.118093 0.01457,-0.01642 0.06964,-0.171104 0.122423,-0.343733 0.0528,-0.172629 0.159617,-0.440482 0.237387,-0.595228 l 0.141401,-0.281358 -0.595308,-0.760701 C 72.674648,9.942283 72.594754,9.8228475 72.594754,9.7109979 c 0,-0.1190725 0.05473,-0.1845632 0.699079,-0.8364281 0.652164,-0.6597745 0.834716,-0.8075468 0.997619,-0.8075468 0.03568,0 0.422944,0.2533038 0.860656,0.5628974 0.437712,0.3095936 0.797199,0.5627612 0.798856,0.5625941 0.0014,-1.671e-4 0.189111,-0.080786 0.416564,-0.1791526 0.227453,-0.098367 0.509356,-0.207547 0.626451,-0.2426234 0.117096,-0.035076 0.212899,-0.083343 0.212899,-0.1072612 0,-0.1901017 0.192865,-1.8207411 0.221733,-1.8746721 0.02028,-0.037923 0.07783,-0.08451 0.127841,-0.1035275 0.05005,-0.019016 0.549616,-0.034574 1.110212,-0.034574 h 1.019262 l 0.152055,0.1543427 0.152054,0.1543434 0.08224,0.8534251 c 0.04524,0.4693841 0.08895,0.8782261 0.09714,0.9085374 0.0092,0.034127 0.131684,0.087333 0.321593,0.1397339 0.168678,0.046544 0.447694,0.1536594 0.620037,0.2380385 l 0.313349,0.1534166 0.757317,-0.5927569 c 0.636682,-0.4983423 0.776753,-0.5927575 0.87937,-0.5927575 0.110509,0 0.193236,0.071472 0.874474,0.7555311 0.731302,0.7343327 0.752415,0.7596664 0.752415,0.9029177 0,0.1532413 0.03671,0.1014566 -1.131606,1.5964423 -0.02001,0.02557 0.03513,0.195888 0.146871,0.45395 0.09837,0.227162 0.207604,0.506005 0.242736,0.619651 0.07501,0.242637 -0.04111,0.208711 1.105158,0.32278 0.805209,0.08013 0.907901,0.108954 0.907901,0.25487 0,0.03567 -0.01636,0.07496 -0.0363,0.0873 -0.02276,0.01407 -0.0363,0.391994 -0.0363,1.013572 0,1.011867 -0.02111,1.199315 -0.139219,1.235368 -0.03328,0.01016 -0.477243,0.0615 -0.986579,0.114097 -0.509328,0.05259 -0.927412,0.09806 -0.929068,0.101035 -0.0014,0.003 -0.05534,0.172792 -0.119254,0.377364 -0.06394,0.204573 -0.172666,0.480214 -0.241637,0.612536 -0.06897,0.132323 -0.114386,0.259105 -0.100918,0.281738 0.01347,0.02263 0.2829,0.372796 0.598738,0.77814 0.412597,0.529528 0.574243,0.764161 0.574243,0.833522 0,0.07712 -0.151911,0.248938 -0.755351,0.854315 -0.683617,0.68581 -0.768984,0.759544 -0.898819,0.776348 -0.13957,0.01806 -0.163694,0.0027 -0.887888,-0.565376 -0.409434,-0.321169 -0.76259,-0.583945 -0.784796,-0.583945 -0.02221,0 -0.177479,0.0633 -0.345057,0.140683 -0.167579,0.07737 -0.435952,0.185096 -0.596387,0.23938 l -0.2917,0.0987 -0.09733,0.949969 c -0.08854,0.864102 -0.104383,0.955713 -0.175354,1.01352 -0.07054,0.05746 -0.185247,0.06355 -1.197194,0.06355 -0.94297,0 -1.127695,-0.0085 -1.173283,-0.0541 z m 2.104676,-4.912244 c 0.72486,-0.268451 1.235743,-0.777033 1.51295,-1.506138 0.109031,-0.286772 0.114229,-0.324416 0.114229,-0.827029 0,-0.502614 -0.0055,-0.540258 -0.114229,-0.82703 -0.27652,-0.727291 -0.781187,-1.230684 -1.51295,-1.50913 C 79.164373,11.652853 79.123673,11.6473 78.6232,11.6473 c -0.500481,0 -0.541181,0.0056 -0.821021,0.112036 -0.731763,0.278446 -1.23643,0.781839 -1.51295,1.50913 -0.109031,0.286772 -0.114229,0.324416 -0.114229,0.82703 0,0.500479 0.0055,0.541176 0.112035,0.821016 0.270697,0.711388 0.782398,1.236127 1.451474,1.488444 0.368673,0.139032 0.495751,0.157884 0.975475,0.144714 0.37693,-0.01035 0.475566,-0.0267 0.73023,-0.121007 z"
       id="path9"
       inkscape:export-filename="action-icon.svg"
       inkscape:export-xdpi="96"
       inkscape:export-ydpi="96" /><path
       style="fill:#000000;stroke-width:0.481445"
       d="m 102.2148,18.735863 c -1.4978,-0.239921 -3.034077,-0.534736 -5.278401,-1.012937 -1.41657,-0.301831 -1.799868,-0.276818 -3.246307,0.211845 -0.717046,0.242246 -1.07993,0.299244 -1.502119,0.235933 -1.099351,-0.164858 -1.947393,-1.372271 -1.767486,-2.516474 0.219837,-1.398123 2.686497,-3.884097 4.867651,-4.905761 l 0.748609,-0.350654 h 5.583973 5.58397 l 0.30746,0.357405 c 0.42437,0.493302 0.42201,1.259295 -0.005,1.686503 l -0.31266,0.312666 h -3.19873 c -3.27349,0 -3.6915,0.05597 -3.6915,0.494269 0,0.510285 0.51372,0.7314 2.73872,1.1788 1.88857,0.379751 3.41485,0.37917 4.58577,-0.0017 1.34362,-0.437096 3.30737,-1.468782 4.53671,-2.383435 0.92522,-0.688377 1.17826,-0.816479 1.61281,-0.816479 0.41915,0 0.57699,0.07319 0.84518,0.391921 0.78099,0.928146 0.28739,1.645628 -2.72739,3.964513 -2.26931,1.745484 -4.04622,2.711633 -5.82284,3.166016 -1.16825,0.298788 -1.93089,0.296339 -3.85822,-0.01239 z m 0.35826,-9.635197 c 0.0919,-0.036797 0.20182,-0.032271 0.24414,0.010057 0.0423,0.042329 -0.0329,0.072434 -0.16718,0.066904 -0.1484,-0.00611 -0.17858,-0.036296 -0.077,-0.076961 z"
       id="path4"
       inkscape:export-filename="hand-icon.svg"
       inkscape:export-xdpi="96"
       inkscape:export-ydpi="96" /><path
       style="fill:#000000;stroke-width:0.36747"
       d="m 132.54905,21.099347 c -0.16053,-0.163315 -0.55136,-0.571398 -0.8685,-0.906851 -0.31714,-0.335454 -0.71389,-0.754372 -0.88165,-0.930929 -0.16777,-0.176558 -0.55782,-0.588052 -0.86679,-0.914433 -0.92888,-0.981212 -1.82642,-1.925668 -2.10907,-2.219289 -0.24939,-0.259074 -0.2664,-0.285543 -0.2664,-0.414448 0,-0.133021 0.0133,-0.151149 0.39128,-0.533482 0.41349,-0.418254 0.51533,-0.477923 0.6727,-0.394134 0.0416,0.02214 0.34306,0.294315 0.66995,0.604829 0.3269,0.310515 1.43919,1.365387 2.47177,2.34416 2.60751,2.471642 2.42064,2.283825 2.41653,2.428726 -0.003,0.112089 -0.0433,0.160342 -0.56201,0.676737 -0.69862,0.695441 -0.6504,0.68374 -1.06781,0.259114 z m -6.62186,-7.223029 -1.32421,-1.324495 0.36954,-0.368492 0.36954,-0.368491 1.33182,1.331528 1.33182,1.331527 -0.36044,0.361459 c -0.19823,0.198802 -0.36795,0.361458 -0.37715,0.361458 -0.009,0 -0.61261,-0.596023 -1.34092,-1.324494 z m -5.46558,0.02267 c -0.43215,-0.309928 -0.79765,-0.575364 -0.81222,-0.589856 -0.0325,-0.03237 0.37887,-0.730993 0.86145,-1.462858 1.10184,-1.671036 2.38873,-3.0974629 3.83091,-4.2463059 0.61843,-0.4926402 1.43885,-1.0323012 2.17161,-1.4284621 0.34842,-0.1883682 1.15269,-0.5711528 1.29096,-0.6144206 l 0.0711,-0.022254 -0.0641,0.1863923 c -0.10243,0.2977744 -0.39269,0.8782092 -0.57218,1.1442143 -0.21723,0.321919 -0.51216,0.6340181 -0.77242,0.8174082 -1.01219,0.713214 -1.649,1.4438857 -1.81548,2.0830778 -0.11796,0.452857 -7.4e-4,0.968712 0.30941,1.362701 0.16952,0.215276 0.14589,0.272324 -0.29948,0.722813 -0.36885,0.373093 -0.39892,0.396098 -0.51773,0.396098 -0.0803,0 -0.18589,-0.03399 -0.29055,-0.09352 -0.25982,-0.147789 -0.50737,-0.206406 -0.78878,-0.186775 -0.32666,0.02279 -0.47248,0.08868 -0.62066,0.280444 -0.20069,0.259735 -0.26076,0.42689 -0.26786,0.745291 -0.005,0.232758 -0.0186,0.297724 -0.0793,0.38521 -0.20059,0.288848 -0.80695,1.084309 -0.82654,1.084309 -0.0123,0 -0.37598,-0.253577 -0.80813,-0.563506 z"
       id="path12"
       inkscape:export-filename="hammer-icon.svg"
       inkscape:export-xdpi="96"
       inkscape:export-ydpi="96" /><path
       style="fill:#000000;stroke-width:0.678467"
       d="m 146.20646,21.388557 c -1.54816,-0.164597 -2.85099,-0.772286 -3.89589,-1.81718 -0.93939,-0.939386 -1.52965,-2.097142 -1.7627,-3.45736 -0.0696,-0.406114 -0.0773,-1.579491 -0.0136,-2.078915 0.18192,-1.426957 0.59817,-2.472705 1.27102,-3.193198 0.28896,-0.309403 0.58386,-0.509869 0.75005,-0.509869 0.21746,0 0.28078,0.08929 0.40397,0.569761 0.29656,1.156547 0.83628,1.902327 1.52867,2.112353 l 0.1331,0.04036 0.0219,-0.584382 c 0.0753,-2.004077 0.30374,-3.1452053 0.86069,-4.2983302 0.59687,-1.2357425 1.56573,-2.4417966 2.56793,-3.1965799 0.20579,-0.1549836 0.26154,-0.1815503 0.38094,-0.1815503 0.10846,0 0.15947,0.019587 0.22709,0.087214 0.0801,0.080124 0.0894,0.1169474 0.11364,0.4529346 0.0353,0.4877785 0.10358,0.8359685 0.24297,1.2380065 0.22862,0.6594138 0.52285,1.1727604 1.23406,2.1531204 0.89591,1.2349745 1.01899,1.4102214 1.25736,1.7903924 0.78898,1.258301 1.1888,2.358334 1.35603,3.730897 0.062,0.508629 0.0554,1.462828 -0.0128,1.867775 -0.22761,1.351324 -0.82182,2.517474 -1.76171,3.457361 -1.14823,1.148231 -2.63419,1.783941 -4.25319,1.819561 -0.28586,0.0061 -0.57821,0.0054 -0.64966,-0.0027 z m 1.0232,-0.747529 c 0.32802,-0.09213 0.61599,-0.267608 0.89655,-0.546315 0.6091,-0.605105 0.79736,-1.429253 0.54959,-2.405995 -0.11333,-0.446763 -0.30865,-0.830036 -0.77849,-1.527689 -0.45063,-0.669113 -0.50566,-0.764283 -0.63452,-1.097483 l -0.0859,-0.222154 -0.14011,0.185578 c -0.17014,0.225341 -0.40197,0.654722 -0.48711,0.902181 -0.10938,0.317914 -0.16985,0.735978 -0.19354,1.338015 -0.0188,0.479833 -0.0333,0.600417 -0.0809,0.672382 -0.15663,0.237342 -0.64867,0.178301 -1.01487,-0.121771 -0.0766,-0.06276 -0.20079,-0.209321 -0.2761,-0.325767 l -0.13692,-0.211715 -0.0393,0.09364 c -0.0778,0.184943 -0.1477,0.574838 -0.16671,0.929391 -0.0258,0.48197 0.0379,0.809025 0.23695,1.2162 0.4459,0.912104 1.42846,1.380729 2.35144,1.1215 z"
       id="path13"
       inkscape:export-filename="fire-icon.svg"
       inkscape:export-xdpi="96"
       inkscape:export-ydpi="96" /><path
       style="fill:#000000;stroke-width:0.776673"
       d="m 167.62477,19.870494 c -0.18359,-0.03985 -0.36159,-0.139336 -0.49969,-0.279273 -0.11366,-0.115172 -0.18459,-0.232447 -1.09161,-1.805012 -0.89944,-1.559432 -0.97004,-1.687734 -0.97004,-1.762878 0,-0.139294 0.0359,-0.171448 0.47313,-0.42364 1.17847,-0.679749 1.04945,-0.612175 1.1534,-0.604171 0.0783,0.0061 0.10264,0.0168 0.15128,0.06696 0.0319,0.03289 0.20764,0.320006 0.39051,0.638054 0.18285,0.318048 0.59669,1.035626 0.91961,1.594617 0.32293,0.558993 0.60724,1.056115 0.63181,1.104716 0.11831,0.234033 0.1395,0.517204 0.0578,0.773034 -0.16226,0.508368 -0.69096,0.811606 -1.21624,0.697586 z m -2.48681,-4.324075 c -0.24611,-0.417128 -0.72774,-1.26498 -0.72944,-1.284084 -0.001,-0.01578 0.0692,-0.05612 0.19197,-0.109801 0.30402,-0.132853 0.62084,-0.319804 0.88894,-0.524532 0.056,-0.04276 0.10422,-0.07496 0.10715,-0.07153 0.0423,0.04964 0.77787,1.356476 0.76823,1.36479 -0.0164,0.01415 -1.17875,0.682901 -1.18695,0.682901 -0.003,0 -0.0211,-0.02598 -0.0399,-0.05774 z m -2.85912,-1.169169 c -1.52112,-0.126257 -2.83007,-0.933276 -3.61299,-2.227544 -0.61154,-1.010933 -0.80573,-2.2590451 -0.53267,-3.4234276 0.26252,-1.1193945 0.96531,-2.1330416 1.9186,-2.7671974 0.59145,-0.3934615 1.2016,-0.6257638 1.94508,-0.7405554 0.30491,-0.047082 0.95829,-0.042663 1.28795,0.0087 0.7657,0.1193017 1.50304,0.426804 2.09318,0.8729472 1.05029,0.7940178 1.69524,1.954785 1.82424,3.2832274 0.0259,0.2668138 0.0121,0.7902118 -0.0278,1.0513968 -0.0789,0.517206 -0.20835,0.927589 -0.44147,1.39993 -0.21837,0.442475 -0.47164,0.798941 -0.82764,1.164893 -0.71971,0.739803 -1.67676,1.218432 -2.69937,1.34996 -0.26257,0.03378 -0.69728,0.04675 -0.92713,0.02766 z m 0.68432,-1.06947 c 0.63344,-0.06408 1.25676,-0.305562 1.76733,-0.684689 0.19087,-0.141733 0.5162,-0.457415 0.65698,-0.637484 0.40033,-0.512105 0.64738,-1.09452 0.7372,-1.738006 0.0357,-0.2557535 0.0267,-0.8257156 -0.0168,-1.0567986 -0.11019,-0.5863966 -0.32586,-1.0844519 -0.6654,-1.5366641 -0.58154,-0.7745101 -1.47118,-1.2805248 -2.44582,-1.3911239 -0.25877,-0.029367 -0.76253,-0.012101 -1.01219,0.034686 -0.69768,0.1307522 -1.32714,0.4555565 -1.83278,0.9457138 -0.55911,0.5419887 -0.90331,1.2068806 -1.03978,2.0085618 -0.0375,0.219829 -0.0423,0.769281 -0.008,1.007588 0.0919,0.656001 0.37664,1.294216 0.8059,1.806818 0.73962,0.883218 1.90647,1.357498 3.05417,1.241398 z"
       id="path3"
       inkscape:export-filename="details-icon.svg"
       inkscape:export-xdpi="96"
       inkscape:export-ydpi="96" /><path
       id="rect1"
       style="fill:#000000;stroke-width:0.172;stroke-dashoffset:1.13386;paint-order:markers fill stroke"
       d="M 108.79646 33.956584 C 108.2192 33.956584 107.75466 34.421633 107.75466 34.998897 L 107.75466 38.982633 L 103.77041 38.982633 C 103.19315 38.982633 102.72861 39.447683 102.72861 40.024947 C 102.72861 40.602211 103.19315 41.066744 103.77041 41.066744 L 107.75466 41.066744 L 107.75466 45.050997 C 107.75466 45.628261 108.2192 46.092794 108.79646 46.092794 C 109.37372 46.092794 109.83826 45.628261 109.83826 45.050997 L 109.83826 41.066744 L 113.82251 41.066744 C 114.39977 41.066744 114.86431 40.602211 114.86431 40.024947 C 114.86431 39.447683 114.39977 38.982633 113.82251 38.982633 L 109.83826 38.982633 L 109.83826 34.998897 C 109.83826 34.421633 109.37372 33.956584 108.79646 33.956584 z "
       inkscape:export-filename="plus-icon.svg"
       inkscape:export-xdpi="96"
       inkscape:export-ydpi="96" /><rect
       style="fill:#000000;stroke-width:0.172;stroke-dashoffset:1.13386;paint-order:markers fill stroke"
       id="rect3"
       width="2.0839884"
       height="12.136168"
       x="38.982841"
       y="-128.38701"
       ry="1.0419942"
       transform="rotate(90)"
       inkscape:export-filename="minus-icon.svg"
       inkscape:export-xdpi="96"
       inkscape:export-ydpi="96" /><g
       id="g14"
       transform="matrix(3.87674,0,0,3.87674,-486.15562,-185.59417)"
       inkscape:export-filename="crown-icon.svg"
       inkscape:export-xdpi="96"
       inkscape:export-ydpi="96"><path
         style="opacity:1;fill:none;stroke:#000000;stroke-width:0.50635328;stroke-linecap:round;stroke-linejoin:round;stroke-dasharray:none;stroke-dashoffset:1.13386;paint-order:markers fill stroke"
         d="m 161.03439,59.095785 -0.41174,-2.080379 1.04019,0.801812 0.78014,-0.996847 0.78014,1.040188 1.1052,-0.845153 -0.39007,2.080379 z"
         id="path11" /><path
         style="opacity:1;fill:none;stroke:#000000;stroke-width:0.50635328;stroke-linecap:round;stroke-linejoin:round;stroke-dasharray:none;stroke-dashoffset:1.13386;paint-order:markers fill stroke"
         d="m 160.99105,59.917021 h 2.99054"
         id="path14" /></g><path
       style="opacity:1;fill:none;stroke:#000000;stroke-width:1.963;stroke-linecap:round;stroke-linejoin:round;stroke-dasharray:none;stroke-dashoffset:1.13386;paint-order:markers fill stroke"
       d="m 160.27592,33.286075 7.02128,7.021282 -7.02128,7.021279"
       id="path15"
       inkscape:export-filename="styled-arrow-icon.svg"
       inkscape:export-xdpi="96"
       inkscape:export-ydpi="96" /><g
       id="g52"
       transform="matrix(1.4429834,0,0,1.4429834,-87.892952,-135.28605)"
       inkscape:export-filename="..\arts\warning-no-profiles.png"
       inkscape:export-xdpi="300"
       inkscape:export-ydpi="300"><circle
         style="opacity:1;fill:#eaeffb;fill-opacity:1;stroke:none;stroke-width:0.388482;stroke-linecap:round;stroke-linejoin:round;stroke-dasharray:none;stroke-dashoffset:1.13386;stroke-opacity:1;paint-order:markers fill stroke"
         id="path49"
         cx="90.959961"
         cy="166.22873"
         r="18.916939" /><g
         id="g48"
         transform="rotate(-15.37008,215.54242,-38.524501)"><rect
           style="opacity:0.108731;fill:#1a1a1a;stroke:none;stroke-width:1.963;stroke-linecap:round;stroke-linejoin:round;stroke-dasharray:none;stroke-dashoffset:1.13386;paint-order:markers fill stroke;filter:url(#filter17)"
           id="rect17"
           width="15.516166"
           height="23.751001"
           x="24.357779"
           y="108.18882" /><rect
           style="opacity:1;fill:#ffffff;stroke:none;stroke-width:1.963;stroke-linecap:round;stroke-linejoin:round;stroke-dasharray:none;stroke-dashoffset:1.13386;paint-order:markers fill stroke"
           id="rect16"
           width="15.516166"
           height="23.751001"
           x="24.357779"
           y="107.65965" /><g
           id="g38"><path
             style="opacity:0.05;fill:#8961e4;fill-opacity:1;stroke:#000000;stroke-width:0.294032;stroke-linecap:round;stroke-linejoin:round;stroke-dasharray:none;stroke-dashoffset:1.13386;paint-order:markers fill stroke"
             d="m 25.931117,120.98704 h 7.78049"
             id="path26-1" /><path
             style="opacity:0.05;fill:#8961e4;fill-opacity:1;stroke:#000000;stroke-width:0.294032;stroke-linecap:round;stroke-linejoin:round;stroke-dasharray:none;stroke-dashoffset:1.13386;paint-order:markers fill stroke"
             d="m 25.931117,122.13508 h 7.78049"
             id="path27-6" /><path
             style="opacity:0.05;fill:#8961e4;fill-opacity:1;stroke:#000000;stroke-width:0.294032;stroke-linecap:round;stroke-linejoin:round;stroke-dasharray:none;stroke-dashoffset:1.13386;paint-order:markers fill stroke"
             d="m 25.931117,123.37143 h 7.78049"
             id="path28-2" /><path
             style="opacity:0.05;fill:#8961e4;fill-opacity:1;stroke:#000000;stroke-width:0.294032;stroke-linecap:round;stroke-linejoin:round;stroke-dasharray:none;stroke-dashoffset:1.13386;paint-order:markers fill stroke"
             d="m 25.931117,124.56363 h 7.78049"
             id="path29-3" /><path
             style="opacity:0.05;fill:#8961e4;fill-opacity:1;stroke:#000000;stroke-width:0.210071;stroke-linecap:round;stroke-linejoin:round;stroke-dasharray:none;stroke-dashoffset:1.13386;paint-order:markers fill stroke"
             d="m 34.654146,120.94506 h 3.880356"
             id="path30" /><path
             style="opacity:0.05;fill:#8961e4;fill-opacity:1;stroke:#000000;stroke-width:0.210071;stroke-linecap:round;stroke-linejoin:round;stroke-dasharray:none;stroke-dashoffset:1.13386;paint-order:markers fill stroke"
             d="m 34.654146,122.12005 h 3.880356"
             id="path31" /><path
             style="opacity:0.05;fill:#8961e4;fill-opacity:1;stroke:#000000;stroke-width:0.210071;stroke-linecap:round;stroke-linejoin:round;stroke-dasharray:none;stroke-dashoffset:1.13386;paint-order:markers fill stroke"
             d="m 34.654146,123.38542 h 3.880356"
             id="path32" /><path
             style="opacity:0.05;fill:#8961e4;fill-opacity:1;stroke:#000000;stroke-width:0.210071;stroke-linecap:round;stroke-linejoin:round;stroke-dasharray:none;stroke-dashoffset:1.13386;paint-order:markers fill stroke"
             d="m 34.654146,124.60561 h 3.880356"
             id="path33" /><path
             style="opacity:0.05;fill:#8961e4;fill-opacity:1;stroke:#000000;stroke-width:0.210071;stroke-linecap:round;stroke-linejoin:round;stroke-dasharray:none;stroke-dashoffset:1.13386;paint-order:markers fill stroke"
             d="m 34.654146,128.22194 h 3.880356"
             id="path34" /></g><g
           id="g37"
           transform="translate(0.52009493,1.0401899)"><path
             style="opacity:1;fill:none;fill-opacity:1;stroke:#f3de66;stroke-width:0.36;stroke-linecap:round;stroke-linejoin:round;stroke-dasharray:none;stroke-dashoffset:1.13386;stroke-opacity:1;paint-order:markers fill stroke"
             d="m 27.608371,111.90709 c 0,0 0.888497,-1.19188 2.080382,0"
             id="path35" /><path
             style="opacity:1;fill:none;fill-opacity:1;stroke:#f3de66;stroke-width:0.36;stroke-linecap:round;stroke-linejoin:round;stroke-dasharray:none;stroke-dashoffset:1.13386;stroke-opacity:1;paint-order:markers fill stroke"
             d="m 32.982685,111.90709 c 0,0 0.888497,-1.19188 2.080382,0"
             id="path36" /><path
             style="opacity:1;fill:none;fill-opacity:1;stroke:#f3de66;stroke-width:0.36;stroke-linecap:round;stroke-linejoin:round;stroke-dasharray:none;stroke-dashoffset:1.13386;stroke-opacity:1;paint-order:markers fill stroke"
             d="m 30.382211,114.15655 c 0,0 0.888497,1.19188 2.080382,0"
             id="path37" /></g></g><g
         id="g47"
         transform="translate(36.285915,36.53109)"><rect
           style="opacity:0.108731;fill:#1a1a1a;stroke:none;stroke-width:1.963;stroke-linecap:round;stroke-linejoin:round;stroke-dasharray:none;stroke-dashoffset:1.13386;paint-order:markers fill stroke;filter:url(#filter17)"
           id="rect18"
           width="15.516166"
           height="23.751001"
           x="46.791302"
           y="119.09911" /><rect
           style="opacity:1;fill:#ffffff;stroke:none;stroke-width:1.963;stroke-linecap:round;stroke-linejoin:round;stroke-dasharray:none;stroke-dashoffset:1.13386;paint-order:markers fill stroke"
           id="rect19"
           width="15.516166"
           height="23.751001"
           x="46.791302"
           y="118.56995" /><g
           id="g22"
           transform="translate(0,10.910292)"><circle
             style="opacity:1;fill:#8961e4;fill-opacity:1;stroke:none;stroke-width:1.63583;stroke-linecap:round;stroke-linejoin:round;stroke-dasharray:none;stroke-dashoffset:1.13386;paint-order:markers fill stroke"
             id="path21"
             cx="52.283588"
             cy="113.27089"
             r="0.61293775" /><circle
             style="opacity:1;fill:#8961e4;fill-opacity:1;stroke:none;stroke-width:1.63583;stroke-linecap:round;stroke-linejoin:round;stroke-dasharray:none;stroke-dashoffset:1.13386;paint-order:markers fill stroke"
             id="circle21"
             cx="56.512859"
             cy="113.27089"
             r="0.61293775" /><path
             id="path22"
             style="opacity:1;fill:#8961e4;fill-opacity:1;stroke:none;stroke-width:1.963;stroke-linecap:round;stroke-linejoin:round;stroke-dasharray:none;stroke-dashoffset:1.13386;paint-order:markers fill stroke"
             d="m 53.356031,115.07093 a 1.0401899,1.0401899 0 0 0 1.037146,0.99684 1.0401899,1.0401899 0 0 0 1.037146,-0.99684 z" /></g><g
           id="g39"><path
             style="opacity:0.05;fill:#8961e4;fill-opacity:1;stroke:#000000;stroke-width:0.363;stroke-linecap:round;stroke-linejoin:round;stroke-dasharray:none;stroke-dashoffset:1.13386;paint-order:markers fill stroke"
             d="m 52.442905,130.84721 h 8.148153"
             id="path23" /><path
             style="opacity:0.05;fill:#8961e4;fill-opacity:1;stroke:#000000;stroke-width:0.363;stroke-linecap:round;stroke-linejoin:round;stroke-dasharray:none;stroke-dashoffset:1.13386;paint-order:markers fill stroke"
             d="m 52.442905,132.36415 h 8.148153"
             id="path24" /><path
             style="opacity:0.05;fill:#8961e4;fill-opacity:1;stroke:#000000;stroke-width:0.363;stroke-linecap:round;stroke-linejoin:round;stroke-dasharray:none;stroke-dashoffset:1.13386;paint-order:markers fill stroke"
             d="m 52.442905,133.79441 h 8.148153"
             id="path25" /><path
             style="opacity:0.05;fill:#8961e4;fill-opacity:1;stroke:#000000;stroke-width:0.36;stroke-linecap:round;stroke-linejoin:round;stroke-dasharray:none;stroke-dashoffset:1.13386;paint-order:markers fill stroke"
             d="M 48.625376,135.48472 H 60.507875"
             id="path26" /><text
             xml:space="preserve"
             style="font-style:normal;font-variant:normal;font-weight:normal;font-stretch:normal;font-size:6.04317px;line-height:1.4;font-family:Calibri;-inkscape-font-specification:Calibri;letter-spacing:0.755397px;opacity:0.05;fill:#000000;fill-opacity:1;stroke:none;stroke-width:0.69092;stroke-linecap:round;stroke-linejoin:round;stroke-dasharray:none;stroke-dashoffset:1.13386;paint-order:markers fill stroke"
             x="48.059761"
             y="134.44482"
             id="text26"><tspan
               sodipodi:role="line"
               id="tspan26"
               style="font-style:normal;font-variant:normal;font-weight:normal;font-stretch:normal;font-family:Calibri;-inkscape-font-specification:Calibri;fill:#000000;stroke:none;stroke-width:0.69092"
               x="48.059761"
               y="134.44482">A</tspan></text><path
             style="opacity:0.05;fill:#8961e4;fill-opacity:1;stroke:#000000;stroke-width:0.36;stroke-linecap:round;stroke-linejoin:round;stroke-dasharray:none;stroke-dashoffset:1.13386;paint-order:markers fill stroke"
             d="M 48.625376,136.61159 H 60.507875"
             id="path27" /><path
             style="opacity:0.05;fill:#8961e4;fill-opacity:1;stroke:#000000;stroke-width:0.36;stroke-linecap:round;stroke-linejoin:round;stroke-dasharray:none;stroke-dashoffset:1.13386;paint-order:markers fill stroke"
             d="M 48.625376,137.82514 H 60.507875"
             id="path28" /><path
             style="opacity:0.05;fill:#8961e4;fill-opacity:1;stroke:#000000;stroke-width:0.36;stroke-linecap:round;stroke-linejoin:round;stroke-dasharray:none;stroke-dashoffset:1.13386;paint-order:markers fill stroke"
             d="M 48.625376,138.99535 H 60.507875"
             id="path29" /></g></g><g
         id="g49"
         transform="rotate(-13.190243,267.70496,19.648813)"><rect
           style="opacity:0.108731;fill:#1a1a1a;stroke:none;stroke-width:1.963;stroke-linecap:round;stroke-linejoin:round;stroke-dasharray:none;stroke-dashoffset:1.13386;paint-order:markers fill stroke;filter:url(#filter17)"
           id="rect20"
           width="15.516166"
           height="23.751001"
           x="68.489296"
           y="108.18882" /><rect
           style="opacity:1;fill:#ffffff;stroke:none;stroke-width:1.963;stroke-linecap:round;stroke-linejoin:round;stroke-dasharray:none;stroke-dashoffset:1.13386;paint-order:markers fill stroke"
           id="rect21"
           width="15.516166"
           height="23.751001"
           x="68.489296"
           y="107.65965" /><g
           id="g40"><path
             style="fill:none;fill-opacity:1;stroke:#dc3a75;stroke-width:0.36;stroke-linecap:round;stroke-linejoin:round;stroke-dasharray:none;stroke-dashoffset:1.13386;stroke-opacity:1;paint-order:markers fill stroke"
             d="m 72.719172,112.50873 c 0,0 0.888497,-1.19188 2.080382,0"
             id="path35-8" /><path
             style="fill:none;fill-opacity:1;stroke:#dc3a75;stroke-width:0.36;stroke-linecap:round;stroke-linejoin:round;stroke-dasharray:none;stroke-dashoffset:1.13386;stroke-opacity:1;paint-order:markers fill stroke"
             d="m 78.093486,112.50873 c 0,0 0.888497,-1.19188 2.080382,0"
             id="path36-1" /><circle
             style="opacity:1;fill:#dc3a75;fill-opacity:1;stroke:none;stroke-width:0.36;stroke-linecap:round;stroke-linejoin:round;stroke-dasharray:none;stroke-dashoffset:1.13386;stroke-opacity:1;paint-order:markers fill stroke"
             id="path39"
             cx="76.3414"
             cy="114.74194"
             r="0.79681909" /></g><g
           id="g46"
           transform="translate(-0.39840954,1.0419942)"><rect
             style="opacity:0.05;fill:none;fill-opacity:1;stroke:#000000;stroke-width:0.36;stroke-linecap:round;stroke-linejoin:round;stroke-dasharray:none;stroke-dashoffset:1.13386;stroke-opacity:1;paint-order:markers fill stroke"
             id="rect40"
             width="11.829702"
             height="7.0487833"
             x="70.855598"
             y="118.23569" /><path
             style="opacity:0.05;fill:none;fill-opacity:1;stroke:#000000;stroke-width:0.36;stroke-linecap:round;stroke-linejoin:round;stroke-dasharray:none;stroke-dashoffset:1.13386;stroke-opacity:1;paint-order:markers fill stroke"
             d="m 73.215414,118.29698 v 6.74232"
             id="path41" /><path
             style="opacity:0.05;fill:none;fill-opacity:1;stroke:#000000;stroke-width:0.36;stroke-linecap:round;stroke-linejoin:round;stroke-dasharray:none;stroke-dashoffset:1.13386;stroke-opacity:1;paint-order:markers fill stroke"
             d="m 75.544577,118.29698 v 6.74232"
             id="path42" /><path
             style="opacity:0.05;fill:none;fill-opacity:1;stroke:#000000;stroke-width:0.36;stroke-linecap:round;stroke-linejoin:round;stroke-dasharray:none;stroke-dashoffset:1.13386;stroke-opacity:1;paint-order:markers fill stroke"
             d="m 77.996328,118.29698 v 6.74232"
             id="path43" /><path
             style="opacity:0.05;fill:none;fill-opacity:1;stroke:#000000;stroke-width:0.36;stroke-linecap:round;stroke-linejoin:round;stroke-dasharray:none;stroke-dashoffset:1.13386;stroke-opacity:1;paint-order:markers fill stroke"
             d="m 80.509373,118.29698 v 6.74232"
             id="path44" /><path
             style="opacity:0.05;fill:none;fill-opacity:1;stroke:#000000;stroke-width:0.36;stroke-linecap:round;stroke-linejoin:round;stroke-dasharray:none;stroke-dashoffset:1.13386;stroke-opacity:1;paint-order:markers fill stroke"
             d="M 82.501423,120.44226 H 71.100776"
             id="path45"
             sodipodi:nodetypes="cc" /><path
             style="opacity:0.05;fill:none;fill-opacity:1;stroke:#000000;stroke-width:0.36;stroke-linecap:round;stroke-linejoin:round;stroke-dasharray:none;stroke-dashoffset:1.13386;stroke-opacity:1;paint-order:markers fill stroke"
             d="M 82.501423,122.86336 H 71.100776"
             id="path46"
             sodipodi:nodetypes="cc" /></g></g><circle
         style="opacity:1;fill:#eaeffb;fill-opacity:1;stroke:none;stroke-width:0.0253357;stroke-linecap:round;stroke-linejoin:round;stroke-dasharray:none;stroke-dashoffset:1.13386;stroke-opacity:1;paint-order:markers fill stroke"
         id="circle49"
         cx="77.784225"
         cy="147.85204"
         r="1.2337112" /><circle
         style="opacity:1;fill:#eaeffb;fill-opacity:1;stroke:none;stroke-width:0.0502575;stroke-linecap:round;stroke-linejoin:round;stroke-dasharray:none;stroke-dashoffset:1.13386;stroke-opacity:1;paint-order:markers fill stroke"
         id="circle50"
         cx="67.729057"
         cy="163.80162"
         r="2.4472661" /><circle
         style="opacity:1;fill:#eaeffb;fill-opacity:1;stroke:none;stroke-width:0.0217755;stroke-linecap:round;stroke-linejoin:round;stroke-dasharray:none;stroke-dashoffset:1.13386;stroke-opacity:1;paint-order:markers fill stroke"
         id="circle51"
         cx="113.67078"
         cy="152.0128"
         r="1.0603462" /><circle
         style="opacity:1;fill:#8961e4;fill-opacity:1;stroke:none;stroke-width:0.0921162;stroke-linecap:round;stroke-linejoin:round;stroke-dasharray:none;stroke-dashoffset:1.13386;stroke-opacity:1;paint-order:markers fill stroke"
         id="circle52"
         cx="90.959961"
         cy="185.81897"
         r="4.4855804" /><path
         id="rect1-6"
         style="fill:#ffffff;stroke-width:0.053854;stroke-dashoffset:1.13386;paint-order:markers fill stroke"
         d="m 90.959961,183.91901 c -0.180743,0 -0.326193,0.14561 -0.326193,0.32636 v 1.24732 H 89.38628 c -0.180743,0 -0.326192,0.14561 -0.326192,0.32636 0,0.18074 0.145449,0.32619 0.326192,0.32619 h 1.247488 v 1.24749 c 0,0.18074 0.14545,0.32619 0.326193,0.32619 0.180743,0 0.326193,-0.14545 0.326193,-0.32619 v -1.24749 h 1.247488 c 0.180743,0 0.326192,-0.14545 0.326192,-0.32619 0,-0.18075 -0.145449,-0.32636 -0.326192,-0.32636 h -1.247488 v -1.24732 c 0,-0.18075 -0.14545,-0.32636 -0.326193,-0.32636 z"
         inkscape:export-filename="plus-icon.svg"
         inkscape:export-xdpi="96"
         inkscape:export-ydpi="96" /></g><path
       style="fill:#000000;stroke-width:0.369727"
       d="m 181.33227,19.339343 c -0.47225,-0.04749 -0.96612,-0.15421 -1.4306,-0.309133 -0.36866,-0.122967 -0.51341,-0.183247 -0.86343,-0.359578 -1.57349,-0.792672 -2.75408,-2.152975 -3.30884,-3.812505 -0.35485,-1.061508 -0.43847,-2.308855 -0.22629,-3.375687 0.21009,-1.056339 0.66887,-2.0373394 1.35181,-2.8905691 0.20961,-0.2618665 0.70666,-0.7635119 0.94113,-0.9498246 1.03564,-0.8229565 2.12633,-1.2903874 3.40112,-1.4576112 0.36927,-0.048442 1.25109,-0.048545 1.61954,-1.959e-4 1.63239,0.2142234 3.05069,0.963767 4.14688,2.1915374 0.64521,0.7226644 1.15278,1.6580804 1.41107,2.6004854 0.2744,1.001238 0.31952,2.071435 0.12855,3.049082 -0.55823,2.857733 -2.95739,5.035624 -5.85362,5.313773 -0.36875,0.03542 -0.96637,0.03553 -1.31732,2.26e-4 z m 1.29433,-0.992621 c 1.31455,-0.153769 2.42884,-0.69123 3.35534,-1.618398 0.94464,-0.945314 1.50607,-2.133279 1.62972,-3.448457 0.0291,-0.309055 0.0132,-1.004012 -0.0295,-1.292055 -0.14925,-1.006644 -0.52034,-1.885718 -1.13745,-2.6945212 -0.19889,-0.2606722 -0.65182,-0.718664 -0.92059,-0.9308724 -0.62074,-0.4901173 -1.34098,-0.8527343 -2.08597,-1.0502165 -0.41426,-0.1098126 -0.90247,-0.1805118 -1.2465,-0.1805118 h -0.18389 v 5.6222029 5.6222 h 0.18389 c 0.10113,0 0.29688,-0.0132 0.43499,-0.02936 z"
       id="path16"
       inkscape:export-filename="theme-icon.svg"
       inkscape:export-xdpi="96"
       inkscape:export-ydpi="96" /><path
       style="fill:#000000;stroke-width:0.136051"
       d="m 180.99133,49.25234 c -0.60805,-0.102439 -1.20133,-0.552973 -1.48444,-1.127275 -0.26204,-0.531561 -0.25335,-0.364797 -0.24191,-4.640296 0.0102,-3.791475 0.0108,-3.823314 0.0863,-4.020532 0.20832,-0.544185 0.45941,-0.878846 0.86082,-1.14732 0.14953,-0.100014 0.3805,-0.21872 0.51327,-0.263792 l 0.24139,-0.08195 5.29036,-0.0096 c 5.18754,-0.0094 5.29588,-0.0082 5.57497,0.06239 0.77544,0.196092 1.3927,0.832976 1.55367,1.603055 0.0783,0.374535 0.0785,7.617256 2.8e-4,7.986662 -0.15395,0.726631 -0.68043,1.310225 -1.42222,1.576512 l -0.23398,0.08399 -5.27355,0.0052 c -2.96887,0.0029 -5.35721,-0.0089 -5.46499,-0.02705 z m 5.68205,-2.88489 c 0.17391,-0.08786 0.30132,-0.249546 0.35831,-0.454726 0.0199,-0.07162 0.0369,-0.502791 0.0378,-0.958152 l 0.001,-0.827929 0.16355,-0.120368 c 0.6413,-0.471978 0.69604,-1.509725 0.11006,-2.086461 -0.76774,-0.755613 -2.04357,-0.425169 -2.35075,0.608846 -0.1548,0.521119 0.067,1.196509 0.48891,1.488913 l 0.14015,0.09712 0.0117,0.908825 0.0117,0.908825 0.10799,0.174262 c 0.20038,0.323342 0.58128,0.431455 0.919,0.260844 z m -11.66377,-8.945228 c 1.4e-4,-0.68799 0.0165,-1.437176 0.0362,-1.664856 0.27653,-3.19193 2.42224,-5.121591 5.40879,-4.864202 1.21631,0.104825 2.15454,0.521779 2.93877,1.306003 1.05363,1.053633 1.5475,2.533797 1.55054,4.647105 l 3.7e-4,0.386966 h -1.05622 -1.05623 l -0.0237,-0.674941 c -0.0358,-1.019 -0.14976,-1.595814 -0.42404,-2.146598 -0.22075,-0.443311 -0.40976,-0.678837 -0.74644,-0.930186 -0.4393,-0.327952 -0.96372,-0.478505 -1.66093,-0.476826 -0.84642,0.002 -1.42278,0.212509 -1.90315,0.694976 -0.40476,0.406529 -0.60818,0.7883 -0.77916,1.462362 -0.13209,0.520695 -0.16144,0.93301 -0.16144,2.267778 v 1.243311 h -1.06191 -1.06191 z"
       id="path18"
       inkscape:export-filename="padlock-icon.svg"
       inkscape:export-xdpi="96"
       inkscape:export-ydpi="96" /></g></svg>
