<?xml version="1.0" encoding="UTF-8" standalone="no"?>
<!-- Created with Inkscape (http://www.inkscape.org/) -->

<svg
   width="210mm"
   height="297mm"
   viewBox="0 0 210 297"
   version="1.1"
   id="svg1"
   xml:space="preserve"
   inkscape:version="1.3.2 (091e20e, 2023-11-25, custom)"
   sodipodi:docname="icons.svg"
   xmlns:inkscape="http://www.inkscape.org/namespaces/inkscape"
   xmlns:sodipodi="http://sodipodi.sourceforge.net/DTD/sodipodi-0.dtd"
   xmlns="http://www.w3.org/2000/svg"
   xmlns:svg="http://www.w3.org/2000/svg"><sodipodi:namedview
     id="namedview1"
     pagecolor="#ffffff"
     bordercolor="#000000"
     borderopacity="0.25"
     inkscape:showpageshadow="2"
     inkscape:pageopacity="0.0"
     inkscape:pagecheckerboard="0"
     inkscape:deskcolor="#d1d1d1"
     inkscape:document-units="mm"
     inkscape:zoom="1.6151358"
     inkscape:cx="150.45174"
     inkscape:cy="52.936724"
     inkscape:window-width="1600"
     inkscape:window-height="837"
     inkscape:window-x="-8"
     inkscape:window-y="-8"
     inkscape:window-maximized="1"
     inkscape:current-layer="layer1" /><defs
     id="defs1" /><g
     inkscape:label="Camada 1"
     inkscape:groupmode="layer"
     id="layer1"><path
       style="fill:#000000"
       d="m 2.6647264,13.291197 c 0.06903,0.256399 0.124492,0.338901 0.4589,0.682614 0.4167477,0.428345 0.5963729,0.522053 1.0007019,0.522053 0.51194,0 0.267158,0.207504 3.148287,-2.668829 2.9362127,-2.9313251 2.7305077,-2.6859931 2.7305077,-3.2565111 0,-0.569207 0.201626,-0.328153 -2.6991047,-3.226919 -2.064556,-2.063157 -2.557017,-2.539862 -2.696851,-2.61057 -0.1509,-0.0763 -0.205915,-0.08658 -0.466562,-0.08718 -0.256445,-5.84e-4 -0.319025,0.01036 -0.4736112,0.08281 -0.205347,0.09624 -0.7128867,0.567705 -0.8630297,0.801681 -0.140531,0.218999 -0.2067677,0.522438 -0.165899,0.760001 0.06909,0.401584 0.02826,0.354181 2.0588559,2.390595 l 1.884175,1.889574 -1.868641,1.8740261 c -1.027753,1.030716 -1.8982669,1.923822 -1.9344759,1.98468 -0.07997,0.134412 -0.1622217,0.43774 -0.1594287,0.587951 0.0011,0.06056 0.02191,0.183867 0.04618,0.27402 z"
       id="path1"
       inkscape:export-filename="styled-arrow-icon.svg"
       inkscape:export-xdpi="96"
       inkscape:export-ydpi="96" /><path
       style="fill:#000000;stroke-width:0.576509"
       d="m 26.041064,14.455073 c -0.141142,-0.06605 -0.280501,-0.22346 -0.318286,-0.359525 -0.01606,-0.05784 -0.02928,-0.252395 -0.02936,-0.432333 l -1.56e-4,-0.327159 h -2.963946 c -2.080174,0 -3.007245,-0.0093 -3.109159,-0.03114 -0.205861,-0.04415 -0.394925,-0.233706 -0.439253,-0.440396 -0.05861,-0.273268 0.06453,-0.531921 0.311905,-0.655195 l 0.141536,-0.07053 h 3.029459 3.029458 v -0.356498 c 0,-0.327614 0.0058,-0.368202 0.072,-0.50099 0.123691,-0.248215 0.372555,-0.36704 0.648667,-0.30972 0.121953,0.02531 0.176095,0.0566 0.283016,0.163521 0.194742,0.194742 0.197719,0.221504 0.187958,1.689766 l -0.0083,1.249033 -0.06961,0.124059 c -0.105025,0.187181 -0.268048,0.288947 -0.48087,0.300181 -0.126466,0.0067 -0.203681,-0.005 -0.28506,-0.04307 z m 2.467641,-1.15155 c -0.182395,-0.04169 -0.376432,-0.245513 -0.417929,-0.439005 -0.05861,-0.273269 0.06453,-0.531922 0.311905,-0.655196 l 0.141535,-0.07053 h 0.986703 c 0.700048,0 1.019997,0.0099 1.101306,0.03424 0.158647,0.0474 0.331255,0.226387 0.377456,0.391401 0.07681,0.274351 -0.04377,0.559715 -0.290117,0.686566 l -0.138141,0.07113 -0.975345,0.0046 c -0.569894,0.0027 -1.026071,-0.007 -1.097373,-0.02325 z m -4.207326,-2.983334 c -0.133136,-0.0424 -0.314154,-0.230783 -0.35585,-0.3703315 -0.04865,-0.162831 -0.04865,-2.5871988 0,-2.750031 0.06763,-0.2263456 0.326388,-0.4069585 0.583035,-0.4069585 0.140208,0 0.366691,0.1232905 0.449236,0.2445512 0.102396,0.1504211 0.130421,0.2875686 0.130595,0.6391148 l 1.55e-4,0.3128779 3.072117,0.00732 3.072117,0.00732 0.112151,0.077725 c 0.154096,0.1067949 0.25896,0.3064562 0.25896,0.4930631 0,0.1866068 -0.104864,0.3862681 -0.25896,0.4930636 l -0.112151,0.077725 -3.072117,0.00732 -3.072117,0.00732 -1.55e-4,0.3128779 c -8.6e-5,0.172083 -0.01365,0.362996 -0.03015,0.424251 C 24.985135,10.243126 24.6434,10.429105 24.30138,10.320186 Z M 19.540712,9.1289714 C 19.101355,8.9510889 19.035196,8.3617597 19.423944,8.08882 l 0.120733,-0.084767 h 1.39911 1.399111 l 0.112158,0.077726 c 0.339796,0.2354793 0.339811,0.7505978 2.8e-5,0.9861267 l -0.11213,0.077725 -1.366733,0.00559 c -0.860268,0.00352 -1.392219,-0.00473 -1.435509,-0.022253 z m 6.579659,-2.9601403 c -0.17496,-0.055662 -0.275524,-0.1407495 -0.355106,-0.3004507 -0.06617,-0.1327874 -0.072,-0.173376 -0.072,-0.5009906 V 5.0108931 h -3.029459 -3.029458 l -0.141536,-0.07053 C 19.245429,4.8170886 19.122297,4.5584353 19.180903,4.285167 c 0.04433,-0.2066895 0.233392,-0.3962464 0.439252,-0.4403954 0.101914,-0.021856 1.028985,-0.031143 3.109159,-0.031143 h 2.963947 l 1.55e-4,-0.3271598 c 1.85e-4,-0.3910566 0.02775,-0.5050781 0.156606,-0.6477019 0.271278,-0.300272 0.757303,-0.2429053 0.956973,0.1129538 l 0.06961,0.124059 0.0083,1.2490334 c 0.0055,0.8271041 -0.002,1.2985302 -0.02211,1.3955567 -0.06976,0.3360502 -0.423717,0.5498561 -0.74242,0.4484608 z M 28.402681,4.940363 C 28.155302,4.8170886 28.03217,4.5584353 28.090776,4.285167 c 0.02495,-0.1163511 0.05869,-0.1739017 0.163208,-0.2784211 0.189261,-0.1892611 0.250632,-0.1975772 1.384084,-0.1875448 l 0.943364,0.00835 0.138137,0.071133 c 0.246343,0.1268528 0.366925,0.4122174 0.290112,0.6865655 -0.0462,0.1650137 -0.218809,0.3439985 -0.377456,0.3914009 -0.08131,0.024294 -0.401258,0.034245 -1.101306,0.034245 h -0.986703 z"
       id="path2"
       inkscape:export-filename="settings-icon.svg"
       inkscape:export-xdpi="96"
       inkscape:export-ydpi="96" /><path
       style="fill:#000000;stroke-width:2.40768"
       d="m 39.712165,14.945705 c -0.536509,-0.100786 -0.986965,-0.551497 -1.090651,-1.091266 -0.05916,-0.307892 0.01132,-0.688888 0.180624,-0.977957 0.150817,-0.257347 0.48308,-0.504561 0.805524,-0.599327 0.211683,-0.06222 0.566592,-0.05176 0.790126,0.02335 0.813397,0.273048 1.179127,1.18425 0.780212,1.943864 -0.101989,0.194204 -0.321967,0.430824 -0.492994,0.530278 -0.286772,0.166756 -0.653104,0.231209 -0.972846,0.171138 z m 6.980222,0.01035 c -0.519742,-0.09286 -0.936107,-0.450304 -1.097121,-0.941838 -0.04615,-0.140921 -0.05738,-0.224396 -0.05593,-0.416721 0.0031,-0.40504 0.111163,-0.666235 0.394359,-0.952698 0.285669,-0.288961 0.567332,-0.406352 0.973703,-0.405818 0.395459,5.18e-4 0.691212,0.121805 0.962249,0.394617 0.272251,0.27403 0.397773,0.582115 0.397229,0.974964 -5.01e-4,0.359012 -0.120504,0.666584 -0.359917,0.9224 -0.306821,0.327854 -0.797559,0.499609 -1.214579,0.425094 z m -6.603632,-3.601183 c -0.0816,-0.04139 -0.155368,-0.102158 -0.197045,-0.16235 -0.0463,-0.06684 -0.437076,-1.2085768 -1.28001,-3.7397129 L 37.398319,3.809322 36.754214,3.796802 C 36.156208,3.7852451 36.103201,3.7806705 36.013596,3.7330947 35.803021,3.6211375 35.690498,3.4427427 35.690004,3.220008 c -6.09e-4,-0.2750608 0.174509,-0.4955082 0.43992,-0.5537572 0.0841,-0.018539 0.401459,-0.024751 0.978243,-0.019261 1.186494,0.011075 1.081991,-0.064935 1.456708,1.0592357 l 0.254817,0.7644656 4.970253,2.359e-4 4.970251,2.36e-4 0.121227,0.05646 c 0.204243,0.095104 0.323686,0.2764622 0.323686,0.4914971 0,0.1007615 -1.031473,4.8665782 -1.111908,5.1374569 -0.04064,0.1369 -0.216957,0.308778 -0.355199,0.346306 -0.132928,0.03607 -7.247321,0.918153 -7.405402,0.918153 -0.07608,0 -0.156355,-0.02167 -0.243838,-0.06614 z m 3.893239,-1.5197481 c 1.697315,-0.2098295 3.09269,-0.3881641 3.100835,-0.3963069 0.013,-0.013001 0.847533,-3.7737385 0.847612,-3.8197757 1.7e-5,-0.00987 -1.965376,-0.018058 -4.367543,-0.018058 -3.483923,0 -4.365337,0.00602 -4.356518,0.030072 0.006,0.016613 0.354192,1.0601025 0.773582,2.3190434 l 0.762529,2.2889813 0.07673,-0.01132 c 0.04221,-0.0063 1.46545,-0.182912 3.162765,-0.3927343 z"
       id="path3"
       inkscape:export-filename="market.svg"
       inkscape:export-xdpi="96"
       inkscape:export-ydpi="96" /></g></svg>
