<?xml version="1.0" encoding="UTF-8" standalone="no"?>
<!-- Created with Inkscape (http://www.inkscape.org/) -->

<svg
   width="210mm"
   height="297mm"
   viewBox="0 0 210 297"
   version="1.1"
   id="svg1"
   xml:space="preserve"
   inkscape:version="1.3.2 (091e20e, 2023-11-25, custom)"
   sodipodi:docname="icons.svg"
   xmlns:inkscape="http://www.inkscape.org/namespaces/inkscape"
   xmlns:sodipodi="http://sodipodi.sourceforge.net/DTD/sodipodi-0.dtd"
   xmlns="http://www.w3.org/2000/svg"
   xmlns:svg="http://www.w3.org/2000/svg"><sodipodi:namedview
     id="namedview1"
     pagecolor="#ffffff"
     bordercolor="#000000"
     borderopacity="0.25"
     inkscape:showpageshadow="2"
     inkscape:pageopacity="0.0"
     inkscape:pagecheckerboard="0"
     inkscape:deskcolor="#d1d1d1"
     inkscape:document-units="mm"
     inkscape:zoom="1.0791607"
     inkscape:cx="534.67477"
     inkscape:cy="66.255193"
     inkscape:window-width="1600"
     inkscape:window-height="837"
     inkscape:window-x="-8"
     inkscape:window-y="-8"
     inkscape:window-maximized="1"
     inkscape:current-layer="layer1" /><defs
     id="defs1" /><g
     inkscape:label="Camada 1"
     inkscape:groupmode="layer"
     id="layer1"><path
       style="fill:#000000"
       d="m 2.6647264,13.291197 c 0.06903,0.256399 0.124492,0.338901 0.4589,0.682614 0.4167477,0.428345 0.5963729,0.522053 1.0007019,0.522053 0.51194,0 0.267158,0.207504 3.148287,-2.668829 2.9362127,-2.9313251 2.7305077,-2.6859931 2.7305077,-3.2565111 0,-0.569207 0.201626,-0.328153 -2.6991047,-3.226919 -2.064556,-2.063157 -2.557017,-2.539862 -2.696851,-2.61057 -0.1509,-0.0763 -0.205915,-0.08658 -0.466562,-0.08718 -0.256445,-5.84e-4 -0.319025,0.01036 -0.4736112,0.08281 -0.205347,0.09624 -0.7128867,0.567705 -0.8630297,0.801681 -0.140531,0.218999 -0.2067677,0.522438 -0.165899,0.760001 0.06909,0.401584 0.02826,0.354181 2.0588559,2.390595 l 1.884175,1.889574 -1.868641,1.8740261 c -1.027753,1.030716 -1.8982669,1.923822 -1.9344759,1.98468 -0.07997,0.134412 -0.1622217,0.43774 -0.1594287,0.587951 0.0011,0.06056 0.02191,0.183867 0.04618,0.27402 z"
       id="path1"
       inkscape:export-filename="styled-arrow-icon.svg"
       inkscape:export-xdpi="96"
       inkscape:export-ydpi="96" /><path
       style="fill:#000000;stroke-width:0.576509"
       d="m 26.041064,14.455073 c -0.141142,-0.06605 -0.280501,-0.22346 -0.318286,-0.359525 -0.01606,-0.05784 -0.02928,-0.252395 -0.02936,-0.432333 l -1.56e-4,-0.327159 h -2.963946 c -2.080174,0 -3.007245,-0.0093 -3.109159,-0.03114 -0.205861,-0.04415 -0.394925,-0.233706 -0.439253,-0.440396 -0.05861,-0.273268 0.06453,-0.531921 0.311905,-0.655195 l 0.141536,-0.07053 h 3.029459 3.029458 v -0.356498 c 0,-0.327614 0.0058,-0.368202 0.072,-0.50099 0.123691,-0.248215 0.372555,-0.36704 0.648667,-0.30972 0.121953,0.02531 0.176095,0.0566 0.283016,0.163521 0.194742,0.194742 0.197719,0.221504 0.187958,1.689766 l -0.0083,1.249033 -0.06961,0.124059 c -0.105025,0.187181 -0.268048,0.288947 -0.48087,0.300181 -0.126466,0.0067 -0.203681,-0.005 -0.28506,-0.04307 z m 2.467641,-1.15155 c -0.182395,-0.04169 -0.376432,-0.245513 -0.417929,-0.439005 -0.05861,-0.273269 0.06453,-0.531922 0.311905,-0.655196 l 0.141535,-0.07053 h 0.986703 c 0.700048,0 1.019997,0.0099 1.101306,0.03424 0.158647,0.0474 0.331255,0.226387 0.377456,0.391401 0.07681,0.274351 -0.04377,0.559715 -0.290117,0.686566 l -0.138141,0.07113 -0.975345,0.0046 c -0.569894,0.0027 -1.026071,-0.007 -1.097373,-0.02325 z m -4.207326,-2.983334 c -0.133136,-0.0424 -0.314154,-0.230783 -0.35585,-0.3703315 -0.04865,-0.162831 -0.04865,-2.5871988 0,-2.750031 0.06763,-0.2263456 0.326388,-0.4069585 0.583035,-0.4069585 0.140208,0 0.366691,0.1232905 0.449236,0.2445512 0.102396,0.1504211 0.130421,0.2875686 0.130595,0.6391148 l 1.55e-4,0.3128779 3.072117,0.00732 3.072117,0.00732 0.112151,0.077725 c 0.154096,0.1067949 0.25896,0.3064562 0.25896,0.4930631 0,0.1866068 -0.104864,0.3862681 -0.25896,0.4930636 l -0.112151,0.077725 -3.072117,0.00732 -3.072117,0.00732 -1.55e-4,0.3128779 c -8.6e-5,0.172083 -0.01365,0.362996 -0.03015,0.424251 C 24.985135,10.243126 24.6434,10.429105 24.30138,10.320186 Z M 19.540712,9.1289714 C 19.101355,8.9510889 19.035196,8.3617597 19.423944,8.08882 l 0.120733,-0.084767 h 1.39911 1.399111 l 0.112158,0.077726 c 0.339796,0.2354793 0.339811,0.7505978 2.8e-5,0.9861267 l -0.11213,0.077725 -1.366733,0.00559 c -0.860268,0.00352 -1.392219,-0.00473 -1.435509,-0.022253 z m 6.579659,-2.9601403 c -0.17496,-0.055662 -0.275524,-0.1407495 -0.355106,-0.3004507 -0.06617,-0.1327874 -0.072,-0.173376 -0.072,-0.5009906 V 5.0108931 h -3.029459 -3.029458 l -0.141536,-0.07053 C 19.245429,4.8170886 19.122297,4.5584353 19.180903,4.285167 c 0.04433,-0.2066895 0.233392,-0.3962464 0.439252,-0.4403954 0.101914,-0.021856 1.028985,-0.031143 3.109159,-0.031143 h 2.963947 l 1.55e-4,-0.3271598 c 1.85e-4,-0.3910566 0.02775,-0.5050781 0.156606,-0.6477019 0.271278,-0.300272 0.757303,-0.2429053 0.956973,0.1129538 l 0.06961,0.124059 0.0083,1.2490334 c 0.0055,0.8271041 -0.002,1.2985302 -0.02211,1.3955567 -0.06976,0.3360502 -0.423717,0.5498561 -0.74242,0.4484608 z M 28.402681,4.940363 C 28.155302,4.8170886 28.03217,4.5584353 28.090776,4.285167 c 0.02495,-0.1163511 0.05869,-0.1739017 0.163208,-0.2784211 0.189261,-0.1892611 0.250632,-0.1975772 1.384084,-0.1875448 l 0.943364,0.00835 0.138137,0.071133 c 0.246343,0.1268528 0.366925,0.4122174 0.290112,0.6865655 -0.0462,0.1650137 -0.218809,0.3439985 -0.377456,0.3914009 -0.08131,0.024294 -0.401258,0.034245 -1.101306,0.034245 h -0.986703 z"
       id="path2"
       inkscape:export-filename="settings-icon.svg"
       inkscape:export-xdpi="96"
       inkscape:export-ydpi="96" /><path
       style="fill:#000000;stroke-width:0.437941"
       d="m 55.068521,16.282607 c -0.232849,-0.04617 -0.413813,-0.183306 -0.515722,-0.390835 -0.06535,-0.133077 -0.06564,-0.135741 -0.07297,-0.673445 l -0.0074,-0.539839 -0.272721,-0.01134 c -0.291988,-0.01214 -0.367774,-0.03412 -0.533739,-0.154762 -0.10176,-0.07397 -0.203376,-0.223618 -0.242343,-0.356893 -0.01382,-0.04727 -0.02241,-0.694286 -0.02188,-1.648246 8.32e-4,-1.487504 0.0032,-1.576611 0.04541,-1.68763 0.06793,-0.178764 0.18965,-0.311038 0.366227,-0.397967 0.139662,-0.06875 0.177701,-0.07653 0.419515,-0.08579 l 0.265927,-0.01018 V 8.0683452 c 0,-2.1554866 0.0021,-2.2653033 0.04515,-2.4338851 0.05425,-0.212115 0.128381,-0.3640226 0.257126,-0.5268972 0.09481,-0.1199472 0.341048,-0.3309463 0.386259,-0.3309852 0.01539,-1.36e-5 0.02107,0.530409 0.01667,1.5579494 -0.0041,0.9577439 0.0025,1.6344024 0.01713,1.7563615 0.05572,0.4644307 0.368319,0.830184 0.80726,0.9445137 0.115592,0.030108 0.347024,0.03578 1.460208,0.03578 h 1.322845 l 0.0089,0.2416623 c 0.0083,0.223067 0.0141,0.248401 0.07574,0.3292405 0.10603,0.1390077 0.164762,0.1526461 0.657385,0.1526461 0.483929,0 0.551586,-0.015564 0.646593,-0.1487546 0.0445,-0.062392 0.0532,-0.1093761 0.05995,-0.3238861 l 0.0079,-0.2509082 1.334165,-5.693e-4 c 0.813904,-3.482e-4 1.374083,-0.00977 1.436525,-0.02417 0.161421,-0.037212 0.350642,-0.1403127 0.488361,-0.2660837 0.139957,-0.1278152 0.212384,-0.2312801 0.290797,-0.4154228 0.05197,-0.122034 0.05212,-0.1266306 0.06377,-1.868241 l 0.01165,-1.7459062 0.126385,0.094307 c 0.173315,0.1293266 0.339834,0.3315975 0.433557,0.5266502 0.154094,0.32068 0.15194,0.2818496 0.15194,2.7385628 v 2.2153737 l 0.262576,0.01069 c 0.330654,0.01346 0.458673,0.06342 0.622857,0.243064 0.198676,0.217381 0.190351,0.127691 0.183002,1.9715 l -0.0064,1.620097 -0.05348,0.100164 c -0.07286,0.136448 -0.205372,0.263997 -0.344287,0.331384 -0.09674,0.04693 -0.160396,0.05769 -0.388112,0.0656 l -0.272395,0.0095 -0.0088,0.540258 c -0.0075,0.457799 -0.01528,0.554508 -0.05096,0.63362 -0.07413,0.164376 -0.191337,0.284255 -0.358289,0.366447 l -0.156437,0.07702 -0.437406,0.0083 -0.437402,0.0083 -0.0066,-1.362075 -0.0066,-1.362074 -0.07242,-0.152818 C 62.952186,13.177727 62.7781,13.017383 62.509935,12.915171 l -0.133808,-0.051 -2.730816,-0.0068 c -1.84497,-0.0046 -2.782832,0.0013 -2.891176,0.01803 -0.333301,0.05156 -0.585065,0.234436 -0.732032,0.531743 l -0.0879,0.177811 -0.0066,1.360818 -0.0066,1.360818 -0.378561,-0.0025 c -0.208208,-0.0014 -0.421552,-0.01108 -0.474098,-0.0215 z m 1.600986,-1.261455 v -1.285511 l 0.06823,-0.06822 0.06822,-0.06823 h 2.742979 2.742977 l 0.06549,0.05632 0.06549,0.05632 0.0064,1.297418 0.0064,1.297417 h -2.883096 -2.8831 z M 56.192005,8.3306012 c -0.07636,-0.019396 -0.149381,-0.07715 -0.198955,-0.1573618 -0.04614,-0.074664 -0.04709,-0.1118045 -0.04712,-1.8473021 l -2.8e-5,-1.7711071 0.423776,0.00688 c 0.233076,0.00377 0.432492,-0.00184 0.443147,-0.01249 0.01065,-0.010655 0.0302,-0.1240336 0.04344,-0.2519536 0.09801,-0.9470169 0.645797,-1.7453665 1.481185,-2.1586829 0.794767,-0.3932183 1.679701,-0.3878185 2.463286,0.01503 0.814505,0.4187434 1.372398,1.2671067 1.443011,2.1943174 l 0.01577,0.2068994 h 0.449319 0.449323 l -2.2e-5,1.7645753 -1.8e-5,1.7645746 -0.05252,0.077162 c -0.0289,0.042436 -0.08216,0.099134 -0.118397,0.1259882 -0.06478,0.048013 -0.08803,0.048933 -1.394579,0.055221 l -1.328704,0.00639 V 8.1117031 c 0,-0.2775902 -0.03757,-0.3648587 -0.19078,-0.4430149 -0.08547,-0.043601 -0.128619,-0.046738 -0.551981,-0.04012 -0.437617,0.00684 -0.462855,0.00974 -0.53547,0.061536 -0.119628,0.085326 -0.153323,0.1734229 -0.164438,0.4299551 l -0.0099,0.2275676 -1.286835,-0.00272 c -0.70776,-0.00149 -1.307404,-0.00793 -1.332543,-0.014316 z m 4.982179,-3.8467757 c 0,-0.174759 -0.07326,-0.4464194 -0.178505,-0.6619634 -0.08543,-0.1749613 -0.143294,-0.2558836 -0.285261,-0.3989357 -0.320012,-0.322458 -0.648972,-0.4673635 -1.100033,-0.4845632 -0.328224,-0.012516 -0.511305,0.024971 -0.793571,0.1624927 -0.16213,0.078989 -0.236948,0.1353811 -0.40933,0.3085101 -0.1699,0.1706367 -0.229911,0.2504501 -0.308468,0.4102455 -0.05364,0.1091156 -0.113488,0.2666627 -0.13299,0.350104 -0.03688,0.1578247 -0.04749,0.3543169 -0.02058,0.3812249 0.0085,0.00856 0.738526,0.01556 1.62215,0.01556 h 1.606591 z"
       id="path5"
       inkscape:export-filename="inventory-icon.svg"
       inkscape:export-xdpi="96"
       inkscape:export-ydpi="96" /><path
       style="fill:#000000;stroke-width:0.592314"
       d="m 37.166933,15.345814 c -0.177155,-0.06425 -0.301055,-0.257815 -0.282166,-0.440825 0.01996,-0.193349 0.146159,-0.338168 0.334337,-0.383656 0.05917,-0.0143 0.6766,-0.01895 2.031151,-0.01527 l 1.946118,0.0053 0.0053,0.429847 0.0053,0.429847 -1.988989,-0.0014 c -1.480364,-0.0011 -2.004745,-0.0071 -2.050608,-0.02378 z m 4.901859,0.01276 c -0.02209,-0.02208 -0.01487,-2.564059 0.0075,-2.668649 0.02802,-0.130647 0.10709,-0.232267 0.227354,-0.292198 l 0.09991,-0.04979 h 0.956196 0.956196 l 0.09991,0.04979 c 0.121662,0.06063 0.200356,0.162979 0.227899,0.296416 0.01344,0.06525 0.01854,0.525567 0.01522,1.382632 l -0.0047,1.284818 -1.286263,0.0049 c -0.707442,0.0027 -1.29199,-8.88e-4 -1.298991,-0.0079 z m 3.449315,-0.417381 0.0053,-0.429847 1.946118,-0.0053 c 1.35455,-0.0037 1.971966,9.48e-4 2.03115,0.01527 0.187438,0.04531 0.314389,0.19041 0.334154,0.381928 0.01955,0.189222 -0.114068,0.392028 -0.293693,0.445846 -0.05354,0.01603 -0.604574,0.02193 -2.050537,0.02193 h -1.97735 z m -7.76996,-3.556768 c 0,-1.247084 0.0024,-2.2674255 0.0059,-2.2674255 0.003,0 0.08169,0.025618 0.174324,0.056933 0.311279,0.1052193 0.544947,0.140469 0.915646,0.1381288 0.275254,-0.00172 0.367057,-0.00992 0.547938,-0.048848 0.261838,-0.056353 0.577494,-0.1727898 0.781036,-0.2881103 0.08236,-0.046657 0.157935,-0.084832 0.167963,-0.084832 0.01001,0 0.04294,0.017586 0.07312,0.039087 0.1709,0.1216903 0.631697,0.2927422 0.94416,0.3504786 0.2434,0.044974 0.735802,0.04501 0.981251,7.05e-5 0.300581,-0.055032 0.65748,-0.1871641 0.931585,-0.3448889 0.08875,-0.051069 0.09192,-0.05149 0.141705,-0.018901 0.206463,0.1351743 0.622415,0.2934015 0.933996,0.3552882 0.273933,0.05441 0.74269,0.058414 1.015812,0.00868 0.307133,-0.055932 0.681907,-0.1961098 0.949444,-0.3551247 l 0.07085,-0.042113 0.07086,0.042812 c 0.122816,0.074207 0.367003,0.1856501 0.538247,0.245645 0.552362,0.1935207 1.253437,0.1942114 1.798661,0.00178 0.08737,-0.030836 0.163781,-0.056068 0.169805,-0.056068 0.006,0 0.01096,1.0203413 0.01096,2.2674263 v 2.267425 l -1.724113,-0.0048 -1.724113,-0.0048 -0.0099,-0.566832 c -0.0092,-0.529527 -0.01273,-0.574913 -0.05337,-0.689645 -0.113671,-0.320847 -0.355827,-0.606673 -0.635813,-0.750462 -0.292325,-0.150126 -0.261388,-0.147021 -1.464313,-0.147021 -0.978638,0 -1.077762,0.0029 -1.190349,0.0347 -0.418926,0.118354 -0.760957,0.442716 -0.909776,0.862786 -0.04063,0.114731 -0.04419,0.160117 -0.05337,0.689645 l -0.0099,0.566831 -1.724113,0.0048 -1.724113,0.0048 z M 38.431239,8.4159368 C 37.804743,8.2844147 37.282802,7.8560285 37.032555,7.2679592 36.913293,6.9876892 36.893646,6.8656773 36.883819,6.3442469 l -0.009,-0.4770832 h 6.482862 6.482857 v 0.3859676 c 0,0.4576353 -0.01895,0.6175712 -0.103241,0.8705089 -0.216176,0.6488276 -0.746949,1.130772 -1.417756,1.2873294 -0.231322,0.053989 -0.662053,0.049559 -0.888038,-0.00913 -0.33355,-0.086621 -0.63996,-0.259809 -0.901146,-0.5093431 l -0.148289,-0.141673 -0.146035,0.1406633 c -0.250294,0.2410912 -0.438863,0.3575176 -0.7423,0.4583134 -0.25656,0.085225 -0.460873,0.113585 -0.724044,0.1005032 -0.480372,-0.023882 -0.94525,-0.2324298 -1.283568,-0.5758279 L 43.3574,7.7438253 43.233298,7.872374 C 42.681303,8.4441427 41.814328,8.6121602 41.066851,8.2922273 40.860922,8.2040845 40.677926,8.0789428 40.491531,7.898787 L 40.334645,7.7471529 40.18922,7.8900137 C 39.718645,8.3523033 39.062764,8.5485155 38.431221,8.4159344 Z M 37.092912,4.908274 c 0.542151,-1.0936327 0.953643,-1.9000726 1.005713,-1.9710075 0.15303,-0.2084678 0.412618,-0.3906754 0.688713,-0.4834198 0.09969,-0.033489 0.282314,-0.035118 4.487416,-0.040129 3.021416,-0.00361 4.424104,0.00101 4.514189,0.014832 0.322142,0.049423 0.633717,0.2413104 0.836022,0.5148747 0.04679,0.06328 0.945575,1.8225974 1.042389,2.0404267 0.0036,0.00779 -2.834375,0.014168 -6.306317,0.014168 h -6.31262 z"
       id="path6"
       inkscape:export-filename="market-icon.svg"
       inkscape:export-xdpi="96"
       inkscape:export-ydpi="96" /><path
       style="fill:#000000;stroke-width:1.29409"
       d="M 2.8801534,35.464109 C 2.6701418,35.407545 2.5050171,35.308961 2.3341997,35.138143 2.0852878,34.889233 1.9706068,34.615139 1.9706068,34.269142 c 0,-0.346264 0.1117706,-0.611686 0.3657903,-0.868642 0.2538437,-0.256778 0.5694918,-0.378058 0.9375015,-0.36021 l 0.1744745,0.0084 0.4894989,-0.549176 C 4.207096,32.197468 4.6243704,31.730669 4.8651476,31.462182 5.1059249,31.193697 5.3990869,30.86447 5.5166175,30.730568 l 0.213692,-0.243447 -0.6360198,-0.636358 -0.6360185,-0.636359 0.287758,-0.280581 c 0.357204,-0.348296 0.4924675,-0.402742 0.7270978,-0.292673 0.138161,0.06481 3.3155487,3.249852 3.3674301,3.375538 0.09487,0.229813 0.039962,0.358782 -0.3020874,0.709577 L 8.2578888,33.014023 7.6215507,32.378024 6.9852126,31.742025 6.72953,31.965242 c -0.1406262,0.122771 -0.5632206,0.499448 -0.939101,0.837064 -0.3758803,0.337616 -0.8366672,0.75013 -1.02397,0.916696 l -0.3405504,0.30285 0.00686,0.196941 c 0.012553,0.364813 -0.1052872,0.664444 -0.3608728,0.917103 -0.1801788,0.17812 -0.339836,0.273063 -0.5521937,0.328375 -0.1763962,0.04594 -0.468466,0.04585 -0.6394957,-2.11e-4 z m 4.4784497,-5.35056 C 6.9592156,29.714266 6.6324564,29.374875 6.6324706,29.359347 6.6324862,29.343817 6.7178156,29.233989 6.8220912,29.115269 7.02432,28.88504 7.0416699,28.864992 8.7198534,26.922392 11.055382,24.218874 12.341625,22.731261 12.709315,22.308355 l 0.382816,-0.440302 0.632719,-0.130061 c 0.347995,-0.07154 0.720587,-0.149403 0.827981,-0.173046 0.704354,-0.155058 1.674955,-0.346892 1.688185,-0.333662 0.01377,0.01377 -0.07286,0.462978 -0.238479,1.236683 -0.02731,0.127532 -0.128503,0.610257 -0.224903,1.072725 l -0.175267,0.840851 -0.475952,0.413106 c -0.261774,0.227207 -0.62423,0.541761 -0.805458,0.699008 -0.181228,0.157246 -0.823764,0.71263 -1.427856,1.234186 -0.604094,0.521556 -1.251353,1.080741 -1.438354,1.242632 -0.187001,0.16189 -0.511738,0.442624 -0.721637,0.623851 -0.7648938,0.660415 -1.4164569,1.223744 -1.9998589,1.729043 -0.3279692,0.284062 -0.6080493,0.516401 -0.6223982,0.516311 -0.014351,-9e-5 -0.3528623,-0.32685 -0.7522498,-0.726131 z"
       id="path7"
       inkscape:export-filename="sword-icon.svg"
       inkscape:export-xdpi="96"
       inkscape:export-ydpi="96" /><path
       d="m 28.701527,36.497102 c -2.32857,-0.865907 -4.382687,-2.911604 -5.100131,-5.079227 -0.536437,-1.620746 -0.702112,-2.897672 -0.769066,-5.92753 l -0.06256,-2.830746 1.141537,-9.2e-4 c 2.241902,-0.0018 3.530433,-0.399838 4.885427,-1.509123 l 0.700076,-0.573128 0.700078,0.573128 c 1.355194,1.10945 2.643468,1.507317 4.886457,1.509123 l 1.142569,9.2e-4 -0.06697,2.830746 c -0.09584,4.051043 -0.504065,5.977303 -1.623624,7.661362 -0.965472,1.452277 -2.733532,2.825039 -4.358661,3.384167 -0.394883,0.135858 -0.723087,0.244161 -0.729345,0.240672 -0.0063,-0.0035 -0.341863,-0.129239 -0.745791,-0.279444 z m 2.181562,-1.281539 c 0.970608,-0.511234 2.441816,-1.828136 2.976156,-2.664007 0.883367,-1.381854 1.332046,-3.617576 1.386545,-6.90902 l 0.03427,-2.069793 -1.278401,-0.07179 c -1.815905,-0.101972 -2.930065,-0.473884 -4.041364,-1.349032 l -0.449665,-0.35411 -0.58523,0.416321 c -1.316697,0.936669 -2.478686,1.293033 -4.225619,1.295935 l -1.083583,0.0018 0.08371,2.161106 c 0.131777,3.401888 0.57117,5.535428 1.408831,6.840811 0.537214,0.837176 1.900935,2.090178 2.856434,2.624524 1.387162,0.775746 1.581991,0.780903 2.917912,0.07725 z m -1.386272,-6.288724 c 0,-3.380017 0.02076,-6.145487 0.04613,-6.145487 0.02537,0 0.367799,0.19375 0.760954,0.430555 0.944559,0.568928 2.067504,0.905828 3.318755,0.995675 l 1.021145,0.07333 -0.08281,1.776587 c -0.141841,3.042771 -0.544081,4.923967 -1.309844,6.12588 -0.661301,1.03795 -2.240985,2.313753 -3.419501,2.761694 l -0.334819,0.12726 z"
       style="fill:#000000;stroke-width:0.460167"
       id="path1-2"
       inkscape:export-filename="shield-icon.svg"
       inkscape:export-xdpi="96"
       inkscape:export-ydpi="96" /><path
       style="fill:#000000;stroke-width:0.986961"
       d="m 49.041252,36.316275 c -0.314426,-0.0937 -3.067642,-2.053056 -4.260602,-3.032092 -1.125322,-0.923537 -2.209064,-1.966007 -2.762433,-2.657238 -1.145457,-1.430814 -1.708824,-3.097303 -1.627794,-4.815101 0.03563,-0.755182 0.124614,-1.247711 0.329448,-1.823407 0.641316,-1.802449 2.290685,-3.005679 4.331908,-3.160187 0.859287,-0.06504 1.674141,0.0552 2.373788,0.35027 0.569279,0.240096 1.257181,0.77528 1.58724,1.234883 0.06317,0.08789 0.123726,0.159482 0.134661,0.159075 0.011,-4.06e-4 0.08162,-0.08724 0.156976,-0.192949 0.268316,-0.376204 0.852665,-0.855809 1.346086,-1.104805 0.883843,-0.446007 2.17763,-0.581966 3.307137,-0.347533 1.729145,0.358892 3.062175,1.48525 3.622916,3.061246 0.373633,1.050107 0.439661,2.330857 0.184709,3.583094 -0.212166,1.042135 -0.727103,2.106828 -1.470739,3.040908 -0.562074,0.706033 -1.577686,1.690347 -2.689072,2.606207 -0.974634,0.803169 -2.535966,1.943215 -3.694747,2.697814 -0.637123,0.414889 -0.708598,0.447759 -0.869482,0.399815 z"
       id="path8"
       inkscape:export-filename="heart-icon.svg"
       inkscape:export-xdpi="96"
       inkscape:export-ydpi="96" /><path
       style="fill:#000000;stroke-width:0.948963"
       d="m 68.683784,38.036932 c -0.83171,-0.08006 -1.367108,-0.180342 -1.973857,-0.369697 -2.288257,-0.714118 -4.198305,-2.367231 -5.226204,-4.523196 -0.154284,-0.323596 -0.268633,-0.605804 -0.438062,-1.081089 -0.120879,-0.339082 -0.29788,-1.168501 -0.357323,-1.674378 -0.04555,-0.387827 -0.04555,-1.545195 0,-1.933022 0.443299,-3.772787 3.253592,-6.80516 6.960875,-7.510949 0.615223,-0.117126 0.860825,-0.137694 1.633538,-0.136798 0.781464,8.82e-4 1.081308,0.02881 1.730666,0.161064 2.631185,0.53588 4.893356,2.312173 6.051349,4.751621 0.534115,1.125158 0.791455,2.214341 0.826349,3.497381 0.06443,2.368181 -0.835544,4.617785 -2.521969,6.304203 -1.362419,1.362419 -3.054054,2.196194 -4.999147,2.463988 -0.281111,0.0387 -1.44718,0.07389 -1.686215,0.05087 z m 1.695857,-1.12447 c 3.47604,-0.53419 6.113659,-3.32775 6.429635,-6.80976 0.250318,-2.758583 -1.043994,-5.458704 -3.347387,-6.983124 -1.211088,-0.801517 -2.518041,-1.216263 -3.964368,-1.258043 -1.290601,-0.03729 -2.407229,0.203071 -3.563524,0.767046 -0.752557,0.36705 -1.387804,0.819408 -1.989078,1.416412 -1.194983,1.186503 -1.915675,2.621311 -2.181195,4.342493 -0.06842,0.443537 -0.06851,1.594357 -1.71e-4,2.055538 0.360237,2.430802 1.741673,4.437128 3.86854,5.618459 0.895956,0.497647 1.861471,0.788832 3.024465,0.912139 0.292082,0.03097 1.373323,-0.0074 1.723083,-0.06116 z m -2.267599,-0.740383 c -1.614758,-0.287082 -2.987739,-1.072254 -4.060269,-2.321967 -0.682552,-0.7953 -1.160385,-1.720943 -1.425146,-2.760745 -0.09786,-0.384344 -0.18556,-0.977045 -0.149319,-1.009145 0.01442,-0.01278 0.409022,-0.16304 0.876852,-0.333898 0.467831,-0.170857 0.850691,-0.31713 0.850804,-0.325049 1.04e-4,-0.0078 -0.295555,-0.122301 -0.657025,-0.254181 -1.152784,-0.420579 -1.085245,-0.390122 -1.085037,-0.489316 2.76e-4,-0.129916 0.09784,-0.670325 0.174895,-0.968715 0.478448,-1.852727 1.726735,-3.434128 3.427395,-4.341992 0.712587,-0.380402 1.816868,-0.721091 2.378627,-0.733846 l 0.174695,-0.004 0.156465,0.421998 c 0.08607,0.232099 0.229375,0.621006 0.318502,0.864238 0.08911,0.243231 0.168166,0.442238 0.175653,0.442238 0.0076,0 0.08655,-0.199007 0.175663,-0.442238 0.495958,-1.353555 0.467251,-1.285474 0.546082,-1.295081 0.101757,-0.0124 0.567785,0.06662 0.939019,0.159226 2.641947,0.659025 4.651741,2.834833 5.091937,5.512557 0.02951,0.179689 0.05371,0.359328 0.05371,0.399195 9e-6,0.08292 0.0427,0.06419 -1.085209,0.475703 -0.361479,0.13188 -0.657148,0.246262 -0.657044,0.254181 9.6e-5,0.0078 0.389086,0.157055 0.864413,0.331413 0.80959,0.29697 0.864772,0.321429 0.872743,0.386841 0.01149,0.09433 -0.09157,0.694573 -0.173186,1.00853 -0.565042,2.174001 -2.180816,3.944345 -4.303223,4.714893 -0.486345,0.176567 -1.436724,0.388534 -1.61771,0.360801 -0.06083,-0.0093 -0.05694,2.1e-5 -0.531534,-1.295123 -0.08911,-0.243232 -0.168176,-0.442239 -0.175663,-0.442239 -0.0076,0 -0.08655,0.199007 -0.175653,0.442239 -0.08911,0.243231 -0.232136,0.632137 -0.317809,0.864236 l -0.155772,0.421999 -0.104187,0.0052 c -0.05732,0.0028 -0.238949,-0.01873 -0.403671,-0.04802 z m -2.436694,-3.00717 c 0.172208,-0.101709 0.502998,-0.297919 0.735096,-0.436024 0.232097,-0.138103 0.893678,-0.52974 1.470184,-0.870303 1.046907,-0.618447 1.271869,-0.751465 2.014699,-1.191228 0.292376,-0.17309 0.408264,-0.257213 0.446773,-0.324311 0.05552,-0.09677 0.168062,-0.287126 1.797368,-3.04093 0.579115,-0.978794 1.047648,-1.784913 1.041185,-1.791376 -0.01272,-0.01268 -0.280656,0.143759 -2.550229,1.488712 -0.816091,0.483615 -1.612443,0.955169 -1.769677,1.047895 -0.673385,0.39714 -0.573697,0.30424 -0.87896,0.819055 -0.150135,0.253205 -0.348782,0.589013 -0.44142,0.746242 -0.424291,0.720123 -1.343222,2.273979 -1.497372,2.531986 -0.142876,0.239126 -0.668811,1.127393 -0.715804,1.208942 -0.0076,0.01354 -0.0028,0.01825 0.01044,0.01045 0.01357,-0.0078 0.165518,-0.0974 0.337718,-0.199105 z m 3.349342,-3.061017 c -0.268984,-0.09285 -0.490643,-0.400882 -0.490643,-0.681831 0,-0.371312 0.363776,-0.735093 0.735087,-0.735093 0.159065,0 0.360312,0.08546 0.49256,0.209162 0.313036,0.292808 0.319365,0.729108 0.01499,1.033482 -0.217294,0.21729 -0.462649,0.274154 -0.751999,0.17428 z"
       id="path10"
       inkscape:export-filename="home-icon.svg"
       inkscape:export-xdpi="96"
       inkscape:export-ydpi="96" /><path
       style="fill:#000000;stroke-width:0.687501"
       d="m 74.397437,16.437405 c -0.07179,-0.07179 -0.07953,-0.120747 -0.169393,-1.071695 -0.04249,-0.449411 -0.08834,-0.838227 -0.101957,-0.864037 -0.01361,-0.02581 -0.220839,-0.112455 -0.460529,-0.192546 -0.239684,-0.08009 -0.506338,-0.186954 -0.592558,-0.237475 -0.08623,-0.05052 -0.178008,-0.08371 -0.203961,-0.07375 -0.02599,0.01 -0.363867,0.266514 -0.750917,0.570121 -0.387049,0.303607 -0.743594,0.567172 -0.792324,0.585699 -0.05741,0.02182 -0.122025,0.01985 -0.183495,-0.0056 -0.05218,-0.02162 -0.410947,-0.355676 -0.79724,-0.742353 -0.696631,-0.697317 -0.702482,-0.704488 -0.717428,-0.879315 l -0.01506,-0.176265 0.58294,-0.741348 c 0.320616,-0.40774 0.582802,-0.742755 0.58263,-0.744477 -1.65e-4,-0.0017 -0.08078,-0.189227 -0.179149,-0.41668 -0.09837,-0.227451 -0.20755,-0.509354 -0.242627,-0.62645 -0.03506,-0.117096 -0.08334,-0.212902 -0.107257,-0.212902 -0.190108,0 -1.820744,-0.192864 -1.874672,-0.221727 -0.03795,-0.02029 -0.08451,-0.07783 -0.103531,-0.127847 -0.01904,-0.05002 -0.03458,-0.5487202 -0.03458,-1.1082227 V 8.1332226 L 68.340623,8.028928 c 0.05734,-0.057365 0.143158,-0.1132728 0.190658,-0.124246 0.04751,-0.010973 0.468408,-0.059654 0.935346,-0.1081831 0.466944,-0.048531 0.860882,-0.1016694 0.87543,-0.1180931 0.01457,-0.016424 0.06964,-0.171104 0.122423,-0.3437329 0.0528,-0.1726289 0.159617,-0.4404815 0.237387,-0.5952278 L 70.843268,6.4580872 70.24796,5.6973861 C 69.732547,5.038781 69.652653,4.9193455 69.652653,4.8074959 c 0,-0.1190725 0.05473,-0.1845632 0.699079,-0.8364281 0.652164,-0.6597745 0.834716,-0.8075468 0.997619,-0.8075468 0.03568,0 0.422944,0.2533038 0.860656,0.5628974 0.437712,0.3095936 0.797199,0.5627612 0.798856,0.5625941 0.0014,-1.671e-4 0.189111,-0.080786 0.416564,-0.1791526 0.227453,-0.098367 0.509356,-0.207547 0.626451,-0.2426234 0.117096,-0.035076 0.212899,-0.083343 0.212899,-0.1072612 0,-0.1901017 0.192865,-1.8207411 0.221733,-1.8746721 0.02028,-0.037923 0.07783,-0.08451 0.127841,-0.1035275 0.05005,-0.019016 0.549616,-0.034574 1.110212,-0.034574 h 1.019262 l 0.152055,0.1543427 0.152054,0.1543434 0.08224,0.8534251 c 0.04524,0.4693841 0.08895,0.8782261 0.09714,0.9085374 0.0092,0.034127 0.131684,0.087333 0.321593,0.1397339 0.168678,0.046544 0.447694,0.1536594 0.620037,0.2380385 l 0.313349,0.1534166 0.757317,-0.5927569 c 0.636682,-0.4983423 0.776753,-0.5927575 0.87937,-0.5927575 0.110509,0 0.193236,0.071472 0.874474,0.7555311 0.731302,0.7343327 0.752415,0.7596664 0.752415,0.9029177 0,0.1532413 0.03671,0.1014566 -1.131606,1.5964423 -0.02001,0.025575 0.03513,0.1958884 0.146871,0.4539497 0.09837,0.2271622 0.207604,0.5060052 0.242736,0.6196512 0.07501,0.2426372 -0.04111,0.2087111 1.105158,0.3227802 0.805209,0.080127 0.907901,0.1089539 0.907901,0.2548699 0,0.035674 -0.01636,0.07496 -0.0363,0.087304 -0.02276,0.014073 -0.0363,0.3919941 -0.0363,1.0135717 0,1.0118673 -0.02111,1.1993153 -0.139219,1.2353683 -0.03328,0.01016 -0.477243,0.0615 -0.986579,0.114097 -0.509328,0.05259 -0.927412,0.09806 -0.929068,0.101035 -0.0014,0.003 -0.05534,0.172792 -0.119254,0.377364 -0.06394,0.204573 -0.172666,0.480214 -0.241637,0.612536 -0.06897,0.132323 -0.114386,0.259105 -0.100918,0.281738 0.01347,0.02263 0.2829,0.372796 0.598738,0.77814 0.412597,0.529528 0.574243,0.764161 0.574243,0.833522 0,0.07712 -0.151911,0.248938 -0.755351,0.854315 -0.683617,0.68581 -0.768984,0.759544 -0.898819,0.776348 -0.13957,0.01806 -0.163694,0.0027 -0.887888,-0.565376 -0.409434,-0.321169 -0.76259,-0.583945 -0.784796,-0.583945 -0.02221,0 -0.177479,0.0633 -0.345057,0.140683 -0.167579,0.07737 -0.435952,0.185096 -0.596387,0.23938 l -0.2917,0.0987 -0.09733,0.949969 c -0.08854,0.864102 -0.104383,0.955713 -0.175354,1.01352 -0.07054,0.05746 -0.185247,0.06355 -1.197194,0.06355 -0.94297,0 -1.127695,-0.0085 -1.173283,-0.0541 z m 2.104676,-4.912244 c 0.72486,-0.268451 1.235743,-0.777033 1.51295,-1.506138 0.109031,-0.2867723 0.114229,-0.3244165 0.114229,-0.8270295 0,-0.5026131 -0.0055,-0.5402573 -0.114229,-0.8270292 -0.27652,-0.7272909 -0.781187,-1.2306843 -1.51295,-1.50913 -0.279841,-0.106483 -0.320541,-0.1120366 -0.821014,-0.1120366 -0.500481,0 -0.541181,0.00557 -0.821021,0.1120366 -0.731763,0.2784457 -1.23643,0.7818391 -1.51295,1.50913 -0.109031,0.2867719 -0.114229,0.3244161 -0.114229,0.8270292 0,0.5004797 0.0055,0.5411764 0.112035,0.8210165 0.270697,0.711388 0.782398,1.236127 1.451474,1.488444 0.368673,0.139032 0.495751,0.157884 0.975475,0.144714 0.37693,-0.01035 0.475566,-0.0267 0.73023,-0.121007 z"
       id="path9"
       inkscape:export-filename="action-icon.svg"
       inkscape:export-xdpi="96"
       inkscape:export-ydpi="96" /><path
       style="fill:#000000;stroke-width:0.481445"
       d="m 99.272694,13.832361 c -1.497795,-0.239921 -3.034072,-0.534736 -5.278396,-1.012937 -1.41657,-0.301831 -1.799868,-0.276818 -3.246307,0.211845 -0.717046,0.242246 -1.07993,0.299244 -1.502119,0.235933 -1.099351,-0.164858 -1.947393,-1.372271 -1.767486,-2.516474 0.219837,-1.3981231 2.686497,-3.8840971 4.867651,-4.9057608 l 0.748609,-0.3506539 h 5.583974 5.58397 l 0.30746,0.3574047 c 0.42437,0.4933022 0.42201,1.2592954 -0.005,1.6865034 l -0.31266,0.3126654 h -3.19873 c -3.273496,0 -3.691497,0.055968 -3.691497,0.4942691 0,0.5102851 0.513717,0.7314004 2.738717,1.1788002 1.88857,0.3797504 3.41485,0.3791703 4.58577,-0.00173 1.34362,-0.4370964 3.30737,-1.4687825 4.53671,-2.3834349 0.92522,-0.6883771 1.17826,-0.8164795 1.61281,-0.8164795 0.41915,0 0.57699,0.073193 0.84518,0.3919209 0.78099,0.9281464 0.28739,1.6456279 -2.72739,3.9645134 -2.26931,1.745484 -4.04622,2.711633 -5.82284,3.166016 -1.16825,0.298788 -1.93089,0.296339 -3.858221,-0.01239 z m 0.358263,-9.635197 c 0.09195,-0.036797 0.201817,-0.032271 0.244145,0.010057 0.04232,0.042329 -0.03293,0.072434 -0.167186,0.066904 -0.148396,-0.00611 -0.178578,-0.036296 -0.07696,-0.076961 z"
       id="path4"
       inkscape:export-filename="hand-icon.svg"
       inkscape:export-xdpi="96"
       inkscape:export-ydpi="96" /><path
       style="fill:#000000;stroke-width:0.36747"
       d="m 129.60695,16.195845 c -0.16053,-0.163315 -0.55136,-0.571398 -0.8685,-0.906851 -0.31714,-0.335454 -0.71389,-0.754372 -0.88165,-0.930929 -0.16777,-0.176558 -0.55782,-0.588052 -0.86679,-0.914433 -0.92888,-0.981212 -1.82642,-1.925668 -2.10907,-2.219289 -0.24939,-0.259074 -0.2664,-0.285543 -0.2664,-0.414448 0,-0.133021 0.0133,-0.151149 0.39128,-0.533482 0.41349,-0.4182543 0.51533,-0.4779233 0.6727,-0.3941343 0.0416,0.02214 0.34306,0.2943153 0.66995,0.6048293 0.3269,0.310515 1.43919,1.365387 2.47177,2.34416 2.60751,2.471642 2.42064,2.283825 2.41653,2.428726 -0.003,0.112089 -0.0433,0.160342 -0.56201,0.676737 -0.69862,0.695441 -0.6504,0.68374 -1.06781,0.259114 z m -6.62186,-7.2230293 -1.32421,-1.3244949 0.36954,-0.3684914 0.36954,-0.3684915 1.33182,1.3315278 1.33182,1.331527 -0.36044,0.361459 c -0.19823,0.1988023 -0.36795,0.3614583 -0.37715,0.3614583 -0.009,0 -0.61261,-0.5960233 -1.34092,-1.3244943 z m -5.46558,0.02267 c -0.43215,-0.309928 -0.79765,-0.575364 -0.81222,-0.589856 -0.0325,-0.03237 0.37887,-0.730993 0.86145,-1.4628581 1.10184,-1.6710359 2.38873,-3.0974625 3.83091,-4.2463055 0.61843,-0.4926402 1.43885,-1.0323012 2.17161,-1.4284621 0.34842,-0.1883682 1.15269,-0.57115285 1.29096,-0.61442065 l 0.0711,-0.022254 -0.0641,0.1863923 c -0.10243,0.29777445 -0.39269,0.87820925 -0.57218,1.14421435 -0.21723,0.321919 -0.51216,0.6340181 -0.77242,0.8174082 -1.01219,0.713214 -1.649,1.4438857 -1.81548,2.0830778 -0.11796,0.4528568 -7.4e-4,0.9687119 0.30941,1.3627011 0.16952,0.2152762 0.14589,0.2723241 -0.29948,0.7228125 -0.36885,0.3730937 -0.39892,0.3960981 -0.51773,0.3960981 -0.0803,0 -0.18589,-0.033987 -0.29055,-0.09352 -0.25982,-0.1477885 -0.50737,-0.2064055 -0.78878,-0.1867749 -0.32666,0.022787 -0.47248,0.088675 -0.62066,0.2804445 -0.20069,0.2597342 -0.26076,0.4268894 -0.26786,0.7452904 -0.005,0.232758 -0.0186,0.297724 -0.0793,0.38521 -0.20059,0.288848 -0.80695,1.084309 -0.82654,1.084309 -0.0123,0 -0.37598,-0.253577 -0.80813,-0.563506 z"
       id="path12"
       inkscape:export-filename="hammer-icon.svg"
       inkscape:export-xdpi="96"
       inkscape:export-ydpi="96" /><path
       style="fill:#000000;stroke-width:0.678467"
       d="m 143.26436,16.485055 c -1.54816,-0.164597 -2.85099,-0.772286 -3.89589,-1.81718 -0.93939,-0.939386 -1.52965,-2.097142 -1.7627,-3.45736 -0.0696,-0.406114 -0.0773,-1.5794914 -0.0136,-2.0789152 0.18192,-1.426957 0.59817,-2.4727049 1.27102,-3.1931978 0.28896,-0.3094034 0.58386,-0.5098687 0.75005,-0.5098687 0.21746,0 0.28078,0.089294 0.40397,0.5697604 0.29656,1.1565471 0.83628,1.9023277 1.52867,2.112353 l 0.1331,0.040364 0.0219,-0.584382 c 0.0753,-2.0040768 0.30374,-3.145205 0.86069,-4.2983299 0.59687,-1.2357425 1.56573,-2.44179664 2.56793,-3.1965799 0.20579,-0.15498361 0.26154,-0.18155035 0.38094,-0.18155035 0.10846,0 0.15947,0.01958735 0.22709,0.08721356 0.0801,0.08012359 0.0894,0.11694739 0.11364,0.45293453 0.0353,0.48777854 0.10358,0.83596856 0.24297,1.23800656 0.22862,0.6594138 0.52285,1.1727604 1.23406,2.1531204 0.89591,1.2349745 1.01899,1.4102213 1.25736,1.7903928 0.78898,1.2583009 1.1888,2.358334 1.35603,3.7308968 0.062,0.5086283 0.0554,1.4628278 -0.0128,1.8677748 -0.22761,1.351324 -0.82182,2.517474 -1.76171,3.457361 -1.14823,1.148231 -2.63419,1.783941 -4.25319,1.819561 -0.28586,0.0061 -0.57821,0.0054 -0.64966,-0.0027 z m 1.0232,-0.747529 c 0.32802,-0.09213 0.61599,-0.267608 0.89655,-0.546315 0.6091,-0.605105 0.79736,-1.429253 0.54959,-2.405995 -0.11333,-0.446763 -0.30865,-0.830036 -0.77849,-1.527689 -0.45063,-0.669113 -0.50566,-0.764283 -0.63452,-1.097483 l -0.0859,-0.2221539 -0.14011,0.1855779 c -0.17014,0.225341 -0.40197,0.654722 -0.48711,0.902181 -0.10938,0.317914 -0.16985,0.735978 -0.19354,1.338015 -0.0188,0.479833 -0.0333,0.600417 -0.0809,0.672382 -0.15663,0.237342 -0.64867,0.178301 -1.01487,-0.121771 -0.0766,-0.06276 -0.20079,-0.209321 -0.2761,-0.325767 l -0.13692,-0.211715 -0.0393,0.09364 c -0.0778,0.184943 -0.1477,0.574838 -0.16671,0.929391 -0.0258,0.48197 0.0379,0.809025 0.23695,1.2162 0.4459,0.912104 1.42846,1.380729 2.35144,1.1215 z"
       id="path13"
       inkscape:export-filename="fire-icon.svg"
       inkscape:export-xdpi="96"
       inkscape:export-ydpi="96" /></g></svg>
