<?xml version="1.0" encoding="UTF-8" standalone="no"?>
<!-- Created with Inkscape (http://www.inkscape.org/) -->

<svg
   width="56.091663mm"
   height="62.441666mm"
   viewBox="0 0 56.091663 62.441666"
   version="1.1"
   id="svg1"
   xml:space="preserve"
   sodipodi:docname="image1.svg"
   inkscape:version="1.3.2 (091e20e, 2023-11-25, custom)"
   xmlns:inkscape="http://www.inkscape.org/namespaces/inkscape"
   xmlns:sodipodi="http://sodipodi.sourceforge.net/DTD/sodipodi-0.dtd"
   xmlns="http://www.w3.org/2000/svg"
   xmlns:svg="http://www.w3.org/2000/svg"><sodipodi:namedview
     id="namedview1"
     pagecolor="#ffffff"
     bordercolor="#000000"
     borderopacity="0.25"
     inkscape:showpageshadow="2"
     inkscape:pageopacity="0.0"
     inkscape:pagecheckerboard="0"
     inkscape:deskcolor="#d1d1d1"
     inkscape:document-units="mm"
     inkscape:zoom="3.242018"
     inkscape:cx="179.82627"
     inkscape:cy="127.23557"
     inkscape:window-width="1600"
     inkscape:window-height="837"
     inkscape:window-x="-8"
     inkscape:window-y="-8"
     inkscape:window-maximized="1"
     inkscape:current-layer="layer1" /><defs
     id="defs1" /><g
     inkscape:label="Camada 1"
     inkscape:groupmode="layer"
     id="layer1"
     transform="translate(-18.805232,-23.001901)"><path
       style="fill:#000000"
       d="m 33.057555,63.756795 c -0.08266,-0.01211 -0.259327,-0.05844 -0.392593,-0.102963 -0.429996,-0.143654 -0.734678,-0.342164 -1.056093,-0.688077 -0.203706,-0.219233 -0.314571,-0.391836 -0.444071,-0.691367 -0.194911,-0.450828 -0.181646,-0.03839 -0.181646,-5.647477 0,-4.710929 0.0029,-5.03641 0.04605,-5.204567 0.228337,-0.889346 0.856035,-1.545132 1.735315,-1.812964 0.212503,-0.06473 0.272321,-0.0713 0.652709,-0.07169 0.47039,-4.77e-4 0.661518,0.03721 1.01285,0.199697 0.186472,0.08624 7.675687,4.704073 7.99408,4.929129 0.339406,0.239908 0.670941,0.669619 0.840491,1.089382 0.233233,0.577427 0.210425,1.340698 -0.05738,1.920332 -0.177157,0.383433 -0.504161,0.771941 -0.838915,0.996701 -0.159608,0.107165 -7.541528,4.678271 -7.763822,4.807592 -0.410895,0.239042 -1.037352,0.350918 -1.546977,0.276267 z"
       id="path1"
       inkscape:export-filename="..\..\..\Chuvinha\public\svgs\play-fill.svg"
       inkscape:export-xdpi="96"
       inkscape:export-ydpi="96" /><path
       style="fill:#000000;stroke-width:0.637948"
       d="m 50.412622,63.845678 c -0.530751,-0.09426 -1.041094,-0.498904 -1.284677,-1.018604 l -0.125338,-0.267415 v -5.916991 -5.916991 l 0.15312,-0.311031 c 0.189843,-0.385626 0.55931,-0.736616 0.934366,-0.887636 0.259385,-0.104445 0.316022,-0.108217 1.624991,-0.108217 1.303198,0 1.366582,0.0041 1.620719,0.106618 0.491332,0.198067 0.85357,0.572593 1.024685,1.059446 0.08756,0.249132 0.09046,0.443015 0.09046,6.058794 0,5.591824 -0.0033,5.810615 -0.08939,6.055748 -0.121705,0.34627 -0.346573,0.645649 -0.631402,0.840615 -0.447002,0.305973 -0.527831,0.320366 -1.874772,0.33381 -0.668766,0.0067 -1.318009,-0.006 -1.442763,-0.02815 z m 8.003239,8.93e-4 C 57.869402,63.749 57.378358,63.377477 57.131546,62.87486 l -0.131807,-0.268415 -0.0124,-5.866511 c -0.01372,-6.490227 -0.02991,-6.122591 0.289382,-6.571686 0.208983,-0.293939 0.480267,-0.507967 0.814782,-0.642818 0.254136,-0.102448 0.31752,-0.106617 1.620718,-0.106617 1.30897,0 1.365606,0.0038 1.624992,0.108217 0.375055,0.15102 0.744522,0.502009 0.934366,0.887636 l 0.15312,0.311031 v 5.917974 5.917974 l -0.15312,0.311031 c -0.191287,0.388558 -0.56019,0.737988 -0.934366,0.885043 -0.251307,0.09877 -0.347683,0.106357 -1.484692,0.116942 -0.668766,0.0063 -1.315261,-0.0064 -1.436655,-0.02809 z"
       id="path2"
       inkscape:export-filename="..\..\..\Chuvinha\public\svgs\pause-fill.svg"
       inkscape:export-xdpi="96"
       inkscape:export-ydpi="96" /><g
       id="g8"
       transform="translate(0,-0.8098319)"
       inkscape:export-filename="..\..\..\Chuvinha\public\svgs\dots-fill.svg"
       inkscape:export-xdpi="96"
       inkscape:export-ydpi="96"><rect
         style="fill:#000000;fill-opacity:1;stroke-width:0.559001;stroke-dashoffset:1.13386;paint-order:markers fill stroke"
         id="rect1"
         width="3.9989238"
         height="3.9989238"
         x="68.9142"
         y="52.22327"
         ry="0.97932833" /><rect
         style="fill:#000000;fill-opacity:1;stroke-width:0.559001;stroke-dashoffset:1.13386;paint-order:markers fill stroke"
         id="rect2"
         width="3.9989238"
         height="3.9989238"
         x="74.937698"
         y="52.22327"
         ry="0.97932833" /><rect
         style="fill:#000000;fill-opacity:1;stroke-width:0.559001;stroke-dashoffset:1.13386;paint-order:markers fill stroke"
         id="rect3"
         width="3.9989238"
         height="3.9989238"
         x="80.961197"
         y="52.22327"
         ry="0.97932833" /><rect
         style="fill:#000000;fill-opacity:1;stroke-width:0.559001;stroke-dashoffset:1.13386;paint-order:markers fill stroke"
         id="rect4"
         width="3.9989238"
         height="3.9989238"
         x="86.984695"
         y="52.22327"
         ry="0.97932833" /><rect
         style="fill:#000000;fill-opacity:1;stroke-width:0.559001;stroke-dashoffset:1.13386;paint-order:markers fill stroke"
         id="rect5"
         width="3.9989238"
         height="3.9989238"
         x="68.9142"
         y="58.692539"
         ry="0.97932833" /><rect
         style="fill:#000000;fill-opacity:1;stroke-width:0.559001;stroke-dashoffset:1.13386;paint-order:markers fill stroke"
         id="rect6"
         width="3.9989238"
         height="3.9989238"
         x="74.937698"
         y="58.692539"
         ry="0.97932833" /><rect
         style="fill:#000000;fill-opacity:1;stroke-width:0.559001;stroke-dashoffset:1.13386;paint-order:markers fill stroke"
         id="rect7"
         width="3.9989238"
         height="3.9989238"
         x="80.961197"
         y="58.692539"
         ry="0.97932833" /><rect
         style="fill:#000000;fill-opacity:1;stroke-width:0.559001;stroke-dashoffset:1.13386;paint-order:markers fill stroke"
         id="rect8"
         width="3.9989238"
         height="3.9989238"
         x="86.984695"
         y="58.692539"
         ry="0.97932833" /></g></g></svg>
