<?xml version="1.0" encoding="UTF-8" standalone="no"?>
<!-- Created with Inkscape (http://www.inkscape.org/) -->

<svg
   width="12.27467mm"
   height="14.464103mm"
   viewBox="0 0 12.27467 14.464103"
   version="1.1"
   id="svg1"
   xml:space="preserve"
   inkscape:version="1.3.2 (091e20e, 2023-11-25, custom)"
   sodipodi:docname="icons.svg"
   xmlns:inkscape="http://www.inkscape.org/namespaces/inkscape"
   xmlns:sodipodi="http://sodipodi.sourceforge.net/DTD/sodipodi-0.dtd"
   xmlns="http://www.w3.org/2000/svg"
   xmlns:svg="http://www.w3.org/2000/svg"><sodipodi:namedview
     id="namedview1"
     pagecolor="#ffffff"
     bordercolor="#000000"
     borderopacity="0.25"
     inkscape:showpageshadow="2"
     inkscape:pageopacity="0.0"
     inkscape:pagecheckerboard="0"
     inkscape:deskcolor="#d1d1d1"
     inkscape:document-units="mm"
     inkscape:zoom="1.6151358"
     inkscape:cx="160.97718"
     inkscape:cy="116.70845"
     inkscape:window-width="1600"
     inkscape:window-height="837"
     inkscape:window-x="-8"
     inkscape:window-y="-8"
     inkscape:window-maximized="1"
     inkscape:current-layer="layer1" /><defs
     id="defs1" /><g
     inkscape:label="Camada 1"
     inkscape:groupmode="layer"
     id="layer1"
     transform="translate(-53.401723,-1.8475246)"><path
       style="fill:#000000;stroke-width:0.437941"
       d="m 55.068521,16.282607 c -0.232849,-0.04617 -0.413813,-0.183306 -0.515722,-0.390835 -0.06535,-0.133077 -0.06564,-0.135741 -0.07297,-0.673445 l -0.0074,-0.539839 -0.272721,-0.01134 c -0.291988,-0.01214 -0.367774,-0.03412 -0.533739,-0.154762 -0.10176,-0.07397 -0.203376,-0.223618 -0.242343,-0.356893 -0.01382,-0.04727 -0.02241,-0.694286 -0.02188,-1.648246 8.32e-4,-1.487504 0.0032,-1.576611 0.04541,-1.68763 0.06793,-0.178764 0.18965,-0.311038 0.366227,-0.397967 0.139662,-0.06875 0.177701,-0.07653 0.419515,-0.08579 l 0.265927,-0.01018 V 8.0683452 c 0,-2.1554866 0.0021,-2.2653033 0.04515,-2.4338851 0.05425,-0.212115 0.128381,-0.3640226 0.257126,-0.5268972 0.09481,-0.1199472 0.341048,-0.3309463 0.386259,-0.3309852 0.01539,-1.36e-5 0.02107,0.530409 0.01667,1.5579494 -0.0041,0.9577439 0.0025,1.6344024 0.01713,1.7563615 0.05572,0.4644307 0.368319,0.830184 0.80726,0.9445137 0.115592,0.030108 0.347024,0.03578 1.460208,0.03578 h 1.322845 l 0.0089,0.2416623 c 0.0083,0.223067 0.0141,0.248401 0.07574,0.3292405 0.10603,0.1390077 0.164762,0.1526461 0.657385,0.1526461 0.483929,0 0.551586,-0.015564 0.646593,-0.1487546 0.0445,-0.062392 0.0532,-0.1093761 0.05995,-0.3238861 l 0.0079,-0.2509082 1.334165,-5.693e-4 c 0.813904,-3.482e-4 1.374083,-0.00977 1.436525,-0.02417 0.161421,-0.037212 0.350642,-0.1403127 0.488361,-0.2660837 0.139957,-0.1278152 0.212384,-0.2312801 0.290797,-0.4154228 0.05197,-0.122034 0.05212,-0.1266306 0.06377,-1.868241 l 0.01165,-1.7459062 0.126385,0.094307 c 0.173315,0.1293266 0.339834,0.3315975 0.433557,0.5266502 0.154094,0.32068 0.15194,0.2818496 0.15194,2.7385628 v 2.2153737 l 0.262576,0.01069 c 0.330654,0.01346 0.458673,0.06342 0.622857,0.243064 0.198676,0.217381 0.190351,0.127691 0.183002,1.9715 l -0.0064,1.620097 -0.05348,0.100164 c -0.07286,0.136448 -0.205372,0.263997 -0.344287,0.331384 -0.09674,0.04693 -0.160396,0.05769 -0.388112,0.0656 l -0.272395,0.0095 -0.0088,0.540258 c -0.0075,0.457799 -0.01528,0.554508 -0.05096,0.63362 -0.07413,0.164376 -0.191337,0.284255 -0.358289,0.366447 l -0.156437,0.07702 -0.437406,0.0083 -0.437402,0.0083 -0.0066,-1.362075 -0.0066,-1.362074 -0.07242,-0.152818 C 62.952186,13.177727 62.7781,13.017383 62.509935,12.915171 l -0.133808,-0.051 -2.730816,-0.0068 c -1.84497,-0.0046 -2.782832,0.0013 -2.891176,0.01803 -0.333301,0.05156 -0.585065,0.234436 -0.732032,0.531743 l -0.0879,0.177811 -0.0066,1.360818 -0.0066,1.360818 -0.378561,-0.0025 c -0.208208,-0.0014 -0.421552,-0.01108 -0.474098,-0.0215 z m 1.600986,-1.261455 v -1.285511 l 0.06823,-0.06822 0.06822,-0.06823 h 2.742979 2.742977 l 0.06549,0.05632 0.06549,0.05632 0.0064,1.297418 0.0064,1.297417 h -2.883096 -2.8831 z M 56.192005,8.3306012 C 56.115645,8.3112052 56.042624,8.2534512 55.99305,8.1732394 55.94691,8.0985754 55.94596,8.0614349 55.94593,6.3259373 l -2.8e-5,-1.7711071 0.423776,0.00688 c 0.233076,0.00377 0.432492,-0.00184 0.443147,-0.01249 0.01065,-0.010655 0.0302,-0.1240336 0.04344,-0.2519536 0.09801,-0.9470169 0.645797,-1.7453665 1.481185,-2.1586829 0.794767,-0.3932183 1.679701,-0.3878185 2.463286,0.01503 0.814505,0.4187434 1.372398,1.2671067 1.443011,2.1943174 l 0.01577,0.2068994 h 0.449319 0.449323 l -2.2e-5,1.7645753 -1.8e-5,1.7645746 -0.05252,0.077162 c -0.0289,0.042436 -0.08216,0.099134 -0.118397,0.1259882 -0.06478,0.048013 -0.08803,0.048933 -1.394579,0.055221 l -1.328704,0.00639 V 8.1117031 c 0,-0.2775902 -0.03757,-0.3648587 -0.19078,-0.4430149 -0.08547,-0.043601 -0.128619,-0.046738 -0.551981,-0.04012 -0.437617,0.00684 -0.462855,0.00974 -0.53547,0.061536 -0.119628,0.085326 -0.153323,0.1734229 -0.164438,0.4299551 l -0.0099,0.2275676 -1.286835,-0.00272 c -0.70776,-0.00149 -1.307404,-0.00793 -1.332543,-0.014316 z m 4.982179,-3.8467757 c 0,-0.174759 -0.07326,-0.4464194 -0.178505,-0.6619634 -0.08543,-0.1749613 -0.143294,-0.2558836 -0.285261,-0.3989357 -0.320012,-0.322458 -0.648972,-0.4673635 -1.100033,-0.4845632 -0.328224,-0.012516 -0.511305,0.024971 -0.793571,0.1624927 -0.16213,0.078989 -0.236948,0.1353811 -0.40933,0.3085101 -0.1699,0.1706367 -0.229911,0.2504501 -0.308468,0.4102455 -0.05364,0.1091156 -0.113488,0.2666627 -0.13299,0.350104 -0.03688,0.1578247 -0.04749,0.3543169 -0.02058,0.3812249 0.0085,0.00856 0.738526,0.01556 1.62215,0.01556 h 1.606591 z"
       id="path5"
       inkscape:export-filename="path5.svg"
       inkscape:export-xdpi="96"
       inkscape:export-ydpi="96" /></g></svg>
