<?xml version="1.0" encoding="UTF-8" standalone="no"?>
<!-- Created with Inkscape (http://www.inkscape.org/) -->

<svg
   width="14.084985mm"
   height="14.466479mm"
   viewBox="0 0 14.084985 14.466479"
   version="1.1"
   id="svg1"
   xml:space="preserve"
   inkscape:version="1.3.2 (091e20e, 2023-11-25, custom)"
   sodipodi:docname="icons.svg"
   xmlns:inkscape="http://www.inkscape.org/namespaces/inkscape"
   xmlns:sodipodi="http://sodipodi.sourceforge.net/DTD/sodipodi-0.dtd"
   xmlns="http://www.w3.org/2000/svg"
   xmlns:svg="http://www.w3.org/2000/svg"><sodipodi:namedview
     id="namedview1"
     pagecolor="#ffffff"
     bordercolor="#000000"
     borderopacity="0.25"
     inkscape:showpageshadow="2"
     inkscape:pageopacity="0.0"
     inkscape:pagecheckerboard="0"
     inkscape:deskcolor="#d1d1d1"
     inkscape:document-units="mm"
     inkscape:zoom="1.6151358"
     inkscape:cx="150.45174"
     inkscape:cy="52.936724"
     inkscape:window-width="1600"
     inkscape:window-height="837"
     inkscape:window-x="-8"
     inkscape:window-y="-8"
     inkscape:window-maximized="1"
     inkscape:current-layer="layer1" /><defs
     id="defs1" /><g
     inkscape:label="Camada 1"
     inkscape:groupmode="layer"
     id="layer1"
     transform="translate(-52.168084,-0.75214753)"><path
       style="fill:#000000;stroke-width:0.656439"
       d="m 58.814751,15.185513 c -0.462168,-0.09643 -0.894287,-0.321299 -1.239498,-0.645012 -0.600057,-0.562689 -0.883051,-1.253279 -0.845849,-2.064122 0.02797,-0.609605 0.25129,-1.161003 0.642137,-1.585492 0.06835,-0.07423 0.12427,-0.149195 0.12427,-0.166584 0,-0.01739 -0.595176,-1.307774 -1.322612,-2.8675211 L 54.850587,5.0208788 54.7324,4.9770418 C 54.6674,4.9529308 54.12536,4.7661188 53.527874,4.5619019 52.361068,4.1630948 52.323272,4.1444434 52.217063,3.9150435 52.143083,3.7552623 52.148623,3.6851579 52.263183,3.3307793 52.380473,2.9679621 52.451745,2.8503657 52.607976,2.761879 52.817592,2.6431568 52.85834,2.6529882 54.485185,3.214801 l 1.505312,0.5198432 1.462303,3.1395003 1.462304,3.1395005 0.210503,-0.015157 c 0.736816,-0.05306 1.487844,0.210599 1.999568,0.701982 l 0.176006,0.16901 1.889268,-0.8859779 c 1.039097,-0.4872885 1.932948,-0.8940477 1.986336,-0.90391 0.278246,-0.051399 0.484758,0.1149077 0.676727,0.544981 0.165584,0.3709635 0.176993,0.5121839 0.05781,0.7155529 -0.0899,0.1534 0.02079,0.09676 -2.537628,1.298474 l -1.419294,0.666656 -0.0047,0.363841 c -0.0056,0.431079 -0.0665,0.700541 -0.240385,1.064266 -0.334085,0.698819 -0.915834,1.190808 -1.666567,1.409424 -0.268931,0.07831 -0.944696,0.101827 -1.227943,0.04273 z m 0.78246,-1.578757 c 0.291182,-0.07584 0.536242,-0.278825 0.673124,-0.557543 0.06871,-0.139917 0.0784,-0.193293 0.0784,-0.43203 0,-0.238515 -0.0097,-0.292001 -0.07789,-0.430089 -0.106757,-0.21616 -0.28802,-0.393596 -0.509904,-0.499138 -0.451351,-0.214692 -1.027755,-0.04165 -1.283894,0.385441 -0.119512,0.199275 -0.154797,0.332218 -0.154797,0.583238 0,0.176437 0.0134,0.22715 0.110053,0.416386 0.135838,0.265968 0.326494,0.432804 0.589995,0.516281 0.218342,0.06917 0.359858,0.07347 0.574907,0.01745 z M 61.196072,9.7312601 C 60.80935,9.4708257 60.253166,9.2674347 59.756905,9.2049699 L 59.480857,9.1702246 58.971833,8.0766194 C 58.691869,7.4751368 58.457315,6.9630788 58.4506,6.9387125 58.4412,6.9046565 59.123551,6.5753003 61.400646,5.514754 c 1.629241,-0.7588107 3.00311,-1.388022 3.053043,-1.3982473 0.138183,-0.028299 0.318419,0.033701 0.44116,0.1517516 0.08978,0.086352 0.223038,0.3480407 0.732673,1.4388252 0.589743,1.2622414 0.623061,1.3425731 0.625353,1.5077634 0.002,0.1461765 -0.01044,0.1930403 -0.07682,0.2888364 -0.04358,0.062894 -0.127452,0.1408462 -0.186372,0.173233 -0.116741,0.064167 -4.604737,2.1590235 -4.625469,2.1590235 -0.007,0 -0.08265,-0.047106 -0.168138,-0.1046797 z M 57.343636,4.5845162 C 56.952837,3.7463249 56.619172,3.0076465 56.602158,2.9430089 c -0.02267,-0.086101 -0.022,-0.1502064 0.0025,-0.2397591 0.06918,-0.2531045 0.06638,-0.2514733 1.932894,-1.1225311 0.951566,-0.4440725 1.774637,-0.81462837 1.829045,-0.82345748 0.145422,-0.023599 0.328168,0.0362945 0.433962,0.14222934 0.06714,0.0672299 0.2947,0.52588384 0.818841,1.65041704 0.399224,0.856523 0.72179,1.5611736 0.716816,1.5658901 -0.01094,0.010372 -4.262766,1.9927022 -4.274072,1.9927022 -0.0044,0 -0.327685,-0.6857931 -0.718483,-1.5239837 z"
       id="path4" /></g></svg>
