<?xml version="1.0" encoding="UTF-8" standalone="no"?>
<!-- Created with Inkscape (http://www.inkscape.org/) -->

<svg
   width="14.006108mm"
   height="14.001495mm"
   viewBox="0 0 14.006108 14.001495"
   version="1.1"
   id="svg1"
   xml:space="preserve"
   xmlns:inkscape="http://www.inkscape.org/namespaces/inkscape"
   xmlns:sodipodi="http://sodipodi.sourceforge.net/DTD/sodipodi-0.dtd"
   xmlns="http://www.w3.org/2000/svg"
   xmlns:svg="http://www.w3.org/2000/svg"><sodipodi:namedview
     id="namedview1"
     pagecolor="#ffffff"
     bordercolor="#000000"
     borderopacity="0.25"
     inkscape:showpageshadow="2"
     inkscape:pageopacity="0.0"
     inkscape:pagecheckerboard="0"
     inkscape:deskcolor="#d1d1d1"
     inkscape:document-units="mm" /><defs
     id="defs1" /><g
     inkscape:label="Camada 1"
     inkscape:groupmode="layer"
     id="layer1"
     transform="translate(-7.6580288,-6.1206501)"><path
       style="fill:#000000;stroke-width:0.394918"
       d="M 7.6580287,18.129917 V 16.13769 l 0.287344,0.03306 c 0.227394,0.02616 0.294368,0.09431 0.321006,0.326619 0.02869,0.250208 0.07498,0.288782 0.313467,0.261222 0.217661,-0.02515 0.287147,-0.09615 0.312867,-0.319679 0.02569,-0.223229 0.08825,-0.287344 0.280403,-0.287344 0.192153,0 0.254719,0.06412 0.280404,0.287344 0.02572,0.223527 0.0952,0.294525 0.312867,0.319679 0.2384863,0.02756 0.2847753,-0.01101 0.3134663,-0.261222 0.02664,-0.23231 0.09361,-0.300455 0.321006,-0.326619 l 0.287344,-0.03306 v 0.718813 c 0,0.662284 0.02465,0.74243 0.313467,1.019133 l 0.313466,0.300319 v -3.2587 -3.258701 h 0.306526 c 0.256718,0 0.311899,0.04669 0.339589,0.287344 0.02597,0.225693 0.09471,0.294438 0.320406,0.320407 0.258184,0.02971 0.287344,5.53e-4 0.287344,-0.287344 0,-0.284736 0.03413,-0.320407 0.306526,-0.320407 0.256718,0 0.311899,0.04669 0.339589,0.287344 0.02597,0.225693 0.09471,0.294438 0.320406,0.320407 0.258184,0.02971 0.287344,5.53e-4 0.287344,-0.287344 0,-0.286348 0.03332,-0.320407 0.313467,-0.320407 h 0.313466 v 2.559975 2.559975 h -0.313466 c -0.280146,0 -0.313467,-0.03406 -0.313467,-0.320407 0,-0.287891 -0.02916,-0.317052 -0.287344,-0.287344 l -0.287344,0.03306 -0.02843,1.959165 -0.02843,1.959164 H 10.424679 7.6580327 Z M 15.076731,14.531995 V 8.9418466 h 0.313466 c 0.278637,0 0.313467,0.034828 0.313467,0.3134662 0,0.2786365 0.03483,0.3134663 0.313466,0.3134663 0.278637,0 0.313466,-0.034828 0.313466,-0.3134663 0,-0.2786368 0.03483,-0.3134662 0.313467,-0.3134662 h 0.313466 v 2.4711004 2.471101 l 1.097132,1.113362 1.097132,1.113362 v 2.005686 2.005686 h -2.037531 -2.037531 z m 4.701994,3.597922 V 16.13769 l 0.287344,0.03306 c 0.225693,0.02597 0.294438,0.09471 0.320407,0.320406 0.02769,0.240653 0.08287,0.287345 0.339589,0.287345 0.272402,0 0.306527,-0.03567 0.306527,-0.320407 0,-0.287891 0.02914,-0.317052 0.287342,-0.287344 l 0.287343,0.03306 0.02843,1.959165 0.02843,1.959164 H 20.72143 19.778725 Z M 7.6580287,15.48009 c 0,-0.06096 1.356568,-3.314456 1.456275,-3.492621 0.06724,-0.120146 0.08889,-0.120267 0.1364,-7.51e-4 0.03106,0.07813 0.36721,0.886076 0.74699,1.795442 0.3797803,0.909367 0.6905093,1.673441 0.6905093,1.697943 0,0.0245 -0.681789,0.04455 -1.5150873,0.04455 -0.833298,0 -1.515087,-0.02005 -1.515087,-0.04455 z m 9.8219443,-1.713801 c 0,-0.133717 1.369314,-3.401336 1.470752,-3.509683 0.05275,-0.05634 0.119623,-0.01328 0.162268,0.104488 0.0399,0.110181 0.370578,0.920846 0.734847,1.801478 0.364269,0.880632 0.662307,1.621196 0.662307,1.645698 0,0.0245 -0.681789,0.04455 -1.515087,0.04455 -0.833298,0 -1.515087,-0.03894 -1.515087,-0.08653 z m -8.3395993,-2.76079 c 0.03159,-0.327641 0.05088,-0.340736 0.548262,-0.372219 0.283535,-0.01795 0.6348083,-0.0027 0.7806063,0.0339 0.238399,0.05983 0.197016,0.09701 -0.41103,0.369293 -0.8781943,0.39325 -0.9584803,0.390541 -0.9178383,-0.03097 z m 2.2792513,-0.06041 c 0,-0.122685 1.364906,-3.3964432 1.457917,-3.4968464 0.06155,-0.066443 0.52749,0.9818238 1.554842,3.4980694 0.01916,0.04692 -0.650878,0.08531 -1.488965,0.08531 -0.838086,0 -1.523794,-0.03894 -1.523794,-0.08653 z m 7.541639,-1.5972889 0.0338,-0.3537124 0.705299,-0.030894 c 0.387914,-0.016993 0.704497,0.00652 0.703516,0.052244 -9.88e-4,0.045728 -0.247836,0.1876924 -0.548566,0.3154772 -0.975341,0.4144374 -0.931951,0.413618 -0.894045,0.016887 z M 12.882468,6.4837745 V 6.12065 l 0.809788,0.00856 0.809787,0.00856 -0.574688,0.2636568 C 12.8461,6.8974882 12.882468,6.8946219 12.882468,6.4837728 Z"
       id="path2" /></g></svg>
