<?xml version="1.0" encoding="UTF-8" standalone="no"?>
<!-- Created with Inkscape (http://www.inkscape.org/) -->

<svg
   width="11.805408mm"
   height="19.596237mm"
   viewBox="0 0 11.805408 19.596237"
   version="1.1"
   id="svg1"
   xml:space="preserve"
   inkscape:version="1.3.2 (091e20e, 2023-11-25, custom)"
   sodipodi:docname="icons.svg"
   xmlns:inkscape="http://www.inkscape.org/namespaces/inkscape"
   xmlns:sodipodi="http://sodipodi.sourceforge.net/DTD/sodipodi-0.dtd"
   xmlns="http://www.w3.org/2000/svg"
   xmlns:svg="http://www.w3.org/2000/svg"><sodipodi:namedview
     id="namedview1"
     pagecolor="#ffffff"
     bordercolor="#000000"
     borderopacity="0.25"
     inkscape:showpageshadow="2"
     inkscape:pageopacity="0.0"
     inkscape:pagecheckerboard="0"
     inkscape:deskcolor="#d1d1d1"
     inkscape:document-units="mm"
     inkscape:zoom="0.76308185"
     inkscape:cx="553.02062"
     inkscape:cy="317.79029"
     inkscape:window-width="1600"
     inkscape:window-height="837"
     inkscape:window-x="-8"
     inkscape:window-y="-8"
     inkscape:window-maximized="1"
     inkscape:current-layer="layer1"
     showgrid="false" /><defs
     id="defs1" /><g
     inkscape:label="Camada 1"
     inkscape:groupmode="layer"
     id="layer1"
     transform="translate(-132.84455,-83.473302)"><path
       style="fill:#000000;stroke-width:0.409977"
       d="m 138.08381,102.98508 c -0.21567,-0.077 -0.53295,-0.23941 -0.70508,-0.36098 -0.17212,-0.12156 -0.61803,-0.37435 -0.99091,-0.56174 -0.37287,-0.1874 -0.6764,-0.37663 -0.67451,-0.42052 0.002,-0.0439 0.0757,-0.17533 0.16399,-0.29209 0.13696,-0.18114 0.55449,-0.26392 2.84397,-0.56387 l 2.68344,-0.35157 0.21694,0.22002 0.21695,0.22002 -0.37966,0.2888 c -0.20881,0.15884 -0.69694,0.58779 -1.08473,0.95322 -0.38779,0.36543 -0.8027,0.71326 -0.92202,0.77296 -0.39453,0.1974 -0.97063,0.23771 -1.36838,0.0957 z m -2.04852,-2.37294 c 0,-0.0855 -0.0976,-0.24378 -0.21695,-0.35177 -0.24632,-0.22291 -0.2816,-0.517718 -0.0814,-0.679769 0.0746,-0.06035 1.25829,-0.237828 2.63048,-0.39439 1.37219,-0.156563 2.66573,-0.310308 2.87454,-0.341655 0.30007,-0.04505 0.40752,-0.01185 0.5126,0.15846 0.11263,0.182514 0.0889,0.282672 -0.15485,0.65505 -0.1583,0.24178 -0.34016,0.439804 -0.40414,0.440044 -0.15578,4.1e-4 -4.23803,0.51825 -4.75355,0.60277 -0.31183,0.0511 -0.40677,0.0304 -0.40677,-0.0887 z m -0.27272,-1.819118 c -0.0917,-0.177352 -0.21431,-0.32246 -0.27244,-0.32246 -0.16172,0 -0.12563,-0.390774 0.0495,-0.536131 0.0872,-0.07238 1.47715,-0.268142 3.17284,-0.446868 2.81907,-0.297127 3.02656,-0.306003 3.15323,-0.134923 0.1763,0.238111 0.17192,0.282474 -0.0542,0.549788 -0.1044,0.123403 -0.23864,0.299632 -0.2983,0.391618 -0.0825,0.127237 -0.69231,0.233577 -2.54912,0.444527 -1.34235,0.152503 -2.57432,0.299693 -2.7377,0.327092 -0.24408,0.04092 -0.32677,-0.0077 -0.46379,-0.272643 z m -0.0927,-1.52833 c -0.0243,-0.08252 -0.14588,-0.583804 -0.27001,-1.113954 -0.27108,-1.157735 -0.70902,-2.128476 -1.43462,-3.180011 -0.2965,-0.429689 -0.66869,-1.113068 -0.82707,-1.518626 -0.25049,-0.641356 -0.28866,-0.899802 -0.29321,-1.984813 -0.005,-1.081963 0.0324,-1.351277 0.27874,-2.030187 0.88644,-2.443478 3.09243,-3.983484 5.67769,-3.963609 2.53606,0.01952 4.66473,1.52116 5.5726,3.931167 0.22031,0.584833 0.26784,0.912495 0.27559,1.899918 0.0118,1.498235 -0.24699,2.37218 -1.02781,3.471538 -0.6629,0.933334 -1.44254,2.515117 -1.62114,3.289065 -0.0956,0.414413 -0.19866,0.603519 -0.36459,0.669251 -0.12721,0.05039 -1.30518,0.196777 -2.6177,0.325305 -1.31253,0.128523 -2.5929,0.260979 -2.84528,0.294339 -0.33696,0.04454 -0.47065,0.02079 -0.50319,-0.08938 z"
       id="path47" /></g></svg>
