<?xml version="1.0" encoding="UTF-8" standalone="no"?>
<!-- Created with Inkscape (http://www.inkscape.org/) -->

<svg
   width="12.965717mm"
   height="12.958517mm"
   viewBox="0 0 12.965717 12.958517"
   version="1.1"
   id="svg1"
   xml:space="preserve"
   inkscape:version="1.3.2 (091e20e, 2023-11-25, custom)"
   sodipodi:docname="icons.svg"
   xmlns:inkscape="http://www.inkscape.org/namespaces/inkscape"
   xmlns:sodipodi="http://sodipodi.sourceforge.net/DTD/sodipodi-0.dtd"
   xmlns="http://www.w3.org/2000/svg"
   xmlns:svg="http://www.w3.org/2000/svg"><sodipodi:namedview
     id="namedview1"
     pagecolor="#ffffff"
     bordercolor="#000000"
     borderopacity="0.25"
     inkscape:showpageshadow="2"
     inkscape:pageopacity="0.0"
     inkscape:pagecheckerboard="0"
     inkscape:deskcolor="#d1d1d1"
     inkscape:document-units="mm"
     inkscape:zoom="1.6151358"
     inkscape:cx="160.97718"
     inkscape:cy="116.70845"
     inkscape:window-width="1600"
     inkscape:window-height="837"
     inkscape:window-x="-8"
     inkscape:window-y="-8"
     inkscape:window-maximized="1"
     inkscape:current-layer="layer1" /><defs
     id="defs1" /><g
     inkscape:label="Camada 1"
     inkscape:groupmode="layer"
     id="layer1"
     transform="translate(-36.874822,-2.4125401)"><path
       style="fill:#000000;stroke-width:0.592314"
       d="m 37.166933,15.345814 c -0.177155,-0.06425 -0.301055,-0.257815 -0.282166,-0.440825 0.01996,-0.193349 0.146159,-0.338168 0.334337,-0.383656 0.05917,-0.0143 0.6766,-0.01895 2.031151,-0.01527 l 1.946118,0.0053 0.0053,0.429847 0.0053,0.429847 -1.988989,-0.0014 c -1.480364,-0.0011 -2.004745,-0.0071 -2.050608,-0.02378 z m 4.901859,0.01276 c -0.02209,-0.02208 -0.01487,-2.564059 0.0075,-2.668649 0.02802,-0.130647 0.10709,-0.232267 0.227354,-0.292198 l 0.09991,-0.04979 h 0.956196 0.956196 l 0.09991,0.04979 c 0.121662,0.06063 0.200356,0.162979 0.227899,0.296416 0.01344,0.06525 0.01854,0.525567 0.01522,1.382632 l -0.0047,1.284818 -1.286263,0.0049 c -0.707442,0.0027 -1.29199,-8.88e-4 -1.298991,-0.0079 z m 3.449315,-0.417381 0.0053,-0.429847 1.946118,-0.0053 c 1.35455,-0.0037 1.971966,9.48e-4 2.03115,0.01527 0.187438,0.04531 0.314389,0.19041 0.334154,0.381928 0.01955,0.189222 -0.114068,0.392028 -0.293693,0.445846 -0.05354,0.01603 -0.604574,0.02193 -2.050537,0.02193 h -1.97735 z m -7.76996,-3.556768 c 0,-1.247084 0.0024,-2.2674255 0.0059,-2.2674255 0.003,0 0.08169,0.025618 0.174324,0.056933 0.311279,0.1052193 0.544947,0.140469 0.915646,0.1381288 0.275254,-0.00172 0.367057,-0.00992 0.547938,-0.048848 0.261838,-0.056353 0.577494,-0.1727898 0.781036,-0.2881103 0.08236,-0.046657 0.157935,-0.084832 0.167963,-0.084832 0.01001,0 0.04294,0.017586 0.07312,0.039087 0.1709,0.1216903 0.631697,0.2927422 0.94416,0.3504786 0.2434,0.044974 0.735802,0.04501 0.981251,7.05e-5 0.300581,-0.055032 0.65748,-0.1871641 0.931585,-0.3448889 0.08875,-0.051069 0.09192,-0.05149 0.141705,-0.018901 0.206463,0.1351743 0.622415,0.2934015 0.933996,0.3552882 0.273933,0.05441 0.74269,0.058414 1.015812,0.00868 0.307133,-0.055932 0.681907,-0.1961098 0.949444,-0.3551247 l 0.07085,-0.042113 0.07086,0.042812 c 0.122816,0.074207 0.367003,0.1856501 0.538247,0.245645 0.552362,0.1935207 1.253437,0.1942114 1.798661,0.00178 0.08737,-0.030836 0.163781,-0.056068 0.169805,-0.056068 0.006,0 0.01096,1.0203413 0.01096,2.2674263 v 2.267425 l -1.724113,-0.0048 -1.724113,-0.0048 -0.0099,-0.566832 c -0.0092,-0.529527 -0.01273,-0.574913 -0.05337,-0.689645 -0.113671,-0.320847 -0.355827,-0.606673 -0.635813,-0.750462 -0.292325,-0.150126 -0.261388,-0.147021 -1.464313,-0.147021 -0.978638,0 -1.077762,0.0029 -1.190349,0.0347 -0.418926,0.118354 -0.760957,0.442716 -0.909776,0.862786 -0.04063,0.114731 -0.04419,0.160117 -0.05337,0.689645 l -0.0099,0.566831 -1.724113,0.0048 -1.724113,0.0048 z M 38.431239,8.4159368 C 37.804743,8.2844147 37.282802,7.8560285 37.032555,7.2679592 36.913293,6.9876892 36.893646,6.8656773 36.883819,6.3442469 l -0.009,-0.4770832 h 6.482862 6.482857 v 0.3859676 c 0,0.4576353 -0.01895,0.6175712 -0.103241,0.8705089 -0.216176,0.6488276 -0.746949,1.130772 -1.417756,1.2873294 -0.231322,0.053989 -0.662053,0.049559 -0.888038,-0.00913 -0.33355,-0.086621 -0.63996,-0.259809 -0.901146,-0.5093431 l -0.148289,-0.141673 -0.146035,0.1406633 c -0.250294,0.2410912 -0.438863,0.3575176 -0.7423,0.4583134 -0.25656,0.085225 -0.460873,0.113585 -0.724044,0.1005032 -0.480372,-0.023882 -0.94525,-0.2324298 -1.283568,-0.5758279 L 43.3574,7.7438253 43.233298,7.872374 C 42.681303,8.4441427 41.814328,8.6121602 41.066851,8.2922273 40.860922,8.2040845 40.677926,8.0789428 40.491531,7.898787 L 40.334645,7.7471529 40.18922,7.8900137 C 39.718645,8.3523033 39.062764,8.5485155 38.431221,8.4159344 Z M 37.092912,4.908274 c 0.542151,-1.0936327 0.953643,-1.9000726 1.005713,-1.9710075 0.15303,-0.2084678 0.412618,-0.3906754 0.688713,-0.4834198 0.09969,-0.033489 0.282314,-0.035118 4.487416,-0.040129 3.021416,-0.00361 4.424104,0.00101 4.514189,0.014832 0.322142,0.049423 0.633717,0.2413104 0.836022,0.5148747 0.04679,0.06328 0.945575,1.8225974 1.042389,2.0404267 0.0036,0.00779 -2.834375,0.014168 -6.306317,0.014168 h -6.31262 z"
       id="path6" /></g></svg>
