<?xml version="1.0" encoding="UTF-8" standalone="no"?>
<!-- Created with Inkscape (http://www.inkscape.org/) -->

<svg
   width="13.515107mm"
   height="12.328225mm"
   viewBox="0 0 13.515107 12.328225"
   version="1.1"
   id="svg1"
   xml:space="preserve"
   inkscape:version="1.3.2 (091e20e, 2023-11-25, custom)"
   sodipodi:docname="icons.svg"
   xmlns:inkscape="http://www.inkscape.org/namespaces/inkscape"
   xmlns:sodipodi="http://sodipodi.sourceforge.net/DTD/sodipodi-0.dtd"
   xmlns="http://www.w3.org/2000/svg"
   xmlns:svg="http://www.w3.org/2000/svg"><sodipodi:namedview
     id="namedview1"
     pagecolor="#ffffff"
     bordercolor="#000000"
     borderopacity="0.25"
     inkscape:showpageshadow="2"
     inkscape:pageopacity="0.0"
     inkscape:pagecheckerboard="0"
     inkscape:deskcolor="#d1d1d1"
     inkscape:document-units="mm"
     inkscape:zoom="4.568294"
     inkscape:cx="42.466618"
     inkscape:cy="50.237572"
     inkscape:window-width="1600"
     inkscape:window-height="837"
     inkscape:window-x="-8"
     inkscape:window-y="-8"
     inkscape:window-maximized="1"
     inkscape:current-layer="layer1" /><defs
     id="defs1" /><g
     inkscape:label="Camada 1"
     inkscape:groupmode="layer"
     id="layer1"
     transform="translate(-35.689999,-2.6450659)"><path
       style="fill:#000000;stroke-width:2.40768"
       d="m 39.712165,14.945705 c -0.536509,-0.100786 -0.986965,-0.551497 -1.090651,-1.091266 -0.05916,-0.307892 0.01132,-0.688888 0.180624,-0.977957 0.150817,-0.257347 0.48308,-0.504561 0.805524,-0.599327 0.211683,-0.06222 0.566592,-0.05176 0.790126,0.02335 0.813397,0.273048 1.179127,1.18425 0.780212,1.943864 -0.101989,0.194204 -0.321967,0.430824 -0.492994,0.530278 -0.286772,0.166756 -0.653104,0.231209 -0.972846,0.171138 z m 6.980222,0.01035 c -0.519742,-0.09286 -0.936107,-0.450304 -1.097121,-0.941838 -0.04615,-0.140921 -0.05738,-0.224396 -0.05593,-0.416721 0.0031,-0.40504 0.111163,-0.666235 0.394359,-0.952698 0.285669,-0.288961 0.567332,-0.406352 0.973703,-0.405818 0.395459,5.18e-4 0.691212,0.121805 0.962249,0.394617 0.272251,0.27403 0.397773,0.582115 0.397229,0.974964 -5.01e-4,0.359012 -0.120504,0.666584 -0.359917,0.9224 -0.306821,0.327854 -0.797559,0.499609 -1.214579,0.425094 z m -6.603632,-3.601183 c -0.0816,-0.04139 -0.155368,-0.102158 -0.197045,-0.16235 -0.0463,-0.06684 -0.437076,-1.2085768 -1.28001,-3.7397129 L 37.398319,3.809322 36.754214,3.796802 C 36.156208,3.7852451 36.103201,3.7806705 36.013596,3.7330947 35.803021,3.6211375 35.690498,3.4427427 35.690004,3.220008 c -6.09e-4,-0.2750608 0.174509,-0.4955082 0.43992,-0.5537572 0.0841,-0.018539 0.401459,-0.024751 0.978243,-0.019261 1.186494,0.011075 1.081991,-0.064935 1.456708,1.0592357 l 0.254817,0.7644656 4.970253,2.359e-4 4.970251,2.36e-4 0.121227,0.05646 c 0.204243,0.095104 0.323686,0.2764622 0.323686,0.4914971 0,0.1007615 -1.031473,4.8665782 -1.111908,5.1374569 -0.04064,0.1369 -0.216957,0.308778 -0.355199,0.346306 -0.132928,0.03607 -7.247321,0.918153 -7.405402,0.918153 -0.07608,0 -0.156355,-0.02167 -0.243838,-0.06614 z m 3.893239,-1.5197481 c 1.697315,-0.2098295 3.09269,-0.3881641 3.100835,-0.3963069 0.013,-0.013001 0.847533,-3.7737385 0.847612,-3.8197757 1.7e-5,-0.00987 -1.965376,-0.018058 -4.367543,-0.018058 -3.483923,0 -4.365337,0.00602 -4.356518,0.030072 0.006,0.016613 0.354192,1.0601025 0.773582,2.3190434 l 0.762529,2.2889813 0.07673,-0.01132 c 0.04221,-0.0063 1.46545,-0.182912 3.162765,-0.3927343 z"
       id="path3" /></g></svg>
