<?xml version="1.0" encoding="UTF-8" standalone="no"?>
<!-- Created with Inkscape (http://www.inkscape.org/) -->

<svg
   width="18.435438mm"
   height="18.409569mm"
   viewBox="0 0 18.435438 18.409569"
   version="1.1"
   id="svg1"
   xml:space="preserve"
   inkscape:version="1.3.2 (091e20e, 2023-11-25, custom)"
   sodipodi:docname="icons.svg"
   xmlns:inkscape="http://www.inkscape.org/namespaces/inkscape"
   xmlns:sodipodi="http://sodipodi.sourceforge.net/DTD/sodipodi-0.dtd"
   xmlns="http://www.w3.org/2000/svg"
   xmlns:svg="http://www.w3.org/2000/svg"><sodipodi:namedview
     id="namedview1"
     pagecolor="#ffffff"
     bordercolor="#000000"
     borderopacity="0.25"
     inkscape:showpageshadow="2"
     inkscape:pageopacity="0.0"
     inkscape:pagecheckerboard="0"
     inkscape:deskcolor="#d1d1d1"
     inkscape:document-units="mm"
     inkscape:zoom="2.1583214"
     inkscape:cx="615.29298"
     inkscape:cy="159.15146"
     inkscape:window-width="1600"
     inkscape:window-height="837"
     inkscape:window-x="-8"
     inkscape:window-y="-8"
     inkscape:window-maximized="1"
     inkscape:current-layer="layer1"
     showgrid="false" /><defs
     id="defs1" /><g
     inkscape:label="Camada 1"
     inkscape:groupmode="layer"
     id="layer1"
     transform="translate(-175.00916,-30.870254)"><path
       style="fill:#000000;stroke-width:0.136051"
       d="m 180.99133,49.25234 c -0.60805,-0.102439 -1.20133,-0.552973 -1.48444,-1.127275 -0.26204,-0.531561 -0.25335,-0.364797 -0.24191,-4.640296 0.0102,-3.791475 0.0108,-3.823314 0.0863,-4.020532 0.20832,-0.544185 0.45941,-0.878846 0.86082,-1.14732 0.14953,-0.100014 0.3805,-0.21872 0.51327,-0.263792 l 0.24139,-0.08195 5.29036,-0.0096 c 5.18754,-0.0094 5.29588,-0.0082 5.57497,0.06239 0.77544,0.196092 1.3927,0.832976 1.55367,1.603055 0.0783,0.374535 0.0785,7.617256 2.8e-4,7.986662 -0.15395,0.726631 -0.68043,1.310225 -1.42222,1.576512 l -0.23398,0.08399 -5.27355,0.0052 c -2.96887,0.0029 -5.35721,-0.0089 -5.46499,-0.02705 z m 5.68205,-2.88489 c 0.17391,-0.08786 0.30132,-0.249546 0.35831,-0.454726 0.0199,-0.07162 0.0369,-0.502791 0.0378,-0.958152 l 0.001,-0.827929 0.16355,-0.120368 c 0.6413,-0.471978 0.69604,-1.509725 0.11006,-2.086461 -0.76774,-0.755613 -2.04357,-0.425169 -2.35075,0.608846 -0.1548,0.521119 0.067,1.196509 0.48891,1.488913 l 0.14015,0.09712 0.0117,0.908825 0.0117,0.908825 0.10799,0.174262 c 0.20038,0.323342 0.58128,0.431455 0.919,0.260844 z m -11.66377,-8.945228 c 1.4e-4,-0.68799 0.0165,-1.437176 0.0362,-1.664856 0.27653,-3.19193 2.42224,-5.121591 5.40879,-4.864202 1.21631,0.104825 2.15454,0.521779 2.93877,1.306003 1.05363,1.053633 1.5475,2.533797 1.55054,4.647105 l 3.7e-4,0.386966 h -1.05622 -1.05623 l -0.0237,-0.674941 c -0.0358,-1.019 -0.14976,-1.595814 -0.42404,-2.146598 -0.22075,-0.443311 -0.40976,-0.678837 -0.74644,-0.930186 -0.4393,-0.327952 -0.96372,-0.478505 -1.66093,-0.476826 -0.84642,0.002 -1.42278,0.212509 -1.90315,0.694976 -0.40476,0.406529 -0.60818,0.7883 -0.77916,1.462362 -0.13209,0.520695 -0.16144,0.93301 -0.16144,2.267778 v 1.243311 h -1.06191 -1.06191 z"
       id="path18"
       inkscape:export-filename="padlock-icon.svg"
       inkscape:export-xdpi="96"
       inkscape:export-ydpi="96" /></g></svg>
