<?xml version="1.0" encoding="UTF-8" standalone="no"?>
<!-- Created with Inkscape (http://www.inkscape.org/) -->

<svg
   width="18.814049mm"
   height="25.386742mm"
   viewBox="0 0 18.814049 25.386742"
   version="1.1"
   id="svg1"
   xml:space="preserve"
   inkscape:version="1.3.2 (091e20e, 2023-11-25, custom)"
   sodipodi:docname="icons.svg"
   xmlns:inkscape="http://www.inkscape.org/namespaces/inkscape"
   xmlns:sodipodi="http://sodipodi.sourceforge.net/DTD/sodipodi-0.dtd"
   xmlns="http://www.w3.org/2000/svg"
   xmlns:svg="http://www.w3.org/2000/svg"><sodipodi:namedview
     id="namedview1"
     pagecolor="#ffffff"
     bordercolor="#000000"
     borderopacity="0.25"
     inkscape:showpageshadow="2"
     inkscape:pageopacity="0.0"
     inkscape:pagecheckerboard="0"
     inkscape:deskcolor="#d1d1d1"
     inkscape:document-units="mm"
     inkscape:zoom="1.0791607"
     inkscape:cx="358.1487"
     inkscape:cy="597.22338"
     inkscape:window-width="1600"
     inkscape:window-height="837"
     inkscape:window-x="-8"
     inkscape:window-y="-8"
     inkscape:window-maximized="1"
     inkscape:current-layer="layer1"
     showgrid="false" /><defs
     id="defs1" /><g
     inkscape:label="Camada 1"
     inkscape:groupmode="layer"
     id="layer1"
     transform="translate(-176.70057,-81.946897)"><path
       style="fill:#000000;stroke-width:1.21224"
       d="m 185.42092,106.74617 c -0.91586,-0.81805 -2.56291,-2.51832 -3.33074,-3.43838 -1.61208,-1.93166 -2.85665,-3.800284 -3.73743,-5.611444 -2.1514,-4.423883 -2.20214,-8.315063 -0.14962,-11.473388 1.39371,-2.14459 3.51254,-3.590247 6.07505,-4.144963 0.51302,-0.111053 0.79268,-0.1311 1.82906,-0.1311 1.35146,0 1.89619,0.08145 2.99888,0.448387 3.08884,1.027874 5.48863,3.704956 6.19484,6.91066 1.00228,4.549652 -1.55772,10.42761 -6.92552,15.901548 -0.92662,0.94495 -2.1953,2.13011 -2.27596,2.12614 -0.0121,-5.9e-4 -0.31749,-0.26496 -0.67856,-0.58746 z m 1.8642,-10.332272 c 1.60129,-0.383899 2.93125,-1.478023 3.60631,-2.966823 0.32032,-0.706442 0.42325,-1.212684 0.42836,-2.106675 0.004,-0.656569 -0.0201,-0.897765 -0.129,-1.303215 -0.27084,-1.008724 -0.7932,-1.879721 -1.53905,-2.566276 -0.99491,-0.91581 -2.19121,-1.38237 -3.5445,-1.38237 -1.35329,0 -2.54959,0.46656 -3.54449,1.38237 -2.71657,2.500596 -2.06792,6.881635 1.26642,8.553531 0.98634,0.494566 2.36806,0.650274 3.45595,0.389458 z"
       id="path38" /></g></svg>
