<?xml version="1.0" encoding="UTF-8" standalone="no"?>
<!-- Created with Inkscape (http://www.inkscape.org/) -->

<svg
   width="26.072309mm"
   height="19.605288mm"
   viewBox="0 0 26.072309 19.605288"
   version="1.1"
   id="svg1"
   xml:space="preserve"
   inkscape:version="1.3.2 (091e20e, 2023-11-25, custom)"
   sodipodi:docname="icons.svg"
   xmlns:inkscape="http://www.inkscape.org/namespaces/inkscape"
   xmlns:sodipodi="http://sodipodi.sourceforge.net/DTD/sodipodi-0.dtd"
   xmlns="http://www.w3.org/2000/svg"
   xmlns:svg="http://www.w3.org/2000/svg"><sodipodi:namedview
     id="namedview1"
     pagecolor="#ffffff"
     bordercolor="#000000"
     borderopacity="0.25"
     inkscape:showpageshadow="2"
     inkscape:pageopacity="0.0"
     inkscape:pagecheckerboard="0"
     inkscape:deskcolor="#d1d1d1"
     inkscape:document-units="mm"
     inkscape:zoom="0.76308185"
     inkscape:cx="553.02062"
     inkscape:cy="317.79029"
     inkscape:window-width="1600"
     inkscape:window-height="837"
     inkscape:window-x="-8"
     inkscape:window-y="-8"
     inkscape:window-maximized="1"
     inkscape:current-layer="layer1"
     showgrid="false" /><defs
     id="defs1" /><g
     inkscape:label="Camada 1"
     inkscape:groupmode="layer"
     id="layer1"
     transform="translate(-102.41372,-83.05042)"><path
       style="fill:#000000;stroke-width:0.439236"
       d="m 113.70836,102.51973 c -1.57083,-0.36112 -2.82939,-0.95716 -4.08486,-1.93452 l -0.71786,-0.55885 -1.19968,0.23746 c -1.37931,0.27301 -2.82601,0.24512 -3.72206,-0.0718 -0.67588,-0.239023 -1.31015,-0.914734 -1.49449,-1.592141 -0.37363,-1.372984 0.65467,-3.550574 2.67011,-5.65442 0.66262,-0.691677 0.71429,-0.786077 0.82706,-1.51079 0.75349,-4.842358 4.81298,-8.380971 9.61838,-8.384243 1.40035,-8.79e-4 2.67107,0.234095 3.78574,0.700264 l 0.79812,0.33378 1.23563,-0.311445 c 1.03245,-0.260225 1.49362,-0.31187 2.80453,-0.314049 1.96141,-0.0031 2.56141,0.18003 3.445,1.052409 0.50284,0.496468 0.61936,0.694308 0.73392,1.246177 0.16166,0.778659 0.0769,1.492559 -0.29601,2.494209 -0.74554,2.002357 -3.32869,4.852714 -5.88469,6.493425 -1.61407,1.036073 -4.01742,2.108726 -5.7924,2.585226 -0.80016,0.214809 -0.82823,0.232413 -0.38108,0.238945 0.75732,0.01107 3.8515,-0.546502 5.42304,-0.977212 0.78495,-0.215133 1.94758,-0.597742 2.58362,-0.850245 0.63603,-0.252504 1.17214,-0.41886 1.19134,-0.369683 0.0724,0.185357 -0.70033,1.976318 -1.15881,2.685833 -0.73434,1.136403 -1.24025,1.706377 -2.17545,2.45098 -1.01084,0.80482 -2.33494,1.49735 -3.5207,1.84138 -1.09534,0.3178 -3.64236,0.40976 -4.6884,0.16927 z m -6.49599,-4.813126 c -0.65578,-1.038818 -1.12007,-2.503181 -1.29134,-4.072816 l -0.0815,-0.746766 -0.27565,0.456234 c -0.72577,1.201234 -0.92796,2.615011 -0.50031,3.498406 0.34883,0.720592 1.26216,1.285989 2.11239,1.307674 l 0.32105,0.0082 z M 125.19915,88.6146 c 0.25505,-0.789728 0.24401,-1.894956 -0.0249,-2.485266 -0.50031,-1.098511 -1.77996,-1.775487 -3.56016,-1.88342 -0.63946,-0.03879 -1.00076,-0.02187 -0.92971,0.04348 0.0639,0.0588 0.5218,0.411072 1.01751,0.782836 0.49571,0.371765 1.16381,0.990107 1.48466,1.3741 0.60128,0.719597 1.42594,2.040133 1.56196,2.501198 0.11937,0.404633 0.24152,0.314379 0.45058,-0.332932 z"
       id="path48" /></g></svg>
