<?xml version="1.0" encoding="UTF-8" standalone="no"?>
<!-- Created with Inkscape (http://www.inkscape.org/) -->

<svg
   width="12.135693mm"
   height="12.13621mm"
   viewBox="0 0 12.135693 12.13621"
   version="1.1"
   id="svg1"
   xml:space="preserve"
   inkscape:version="1.3.2 (091e20e, 2023-11-25, custom)"
   sodipodi:docname="icons.svg"
   xmlns:inkscape="http://www.inkscape.org/namespaces/inkscape"
   xmlns:sodipodi="http://sodipodi.sourceforge.net/DTD/sodipodi-0.dtd"
   xmlns="http://www.w3.org/2000/svg"
   xmlns:svg="http://www.w3.org/2000/svg"><sodipodi:namedview
     id="namedview1"
     pagecolor="#ffffff"
     bordercolor="#000000"
     borderopacity="0.25"
     inkscape:showpageshadow="2"
     inkscape:pageopacity="0.0"
     inkscape:pagecheckerboard="0"
     inkscape:deskcolor="#d1d1d1"
     inkscape:document-units="mm"
     inkscape:zoom="1.0791607"
     inkscape:cx="298.84335"
     inkscape:cy="137.60694"
     inkscape:window-width="1600"
     inkscape:window-height="837"
     inkscape:window-x="-8"
     inkscape:window-y="-8"
     inkscape:window-maximized="1"
     inkscape:current-layer="layer1" /><defs
     id="defs1" /><g
     inkscape:label="Camada 1"
     inkscape:groupmode="layer"
     id="layer1"
     transform="translate(-102.72861,-33.956584)"><path
       id="rect1"
       style="fill:#000000;stroke-width:0.172;stroke-dashoffset:1.13386;paint-order:markers fill stroke"
       d="m 108.79646,33.956584 c -0.57726,0 -1.0418,0.465049 -1.0418,1.042313 v 3.983736 h -3.98425 c -0.57726,0 -1.0418,0.46505 -1.0418,1.042314 0,0.577264 0.46454,1.041797 1.0418,1.041797 h 3.98425 v 3.984253 c 0,0.577264 0.46454,1.041797 1.0418,1.041797 0.57726,0 1.0418,-0.464533 1.0418,-1.041797 v -3.984253 h 3.98425 c 0.57726,0 1.0418,-0.464533 1.0418,-1.041797 0,-0.577264 -0.46454,-1.042314 -1.0418,-1.042314 h -3.98425 v -3.983736 c 0,-0.577264 -0.46454,-1.042313 -1.0418,-1.042313 z" /></g></svg>
