<?xml version="1.0" encoding="UTF-8" standalone="no"?>
<!-- Created with Inkscape (http://www.inkscape.org/) -->

<svg
   width="13.456143mm"
   height="16.200199mm"
   viewBox="0 0 13.456143 16.200199"
   version="1.1"
   id="svg1"
   xml:space="preserve"
   inkscape:version="1.3.2 (091e20e, 2023-11-25, custom)"
   sodipodi:docname="icons.svg"
   xmlns:inkscape="http://www.inkscape.org/namespaces/inkscape"
   xmlns:sodipodi="http://sodipodi.sourceforge.net/DTD/sodipodi-0.dtd"
   xmlns="http://www.w3.org/2000/svg"
   xmlns:svg="http://www.w3.org/2000/svg"><sodipodi:namedview
     id="namedview1"
     pagecolor="#ffffff"
     bordercolor="#000000"
     borderopacity="0.25"
     inkscape:showpageshadow="2"
     inkscape:pageopacity="0.0"
     inkscape:pagecheckerboard="0"
     inkscape:deskcolor="#d1d1d1"
     inkscape:document-units="mm"
     inkscape:zoom="1.6151358"
     inkscape:cx="160.97718"
     inkscape:cy="116.70845"
     inkscape:window-width="1600"
     inkscape:window-height="837"
     inkscape:window-x="-8"
     inkscape:window-y="-8"
     inkscape:window-maximized="1"
     inkscape:current-layer="layer1" /><defs
     id="defs1" /><g
     inkscape:label="Camada 1"
     inkscape:groupmode="layer"
     id="layer1"
     transform="translate(-22.76977,-20.576429)"><path
       d="m 28.701527,36.497102 c -2.32857,-0.865907 -4.382687,-2.911604 -5.100131,-5.079227 -0.536437,-1.620746 -0.702112,-2.897672 -0.769066,-5.92753 l -0.06256,-2.830746 1.141537,-9.2e-4 c 2.241902,-0.0018 3.530433,-0.399838 4.885427,-1.509123 l 0.700076,-0.573128 0.700078,0.573128 c 1.355194,1.10945 2.643468,1.507317 4.886457,1.509123 l 1.142569,9.2e-4 -0.06697,2.830746 c -0.09584,4.051043 -0.504065,5.977303 -1.623624,7.661362 -0.965472,1.452277 -2.733532,2.825039 -4.358661,3.384167 -0.394883,0.135858 -0.723087,0.244161 -0.729345,0.240672 -0.0063,-0.0035 -0.341863,-0.129239 -0.745791,-0.279444 z m 2.181562,-1.281539 c 0.970608,-0.511234 2.441816,-1.828136 2.976156,-2.664007 0.883367,-1.381854 1.332046,-3.617576 1.386545,-6.90902 l 0.03427,-2.069793 -1.278401,-0.07179 c -1.815905,-0.101972 -2.930065,-0.473884 -4.041364,-1.349032 l -0.449665,-0.35411 -0.58523,0.416321 c -1.316697,0.936669 -2.478686,1.293033 -4.225619,1.295935 l -1.083583,0.0018 0.08371,2.161106 c 0.131777,3.401888 0.57117,5.535428 1.408831,6.840811 0.537214,0.837176 1.900935,2.090178 2.856434,2.624524 1.387162,0.775746 1.581991,0.780903 2.917912,0.07725 z m -1.386272,-6.288724 c 0,-3.380017 0.02076,-6.145487 0.04613,-6.145487 0.02537,0 0.367799,0.19375 0.760954,0.430555 0.944559,0.568928 2.067504,0.905828 3.318755,0.995675 l 1.021145,0.07333 -0.08281,1.776587 c -0.141841,3.042771 -0.544081,4.923967 -1.309844,6.12588 -0.661301,1.03795 -2.240985,2.313753 -3.419501,2.761694 l -0.334819,0.12726 z"
       style="fill:#000000;stroke-width:0.460167"
       id="path1-2" /></g></svg>
