<?xml version="1.0" encoding="UTF-8" standalone="no"?>
<!-- Created with Inkscape (http://www.inkscape.org/) -->

<svg
   width="13.456026mm"
   height="16.200127mm"
   viewBox="0 0 13.456026 16.200127"
   version="1.1"
   id="svg1"
   xml:space="preserve"
   inkscape:version="1.3.2 (091e20e, 2023-11-25, custom)"
   sodipodi:docname="icons.svg"
   xmlns:inkscape="http://www.inkscape.org/namespaces/inkscape"
   xmlns:sodipodi="http://sodipodi.sourceforge.net/DTD/sodipodi-0.dtd"
   xmlns="http://www.w3.org/2000/svg"
   xmlns:svg="http://www.w3.org/2000/svg"><sodipodi:namedview
     id="namedview1"
     pagecolor="#ffffff"
     bordercolor="#000000"
     borderopacity="0.25"
     inkscape:showpageshadow="2"
     inkscape:pageopacity="0.0"
     inkscape:pagecheckerboard="0"
     inkscape:deskcolor="#d1d1d1"
     inkscape:document-units="mm"
     inkscape:zoom="0.76308185"
     inkscape:cx="553.02062"
     inkscape:cy="317.79029"
     inkscape:window-width="1600"
     inkscape:window-height="837"
     inkscape:window-x="-8"
     inkscape:window-y="-8"
     inkscape:window-maximized="1"
     inkscape:current-layer="layer1"
     showgrid="false" /><defs
     id="defs1" /><g
     inkscape:label="Camada 1"
     inkscape:groupmode="layer"
     id="layer1"
     transform="translate(-25.712126,-25.480098)"><path
       id="path1-2"
       style="fill:#000000;stroke-width:0.460167"
       d="m 32.438847,25.480098 -0.700216,0.573092 c -1.354992,1.109284 -2.643073,1.507152 -4.884973,1.508952 l -1.141532,10e-4 0.06253,2.830835 c 0.06695,3.029855 0.232509,4.306543 0.768945,5.927287 0.717444,2.167621 2.77138,4.213371 5.099948,5.079277 0.403927,0.150205 0.73939,0.276069 0.74569,0.279569 0.0063,0.0035 0.334789,-0.104954 0.729672,-0.240812 1.625127,-0.559127 3.392919,-1.932014 4.35839,-3.384289 1.119558,-1.684058 1.527834,-3.609993 1.623673,-7.661032 l 0.06718,-2.830835 -1.142566,-10e-4 c -2.242987,-0.0018 -3.531331,-0.399503 -4.886524,-1.508952 z m 0.01395,1.221115 0.449585,0.353983 c 1.111298,0.875147 2.225711,1.2473 4.041614,1.349272 l 1.277958,0.07183 -0.03411,2.069641 c -0.0545,3.291441 -0.503113,5.527287 -1.386479,6.909139 -0.534339,0.83587 -2.005438,2.152687 -2.976045,2.66392 -1.33592,0.703653 -1.531008,0.698748 -2.918169,-0.077 -0.955498,-0.534345 -2.318943,-1.787471 -2.856156,-2.624646 -0.83766,-1.305381 -1.277439,-3.439041 -1.409216,-6.840926 l -0.08372,-2.161108 1.083655,-0.0016 c 1.746931,-0.0029 2.908886,-0.359377 4.225582,-1.296045 z m 0.793234,1.414384 c 0.118069,0.07111 0.238705,0.138219 0.362252,0.202054 -0.123547,-0.06384 -0.244183,-0.130939 -0.362252,-0.202054 z m 0.362252,0.202054 c 0.123546,0.06384 0.24996,0.124371 0.378788,0.180868 -0.128828,-0.0565 -0.255242,-0.117032 -0.378788,-0.180868 z" /><path
       d="m 32.438918,33.830341 c 0,-3.380017 0.02076,-6.145487 0.04613,-6.145487 0.02537,0 0.367799,0.19375 0.760954,0.430555 0.944559,0.568928 2.067504,0.905828 3.318755,0.995675 l 1.021145,0.07333 -0.08281,1.776587 c -0.141841,3.042771 -0.544081,4.923967 -1.309844,6.12588 -0.661301,1.03795 -2.240985,2.313753 -3.419501,2.761694 l -0.334819,0.12726 z"
       style="opacity:0.5;fill:#000000;stroke-width:0.460167"
       id="path1-4" /></g></svg>
