<?xml version="1.0" encoding="UTF-8" standalone="no"?>
<!-- Created with Inkscape (http://www.inkscape.org/) -->

<svg
   width="7.3877482mm"
   height="11.85333mm"
   viewBox="0 0 7.3877482 11.85333"
   version="1.1"
   id="svg1"
   xml:space="preserve"
   inkscape:version="1.3.2 (091e20e, 2023-11-25, custom)"
   sodipodi:docname="icons.svg"
   xmlns:inkscape="http://www.inkscape.org/namespaces/inkscape"
   xmlns:sodipodi="http://sodipodi.sourceforge.net/DTD/sodipodi-0.dtd"
   xmlns="http://www.w3.org/2000/svg"
   xmlns:svg="http://www.w3.org/2000/svg"><sodipodi:namedview
     id="namedview1"
     pagecolor="#ffffff"
     bordercolor="#000000"
     borderopacity="0.25"
     inkscape:showpageshadow="2"
     inkscape:pageopacity="0.0"
     inkscape:pagecheckerboard="0"
     inkscape:deskcolor="#d1d1d1"
     inkscape:document-units="mm"
     inkscape:zoom="4.568294"
     inkscape:cx="42.466618"
     inkscape:cy="50.237572"
     inkscape:window-width="1600"
     inkscape:window-height="837"
     inkscape:window-x="-8"
     inkscape:window-y="-8"
     inkscape:window-maximized="1"
     inkscape:current-layer="layer1" /><defs
     id="defs1" /><g
     inkscape:label="Camada 1"
     inkscape:groupmode="layer"
     id="layer1"
     transform="translate(-2.6184815,-2.6458337)"><path
       style="fill:#000000"
       d="m 2.6647264,13.291197 c 0.06903,0.256399 0.124492,0.338901 0.4589,0.682614 0.4167477,0.428345 0.5963729,0.522053 1.0007019,0.522053 0.51194,0 0.267158,0.207504 3.148287,-2.668829 2.9362127,-2.9313251 2.7305077,-2.6859931 2.7305077,-3.2565111 0,-0.569207 0.201626,-0.328153 -2.6991047,-3.226919 -2.064556,-2.063157 -2.557017,-2.539862 -2.696851,-2.61057 -0.1509,-0.0763 -0.205915,-0.08658 -0.466562,-0.08718 -0.256445,-5.84e-4 -0.319025,0.01036 -0.4736112,0.08281 -0.205347,0.09624 -0.7128867,0.567705 -0.8630297,0.801681 -0.140531,0.218999 -0.2067677,0.522438 -0.165899,0.760001 0.06909,0.401584 0.02826,0.354181 2.0588559,2.390595 l 1.884175,1.889574 -1.868641,1.8740261 c -1.027753,1.030716 -1.8982669,1.923822 -1.9344759,1.98468 -0.07997,0.134412 -0.1622217,0.43774 -0.1594287,0.587951 0.0011,0.06056 0.02191,0.183867 0.04618,0.27402 z"
       id="path1"
       inkscape:export-filename="styled-arrow-icon.svg"
       inkscape:export-xdpi="96"
       inkscape:export-ydpi="96" /></g></svg>
