<?xml version="1.0" encoding="UTF-8" standalone="no"?>
<!-- Created with Inkscape (http://www.inkscape.org/) -->

<svg
   width="14.007267mm"
   height="12.100098mm"
   viewBox="0 0 14.007267 12.100098"
   version="1.1"
   id="svg1"
   xml:space="preserve"
   inkscape:version="1.3.2 (091e20e, 2023-11-25, custom)"
   sodipodi:docname="icons.svg"
   xmlns:inkscape="http://www.inkscape.org/namespaces/inkscape"
   xmlns:sodipodi="http://sodipodi.sourceforge.net/DTD/sodipodi-0.dtd"
   xmlns="http://www.w3.org/2000/svg"
   xmlns:svg="http://www.w3.org/2000/svg"><sodipodi:namedview
     id="namedview1"
     pagecolor="#ffffff"
     bordercolor="#000000"
     borderopacity="0.25"
     inkscape:showpageshadow="2"
     inkscape:pageopacity="0.0"
     inkscape:pagecheckerboard="0"
     inkscape:deskcolor="#d1d1d1"
     inkscape:document-units="mm"
     inkscape:zoom="0.76308185"
     inkscape:cx="553.02062"
     inkscape:cy="317.79029"
     inkscape:window-width="1600"
     inkscape:window-height="837"
     inkscape:window-x="-8"
     inkscape:window-y="-8"
     inkscape:window-maximized="1"
     inkscape:current-layer="layer1"
     showgrid="false" /><defs
     id="defs1" /><g
     inkscape:label="Camada 1"
     inkscape:groupmode="layer"
     id="layer1"
     transform="translate(-3.9458741,-27.83476)"><path
       id="path47"
       style="fill:#000000"
       d="m 6.701038,33.768207 c -0.052714,-0.01937 -0.092394,-0.01548 -0.1221919,0.0074 -0.1123982,0.08616 -0.2074973,0.225541 -0.2114492,0.309851 -0.00396,0.08431 0.7330391,1.060345 1.6374967,2.168931 0.9044566,1.108587 1.6845575,2.03765 1.7337384,2.06448 0.1791593,0.09787 0.645611,-0.275724 0.553497,-0.44336 C 10.240974,37.782369 9.4305844,36.78645 8.4913529,35.662433 7.4123662,34.371167 6.9294643,33.852136 6.701038,33.768207 Z m 0.255777,2.377534 c -0.018178,-0.0089 -0.033565,-0.01411 -0.045332,-0.01448 -0.094143,-0.0029 -0.588888,0.340278 -1.0992441,0.762379 -0.5860526,0.484709 -1.0079141,0.72145 -1.1449324,0.642604 -0.2414476,-0.13894 -0.8060872,0.122374 -0.7106856,0.328821 0.033461,0.07241 0.449439,0.592943 0.9244149,1.157202 0.7444607,0.884397 0.8985356,1.003738 1.1175726,0.862647 0.1791095,-0.115375 0.2352345,-0.255386 0.1896788,-0.473687 -0.050424,-0.241628 0.1568316,-0.494424 0.9429471,-1.150252 L 8.1385392,37.420729 7.6106099,36.778305 C 7.3565621,36.469356 7.0840621,36.208258 6.956815,36.145741 Z"
       inkscape:export-filename="sword-icon.svg"
       inkscape:export-xdpi="96"
       inkscape:export-ydpi="96" /><path
       d="M 9.0959303,35.356211 C 8.5433257,34.684213 8.0929364,34.074714 8.0950662,34.001769 c 0.00212,-0.07294 1.5371526,-1.490362 3.4111648,-3.149818 l 3.407295,-3.017191 1.254229,0.0017 c 1.952046,0.0026 1.918857,-0.03069 1.658994,1.663117 l -0.222774,1.452059 -3.210991,2.545577 c -3.560683,2.822801 -4.043123,3.182214 -4.190836,3.122133 -0.05583,-0.02267 -0.5536109,-0.591092 -1.1062177,-1.263092 z"
       style="opacity:0.5;fill:#000000"
       id="path1-39" /></g></svg>
