<?xml version="1.0" encoding="UTF-8" standalone="no"?>
<!-- Created with Inkscape (http://www.inkscape.org/) -->

<svg
   width="14.271832mm"
   height="14.268029mm"
   viewBox="0 0 14.271832 14.268029"
   version="1.1"
   id="svg1"
   xml:space="preserve"
   inkscape:version="1.3.2 (091e20e, 2023-11-25, custom)"
   sodipodi:docname="icons.svg"
   xmlns:inkscape="http://www.inkscape.org/namespaces/inkscape"
   xmlns:sodipodi="http://sodipodi.sourceforge.net/DTD/sodipodi-0.dtd"
   xmlns="http://www.w3.org/2000/svg"
   xmlns:svg="http://www.w3.org/2000/svg"><sodipodi:namedview
     id="namedview1"
     pagecolor="#ffffff"
     bordercolor="#000000"
     borderopacity="0.25"
     inkscape:showpageshadow="2"
     inkscape:pageopacity="0.0"
     inkscape:pagecheckerboard="0"
     inkscape:deskcolor="#d1d1d1"
     inkscape:document-units="mm"
     inkscape:zoom="1.6151358"
     inkscape:cx="160.97718"
     inkscape:cy="116.70845"
     inkscape:window-width="1600"
     inkscape:window-height="837"
     inkscape:window-x="-8"
     inkscape:window-y="-8"
     inkscape:window-maximized="1"
     inkscape:current-layer="layer1" /><defs
     id="defs1" /><g
     inkscape:label="Camada 1"
     inkscape:groupmode="layer"
     id="layer1"
     transform="translate(-1.9706068,-21.230636)"><path
       style="fill:#000000;stroke-width:1.29409"
       d="M 2.8801534,35.464109 C 2.6701418,35.407545 2.5050171,35.308961 2.3341997,35.138143 2.0852878,34.889233 1.9706068,34.615139 1.9706068,34.269142 c 0,-0.346264 0.1117706,-0.611686 0.3657903,-0.868642 0.2538437,-0.256778 0.5694918,-0.378058 0.9375015,-0.36021 l 0.1744745,0.0084 0.4894989,-0.549176 C 4.207096,32.197468 4.6243704,31.730669 4.8651476,31.462182 5.1059249,31.193697 5.3990869,30.86447 5.5166175,30.730568 l 0.213692,-0.243447 -0.6360198,-0.636358 -0.6360185,-0.636359 0.287758,-0.280581 c 0.357204,-0.348296 0.4924675,-0.402742 0.7270978,-0.292673 0.138161,0.06481 3.3155487,3.249852 3.3674301,3.375538 0.09487,0.229813 0.039962,0.358782 -0.3020874,0.709577 L 8.2578888,33.014023 7.6215507,32.378024 6.9852126,31.742025 6.72953,31.965242 c -0.1406262,0.122771 -0.5632206,0.499448 -0.939101,0.837064 -0.3758803,0.337616 -0.8366672,0.75013 -1.02397,0.916696 l -0.3405504,0.30285 0.00686,0.196941 c 0.012553,0.364813 -0.1052872,0.664444 -0.3608728,0.917103 -0.1801788,0.17812 -0.339836,0.273063 -0.5521937,0.328375 -0.1763962,0.04594 -0.468466,0.04585 -0.6394957,-2.11e-4 z m 4.4784497,-5.35056 C 6.9592156,29.714266 6.6324564,29.374875 6.6324706,29.359347 6.6324862,29.343817 6.7178156,29.233989 6.8220912,29.115269 7.02432,28.88504 7.0416699,28.864992 8.7198534,26.922392 11.055382,24.218874 12.341625,22.731261 12.709315,22.308355 l 0.382816,-0.440302 0.632719,-0.130061 c 0.347995,-0.07154 0.720587,-0.149403 0.827981,-0.173046 0.704354,-0.155058 1.674955,-0.346892 1.688185,-0.333662 0.01377,0.01377 -0.07286,0.462978 -0.238479,1.236683 -0.02731,0.127532 -0.128503,0.610257 -0.224903,1.072725 l -0.175267,0.840851 -0.475952,0.413106 c -0.261774,0.227207 -0.62423,0.541761 -0.805458,0.699008 -0.181228,0.157246 -0.823764,0.71263 -1.427856,1.234186 -0.604094,0.521556 -1.251353,1.080741 -1.438354,1.242632 -0.187001,0.16189 -0.511738,0.442624 -0.721637,0.623851 -0.7648938,0.660415 -1.4164569,1.223744 -1.9998589,1.729043 -0.3279692,0.284062 -0.6080493,0.516401 -0.6223982,0.516311 -0.014351,-9e-5 -0.3528623,-0.32685 -0.7522498,-0.726131 z"
       id="path7" /></g></svg>
