<?xml version="1.0" encoding="UTF-8" standalone="no"?>
<!-- Created with Inkscape (http://www.inkscape.org/) -->

<svg
   width="13.231718mm"
   height="13.217711mm"
   viewBox="0 0 13.231718 13.217711"
   version="1.1"
   id="svg1"
   xml:space="preserve"
   inkscape:version="1.3.2 (091e20e, 2023-11-25, custom)"
   sodipodi:docname="icons.svg"
   xmlns:inkscape="http://www.inkscape.org/namespaces/inkscape"
   xmlns:sodipodi="http://sodipodi.sourceforge.net/DTD/sodipodi-0.dtd"
   xmlns="http://www.w3.org/2000/svg"
   xmlns:svg="http://www.w3.org/2000/svg"><sodipodi:namedview
     id="namedview1"
     pagecolor="#ffffff"
     bordercolor="#000000"
     borderopacity="0.25"
     inkscape:showpageshadow="2"
     inkscape:pageopacity="0.0"
     inkscape:pagecheckerboard="0"
     inkscape:deskcolor="#d1d1d1"
     inkscape:document-units="mm"
     inkscape:zoom="0.76308185"
     inkscape:cx="260.78461"
     inkscape:cy="497.32542"
     inkscape:window-width="1600"
     inkscape:window-height="837"
     inkscape:window-x="-8"
     inkscape:window-y="-8"
     inkscape:window-maximized="1"
     inkscape:current-layer="layer1" /><defs
     id="defs1" /><g
     inkscape:label="Camada 1"
     inkscape:groupmode="layer"
     id="layer1"
     transform="translate(-175.38781,-6.1480406)"><path
       style="fill:#000000;stroke-width:0.369727"
       d="m 181.33227,19.339343 c -0.47225,-0.04749 -0.96612,-0.15421 -1.4306,-0.309133 -0.36866,-0.122967 -0.51341,-0.183247 -0.86343,-0.359578 -1.57349,-0.792672 -2.75408,-2.152975 -3.30884,-3.812505 -0.35485,-1.061508 -0.43847,-2.308855 -0.22629,-3.375687 0.21009,-1.056339 0.66887,-2.0373394 1.35181,-2.8905691 0.20961,-0.2618665 0.70666,-0.7635119 0.94113,-0.9498246 1.03564,-0.8229565 2.12633,-1.2903874 3.40112,-1.4576112 0.36927,-0.048442 1.25109,-0.048545 1.61954,-1.959e-4 1.63239,0.2142234 3.05069,0.963767 4.14688,2.1915374 0.64521,0.7226644 1.15278,1.6580804 1.41107,2.6004854 0.2744,1.001238 0.31952,2.071435 0.12855,3.049082 -0.55823,2.857733 -2.95739,5.035624 -5.85362,5.313773 -0.36875,0.03542 -0.96637,0.03553 -1.31732,2.26e-4 z m 1.29433,-0.992621 c 1.31455,-0.153769 2.42884,-0.69123 3.35534,-1.618398 0.94464,-0.945314 1.50607,-2.133279 1.62972,-3.448457 0.0291,-0.309055 0.0132,-1.004012 -0.0295,-1.292055 -0.14925,-1.006644 -0.52034,-1.885718 -1.13745,-2.6945212 -0.19889,-0.2606722 -0.65182,-0.718664 -0.92059,-0.9308724 -0.62074,-0.4901173 -1.34098,-0.8527343 -2.08597,-1.0502165 -0.41426,-0.1098126 -0.90247,-0.1805118 -1.2465,-0.1805118 h -0.18389 v 5.6222029 5.6222 h 0.18389 c 0.10113,0 0.29688,-0.0132 0.43499,-0.02936 z"
       id="path16" /></g></svg>
