<?xml version="1.0" encoding="UTF-8" standalone="no"?>
<!-- Created with Inkscape (http://www.inkscape.org/) -->

<svg
   width="19.313953mm"
   height="12.119399mm"
   viewBox="0 0 19.313953 12.119399"
   version="1.1"
   id="svg1"
   xml:space="preserve"
   inkscape:version="1.3.2 (091e20e, 2023-11-25, custom)"
   sodipodi:docname="icons.svg"
   xmlns:inkscape="http://www.inkscape.org/namespaces/inkscape"
   xmlns:sodipodi="http://sodipodi.sourceforge.net/DTD/sodipodi-0.dtd"
   xmlns="http://www.w3.org/2000/svg"
   xmlns:svg="http://www.w3.org/2000/svg"><sodipodi:namedview
     id="namedview1"
     pagecolor="#ffffff"
     bordercolor="#000000"
     borderopacity="0.25"
     inkscape:showpageshadow="2"
     inkscape:pageopacity="0.0"
     inkscape:pagecheckerboard="0"
     inkscape:deskcolor="#d1d1d1"
     inkscape:document-units="mm"
     inkscape:zoom="0.76308185"
     inkscape:cx="172.32752"
     inkscape:cy="612.64725"
     inkscape:window-width="1600"
     inkscape:window-height="837"
     inkscape:window-x="-8"
     inkscape:window-y="-8"
     inkscape:window-maximized="1"
     inkscape:current-layer="layer1"
     showgrid="false" /><defs
     id="defs1" /><g
     inkscape:label="Camada 1"
     inkscape:groupmode="layer"
     id="layer1"
     transform="translate(-73.298822,-155.84466)"><path
       d="m 83.586684,162.4085 c -1.94625,-4.492 -2.64037,-5.83413 -3.15085,-6.09243 -0.36009,-0.18221 -0.59518,-0.33427 -0.52242,-0.33793 2.78045,-0.13985 5.82084,-0.11464 5.82084,0.0482 0,0.11835 -0.29766,0.21518 -0.66146,0.21518 -0.49354,0 -0.66146,0.1397 -0.66146,0.55032 0,0.50509 2.51169,6.73467 2.89767,7.18689 0.15528,0.18193 1.03104,-1.65813 2.58903,-5.43984 0.67927,-1.64879 0.54037,-2.29737 -0.49201,-2.29737 -0.27323,0 -0.49685,-0.0893 -0.49694,-0.19844 -10e-5,-0.10914 0.83305,-0.19843 1.85144,-0.19843 1.01838,0 1.85189,0.0355 1.85225,0.0788 3.5e-4,0.0434 -0.29771,0.34102 -0.66237,0.66146 -0.38856,0.34145 -1.6568,2.77312 -3.06373,5.87429 -1.3204,2.91042 -2.49142,5.38588 -2.60228,5.50102 -0.11086,0.11515 -1.32483,-2.38316 -2.69771,-5.5518 z m -9.76615,5.1802 c 0.35969,-0.14354 0.74482,-0.40388 0.85584,-0.57854 0.11102,-0.17465 0.20368,-2.52616 0.20591,-5.22557 0.004,-5.07845 -0.0886,-5.54302 -1.1072,-5.54302 -0.26194,0 -0.47625,-0.0893 -0.47626,-0.19844 0,-0.10914 1.36921,-0.19843 3.0427,-0.19843 1.67349,0 3.04271,0.0814 3.04272,0.18086 0,0.0995 -0.32742,0.21854 -0.7276,0.26458 l -0.7276,0.0837 -0.0717,5.36827 -0.0717,5.36827 0.86541,0.37606 c 0.80974,0.35188 0.6612,0.37565 -2.3096,0.36965 -2.3583,-0.005 -3.00677,-0.0736 -2.52101,-0.26741 z"
       style="fill:#000000"
       id="path1-48" /></g></svg>
