<?xml version="1.0" encoding="UTF-8" standalone="no"?>
<!-- Created with Inkscape (http://www.inkscape.org/) -->

<svg
   width="12.712604mm"
   height="12.303093mm"
   viewBox="0 0 12.712604 12.303093"
   version="1.1"
   id="svg1"
   xml:space="preserve"
   inkscape:version="1.3.2 (091e20e, 2023-11-25, custom)"
   sodipodi:docname="icons.svg"
   xmlns:inkscape="http://www.inkscape.org/namespaces/inkscape"
   xmlns:sodipodi="http://sodipodi.sourceforge.net/DTD/sodipodi-0.dtd"
   xmlns="http://www.w3.org/2000/svg"
   xmlns:svg="http://www.w3.org/2000/svg"><sodipodi:namedview
     id="namedview1"
     pagecolor="#ffffff"
     bordercolor="#000000"
     borderopacity="0.25"
     inkscape:showpageshadow="2"
     inkscape:pageopacity="0.0"
     inkscape:pagecheckerboard="0"
     inkscape:deskcolor="#d1d1d1"
     inkscape:document-units="mm"
     inkscape:zoom="0.76308185"
     inkscape:cx="172.32752"
     inkscape:cy="612.64725"
     inkscape:window-width="1600"
     inkscape:window-height="837"
     inkscape:window-x="-8"
     inkscape:window-y="-8"
     inkscape:window-maximized="1"
     inkscape:current-layer="layer1"
     showgrid="false" /><defs
     id="defs1" /><g
     inkscape:label="Camada 1"
     inkscape:groupmode="layer"
     id="layer1"
     transform="translate(-100.7704,-155.7528)"><path
       d="m 104.3826,162.56579 c -1.36616,-3.20555 -2.60456,-5.73255 -2.97603,-6.07273 -0.34992,-0.32044 -0.63619,-0.6181 -0.63617,-0.66146 3e-5,-0.0434 1.25019,-0.0788 2.77814,-0.0788 1.52795,0 2.77808,0.0893 2.77808,0.19843 -1e-5,0.10915 -0.24188,0.19844 -0.53749,0.19844 -0.29561,0 -0.6065,0.17991 -0.69088,0.3998 -0.12161,0.3169 1.93396,5.61683 2.80414,7.23001 0.11928,0.22114 0.77179,-0.95209 1.74052,-3.12953 1.63273,-3.66994 1.68976,-4.26466 0.42699,-4.45253 -0.31256,-0.0465 -0.5683,-0.17884 -0.5683,-0.29407 0,-0.16763 3.4615,-0.20205 3.96875,-0.0395 0.0728,0.0233 -0.176,0.21001 -0.5528,0.41486 -0.73128,0.39757 -1.35941,1.5893 -4.2202,8.00688 -0.92439,2.07367 -1.74691,3.77031 -1.82782,3.77031 -0.0809,0 -1.20003,-2.47054 -2.48693,-5.4901 z"
       style="fill:#000000"
       id="path1-15" /></g></svg>
