<?xml version="1.0" encoding="UTF-8" standalone="no"?>
<!-- Created with Inkscape (http://www.inkscape.org/) -->

<svg
   width="19.003794mm"
   height="11.811925mm"
   viewBox="0 0 19.003794 11.811925"
   version="1.1"
   id="svg1"
   xml:space="preserve"
   inkscape:version="1.3.2 (091e20e, 2023-11-25, custom)"
   sodipodi:docname="icons.svg"
   xmlns:inkscape="http://www.inkscape.org/namespaces/inkscape"
   xmlns:sodipodi="http://sodipodi.sourceforge.net/DTD/sodipodi-0.dtd"
   xmlns="http://www.w3.org/2000/svg"
   xmlns:svg="http://www.w3.org/2000/svg"><sodipodi:namedview
     id="namedview1"
     pagecolor="#ffffff"
     bordercolor="#000000"
     borderopacity="0.25"
     inkscape:showpageshadow="2"
     inkscape:pageopacity="0.0"
     inkscape:pagecheckerboard="0"
     inkscape:deskcolor="#d1d1d1"
     inkscape:document-units="mm"
     inkscape:zoom="0.76308185"
     inkscape:cx="172.32752"
     inkscape:cy="612.64725"
     inkscape:window-width="1600"
     inkscape:window-height="837"
     inkscape:window-x="-8"
     inkscape:window-y="-8"
     inkscape:window-maximized="1"
     inkscape:current-layer="layer1"
     showgrid="false" /><defs
     id="defs1" /><g
     inkscape:label="Camada 1"
     inkscape:groupmode="layer"
     id="layer1"
     transform="translate(-46.137391,-155.99839)"><path
       d="m 46.344832,167.57065 c 1.0582,-0.30681 1.15776,-0.79405 1.15776,-5.66574 0,-4.87169 -0.0996,-5.35893 -1.15776,-5.66574 -0.60212,-0.17457 0.0716,-0.23996 2.48068,-0.24078 2.29206,-7.8e-4 3.07056,0.0697 2.53609,0.2295 -0.42416,0.12684 -0.86882,0.38449 -0.98813,0.57257 -0.24874,0.39208 -0.29933,9.0336 -0.0582,9.93356 0.10007,0.3734 0.46905,0.68545 0.98858,0.83603 0.60497,0.17535 -0.0646,0.24026 -2.47838,0.24026 -2.40757,0 -3.08242,-0.0652 -2.48068,-0.23966 z m 6.58172,0.0959 c 1.1581,-0.28467 1.19063,-0.44206 1.19063,-5.76167 0,-5.31961 -0.0325,-5.477 -1.19063,-5.76167 -0.29104,-0.0715 0.89959,-0.13007 2.64584,-0.13007 1.74625,0 2.93687,0.0585 2.64583,0.13007 -1.1581,0.28467 -1.19063,0.44206 -1.19063,5.76167 0,5.31961 0.0325,5.477 1.19063,5.76167 0.29104,0.0715 -0.89958,0.13007 -2.64583,0.13007 -1.74625,0 -2.93688,-0.0585 -2.64584,-0.13007 z m 6.87917,0 c 1.1581,-0.28467 1.19062,-0.44206 1.19062,-5.76167 0,-5.31961 -0.0325,-5.477 -1.19062,-5.76167 -0.29104,-0.0715 0.89958,-0.13007 2.64583,-0.13007 1.74625,0 2.93688,0.0585 2.64584,0.13007 -1.1581,0.28467 -1.19063,0.44206 -1.19063,5.76167 0,5.31961 0.0325,5.477 1.19063,5.76167 0.29104,0.0715 -0.89959,0.13007 -2.64584,0.13007 -1.74625,0 -2.93687,-0.0585 -2.64583,-0.13007 z"
       style="fill:#000000"
       id="path1-1" /></g></svg>
