<?xml version="1.0" encoding="UTF-8" standalone="no"?>
<!-- Created with Inkscape (http://www.inkscape.org/) -->

<svg
   width="19.592215mm"
   height="12.178488mm"
   viewBox="0 0 19.592215 12.178488"
   version="1.1"
   id="svg1"
   xml:space="preserve"
   inkscape:version="1.3.2 (091e20e, 2023-11-25, custom)"
   sodipodi:docname="icons.svg"
   xmlns:inkscape="http://www.inkscape.org/namespaces/inkscape"
   xmlns:sodipodi="http://sodipodi.sourceforge.net/DTD/sodipodi-0.dtd"
   xmlns="http://www.w3.org/2000/svg"
   xmlns:svg="http://www.w3.org/2000/svg"><sodipodi:namedview
     id="namedview1"
     pagecolor="#ffffff"
     bordercolor="#000000"
     borderopacity="0.25"
     inkscape:showpageshadow="2"
     inkscape:pageopacity="0.0"
     inkscape:pagecheckerboard="0"
     inkscape:deskcolor="#d1d1d1"
     inkscape:document-units="mm"
     inkscape:zoom="0.76308185"
     inkscape:cx="172.32752"
     inkscape:cy="612.64725"
     inkscape:window-width="1600"
     inkscape:window-height="837"
     inkscape:window-x="-8"
     inkscape:window-y="-8"
     inkscape:window-maximized="1"
     inkscape:current-layer="layer1"
     showgrid="false" /><defs
     id="defs1" /><g
     inkscape:label="Camada 1"
     inkscape:groupmode="layer"
     id="layer1"
     transform="translate(-121.64064,-155.8151)"><path
       d="m 127.34595,167.16742 c -2.70661,-6.63816 -4.58138,-10.5812 -5.17341,-10.88079 -0.358,-0.18116 -0.59137,-0.33357 -0.51861,-0.3387 1.97623,-0.13917 5.62238,-0.10553 5.72022,0.0528 0.0725,0.11733 -0.16582,0.21332 -0.52962,0.21332 -0.3638,0 -0.73269,0.11527 -0.81976,0.25614 -0.12383,0.20037 2.36343,6.49335 2.96863,7.51089 0.0741,0.12453 0.78096,-1.23197 1.57089,-3.01444 1.54289,-3.48155 1.69898,-4.56024 0.68078,-4.70484 -1.26514,-0.17968 -0.5084,-0.44866 1.25672,-0.44669 1.01862,0.001 1.85206,0.0627 1.85208,0.13686 3e-5,0.0741 -0.23631,0.28241 -0.5252,0.46282 -0.61593,0.38465 -1.45427,1.99376 -3.84153,7.37336 -0.96048,2.1644 -1.85304,4.04227 -1.98347,4.17304 -0.14001,0.14038 -0.40941,-0.18474 -0.65772,-0.79375 z m 8.1986,0.36314 c 0.43657,-0.15585 0.88123,-0.41434 0.98814,-0.57442 0.10691,-0.16008 0.19621,-2.49967 0.19844,-5.19908 0.004,-5.07845 -0.0886,-5.54302 -1.1072,-5.54302 -0.26194,0 -0.47625,-0.0897 -0.47625,-0.19922 0,-0.10957 1.36911,-0.19887 3.04247,-0.19844 1.67335,4.3e-4 3.04257,0.0822 3.04271,0.18165 1.3e-4,0.0995 -0.32719,0.21854 -0.72737,0.26458 l -0.7276,0.0837 -0.0717,5.36827 -0.0717,5.36827 0.86541,0.37606 c 0.80677,0.35059 0.64133,0.37535 -2.44189,0.36553 -2.67761,-0.009 -3.15616,-0.0645 -2.51354,-0.2939 z"
       style="fill:#000000"
       id="path1-8" /></g></svg>
