<?xml version="1.0" encoding="UTF-8" standalone="no"?>
<!-- Created with Inkscape (http://www.inkscape.org/) -->

<svg
   width="12.278546mm"
   height="11.813055mm"
   viewBox="0 0 12.278546 11.813055"
   version="1.1"
   id="svg1"
   xml:space="preserve"
   inkscape:version="1.3.2 (091e20e, 2023-11-25, custom)"
   sodipodi:docname="icons.svg"
   xmlns:inkscape="http://www.inkscape.org/namespaces/inkscape"
   xmlns:sodipodi="http://sodipodi.sourceforge.net/DTD/sodipodi-0.dtd"
   xmlns="http://www.w3.org/2000/svg"
   xmlns:svg="http://www.w3.org/2000/svg"><sodipodi:namedview
     id="namedview1"
     pagecolor="#ffffff"
     bordercolor="#000000"
     borderopacity="0.25"
     inkscape:showpageshadow="2"
     inkscape:pageopacity="0.0"
     inkscape:pagecheckerboard="0"
     inkscape:deskcolor="#d1d1d1"
     inkscape:document-units="mm"
     inkscape:zoom="0.76308185"
     inkscape:cx="172.32752"
     inkscape:cy="612.64725"
     inkscape:window-width="1600"
     inkscape:window-height="837"
     inkscape:window-x="-8"
     inkscape:window-y="-8"
     inkscape:window-maximized="1"
     inkscape:current-layer="layer1"
     showgrid="false" /><defs
     id="defs1" /><g
     inkscape:label="Camada 1"
     inkscape:groupmode="layer"
     id="layer1"
     transform="translate(-25.701213,-155.99783)"><path
       d="m 25.90865,167.57009 c 1.0582,-0.30681 1.15777,-0.79405 1.15777,-5.66574 0,-4.87169 -0.0996,-5.35893 -1.15777,-5.66574 -0.60211,-0.17457 0.0716,-0.23996 2.48068,-0.24078 2.29206,-7.8e-4 3.07056,0.0697 2.5361,0.2295 -0.42416,0.12684 -0.86882,0.38449 -0.98814,0.57257 -0.28298,0.44605 -0.28298,9.76285 0,10.2089 0.11932,0.18808 0.56398,0.44573 0.98814,0.57257 0.53446,0.15983 -0.24404,0.23028 -2.5361,0.2295 -2.40908,-8.1e-4 -3.08279,-0.0662 -2.48068,-0.24078 z m 6.58173,0.0959 c 1.1581,-0.28467 1.19062,-0.44206 1.19062,-5.76167 0,-5.31961 -0.0325,-5.477 -1.19062,-5.76167 -0.29105,-0.0715 0.95911,-0.12767 2.77812,-0.12473 1.81901,0.003 3.00964,0.0601 2.64583,0.12695 -1.29936,0.2389 -1.32291,0.34141 -1.32291,5.75945 0,5.41804 0.0236,5.52056 1.32291,5.75945 0.36381,0.0669 -0.82682,0.12402 -2.64583,0.12695 -1.81901,0.003 -3.06917,-0.0532 -2.77812,-0.12473 z"
       style="fill:#000000"
       id="path1-5" /></g></svg>
