<?xml version="1.0" encoding="UTF-8" standalone="no"?>
<!-- Created with Inkscape (http://www.inkscape.org/) -->

<svg
   width="5.3857942mm"
   height="11.811925mm"
   viewBox="0 0 5.3857942 11.811925"
   version="1.1"
   id="svg1"
   xml:space="preserve"
   inkscape:version="1.3.2 (091e20e, 2023-11-25, custom)"
   sodipodi:docname="icons.svg"
   xmlns:inkscape="http://www.inkscape.org/namespaces/inkscape"
   xmlns:sodipodi="http://sodipodi.sourceforge.net/DTD/sodipodi-0.dtd"
   xmlns="http://www.w3.org/2000/svg"
   xmlns:svg="http://www.w3.org/2000/svg"><sodipodi:namedview
     id="namedview1"
     pagecolor="#ffffff"
     bordercolor="#000000"
     borderopacity="0.25"
     inkscape:showpageshadow="2"
     inkscape:pageopacity="0.0"
     inkscape:pagecheckerboard="0"
     inkscape:deskcolor="#d1d1d1"
     inkscape:document-units="mm"
     inkscape:zoom="0.76308185"
     inkscape:cx="172.32752"
     inkscape:cy="612.64725"
     inkscape:window-width="1600"
     inkscape:window-height="837"
     inkscape:window-x="-8"
     inkscape:window-y="-8"
     inkscape:window-maximized="1"
     inkscape:current-layer="layer1"
     showgrid="false" /><defs
     id="defs1" /><g
     inkscape:label="Camada 1"
     inkscape:groupmode="layer"
     id="layer1"
     transform="translate(-12.157788,-155.99839)"><path
       d="m 12.367594,167.57005 c 0.519523,-0.15058 0.888508,-0.46263 0.988574,-0.83603 0.207784,-0.77536 0.207784,-8.88286 0,-9.65822 -0.100066,-0.3734 -0.469051,-0.68545 -0.988574,-0.83603 -0.605356,-0.17546 0.06307,-0.24056 2.478375,-0.24138 2.292058,-7.8e-4 3.070558,0.0697 2.536093,0.2295 -0.424159,0.12684 -0.868821,0.38449 -0.988136,0.57257 -0.24874,0.39208 -0.299332,9.0336 -0.05816,9.93356 0.100066,0.3734 0.469052,0.68545 0.988575,0.83603 0.604978,0.17535 -0.06457,0.24026 -2.478376,0.24026 -2.4138,0 -3.083353,-0.0649 -2.478375,-0.24026 z"
       style="fill:#000000"
       id="path1-44" /></g></svg>
