<?xml version="1.0" encoding="UTF-8" standalone="no"?>
<!-- Created with Inkscape (http://www.inkscape.org/) -->

<svg
   width="13.483826mm"
   height="18.864305mm"
   viewBox="0 0 13.483826 18.864305"
   version="1.1"
   id="svg1"
   xml:space="preserve"
   inkscape:version="1.3.2 (091e20e, 2023-11-25, custom)"
   sodipodi:docname="icons.svg"
   xmlns:inkscape="http://www.inkscape.org/namespaces/inkscape"
   xmlns:sodipodi="http://sodipodi.sourceforge.net/DTD/sodipodi-0.dtd"
   xmlns="http://www.w3.org/2000/svg"
   xmlns:svg="http://www.w3.org/2000/svg"><sodipodi:namedview
     id="namedview1"
     pagecolor="#ffffff"
     bordercolor="#000000"
     borderopacity="0.25"
     inkscape:showpageshadow="2"
     inkscape:pageopacity="0.0"
     inkscape:pagecheckerboard="0"
     inkscape:deskcolor="#d1d1d1"
     inkscape:document-units="mm"
     inkscape:zoom="0.76308185"
     inkscape:cx="553.02062"
     inkscape:cy="317.79029"
     inkscape:window-width="1600"
     inkscape:window-height="837"
     inkscape:window-x="-8"
     inkscape:window-y="-8"
     inkscape:window-maximized="1"
     inkscape:current-layer="layer1"
     showgrid="false" /><defs
     id="defs1" /><g
     inkscape:label="Camada 1"
     inkscape:groupmode="layer"
     id="layer1"
     transform="translate(-130.56159,-83.435865)"><path
       style="fill:#000000;stroke-width:0.370761"
       d="m 131.42412,102.28799 c -0.38427,-0.0454 -0.65904,-0.21273 -0.78266,-0.47652 -0.0476,-0.10147 -0.0518,-0.13021 -0.0518,-0.35134 0,-0.23465 0.002,-0.24428 0.0653,-0.37453 0.0774,-0.15833 0.20835,-0.29603 0.34971,-0.36766 0.0785,-0.0398 0.14674,-0.0556 0.29464,-0.0685 0.2517,-0.0219 0.35149,-0.0687 0.41377,-0.1942 l 0.0445,-0.0897 3.7e-4,-1.066324 c 7.4e-4,-1.183575 0.0136,-1.44547 0.0851,-1.712985 0.0804,-0.300869 0.26442,-0.652018 0.47874,-0.913738 0.0433,-0.05286 0.26969,-0.308629 0.50312,-0.568378 0.44,-0.489609 1.46262,-1.639574 1.87629,-2.109955 0.37649,-0.428085 0.50804,-0.637491 0.57268,-0.911617 0.0569,-0.241436 0.005,-0.542335 -0.13448,-0.780498 -0.0285,-0.0486 -0.0972,-0.148312 -0.15262,-0.221596 -0.11443,-0.151189 -1.08107,-1.249592 -1.96982,-2.238321 -0.32863,-0.365588 -0.63728,-0.712395 -0.68589,-0.770675 -0.3164,-0.379304 -0.50627,-0.827247 -0.55598,-1.311617 -0.0113,-0.110524 -0.0201,-0.669043 -0.0201,-1.286776 0,-0.655406 -0.008,-1.117797 -0.0189,-1.157343 -0.0237,-0.08273 -0.10429,-0.168118 -0.18178,-0.192662 -0.0327,-0.01034 -0.14161,-0.0277 -0.24205,-0.0385 -0.13703,-0.01476 -0.2124,-0.03433 -0.30194,-0.07842 -0.20828,-0.102535 -0.37973,-0.332321 -0.43288,-0.580164 -0.0899,-0.419231 0.21192,-0.847075 0.67416,-0.955611 0.13954,-0.03276 0.44566,-0.0345 6.08116,-0.0345 h 5.93423 l 0.13718,0.04314 c 0.25899,0.08146 0.45466,0.247817 0.57204,0.486359 0.0561,0.114001 0.0614,0.140895 0.0613,0.308272 -1.2e-4,0.166535 -0.006,0.195488 -0.0625,0.315303 -0.0725,0.15347 -0.12854,0.225749 -0.2524,0.325688 -0.11767,0.09494 -0.25246,0.143922 -0.48572,0.176527 -0.21743,0.0304 -0.29777,0.06868 -0.34825,0.165986 -0.0328,0.06332 -0.0358,0.152461 -0.0431,1.30052 -0.005,0.793022 -0.0155,1.274912 -0.0294,1.35137 -0.064,0.35209 -0.22,0.72346 -0.42338,1.007978 -0.0602,0.08421 -0.30964,0.376664 -0.55432,0.649901 -0.24467,0.273232 -0.6872,0.769896 -0.98339,1.103697 -0.29619,0.3338 -0.66314,0.741297 -0.81544,0.905548 -0.54822,0.591242 -0.69353,0.862869 -0.69353,1.296452 0,0.203893 0.0399,0.364644 0.13972,0.562809 0.12032,0.238885 0.21285,0.35364 0.76342,0.946769 0.18412,0.198354 0.59158,0.651706 0.90546,1.007455 0.31389,0.35575 0.69057,0.779756 0.83708,0.942239 0.34485,0.382459 0.47259,0.558144 0.6117,0.841328 0.13054,0.265732 0.2002,0.507917 0.22919,0.796803 0.0113,0.11253 0.02,0.679903 0.02,1.301255 v 1.101721 l 0.0434,0.086 c 0.0515,0.10211 0.17178,0.17267 0.29437,0.17267 0.39905,0 0.71757,0.24013 0.82855,0.62465 0.0993,0.34401 -0.0888,0.7424 -0.43248,0.91588 -0.26522,0.13388 0.23187,0.12367 -6.21524,0.12755 -3.20024,0.002 -5.87662,-0.003 -5.94751,-0.0117 z m 9.63526,-1.70451 c 0.0361,-0.0212 0.0837,-0.0732 0.10597,-0.1156 0.0389,-0.0742 0.0406,-0.10755 0.0463,-0.905548 0.008,-1.188298 -0.0189,-1.436405 -0.19122,-1.737978 -0.0853,-0.149243 -0.61107,-0.757488 -1.95162,-2.257641 -0.38238,-0.427918 -0.7495,-0.851565 -0.81581,-0.941434 -0.42375,-0.574335 -0.61887,-1.182362 -0.59514,-1.854552 0.0194,-0.549395 0.17586,-1.033068 0.48926,-1.512455 0.14075,-0.215298 0.22401,-0.313913 0.92095,-1.090869 0.62664,-0.698585 1.2801,-1.439121 1.66151,-1.882916 0.28346,-0.329814 0.382,-0.497135 0.44103,-0.748845 0.0318,-0.135424 0.0352,-0.250379 0.0352,-1.180812 10e-6,-1.002054 -0.001,-1.032641 -0.0392,-1.097536 -0.0216,-0.0367 -0.0693,-0.0844 -0.10597,-0.105967 -0.0664,-0.03901 -0.0855,-0.03924 -3.7082,-0.0449 -2.68371,-0.0042 -3.66173,8.9e-5 -3.71853,0.01628 -0.0873,0.02488 -0.1527,0.07831 -0.19931,0.162809 -0.028,0.05068 -0.0326,0.157474 -0.0378,0.867015 -0.008,1.11376 0.0199,1.36924 0.18801,1.713719 0.10202,0.208972 0.28576,0.425548 1.82342,2.149307 0.45846,0.513946 0.87587,0.990804 0.92758,1.059681 0.29002,0.386315 0.48286,0.815167 0.57646,1.281952 0.0524,0.261261 0.0477,0.817659 -0.009,1.081882 -0.0983,0.457023 -0.31405,0.91475 -0.58862,1.248721 -0.3095,0.376471 -1.55993,1.781034 -2.08125,2.337792 -0.19186,0.204909 -0.39877,0.439004 -0.45979,0.520208 -0.30828,0.410273 -0.43122,0.837524 -0.3825,1.329295 0.0128,0.129203 0.021,0.499386 0.0192,0.870284 -0.003,0.544748 10e-4,0.656488 0.0268,0.716198 0.0369,0.0874 0.10869,0.13628 0.2241,0.15262 0.0486,0.007 1.71836,0.0115 3.71056,0.0102 3.58534,-0.002 3.62286,-0.003 3.68774,-0.0409 z"
       id="path47" /></g></svg>
