<?xml version="1.0" encoding="UTF-8" standalone="no"?>
<!-- Created with Inkscape (http://www.inkscape.org/) -->

<svg
   width="17.270683mm"
   height="25.856876mm"
   viewBox="0 0 17.270683 25.856876"
   version="1.1"
   id="svg1"
   xml:space="preserve"
   inkscape:version="1.3.2 (091e20e, 2023-11-25, custom)"
   sodipodi:docname="icons.svg"
   xmlns:inkscape="http://www.inkscape.org/namespaces/inkscape"
   xmlns:sodipodi="http://sodipodi.sourceforge.net/DTD/sodipodi-0.dtd"
   xmlns="http://www.w3.org/2000/svg"
   xmlns:svg="http://www.w3.org/2000/svg"><sodipodi:namedview
     id="namedview1"
     pagecolor="#ffffff"
     bordercolor="#000000"
     borderopacity="0.25"
     inkscape:showpageshadow="2"
     inkscape:pageopacity="0.0"
     inkscape:pagecheckerboard="0"
     inkscape:deskcolor="#d1d1d1"
     inkscape:document-units="mm"
     inkscape:zoom="1.0791607"
     inkscape:cx="656.52873"
     inkscape:cy="134.827"
     inkscape:window-width="1600"
     inkscape:window-height="837"
     inkscape:window-x="-8"
     inkscape:window-y="-8"
     inkscape:window-maximized="1"
     inkscape:current-layer="layer1"
     showgrid="false" /><defs
     id="defs1" /><g
     inkscape:label="Camada 1"
     inkscape:groupmode="layer"
     id="layer1"
     transform="translate(-176.52843,-56.412836)"><path
       style="fill:#000000;stroke-width:1.19134"
       d="m 192.52858,82.2163 c -0.0746,-0.0417 -0.15787,-0.149156 -0.1861,-0.240294 -0.0325,-0.104838 -0.0636,-2.51516 -0.0855,-6.614353 -0.0189,-3.547184 -0.0447,-6.466496 -0.0572,-6.487356 -0.0125,-0.02085 -0.96698,-0.038 -2.12102,-0.038 -2.64372,0 -2.34796,0.10877 -3.26583,-1.200372 -0.27834,-0.396991 -0.52125,-0.72175 -0.5398,-0.721691 -0.0186,6e-5 -0.20227,1.098358 -0.40825,2.440654 -0.206,1.342309 -0.38269,2.463385 -0.39265,2.491275 -0.01,0.02788 0.58637,0.604653 1.32516,1.281681 0.73877,0.677027 1.39884,1.31903 1.46678,1.426667 0.23766,0.376464 0.23791,0.418078 0.0216,3.589191 -0.11103,1.627528 -0.22726,3.038815 -0.25831,3.136196 -0.13976,0.438235 -0.56193,0.813472 -1.02283,0.90916 -0.53284,0.110557 -1.12725,-0.149108 -1.41633,-0.618878 -0.21394,-0.347646 -0.21684,-0.627301 -0.0336,-3.242773 0.0874,-1.248288 0.15211,-2.330526 0.14364,-2.404973 -0.022,-0.193331 -2.42568,-2.410597 -2.47991,-2.287579 -0.02,0.04551 -0.2328,0.833939 -0.47273,1.752035 -0.23994,0.918095 -0.48635,1.760315 -0.5476,1.871598 -0.12321,0.223865 -3.15335,4.317553 -3.36168,4.541597 -0.22253,0.239317 -0.63527,0.409524 -0.98857,0.407665 -0.37063,-0.0024 -0.60542,-0.09447 -0.88868,-0.350421 -0.32452,-0.293189 -0.42932,-0.53216 -0.43071,-0.982106 -9.7e-4,-0.314193 0.0208,-0.418483 0.12735,-0.607001 0.0707,-0.125198 0.79545,-1.123519 1.61056,-2.218493 0.81513,-1.094974 1.50215,-2.051014 1.52673,-2.124519 0.0245,-0.07351 0.32951,-1.214871 0.67765,-2.536379 0.34812,-1.321496 0.66863,-2.480028 0.71224,-2.574525 0.0436,-0.09447 0.061,-0.186767 0.0386,-0.205066 -0.0224,-0.01823 -0.15446,-0.06183 -0.29357,-0.09674 -0.1391,-0.03491 -0.35535,-0.113416 -0.48054,-0.174317 -0.28876,-0.140578 -0.76298,-0.605702 -0.90861,-0.891159 -0.26195,-0.513445 -0.25369,-0.328286 -0.25427,-5.695162 -5.2e-4,-4.780688 0.004,-5.016597 0.0933,-5.184826 0.0516,-0.09698 0.18248,-0.227106 0.29087,-0.289246 0.18968,-0.10877 0.2454,-0.113059 1.48773,-0.113773 1.44034,-9.3e-4 1.52717,0.01656 1.75701,0.353232 0.11115,0.162893 0.11377,0.198621 0.11377,1.550305 0,0.908017 0.0178,1.383577 0.0517,1.383577 0.0285,0 0.13654,-0.0554 0.24027,-0.123149 0.61266,-0.400053 1.4416,-0.453103 2.11041,-0.135086 0.78156,0.371627 1.23548,1.081964 1.27211,1.990779 l 0.0159,0.392071 1.06714,1.51746 1.06716,1.517459 h 2.03499 2.03499 l 0.25712,0.128129 c 0.53167,0.264943 0.76827,0.904669 0.52322,1.414671 -0.11663,0.242664 -0.23203,0.379669 -0.42816,0.508179 l -0.14629,0.0959 0.0355,6.610135 0.0355,6.610136 -0.1158,0.131691 c -0.14316,0.162738 -0.37435,0.207294 -0.55434,0.106864 z M 185.6365,60.736134 c -0.4367,-0.06159 -0.88,-0.288447 -1.19858,-0.613255 -1.22719,-1.251159 -0.60505,-3.315897 1.10417,-3.664448 1.10339,-0.22502 2.15214,0.399791 2.51753,1.499864 0.0634,0.19096 0.0817,0.38354 0.0689,0.725622 -0.0149,0.39711 -0.0412,0.51572 -0.17856,0.805752 -0.42414,0.895401 -1.33262,1.384899 -2.31343,1.246465 z"
       id="path17" /></g></svg>
