<?xml version="1.0" encoding="UTF-8" standalone="no"?>
<!-- Created with Inkscape (http://www.inkscape.org/) -->

<svg
   width="17.270958mm"
   height="25.856937mm"
   viewBox="0 0 17.270958 25.856937"
   version="1.1"
   id="svg1"
   xml:space="preserve"
   inkscape:version="1.3.2 (091e20e, 2023-11-25, custom)"
   sodipodi:docname="icons.svg"
   xmlns:inkscape="http://www.inkscape.org/namespaces/inkscape"
   xmlns:sodipodi="http://sodipodi.sourceforge.net/DTD/sodipodi-0.dtd"
   xmlns="http://www.w3.org/2000/svg"
   xmlns:svg="http://www.w3.org/2000/svg"><sodipodi:namedview
     id="namedview1"
     pagecolor="#ffffff"
     bordercolor="#000000"
     borderopacity="0.25"
     inkscape:showpageshadow="2"
     inkscape:pageopacity="0.0"
     inkscape:pagecheckerboard="0"
     inkscape:deskcolor="#d1d1d1"
     inkscape:document-units="mm"
     inkscape:zoom="1.0791607"
     inkscape:cx="544.86788"
     inkscape:cy="283.09037"
     inkscape:window-width="1600"
     inkscape:window-height="837"
     inkscape:window-x="-8"
     inkscape:window-y="-8"
     inkscape:window-maximized="1"
     inkscape:current-layer="layer1"
     showgrid="false" /><defs
     id="defs1" /><g
     inkscape:label="Camada 1"
     inkscape:groupmode="layer"
     id="layer1"
     transform="translate(-176.52822,-56.412775)"><path
       id="path17"
       style="fill:#000000;stroke-width:1.19134"
       d="m 185.95196,56.413094 c -0.13499,0.0023 -0.27187,0.01735 -0.4098,0.04547 -1.70922,0.348551 -2.33151,2.413218 -1.10432,3.664376 0.31858,0.324808 0.76219,0.551809 1.19889,0.613399 0.98081,0.138434 1.8889,-0.351035 2.31304,-1.246435 0.13736,-0.290032 0.1639,-0.409043 0.1788,-0.806152 0.0128,-0.342082 -0.005,-0.534578 -0.0687,-0.725538 -0.31972,-0.962563 -1.16297,-1.561238 -2.10788,-1.545125 z m -4.79558,1.750798 c -1.24232,7.14e-4 -1.29808,0.0049 -1.48776,0.113688 -0.10839,0.06214 -0.23934,0.192408 -0.29094,0.289388 -0.0893,0.168229 -0.0935,0.404013 -0.093,5.184696 5.8e-4,5.366871 -0.008,5.181815 0.25425,5.69526 0.14563,0.285457 0.61971,0.75084 0.90847,0.891418 0.12519,0.0609 0.34149,0.13924 0.48059,0.17415 0.13911,0.03491 0.27113,0.07841 0.29353,0.09664 0.0224,0.0183 0.005,0.110685 -0.0388,0.205155 -0.0436,0.0945 -0.36398,1.253025 -0.7121,2.57452 -0.34814,1.321507 -0.65298,2.462769 -0.67748,2.536279 -0.0246,0.0735 -0.71191,1.029446 -1.52704,2.124419 -0.81511,1.094972 -1.53954,2.093271 -1.61024,2.218469 -0.10655,0.188518 -0.12861,0.293005 -0.12764,0.607198 0.001,0.449945 0.10646,0.68918 0.43098,0.982369 0.28326,0.255951 0.51821,0.347966 0.88884,0.350366 0.3533,0.0019 0.76604,-0.16841 0.98857,-0.407727 0.20833,-0.224044 3.23834,-4.317977 3.36155,-4.541842 0.0613,-0.111283 0.30783,-0.953109 0.54777,-1.871203 0.23993,-0.918095 0.45232,-1.706838 0.47232,-1.752348 0.0542,-0.123018 2.45796,2.094385 2.47996,2.287716 0.008,0.07445 -0.0563,1.156734 -0.14366,2.405021 -0.18324,2.615469 -0.18035,2.89505 0.0336,3.242696 0.28907,0.469769 0.88361,0.72964 1.41645,0.619084 0.4609,-0.09569 0.88291,-0.471271 1.02267,-0.909506 0.0311,-0.09738 0.14735,-1.508716 0.25838,-3.136242 0.21631,-3.17111 0.21596,-3.212465 -0.0217,-3.588929 -0.0679,-0.107636 -0.72781,-0.74976 -1.46658,-1.426786 -0.73879,-0.677027 -1.33498,-1.253695 -1.32498,-1.281575 0.01,-0.02789 0.18622,-1.149014 0.39222,-2.491321 0.20598,-1.342295 0.39016,-2.440618 0.40876,-2.440678 0.0186,-5.9e-5 0.26117,0.324929 0.53951,0.72192 0.91787,1.30914 0.62223,1.199926 3.26595,1.199926 1.15404,0 2.1083,0.01739 2.1208,0.03824 -0.0125,-0.02085 0.92811,-0.116789 0.92811,-0.116789 l 0.14624,-0.09612 c 0.19613,-0.12851 0.31177,-0.265316 0.4284,-0.507979 0.24505,-0.510002 0.008,-1.149958 -0.52348,-1.414901 l -0.25684,-0.127641 h -2.03501 -2.03502 l -1.06712,-1.517737 -1.06712,-1.51722 -0.016,-0.392224 c -0.0366,-0.908814 -0.49071,-1.619466 -1.27227,-1.991093 -0.66881,-0.318016 -1.49781,-0.26466 -2.11047,0.135393 -0.10373,0.06775 -0.21179,0.122989 -0.24029,0.122989 -0.0339,0 -0.0517,-0.475362 -0.0517,-1.383378 0,-1.351682 -0.003,-1.3874 -0.11369,-1.550293 -0.22984,-0.336671 -0.31666,-0.354396 -1.757,-0.353466 z m 11.04326,10.710457 c 0.006,0.01043 0.016,0.745497 0.0264,1.92133 -0.0104,-1.175833 -0.0201,-1.9109 -0.0264,-1.92133 z" /><path
       d="m 192.52858,82.2163 c -0.0746,-0.0417 -0.15787,-0.149156 -0.1861,-0.240294 -0.0325,-0.104838 -0.0636,-2.51516 -0.0855,-6.614353 -0.0189,-3.547184 -0.0447,-6.466496 -0.0572,-6.487356 -0.0125,-0.02085 0.92806,-0.116753 0.92806,-0.116753 l 0.0355,6.610135 0.0355,6.610136 -0.1158,0.131691 c -0.14316,0.162738 -0.37435,0.207294 -0.55434,0.106864 z"
       style="opacity:0.5;fill:#000000;stroke-width:1.19134"
       id="path1-3" /></g></svg>
