<?xml version="1.0" encoding="UTF-8" standalone="no"?>
<!-- Created with Inkscape (http://www.inkscape.org/) -->

<svg
   width="210mm"
   height="297mm"
   viewBox="0 0 210 297"
   version="1.1"
   id="svg1"
   xml:space="preserve"
   inkscape:version="1.3.2 (091e20e, 2023-11-25, custom)"
   sodipodi:docname="TIERS.svg"
   xmlns:inkscape="http://www.inkscape.org/namespaces/inkscape"
   xmlns:sodipodi="http://sodipodi.sourceforge.net/DTD/sodipodi-0.dtd"
   xmlns="http://www.w3.org/2000/svg"
   xmlns:svg="http://www.w3.org/2000/svg"><sodipodi:namedview
     id="namedview1"
     pagecolor="#ffffff"
     bordercolor="#000000"
     borderopacity="0.25"
     inkscape:showpageshadow="2"
     inkscape:pageopacity="0.0"
     inkscape:pagecheckerboard="0"
     inkscape:deskcolor="#d1d1d1"
     inkscape:document-units="mm"
     inkscape:zoom="3.2302717"
     inkscape:cx="181.09932"
     inkscape:cy="36.993792"
     inkscape:window-width="1600"
     inkscape:window-height="837"
     inkscape:window-x="-8"
     inkscape:window-y="-8"
     inkscape:window-maximized="1"
     inkscape:current-layer="layer1" /><defs
     id="defs1" /><g
     inkscape:label="Camada 1"
     inkscape:groupmode="layer"
     id="layer1"><rect
       style="fill:#565d77;stroke:none;stroke-width:0.3;stroke-dashoffset:1.13386;paint-order:markers fill stroke;fill-opacity:1"
       id="rect1"
       width="12.741809"
       height="12.741809"
       x="1.9691887"
       y="2.8958657"
       inkscape:export-filename="tier-1.png"
       inkscape:export-xdpi="96"
       inkscape:export-ydpi="96" /><path
       id="path1-2"
       style="fill:#50566f;stroke-width:0.368713;fill-opacity:1"
       d="M 12.904122 5.0927124 L 12.501046 5.1598918 C 11.381355 5.3463881 10.044088 5.9127424 9.1560303 6.5763428 L 8.6527018 6.9525472 L 8.5984416 7.7607666 C 8.5684874 8.2054486 8.5198244 9.2607712 8.4904378 10.105843 C 8.4610519 10.950914 8.4553965 11.642183 8.4780355 11.642183 C 8.5006855 11.642183 9.0172724 11.292524 9.625769 10.86497 C 10.800442 10.039604 12.587772 9.0772905 14.070976 8.4718343 C 14.352982 8.3567174 14.568709 8.2564672 14.711247 8.1757284 L 14.711247 7.7070231 C 14.477266 7.3580916 14.013653 6.6826904 13.436389 5.8554565 L 12.904122 5.0927124 z M 3.6995158 5.095813 L 3.076298 6.0032511 C 2.7337099 6.5024231 2.2669166 7.1756433 2.039152 7.4987671 L 1.9693888 7.5974691 L 1.9693888 8.2325724 L 3.0876668 8.7085124 C 4.6518086 9.3744822 5.9380984 10.094007 7.2641561 11.044804 C 7.7175393 11.369886 8.1043999 11.619986 8.1240519 11.600326 C 8.1437259 11.580661 8.1284354 10.548088 8.0899455 9.3058919 L 8.0196655 7.0471151 L 7.6202067 6.7045003 C 7.4002662 6.5159442 6.9997348 6.2356421 6.7303385 6.0812826 C 6.1953421 5.774739 4.7205467 5.2587371 4.093807 5.1588582 L 3.6995158 5.095813 z M 14.711247 8.6402995 C 14.149431 8.809979 13.263327 9.1314319 12.880868 9.3244954 C 12.217205 9.6595116 9.220109 11.434779 9.220109 11.492839 C 9.220109 11.513768 9.8456129 11.232204 10.610205 10.867554 C 12.461825 9.9844693 13.38035 9.6444423 14.559835 9.4040771 C 14.617242 9.3923783 14.65584 9.3852682 14.711247 9.3741048 L 14.711247 8.6402995 z M 1.9693888 8.6532186 L 1.9693888 9.391158 C 3.497535 9.7422911 4.9653955 10.30774 6.5370687 11.14764 C 7.0199661 11.4057 7.4289484 11.622681 7.4455404 11.629781 C 7.4621323 11.636861 7.4504891 11.60159 7.4197021 11.55175 C 7.3212855 11.392506 5.3063053 10.165137 4.1961263 9.5880452 C 3.6059181 9.2812439 2.7524684 8.9089285 2.300118 8.7612223 L 1.9693888 8.6532186 z M 14.711247 9.7590942 C 14.188795 9.8669599 13.598874 10.00172 13.290145 10.092407 C 12.527633 10.31639 10.900824 10.986647 10.048999 11.427726 C 9.36497 11.781924 9.3918459 11.823421 10.118762 11.536247 C 11.136121 11.134331 13.274368 10.650889 14.711247 10.461377 L 14.711247 9.7590942 z M 1.9693888 9.7709798 L 1.9693888 10.463444 C 3.3920909 10.647867 5.3242906 11.096707 6.4089111 11.531079 C 7.5456447 11.986323 7.4169464 11.868582 6.0492432 11.201383 C 4.5961001 10.492508 3.1849284 9.9995485 1.9693888 9.7709798 z M 14.711247 10.807609 C 13.046811 10.947116 10.86396 11.419288 9.4076945 11.981698 C 8.918218 12.170734 8.407109 12.325346 8.2723633 12.325346 C 8.137621 12.325346 7.6123767 12.169667 7.1049927 11.979631 C 5.4566757 11.362264 3.7627798 10.987592 1.9693888 10.837065 L 1.9693888 12.057662 C 2.5810979 12.108379 3.1823133 12.158512 3.9522135 12.220443 C 6.1252527 12.395242 7.9251274 12.560438 7.9519694 12.587345 C 7.9787969 12.614275 8.1760823 12.612518 8.3907023 12.583728 C 8.6053259 12.55494 10.514987 12.390259 12.634371 12.217859 C 13.439921 12.152332 14.08713 12.096809 14.711247 12.043193 L 14.711247 10.807609 z " /><path
       id="path2"
       style="fill:#5e6682;fill-opacity:1;stroke:none;stroke-width:0.3;stroke-dashoffset:1.13386;paint-order:markers fill stroke"
       d="M 3.6995158 5.095813 L 3.076298 6.0032511 C 2.7337103 6.5024226 2.2669164 7.1756436 2.039152 7.4987671 L 1.9693888 7.5974691 L 1.9693888 8.2325724 L 3.0876668 8.7085124 C 4.6518071 9.3744815 5.9380997 10.094008 7.2641561 11.044804 C 7.7175388 11.369886 8.1043999 11.619986 8.1240519 11.600326 C 8.1437259 11.580661 8.1284353 10.548087 8.0899455 9.3058919 L 8.0196655 7.0471151 L 7.6202067 6.7045003 C 7.4002664 6.5159444 6.9997346 6.2356419 6.7303385 6.0812826 C 6.1953427 5.7747393 4.720546 5.258737 4.093807 5.1588582 L 3.6995158 5.095813 z M 14.711247 8.6402995 C 14.149431 8.8099788 13.263326 9.1314321 12.880868 9.3244954 C 12.217205 9.6595113 9.220109 11.434779 9.220109 11.492839 C 9.220109 11.513768 9.8456137 11.232203 10.610205 10.867554 C 12.461823 9.9844699 13.380351 9.6444421 14.559835 9.4040771 C 14.617242 9.3923784 14.65584 9.3852682 14.711247 9.3741048 L 14.711247 8.6402995 z M 14.711247 9.7590942 C 14.188795 9.8669598 13.598874 10.00172 13.290145 10.092407 C 12.527634 10.31639 10.900823 10.986648 10.048999 11.427726 C 9.3649707 11.781924 9.3918468 11.82342 10.118762 11.536247 C 11.13612 11.134331 13.274369 10.650889 14.711247 10.461377 L 14.711247 9.7590942 z " /><rect
       style="fill:#0d7df4;fill-opacity:1;stroke:none;stroke-width:0.3;stroke-dashoffset:1.13386;paint-order:markers fill stroke"
       id="rect3"
       width="12.741809"
       height="12.741809"
       x="15.550799"
       y="2.8958657"
       inkscape:export-filename="tier-2.png"
       inkscape:export-xdpi="96"
       inkscape:export-ydpi="96" /><rect
       style="fill:#63b31c;fill-opacity:1;stroke:none;stroke-width:0.3;stroke-dashoffset:1.13386;paint-order:markers fill stroke"
       id="rect11"
       width="12.741809"
       height="12.741809"
       x="28.987617"
       y="2.8958657"
       inkscape:export-filename="tier-3.png"
       inkscape:export-xdpi="96"
       inkscape:export-ydpi="96" /><path
       id="path13"
       style="fill:#0a75e7;stroke-width:0.752147;fill-opacity:1"
       d="M 20.681942 3.2793864 C 20.518443 3.2793864 20.500726 3.3197724 20.267497 4.2162801 C 20.147343 4.6781373 20.04482 5.0581798 20.04012 5.0611898 C 20.035401 5.0641988 19.8758 5.0948209 19.68562 5.1288859 C 18.845016 5.2794597 17.956452 5.6958995 17.284216 6.2538818 C 17.166859 6.3512949 17.0851 6.3998143 17.05839 6.3887573 C 17.035368 6.3792203 16.964691 6.3654515 16.901811 6.3577515 C 16.808896 6.3463645 16.776321 6.3550808 16.726111 6.4052938 C 16.675931 6.4555086 16.666662 6.4885975 16.678052 6.5815104 C 16.685762 6.6443933 16.699658 6.7147533 16.709058 6.7375732 C 16.719831 6.7638186 16.664323 6.8543246 16.558162 6.9840698 C 16.095084 7.5500293 15.744309 8.2355646 15.550989 8.9317546 L 15.550989 10.144084 C 15.947052 10.040454 16.213337 9.9698756 17.001029 9.7658122 L 19.198828 9.1963379 L 19.781222 9.7787313 L 20.363615 10.361125 L 17.555518 10.359058 C 16.441922 10.358185 15.994721 10.353727 15.550989 10.349756 L 15.550989 11.790495 C 15.581257 11.904962 15.611473 12.011342 15.637288 12.086084 C 15.836011 12.661467 16.194383 13.301282 16.574182 13.75885 C 16.671598 13.876206 16.720634 13.957966 16.709574 13.984676 C 16.700044 14.007699 16.685752 14.077859 16.678052 14.140739 C 16.666672 14.233653 16.675901 14.266746 16.726111 14.316956 C 16.776326 14.367136 16.809418 14.375888 16.902327 14.364498 C 16.965208 14.356798 17.03537 14.342992 17.05839 14.333492 C 17.085098 14.322433 17.166859 14.371474 17.284216 14.468884 C 17.741785 14.848685 18.381599 15.207056 18.956982 15.405778 C 19.202667 15.490631 19.755518 15.619702 19.936251 15.637805 L 20.506242 15.637805 C 20.4094 15.273101 20.317508 14.928642 20.09283 14.062191 L 19.517155 11.843722 L 20.099548 11.261845 L 20.681942 10.679451 L 20.681942 13.480314 C 20.681942 14.66689 20.678839 15.231637 20.676257 15.637805 L 21.427116 15.637805 C 21.607849 15.619702 22.160699 15.490635 22.406384 15.405778 C 22.981768 15.207056 23.621582 14.848685 24.07915 14.468884 C 24.196506 14.371468 24.278266 14.322432 24.304976 14.333492 C 24.327997 14.343032 24.398676 14.356798 24.461556 14.364498 C 24.554471 14.375878 24.587046 14.367166 24.637256 14.316956 C 24.687436 14.266741 24.696705 14.233649 24.685315 14.140739 C 24.677605 14.077857 24.663292 14.007696 24.653792 13.984676 C 24.642732 13.957969 24.691775 13.876206 24.789185 13.75885 C 25.168985 13.301282 25.527355 12.661467 25.726078 12.086084 C 25.817146 11.822406 25.96534 11.185708 25.96534 11.057723 C 25.96534 11.015943 25.990227 10.993524 26.055257 10.976074 C 26.47295 10.864006 26.76686 10.794335 26.77666 10.805025 C 26.793744 10.823702 26.727374 11.332635 26.672274 11.60601 C 26.571221 12.107338 26.337838 12.762255 26.110551 13.182658 C 25.775256 13.802835 25.493009 14.183037 24.998474 14.678691 C 24.618835 15.059188 24.205424 15.376633 23.762891 15.637805 L 24.585063 15.637805 C 24.991313 15.33651 25.366198 14.986877 25.700757 14.590841 C 26.558761 13.575172 27.078543 12.341719 27.213326 11.003979 L 27.247949 10.664982 L 27.346651 10.639144 C 27.400956 10.625114 27.497515 10.600013 27.561625 10.583333 C 27.833821 10.512529 27.833821 10.209726 27.561625 10.138916 C 27.497521 10.122246 27.400951 10.097135 27.346651 10.083105 L 27.247949 10.057267 L 27.213326 9.7182699 C 27.000999 7.610888 25.840585 5.7996765 23.993884 4.6932536 C 23.53309 4.4171759 22.938761 4.1701348 22.385197 4.0245605 C 22.216597 3.9802276 22.038289 3.9435255 21.988839 3.9434285 C 21.868895 3.943193 21.788334 4.0269568 21.788334 4.1511678 C 21.788334 4.273139 21.859063 4.3460578 22.015194 4.3857788 C 22.98016 4.6312637 23.635899 4.9347751 24.352519 5.4668498 C 24.672311 5.7042889 25.269808 6.2950159 25.52609 6.6269857 C 26.199122 7.4987839 26.616206 8.51816 26.753923 9.6283529 C 26.772813 9.7804967 26.78316 9.9106409 26.77666 9.9177409 C 26.766882 9.9284299 26.472951 9.8587588 26.055257 9.7466919 C 25.984107 9.7276019 25.96534 9.7076107 25.96534 9.6526408 C 25.96534 9.3663431 25.713467 8.5272074 25.484233 8.0496379 C 25.164224 7.3829546 24.999311 7.2328298 24.80262 7.4295207 C 24.716877 7.5152661 24.736677 7.6126936 24.897705 7.8971924 C 25.095206 8.246132 25.226516 8.5382688 25.325586 8.8485555 C 25.422621 9.1524792 25.511166 9.5518097 25.486816 9.5761597 C 25.470039 9.5929377 23.632077 9.1291082 23.570138 9.0924683 C 23.551005 9.0811523 23.750349 8.6300275 24.115841 7.8579183 C 24.494619 7.057743 24.692329 6.6096085 24.69255 6.5505046 C 24.692983 6.4344956 24.609272 6.35 24.494112 6.35 C 24.437057 6.35 23.982834 6.5499031 23.203235 6.9184408 C 22.541729 7.2311524 21.988689 7.4895559 21.974369 7.4925659 C 21.951922 7.497248 21.458988 5.6771509 21.457088 5.582605 C 21.456062 5.531661 21.5264 5.5389583 21.879285 5.6280802 C 22.284435 5.7304023 22.690283 5.8924712 23.065776 6.1019531 C 23.408058 6.2929089 23.519436 6.3121205 23.611995 6.1944539 C 23.696378 6.0871775 23.684798 5.997849 23.572721 5.8921468 C 23.433856 5.76118 22.773107 5.439743 22.369177 5.3066528 C 22.029684 5.1947936 21.52838 5.0777262 21.388875 5.0777262 C 21.349965 5.0777262 21.317729 5.0743315 21.317562 5.0704915 C 21.317393 5.0666879 21.218321 4.6839374 21.09742 4.2198975 C 20.862757 3.3192178 20.845472 3.2793864 20.681942 3.2793864 z M 19.348173 3.9434285 C 19.244944 3.9437158 18.693136 4.09708 18.397327 4.2074951 C 17.253064 4.6346071 16.280239 5.3572248 15.550989 6.2730021 L 15.550989 7.0414307 C 15.785496 6.6848507 16.061216 6.3471576 16.378328 6.0296061 C 17.169654 5.2371865 18.067323 4.7214555 19.144051 4.4400391 C 19.476056 4.3532646 19.547644 4.3036851 19.547644 4.1604696 C 19.547644 4.0621264 19.438343 3.943178 19.348173 3.9434285 z M 20.696928 4.4550252 C 20.702842 4.4702396 20.963595 5.471982 21.276737 6.6807292 L 21.846212 8.8785278 L 21.263818 9.4604045 L 20.681942 10.042798 L 20.684009 7.2352173 C 20.685219 5.6909968 20.691028 4.4398092 20.696928 4.4550252 z M 19.825663 5.5541829 C 19.86573 5.5499046 19.891572 5.5508448 19.898527 5.5578003 C 19.907266 5.5665395 19.805584 5.9940684 19.672701 6.5081299 C 19.539818 7.0221921 19.423085 7.4564419 19.413285 7.4729289 C 19.396811 7.5006064 19.089016 7.3624345 17.873844 6.7814982 L 17.542082 6.6223348 L 17.638717 6.538619 C 17.98332 6.239206 18.67263 5.8735055 19.213298 5.7030111 C 19.457903 5.6258791 19.705462 5.5670179 19.825663 5.5541829 z M 17.365865 7.0414307 C 17.391288 7.0414307 19.254296 7.9265588 19.275826 7.9488688 C 19.286046 7.9594568 19.248487 8.1455145 19.192627 8.3622803 C 19.13676 8.5790471 19.084572 8.7565315 19.076872 8.7565715 C 19.069172 8.7566105 18.677586 8.370908 18.206124 7.8992594 C 17.73466 7.4276127 17.356565 7.0414307 17.365865 7.0414307 z M 23.993368 7.0522827 C 23.998057 7.0569723 23.799152 7.4881485 23.551534 8.0103638 C 23.303916 8.5325782 23.089074 8.962661 23.074044 8.965861 C 23.046608 8.971827 22.311158 8.7838497 22.287528 8.7648397 C 22.280601 8.7592667 22.659567 8.369731 23.129854 7.8992594 C 23.600143 7.4287883 23.988668 7.0476227 23.993368 7.0522827 z M 16.940051 7.2228149 L 17.00258 7.3458049 C 17.097349 7.531567 17.8086 9.0437442 17.8139 9.0707642 C 17.816458 9.0837311 17.39533 9.2050075 16.87804 9.3399984 C 16.360749 9.4749892 15.920761 9.5855952 15.900321 9.5859782 C 15.846034 9.5869952 15.881562 9.3640565 15.996956 8.9813639 C 16.101854 8.6334803 16.182163 8.4317633 16.339054 8.1204346 C 16.452974 7.8943778 16.726262 7.4716603 16.857369 7.3189331 L 16.940051 7.2228149 z M 21.000269 10.361125 L 23.807849 10.363192 C 25.351979 10.364392 26.602744 10.370211 26.587524 10.376111 C 26.572309 10.382026 25.57334 10.642499 24.367505 10.954887 C 23.161669 11.267274 22.171956 11.522811 22.168156 11.522811 C 22.164308 11.522811 21.899828 11.261471 21.580595 10.941968 L 21.000269 10.361125 z M 25.484749 11.144023 C 25.515937 11.175211 25.435388 11.535496 25.315767 11.899015 C 25.186653 12.291382 24.958925 12.765209 24.754561 13.066386 C 24.685229 13.168562 24.582581 13.310379 24.526152 13.382129 L 24.423315 13.51287 L 23.98975 12.597164 C 23.75126 12.093568 23.5537 11.669376 23.5505 11.654586 C 23.544096 11.624297 25.459449 11.118723 25.484749 11.144023 z M 15.878101 11.144539 C 15.891602 11.131038 17.473766 11.525811 17.740002 11.609111 L 17.827336 11.635982 L 17.544149 12.236462 C 16.969855 13.453632 16.935485 13.520807 16.905945 13.478247 C 16.890731 13.456322 16.798083 13.327909 16.700273 13.192993 C 16.447284 12.844031 16.192905 12.339988 16.049666 11.9047 C 15.928761 11.537274 15.846951 11.175689 15.878101 11.144539 z M 18.269686 11.76724 C 18.289818 11.74781 19.077264 11.941268 19.077389 11.965678 C 19.077428 11.973377 18.691207 12.365479 18.21956 12.836943 C 17.747912 13.308406 17.362248 13.686501 17.362248 13.677201 C 17.362248 13.651778 18.247376 11.78877 18.269686 11.76724 z M 22.285978 11.965678 C 22.29392 11.965678 22.679508 12.344551 23.142773 12.808004 C 23.606041 13.271457 23.97908 13.655798 23.97218 13.661698 C 23.950859 13.67965 22.078756 12.78089 22.078756 12.75271 C 22.078756 12.699516 22.271978 11.965678 22.285978 11.965678 z M 19.388481 13.229683 C 19.411122 13.22493 19.904278 15.044831 19.906278 15.140161 C 19.907688 15.210197 19.608851 15.15177 19.107361 14.984098 C 18.599103 14.814165 18.076731 14.533159 17.659904 14.205334 L 17.529163 14.102498 L 18.445903 13.668933 C 18.949964 13.430523 19.373991 13.232683 19.388481 13.229683 z M 21.950081 13.24932 C 21.961415 13.230057 22.306792 13.37926 22.900928 13.660665 L 23.833687 14.102498 L 23.702946 14.205334 C 23.159391 14.632816 22.39224 14.99546 21.738725 15.13396 C 21.518247 15.18069 21.456055 15.183896 21.456055 15.147396 C 21.456055 15.104733 21.930171 13.28316 21.950081 13.24932 z M 15.550989 13.682369 L 15.550989 14.451831 C 15.736737 14.683267 15.939586 14.904625 16.15922 15.114323 C 16.356532 15.302707 16.563622 15.477181 16.779854 15.637805 L 17.600476 15.637805 C 17.158389 15.376931 16.745501 15.059815 16.364376 14.678691 C 16.054031 14.368346 15.782689 14.035555 15.550989 13.682369 z " /><rect
       style="fill:#8314e3;fill-opacity:1;stroke:none;stroke-width:0.3;stroke-dashoffset:1.13386;paint-order:markers fill stroke"
       id="rect23"
       width="12.741809"
       height="12.741809"
       x="42.771938"
       y="2.8958657"
       inkscape:export-filename="tier-4.png"
       inkscape:export-xdpi="96"
       inkscape:export-ydpi="96" /><path
       id="path23"
       style="fill:#7712ce;stroke-width:0.780688;fill-opacity:1"
       d="M 49.072457 3.8292236 C 48.998829 3.8268455 48.923806 3.8365365 48.862134 3.859196 C 48.774553 3.8913727 48.731377 3.9320078 47.844625 4.8167603 C 47.3352 5.3250355 46.918066 5.7462204 46.918066 5.7526204 C 46.918066 5.7590564 47.396673 6.0042433 47.981567 6.29729 C 48.566462 6.5903367 49.047102 6.8306477 49.049202 6.8311076 C 49.062337 6.833961 51.187056 5.7621004 51.187056 5.7526204 C 51.187056 5.7461828 50.773997 5.3288968 50.268766 4.8250285 C 49.54265 4.100872 49.334255 3.9013538 49.273995 3.8726318 C 49.218522 3.8461899 49.146084 3.8316018 49.072457 3.8292236 z M 46.727897 6.224943 C 46.725807 6.227513 46.746679 6.4455223 46.773889 6.709668 C 46.801099 6.9738136 46.827084 7.2380123 46.832284 7.2967122 C 46.837414 7.3554106 46.849222 7.472272 46.858122 7.5561279 C 46.866992 7.6399831 46.907959 8.0479631 46.949589 8.4630493 C 46.991227 8.8781354 47.063359 9.5884261 47.109269 10.041248 C 47.155189 10.494069 47.196136 10.90561 47.200736 10.95592 C 47.205326 11.006236 47.212123 11.064668 47.215723 11.085628 C 47.219343 11.106591 47.22946 11.209219 47.23846 11.314038 C 47.2527 11.480014 47.327278 12.215048 47.5356 14.241508 C 47.6009 14.876997 47.605831 14.918937 47.610531 14.923637 C 47.61262 14.925726 47.877953 15.016747 48.200159 15.125692 C 48.522363 15.234634 48.791238 15.324002 48.797538 15.324129 C 48.803778 15.324257 48.808907 13.509274 48.808907 11.2913 L 48.808907 7.2589884 L 47.770211 6.7396403 C 47.199067 6.4540445 46.729997 6.222363 46.727897 6.224943 z M 51.377226 6.224943 C 51.37517 6.2223722 50.906055 6.4540445 50.334912 6.7396403 L 49.296733 7.2589884 L 49.296733 11.2913 C 49.296733 13.509274 49.302552 15.324129 49.309652 15.324129 C 49.325076 15.324129 50.486142 14.932687 50.493042 14.925187 C 50.495672 14.922309 50.519442 14.710692 50.545752 14.454932 C 50.667248 13.273976 50.850828 11.4632 50.859428 11.36003 C 50.864698 11.297139 50.875082 11.190949 50.882682 11.123869 C 50.890242 11.056784 50.900303 10.9638 50.904903 10.91768 C 50.909531 10.871559 50.981293 10.164828 51.064583 9.3472331 C 51.14788 8.5296393 51.223749 7.7822707 51.233049 7.6858358 C 51.242328 7.5894014 51.252169 7.4898146 51.255269 7.4646606 C 51.258369 7.4395038 51.265906 7.3673556 51.271806 7.3044637 C 51.277676 7.2415724 51.304611 6.9738136 51.33175 6.709668 C 51.35889 6.4455223 51.379226 6.227523 51.377226 6.224943 z M 43.14362 6.621818 C 43.120687 6.6201379 43.102187 6.6213533 43.082125 6.6233683 C 42.966988 6.6349337 42.851802 6.7022085 42.772066 6.7908 L 42.772066 8.9162516 C 43.3642 8.8842168 44.149932 8.8421134 44.15131 8.8402873 C 44.152844 8.8381896 44.279524 8.6583367 44.432947 8.4403117 C 44.735168 8.0108336 45.110485 7.4804373 45.228247 7.3163493 C 45.268777 7.259879 45.302144 7.2082676 45.302144 7.2016276 C 45.302144 7.1897963 45.1731 7.153247 44.257764 6.9075887 C 44.006197 6.8400734 43.71456 6.7614483 43.609741 6.7329224 C 43.318929 6.6538043 43.212419 6.6268585 43.14362 6.621818 z M 55.033333 6.6233683 C 54.9433 6.6180365 54.811054 6.6515796 54.488147 6.73809 C 54.395905 6.7628032 54.227731 6.8074876 54.114526 6.8378255 C 54.00132 6.8681617 53.795552 6.9238042 53.65719 6.9613322 C 53.518828 6.9988623 53.269867 7.0655656 53.104252 7.1096436 C 52.938637 7.1537245 52.803495 7.1948608 52.803495 7.2011108 C 52.803495 7.2073906 52.91107 7.3653446 53.042757 7.5519938 C 53.442386 8.1184146 53.950063 8.8364243 53.955363 8.8423543 C 53.958105 8.8454303 54.356927 8.8703481 54.841614 8.8976481 C 55.19983 8.9178232 55.346793 8.9243515 55.513924 8.9322713 L 55.513924 7.2693237 C 55.506656 7.2424194 55.490428 7.1817911 55.484469 7.1597697 C 55.39575 6.831909 55.34892 6.7561923 55.181645 6.6714274 C 55.126153 6.6433061 55.087353 6.6265674 55.033333 6.6233683 z M 45.66853 7.5742147 C 45.655494 7.5602497 45.496574 7.776494 45.051514 8.4139567 C 45.00902 8.4748206 44.91241 8.6119996 44.83654 8.7188477 C 44.760665 8.8256948 44.669091 8.9549167 44.633451 9.0061686 L 44.568856 9.0991862 L 44.808118 9.5017456 C 44.939738 9.7230238 45.172403 10.113116 45.324882 10.368876 C 45.47736 10.624637 45.724191 11.039734 45.873686 11.2913 C 46.023183 11.542868 46.316306 12.036058 46.525326 12.386841 C 46.734345 12.737622 46.907498 13.02216 46.909798 13.01936 C 46.912058 13.01658 46.881405 12.691563 46.841585 12.297441 C 46.801765 11.903318 46.757253 11.460786 46.742883 11.314038 C 46.728513 11.16729 46.684071 10.727422 46.644181 10.33632 L 46.571834 9.6252523 L 46.125867 8.6056763 C 45.880679 8.0450145 45.67493 7.5810847 45.66853 7.5742147 z M 52.443311 7.5762817 C 52.431167 7.5809392 52.357468 7.7447198 52.057288 8.4325602 C 52.007885 8.5457654 51.869827 8.8612784 51.750846 9.1338094 L 51.534839 9.6293864 L 51.476444 10.185942 C 51.444475 10.492015 51.415215 10.780093 51.410815 10.826213 C 51.390937 11.037631 51.205498 12.86315 51.193258 12.968717 C 51.18264 13.060282 51.181784 13.061726 51.327616 12.816272 C 51.382419 12.72403 51.588403 12.377524 51.78547 12.046293 C 51.982535 11.715062 52.306903 11.169388 52.506356 10.833964 C 52.705809 10.498541 52.965363 10.063125 53.083065 9.8660645 C 53.200768 9.6690034 53.330856 9.4489991 53.371936 9.3777222 C 53.413011 9.3064446 53.466775 9.2161488 53.491825 9.1767008 C 53.521395 9.1301579 53.533098 9.0974703 53.524898 9.0836833 C 53.517978 9.0719956 53.424979 8.9397596 53.318193 8.7896444 C 53.211405 8.6395283 52.974016 8.3039068 52.790576 8.0439535 C 52.607137 7.7840008 52.450811 7.5733917 52.443311 7.5762817 z M 44.100151 9.3399984 C 44.077877 9.3436284 43.644229 9.3683414 43.136902 9.3947754 C 42.937364 9.4051722 42.924052 9.4070199 42.772066 9.415446 L 42.772066 10.222115 C 42.783988 10.238263 42.796729 10.255491 42.807206 10.269657 C 42.869229 10.353512 43.028048 10.569958 43.160673 10.750248 C 43.293299 10.930538 43.458022 11.153585 43.526542 11.245825 C 43.595061 11.338067 43.835197 11.663737 44.059843 11.969812 C 44.28449 12.275885 44.531543 12.612234 44.609163 12.717053 C 44.686776 12.821873 44.843245 13.033911 44.956946 13.188342 C 45.14573 13.444752 45.171675 13.473288 45.252535 13.516488 C 45.403781 13.597298 45.435113 13.624652 45.881437 14.066842 L 46.316036 14.497306 L 46.681905 14.620813 C 46.883159 14.688574 47.056415 14.744101 47.066895 14.74432 C 47.091125 14.744825 47.091203 14.738734 47.060693 14.44873 L 47.034855 14.206368 L 46.707227 13.656014 C 46.372713 13.094063 46.129518 12.684537 45.831828 12.183236 C 45.457229 11.55242 45.405857 11.466383 44.730086 10.330636 C 44.555457 10.03714 44.351247 9.6928205 44.276367 9.5653076 C 44.14891 9.3482424 44.138071 9.3338284 44.100151 9.3399984 z M 53.974483 9.3513672 C 53.962465 9.3559772 53.91452 9.4238394 53.86803 9.5022624 C 53.359277 10.360492 53.050155 10.880513 52.773006 11.344527 C 52.725424 11.42419 52.563829 11.695508 52.414372 11.947074 C 51.987069 12.666315 51.348563 13.739577 51.201009 13.986226 L 51.06665 14.211019 L 51.042879 14.434261 C 51.029989 14.556964 51.019625 14.676841 51.019625 14.700911 C 51.019625 14.724971 51.026411 14.744836 51.034611 14.744836 C 51.042767 14.744836 51.215504 14.689376 51.419084 14.621847 L 51.789604 14.499373 L 52.163224 14.120585 C 52.549652 13.729089 52.702098 13.595861 52.853621 13.517521 C 52.931658 13.477176 52.958691 13.448947 53.082031 13.280843 C 53.158938 13.176023 53.338883 12.932659 53.482007 12.739791 C 53.625131 12.546922 53.81395 12.29054 53.901619 12.170317 C 53.989291 12.050093 54.104164 11.893587 54.156384 11.822017 C 54.208603 11.750454 54.338299 11.574463 54.444739 11.430827 C 54.735733 11.038144 54.760498 11.004137 55.250374 10.338387 C 55.369895 10.175956 55.416411 10.113557 55.513924 9.9813029 L 55.513924 9.4252645 C 55.335191 9.4162982 55.070648 9.4023661 54.737744 9.3839233 C 54.329928 9.3613224 53.986493 9.3467572 53.974483 9.3513672 z M 53.315609 13.909745 C 53.29045 13.908398 53.265901 13.909459 53.238094 13.912329 C 53.071495 13.929529 53.031806 13.959827 52.518758 14.4663 L 52.043852 14.935522 L 50.670292 15.392859 L 49.93442 15.637805 L 55.513924 15.637805 L 55.513924 14.834753 C 55.485794 14.820761 55.459452 14.806465 55.425557 14.791862 C 55.320738 14.746695 55.200837 14.6945 55.158907 14.67559 C 55.085734 14.64259 53.958123 14.151625 53.626701 14.008447 C 53.468264 13.939987 53.391084 13.913788 53.315609 13.909745 z M 44.814319 13.914913 L 44.684611 13.91543 L 44.31099 14.080278 C 44.105544 14.170998 43.892661 14.26415 43.838151 14.2875 C 43.783645 14.31085 43.626147 14.379476 43.487785 14.439945 C 43.349422 14.500405 43.126377 14.59783 42.992208 14.65647 C 42.913182 14.691006 42.847914 14.718746 42.772066 14.751554 L 42.772066 15.637805 L 48.182072 15.637805 L 47.448267 15.393376 C 46.699854 15.143879 46.073117 14.930453 46.055587 14.919503 C 46.038058 14.908553 45.818571 14.695947 45.567761 14.44718 C 45.038869 13.922621 45.02705 13.914518 44.814319 13.914913 z " /><path
       id="path24"
       style="fill:#9229ec;fill-opacity:1;stroke:none;stroke-width:0.3;stroke-dashoffset:1.13386;paint-order:markers fill stroke"
       d="M 49.072457 3.8292236 C 48.998829 3.8268455 48.923806 3.8365365 48.862134 3.859196 C 48.774553 3.8913726 48.731376 3.9320086 47.844625 4.8167603 C 47.3352 5.3250349 46.918066 5.7462204 46.918066 5.7526204 C 46.918066 5.7590564 47.396674 6.0042436 47.981567 6.29729 C 48.566462 6.5903364 49.047102 6.8306477 49.049202 6.8311076 C 49.062337 6.833961 51.187056 5.7621004 51.187056 5.7526204 C 51.187056 5.7461828 50.773997 5.3288963 50.268766 4.8250285 C 49.542651 4.1008727 49.334255 3.9013538 49.273995 3.8726318 C 49.218522 3.84619 49.146084 3.8316018 49.072457 3.8292236 z M 52.443311 7.5762817 C 52.431167 7.5809392 52.357467 7.7447205 52.057288 8.4325602 C 52.007885 8.5457653 51.869827 8.8612787 51.750846 9.1338094 L 51.534839 9.6293864 L 51.476444 10.185942 C 51.444476 10.492014 51.415215 10.780093 51.410815 10.826213 C 51.390937 11.03763 51.205498 12.863151 51.193258 12.968717 C 51.18264 13.060282 51.181785 13.061726 51.327616 12.816272 C 51.382419 12.72403 51.588403 12.377524 51.78547 12.046293 C 51.982534 11.715062 52.306903 11.169388 52.506356 10.833964 C 52.705809 10.498541 52.965363 10.063125 53.083065 9.8660645 C 53.200768 9.6690036 53.330856 9.448999 53.371936 9.3777222 C 53.413011 9.3064446 53.466775 9.2161488 53.491825 9.1767008 C 53.521395 9.130158 53.533098 9.0974703 53.524898 9.0836833 C 53.517978 9.0719956 53.424978 8.9397594 53.318193 8.7896444 C 53.211405 8.6395284 52.974016 8.3039065 52.790576 8.0439535 C 52.607137 7.784001 52.450811 7.5733917 52.443311 7.5762817 z M 44.100151 9.3399984 C 44.077877 9.3436284 43.644228 9.3683414 43.136902 9.3947754 C 42.937364 9.4051722 42.924052 9.4070199 42.772066 9.415446 L 42.772066 10.222115 C 42.783988 10.238263 42.796729 10.255491 42.807206 10.269657 C 42.869229 10.353512 43.028048 10.569958 43.160673 10.750248 C 43.293299 10.930538 43.458022 11.153585 43.526542 11.245825 C 43.595061 11.338067 43.835197 11.663737 44.059843 11.969812 C 44.28449 12.275885 44.531543 12.612234 44.609163 12.717053 C 44.686776 12.821873 44.843245 13.033911 44.956946 13.188342 C 45.14573 13.444752 45.171675 13.473288 45.252535 13.516488 C 45.403781 13.597298 45.435114 13.624652 45.881437 14.066842 L 46.316036 14.497306 L 46.681905 14.620813 C 46.883159 14.688574 47.056415 14.744101 47.066895 14.74432 C 47.091125 14.744825 47.091203 14.738734 47.060693 14.44873 L 47.034855 14.206368 L 46.707227 13.656014 C 46.372713 13.094064 46.129518 12.684536 45.831828 12.183236 C 45.457229 11.55242 45.405857 11.466381 44.730086 10.330636 C 44.555457 10.03714 44.351247 9.6928204 44.276367 9.5653076 C 44.14891 9.3482426 44.138071 9.3338284 44.100151 9.3399984 z " /><path
       id="path26"
       style="fill:#5ca71a;stroke-width:0.0823417;fill-opacity:1"
       d="M 32.044039 2.8959473 C 31.95626 2.9337066 31.861684 2.9749388 31.681787 3.0561442 C 31.367983 3.197794 31.291149 3.2405774 31.301449 3.2685343 C 31.30855 3.2878115 31.43523 3.5293406 31.583085 3.8049357 C 31.841196 4.2860426 33.050985 6.5437745 33.237764 6.8931193 C 33.287414 6.9859707 33.329832 7.0615726 33.332332 7.0615845 C 33.334848 7.0615962 33.383693 7.0121038 33.440853 6.9509969 C 33.578919 6.8033947 33.723553 6.7314162 33.910592 6.7179362 C 33.991469 6.7121072 34.057869 6.6996409 34.057869 6.6900309 C 34.057869 6.6804178 33.949055 6.4389707 33.816024 6.1536296 C 33.682993 5.8682883 33.541935 5.5662296 33.502865 5.4823527 C 33.463781 5.3984759 33.265024 4.9719645 33.061031 4.5346069 C 32.580889 3.5051847 32.551982 3.4436817 32.397506 3.1078206 C 32.34543 2.9945929 32.320802 2.9439644 32.297253 2.8959473 L 32.044039 2.8959473 z M 32.528247 2.8959473 C 32.700408 3.2763156 34.287125 6.6661422 34.302816 6.6858968 C 34.31879 6.7060099 34.435223 6.7132853 34.748783 6.7132853 L 35.173564 6.7132853 L 35.160128 6.6595418 C 35.146525 6.6053407 34.020827 3.7894977 33.657894 2.8959473 L 32.528247 2.8959473 z M 33.837728 2.8959473 C 34.031878 3.3844398 34.258756 3.9586143 34.268193 3.9739176 C 34.273795 3.9830106 34.838332 3.9878597 35.522896 3.9847697 L 36.767782 3.9790853 L 37.090243 3.1729329 C 37.148509 3.0274145 37.151981 3.017346 37.200313 2.8959473 L 33.837728 2.8959473 z M 37.377563 2.8959473 C 37.01501 3.7898237 35.88645 6.6131923 35.873779 6.6636759 L 35.861377 6.7132853 L 36.28564 6.7132853 C 36.599174 6.7132853 36.716125 6.7060088 36.732125 6.6858968 C 36.744049 6.6709188 37.083489 5.9508713 37.486601 5.0854777 C 37.889711 4.2200842 38.257722 3.4307695 38.304122 3.3315796 C 38.470397 2.9761069 38.477209 2.9596465 38.506177 2.8959473 L 37.377563 2.8959473 z M 38.739754 2.8959473 C 38.719556 2.9349089 38.696409 2.9822398 38.671541 3.0370239 C 38.615778 3.1598435 38.521918 3.3628609 38.462769 3.4886759 C 37.850932 4.790321 36.977071 6.6753063 36.977071 6.6936483 C 36.977071 6.7043103 37.025605 6.7132853 37.085075 6.7132853 C 37.2573 6.7132853 37.426639 6.7888623 37.576001 6.9329102 C 37.647723 7.0020819 37.707626 7.0570265 37.709326 7.0548665 C 37.71111 7.0526996 37.86464 6.7667359 38.050391 6.4192464 C 38.236141 6.071757 38.485398 5.6058419 38.604362 5.3841675 C 39.458138 3.7932582 39.748343 3.2464423 39.741243 3.2401123 C 39.717518 3.2189011 39.265508 3.0133968 38.993486 2.8959473 L 38.739754 2.8959473 z M 36.555391 6.8683146 C 36.294605 6.8670445 35.945108 6.8691734 35.471737 6.8708984 L 33.828943 6.8765828 L 33.722489 6.9308431 C 33.664053 6.960686 33.57937 7.0274515 33.53387 7.0791545 C 33.391193 7.241229 33.382458 7.2942203 33.382458 8.0000285 L 33.382458 8.6253133 L 33.18092 8.7689738 C 32.26327 9.4213918 31.668894 10.386832 31.495752 11.506274 C 31.453422 11.779906 31.44773 12.35161 31.4849 12.617318 C 31.545824 13.052834 31.693293 13.533302 31.879708 13.904061 C 32.25319 14.646881 32.831976 15.244075 33.534904 15.637805 L 37.495386 15.637805 C 38.190324 15.250844 38.760473 14.669891 39.132495 13.946436 C 39.627513 12.983797 39.714817 11.886731 39.380025 10.83138 C 39.281261 10.520054 39.02806 10.014273 38.834839 9.7415243 C 38.639377 9.4656122 38.13819 8.9659792 37.864872 8.7746582 L 37.652482 8.6258301 L 37.652482 8.0000285 C 37.652482 7.2623095 37.64551 7.226177 37.466447 7.0471151 C 37.32294 6.9036074 37.337749 6.8721249 36.555391 6.8683146 z M 35.517212 7.3447713 C 37.05677 7.3447713 37.086747 7.3459303 37.129517 7.3886963 C 37.170287 7.4295667 37.172925 7.4614553 37.172925 7.9008097 C 37.172925 8.1584312 37.16819 8.3689982 37.16259 8.3689982 C 37.156911 8.3689982 37.07935 8.3399016 36.98999 8.3044027 C 36.127275 7.9616952 35.105168 7.9407002 34.210315 8.2475586 C 34.060535 8.29892 33.92071 8.3486794 33.89974 8.3576294 C 33.86412 8.3728272 33.861499 8.342865 33.861499 7.9028768 C 33.861499 7.4611917 33.864544 7.4295802 33.905424 7.3886963 C 33.948189 7.3459287 33.977655 7.3447713 35.517212 7.3447713 z M 35.551318 8.6175618 C 35.795351 8.6196001 36.036992 8.6374266 36.192623 8.6707886 C 36.838719 8.8092915 37.372547 9.0776288 37.845752 9.5017456 C 38.706267 10.272998 39.122068 11.40253 38.970748 12.556856 C 38.777088 14.034172 37.647008 15.229263 36.172986 15.515849 C 36.020652 15.545479 35.827366 15.563459 35.604545 15.568559 C 35.223179 15.577179 35.182242 15.573908 34.862472 15.514299 C 33.738005 15.304672 32.775912 14.532555 32.314823 13.469462 C 32.144393 13.076513 32.058461 12.68886 32.038871 12.225094 C 32.014532 11.648702 32.123791 11.111252 32.369084 10.60142 C 32.860551 9.5799291 33.789081 8.8670454 34.896578 8.6604533 C 35.061094 8.6297653 35.307286 8.6155236 35.551318 8.6175618 z M 35.50636 8.794812 C 35.090773 8.795484 35.026934 8.8006119 34.809245 8.8521729 C 34.518419 8.9210578 34.189609 9.0405782 33.972087 9.156547 C 33.082957 9.6305705 32.476033 10.447321 32.257463 11.462866 C 32.196083 11.748392 32.201044 12.46096 32.266764 12.763045 C 32.476128 13.725482 33.072889 14.530834 33.924028 15.000118 C 34.26172 15.186308 34.61483 15.305285 35.036621 15.374255 C 35.308044 15.418635 35.898512 15.402203 36.178153 15.342733 C 37.484823 15.064852 38.486901 14.06997 38.764559 12.774414 C 38.836189 12.440215 38.846633 11.896824 38.787813 11.552783 C 38.70727 11.081713 38.541194 10.656298 38.289136 10.275342 C 37.876646 9.6519186 37.27692 9.1860068 36.595699 8.9596598 C 36.156429 8.8137043 36.02522 8.7939895 35.50636 8.794812 z M 34.174141 9.9089559 L 34.099727 10.00249 C 34.009754 10.11512 33.649448 10.440127 33.5132 10.531657 C 33.459277 10.567875 33.397074 10.618058 33.375224 10.643278 C 33.353394 10.668538 33.339201 10.679546 33.343701 10.667566 C 33.354102 10.639953 33.419158 10.494671 33.465658 10.395231 C 33.553517 10.207368 33.886067 9.9555617 34.090426 9.9223918 L 34.174141 9.9089559 z M 36.839095 9.9089559 L 36.93418 9.9239421 C 37.178417 9.9629972 37.44779 10.195973 37.58737 10.488249 C 37.636331 10.590812 37.690506 10.686309 37.707776 10.700639 C 37.725036 10.714968 37.704194 10.651342 37.661784 10.559562 C 37.572834 10.367049 37.545961 10.208881 37.592021 10.147701 C 37.620754 10.109529 37.627954 10.112943 37.714494 10.211263 C 37.919332 10.443973 38.009749 10.781139 37.898979 10.899593 C 37.859749 10.941553 37.855661 10.958221 37.876241 10.994161 C 37.889971 11.018126 37.93409 11.121237 37.97391 11.223088 C 38.033132 11.374537 38.043544 11.391115 38.032304 11.314555 C 38.004964 11.128279 38.014978 10.922463 38.054008 10.862903 C 38.074418 10.831753 38.102326 10.810244 38.116536 10.814844 C 38.174148 10.833603 38.24798 11.077119 38.25658 11.277348 C 38.265709 11.490645 38.230778 11.602831 38.141858 11.647351 C 38.104068 11.666253 38.100056 11.682305 38.113436 11.756905 C 38.121996 11.804836 38.130539 11.902573 38.132039 11.974463 C 38.135129 12.122381 38.154908 12.097623 38.196118 11.894364 C 38.225754 11.748187 38.301163 11.626164 38.361483 11.626164 C 38.400403 11.626164 38.404875 11.643896 38.410575 11.829769 C 38.418478 12.085724 38.375787 12.246445 38.273633 12.3486 C 38.233863 12.38838 38.185833 12.420947 38.166663 12.420947 C 38.147503 12.420947 38.131687 12.423632 38.131523 12.426632 C 38.131313 12.429627 38.112988 12.520329 38.090698 12.62817 C 38.068408 12.736009 38.052125 12.826808 38.054525 12.829708 C 38.056965 12.832618 38.081195 12.789853 38.108785 12.734623 C 38.168695 12.614665 38.327486 12.443168 38.378536 12.443168 C 38.425866 12.443168 38.426576 12.527274 38.380086 12.68398 C 38.301331 12.949415 38.157398 13.13558 38.01215 13.15992 C 37.941804 13.171704 37.925729 13.188815 37.847819 13.33252 C 37.761489 13.491794 37.761154 13.491808 37.823014 13.447758 C 37.857094 13.423508 37.898382 13.387596 37.914482 13.368176 C 37.930586 13.348776 37.980843 13.314268 38.026103 13.291178 C 38.188305 13.208435 38.225377 13.246225 38.138757 13.4059 C 38.000057 13.66158 37.753537 13.85564 37.599772 13.83068 C 37.534441 13.820078 37.515742 13.831449 37.399268 13.95057 L 37.27111 14.081311 L 37.358443 14.037903 C 37.548541 13.943253 37.739567 13.922028 37.739815 13.995528 C 37.739953 14.0403 37.518725 14.225721 37.384281 14.293701 C 37.217847 14.377851 37.082377 14.398722 37.009627 14.351062 C 36.956966 14.316552 36.949298 14.318581 36.803438 14.399121 L 36.652543 14.48232 L 36.841679 14.474052 C 36.991226 14.467362 37.040896 14.47268 37.075256 14.49989 L 37.118665 14.534513 L 37.075256 14.569653 C 37.007412 14.624333 36.825124 14.700673 36.698018 14.727783 C 36.505927 14.768753 36.33942 14.746546 36.28564 14.673006 C 36.260739 14.638956 36.244863 14.639143 36.046379 14.671973 C 35.747629 14.721393 35.666925 14.727152 35.604545 14.704012 C 35.554385 14.685402 35.553199 14.681523 35.588009 14.655953 C 35.608797 14.640683 35.71139 14.621995 35.816418 14.614095 C 35.921444 14.606235 36.054891 14.58698 36.113041 14.57172 C 36.207053 14.547053 36.222377 14.534916 36.247917 14.460616 C 36.285713 14.350675 36.361558 14.274218 36.580713 14.125236 C 36.729202 14.024316 36.765134 14.008036 36.781734 14.034285 C 36.792804 14.051885 36.80224 14.084756 36.802405 14.107666 C 36.802858 14.164192 36.704032 14.328682 36.644792 14.370182 C 36.560685 14.429092 36.634729 14.406025 36.768815 14.331425 C 36.895741 14.260802 36.898273 14.257233 36.900073 14.162443 C 36.90224 14.04944 37.005769 13.863282 37.165173 13.685986 C 37.244939 13.597256 37.271378 13.579747 37.295398 13.599687 C 37.344918 13.640787 37.331993 13.797562 37.269043 13.915946 L 37.212199 14.0224 L 37.263359 13.978992 C 37.291573 13.955033 37.351337 13.897137 37.396167 13.850317 C 37.461747 13.781851 37.472678 13.758985 37.451978 13.734045 C 37.391972 13.661743 37.463784 13.304497 37.583236 13.080339 C 37.619006 13.013199 37.623402 13.011025 37.668502 13.042615 C 37.730932 13.086348 37.751518 13.206576 37.720178 13.342338 C 37.706318 13.402313 37.698508 13.455027 37.702608 13.459127 C 37.706688 13.463205 37.748656 13.394001 37.795626 13.305131 L 37.880892 13.143384 L 37.829732 13.089124 C 37.793902 13.051001 37.774186 12.996526 37.763586 12.906706 C 37.748116 12.775461 37.767772 12.40746 37.791492 12.38374 C 37.798772 12.37646 37.827461 12.380749 37.85557 12.393559 C 37.930877 12.42787 37.979027 12.548588 37.980627 12.707751 C 37.982287 12.873675 38.005098 12.834525 38.052458 12.583728 C 38.083198 12.420945 38.082905 12.417857 38.036955 12.400277 C 37.932882 12.360466 37.859062 12.207712 37.793042 11.893848 C 37.753438 11.705566 37.770427 11.673967 37.879342 11.732617 C 37.957409 11.774658 38.06641 11.945936 38.06641 12.026656 C 38.06641 12.052006 38.075197 12.072648 38.086047 12.072648 C 38.096894 12.072648 38.102016 12.035929 38.097416 11.990999 C 38.092866 11.946066 38.083329 11.852847 38.076229 11.783777 C 38.069059 11.714716 38.054126 11.663805 38.043156 11.670605 C 38.007331 11.692746 37.871118 11.611452 37.808028 11.530562 C 37.716505 11.41324 37.565149 11.149612 37.565149 11.107332 C 37.565149 11.079862 37.584207 11.070642 37.640597 11.070642 C 37.730639 11.070642 37.844853 11.161289 37.941353 11.309904 C 38.01696 11.426343 38.006186 11.373027 37.905697 11.135754 C 37.83722 10.97404 37.835913 10.972241 37.761003 10.978141 C 37.663548 10.985713 37.528288 10.907353 37.326404 10.72596 C 37.171303 10.586598 37.145238 10.541097 37.207548 10.517187 C 37.315049 10.475935 37.454624 10.526932 37.599772 10.660331 C 37.696912 10.749611 37.700475 10.75088 37.667985 10.68772 C 37.649117 10.65105 37.579082 10.584515 37.511922 10.539925 C 37.364338 10.441934 36.98571 10.101174 36.90059 9.9895711 L 36.839095 9.9089559 z M 33.401062 10.127547 C 33.406878 10.130796 33.412504 10.137063 33.419149 10.146151 C 33.434929 10.167741 33.447571 10.211522 33.447571 10.243302 C 33.447571 10.313037 33.383983 10.502893 33.316313 10.635527 C 33.279423 10.707916 33.276127 10.724906 33.302877 10.702706 C 33.344787 10.667936 33.351412 10.699027 33.311662 10.744047 C 33.296687 10.761007 33.335835 10.727896 33.398995 10.670667 C 33.557464 10.527103 33.695859 10.475038 33.805688 10.517187 C 33.867047 10.540733 33.842847 10.584732 33.693034 10.722343 C 33.494177 10.905012 33.349504 10.988424 33.255334 10.974524 C 33.18438 10.964051 33.181309 10.966931 33.120459 11.101131 C 33.086189 11.176712 33.051144 11.266966 33.042944 11.301636 C 33.028864 11.361026 33.031871 11.359671 33.09307 11.276831 C 33.194603 11.139402 33.288007 11.070642 33.373157 11.070642 C 33.47408 11.070642 33.47022 11.103118 33.344218 11.315588 C 33.228676 11.510416 33.097107 11.658757 33.039327 11.659237 C 32.956364 11.659963 32.938695 11.695212 32.924605 11.891264 C 32.916955 11.997024 32.913337 12.087052 32.916337 12.091252 C 32.919387 12.095452 32.932299 12.06103 32.944759 12.014771 C 32.977331 11.893805 33.076044 11.751725 33.148364 11.721765 C 33.249094 11.680044 33.258959 11.714904 33.209859 11.93984 C 33.158182 12.176613 33.070113 12.354506 32.984033 12.395626 C 32.943893 12.414806 32.926274 12.437195 32.932874 12.461255 C 32.938364 12.48132 32.959046 12.57355 32.978866 12.66641 C 32.998686 12.759273 33.018274 12.835392 33.022274 12.835392 C 33.026274 12.835392 33.029508 12.777278 33.029508 12.706718 C 33.029508 12.629447 33.044669 12.546575 33.067749 12.497945 C 33.105727 12.417911 33.193269 12.355781 33.224329 12.386841 C 33.245369 12.407933 33.260432 12.880098 33.242932 12.973368 C 33.235502 13.01302 33.208094 13.068308 33.181954 13.096358 L 33.134412 13.147518 L 33.218644 13.307198 C 33.265034 13.394951 33.305895 13.463344 33.309595 13.459644 C 33.313295 13.455948 33.305258 13.3996 33.291508 13.33407 C 33.262658 13.196478 33.277268 13.114743 33.342668 13.049333 L 33.38866 13.002824 L 33.432068 13.087056 C 33.550739 13.31862 33.613958 13.638641 33.558158 13.726811 C 33.534663 13.763936 33.611053 13.87222 33.717839 13.95367 L 33.788635 14.007931 L 33.737992 13.908195 C 33.681142 13.795899 33.670919 13.638627 33.717839 13.599687 C 33.742104 13.579542 33.769028 13.598031 33.853748 13.693221 C 34.016422 13.875953 34.105996 14.037945 34.111096 14.157792 C 34.115335 14.25842 34.117092 14.260585 34.244421 14.331425 C 34.39649 14.416035 34.444298 14.424615 34.350358 14.350545 C 34.264567 14.282908 34.19979 14.142271 34.2191 14.065291 C 34.236217 13.997081 34.251649 14.000833 34.419604 14.112317 C 34.606709 14.23651 34.732523 14.362086 34.764803 14.457515 C 34.791138 14.53537 34.804569 14.54692 34.899679 14.57172 C 34.957823 14.58687 35.088766 14.605778 35.190617 14.613578 C 35.390478 14.628848 35.47139 14.65475 35.43453 14.69161 C 35.401085 14.72505 35.137059 14.712902 34.937402 14.668872 C 34.768559 14.631618 34.759201 14.631825 34.736381 14.668355 C 34.72322 14.689415 34.675168 14.716774 34.629928 14.729333 C 34.479132 14.771212 34.295655 14.746397 34.101278 14.658537 C 34.035512 14.628797 33.96195 14.588963 33.93798 14.569653 L 33.894572 14.534513 L 33.93798 14.49989 C 33.972348 14.47268 34.021416 14.467252 34.171041 14.474052 L 34.360693 14.48232 L 34.214966 14.402738 C 34.076701 14.327149 34.065086 14.324183 34.005676 14.354163 C 33.9222 14.396298 33.790408 14.375725 33.628438 14.294735 C 33.482255 14.221631 33.263849 14.028936 33.278589 13.986226 C 33.29564 13.936836 33.468195 13.954029 33.610868 14.019299 L 33.74161 14.079244 L 33.613452 13.949019 C 33.497204 13.831165 33.478664 13.82009 33.413464 13.83068 C 33.31082 13.847336 33.165547 13.770524 33.039844 13.63276 C 32.911307 13.491877 32.801868 13.29816 32.833138 13.26689 C 32.874657 13.225371 32.990521 13.27451 33.111157 13.384713 C 33.177378 13.445237 33.234481 13.490599 33.238281 13.485999 C 33.242131 13.48142 33.206923 13.406997 33.159733 13.320117 C 33.083507 13.179817 33.066778 13.161987 33.010388 13.161987 C 32.928213 13.161987 32.786076 13.035661 32.718416 12.902055 C 32.613496 12.694847 32.56515 12.443168 32.63005 12.443168 C 32.686977 12.443168 32.813868 12.575094 32.884298 12.707235 C 32.922108 12.778163 32.956029 12.833425 32.959229 12.830225 C 32.962449 12.827 32.950897 12.770668 32.933907 12.705168 C 32.916917 12.639664 32.902901 12.564623 32.902901 12.538253 C 32.902901 12.462735 32.880069 12.421464 32.837789 12.421464 C 32.777538 12.421464 32.66887 12.281888 32.6316 12.156364 C 32.59872 12.045659 32.585109 11.696544 32.610929 11.629264 C 32.621049 11.602914 32.633761 11.600896 32.674491 11.619446 C 32.733145 11.646171 32.807324 11.80204 32.829004 11.944491 C 32.855614 12.119303 32.874372 12.101105 32.888432 11.88713 L 32.902384 11.675256 L 32.838822 11.616345 C 32.801752 11.58172 32.769274 11.523675 32.760274 11.475785 C 32.734614 11.339034 32.761992 11.091518 32.818152 10.95127 C 32.91935 10.698548 33.001087 10.799663 32.986617 11.160042 C 32.981677 11.281339 32.984635 11.362186 32.993335 11.339876 C 33.001975 11.317558 33.042739 11.219205 33.083769 11.121285 L 33.158183 10.943001 L 33.112191 10.897526 C 33.001608 10.786712 33.096966 10.439951 33.30236 10.206612 C 33.363308 10.137372 33.383615 10.1178 33.401062 10.127547 z " /><rect
       style="fill:#fdd347;fill-opacity:1;stroke:none;stroke-width:0.3;stroke-dashoffset:1.13386;paint-order:markers fill stroke"
       id="rect2"
       width="12.741809"
       height="12.741809"
       x="56.6143"
       y="2.8958657"
       inkscape:export-filename="tier-4.png"
       inkscape:export-xdpi="96"
       inkscape:export-ydpi="96" /><path
       style="fill:#fddc6c;stroke-width:0.722052;fill-opacity:1"
       d="m 59.110541,11.555012 c 0.11726,-1.7805123 0.224662,-3.3809587 0.238671,-3.5565471 l 0.02547,-0.319252 2.733737,1.5783238 2.733737,1.5783243 -0.139584,0.09895 c -0.314683,0.223113 -5.783216,3.87038 -5.793789,3.864195 -0.0063,-0.0037 0.08448,-1.463487 0.201737,-3.244 z M 58.119477,9.3413317 C 57.838476,7.1698063 57.606036,5.3654683 57.602941,5.3316924 c -0.0032,-0.034297 0.309791,0.4163924 0.708689,1.0206611 l 0.714315,1.0820717 -0.138552,2.1265355 c -0.151266,2.3216983 -0.247177,3.7352133 -0.253169,3.7311803 -0.0021,-0.0014 -0.233747,-1.779284 -0.514747,-3.9508093 z m 2.557105,4.7163693 c 0.18976,-0.126555 1.288998,-0.86266 2.442759,-1.635783 l 2.09775,-1.405677 1.270742,0.07535 c 0.698905,0.04144 1.272409,0.08158 1.274449,0.08919 0.003,0.01102 -7.342733,3.085745 -7.411994,3.102498 -0.01028,0.0025 0.136542,-0.09902 0.326294,-0.225578 z M 59.483863,7.3233704 c 0.01853,-0.032091 1.517867,-1.8805236 1.543034,-1.9023022 0.039,-0.033744 4.954055,2.8039631 4.944532,2.8547266 -0.0063,0.03357 -0.855684,2.2520842 -0.87513,2.2857642 -0.0053,0.0092 -1.272283,-0.7121583 -2.815448,-1.603105 C 60.737687,8.0675078 59.479044,7.3317171 59.483864,7.3233692 Z M 58.396611,5.8467779 c -0.50651,-0.7610755 -0.790806,-1.2109333 -0.773936,-1.2246438 0.02098,-0.017051 2.003663,-0.8245033 2.102695,-0.8563268 0.0191,-0.00614 1.021712,1.3360376 1.036773,1.387915 0.0019,0.00652 -0.338975,0.4356095 -0.75749,0.9535106 -0.418517,0.5179013 -0.764197,0.9472807 -0.768179,0.9541773 -0.004,0.0069 -0.01444,0.0071 -0.02325,4.419e-4 -0.0088,-0.00666 -0.376281,-0.5534374 -0.816611,-1.2150721 z m 7.073516,4.7326641 c 0.0973,-0.267888 0.821624,-2.1415804 0.840649,-2.1745314 0.01717,-0.02974 0.232434,-0.016954 0.867073,0.051506 0.464323,0.050086 0.851022,0.09499 0.859333,0.099788 0.01707,0.00986 0.342573,2.2670404 0.329953,2.2880604 -0.0062,0.01037 -2.797004,-0.159785 -2.904369,-0.177081 -0.01275,-0.002 -0.0094,-0.04155 0.0074,-0.08773 z M 60.650064,4.3899806 C 60.38894,4.0331326 60.186455,3.7385411 60.200098,3.7353328 c 0.01365,-0.00321 0.389666,0.00346 0.835606,0.014811 l 0.810801,0.020645 2.571997,1.4849435 2.571996,1.4849424 0.423536,0.6916134 c 0.232945,0.3803872 0.426825,0.7029144 0.430848,0.7167276 0.004,0.013816 -0.353779,-0.014484 -0.795113,-0.062884 l -0.802424,-0.087998 -2.56126,-1.4796611 -2.56126,-1.4796614 z"
       id="path3" /><path
       style="opacity:0.5;fill:#fee696;fill-opacity:1;stroke-width:0.172;stroke-dashoffset:1.13386;paint-order:markers fill stroke"
       d="M 59.483862,7.3233692 65.096299,10.561559 65.971427,8.2757948 61.026896,5.4210682 Z"
       id="path4" /><path
       style="opacity:0.5;fill:#fee696;fill-opacity:1;stroke-width:0.172;stroke-dashoffset:1.13386;paint-order:markers fill stroke"
       d="m 57.602939,5.3316922 1.031285,7.9604488 0.391721,-5.8577159 z"
       id="path5" /><path
       style="opacity:0.5;fill:#fee696;fill-opacity:1;stroke-width:0.172;stroke-dashoffset:1.13386;paint-order:markers fill stroke"
       d="m 60.350288,14.283279 4.866801,-3.267038 2.545192,0.16454 z"
       id="path6" /></g></svg>
