<?xml version="1.0" encoding="UTF-8" standalone="no"?>
<!-- Created with Inkscape (http://www.inkscape.org/) -->

<svg
   width="210mm"
   height="297mm"
   viewBox="0 0 210 297"
   version="1.1"
   id="svg1"
   xml:space="preserve"
   inkscape:version="1.3.2 (091e20e, 2023-11-25, custom)"
   sodipodi:docname="RESOURCES.svg"
   xmlns:inkscape="http://www.inkscape.org/namespaces/inkscape"
   xmlns:sodipodi="http://sodipodi.sourceforge.net/DTD/sodipodi-0.dtd"
   xmlns="http://www.w3.org/2000/svg"
   xmlns:svg="http://www.w3.org/2000/svg"><sodipodi:namedview
     id="namedview1"
     pagecolor="#ffffff"
     bordercolor="#000000"
     borderopacity="0.25"
     inkscape:showpageshadow="2"
     inkscape:pageopacity="0.0"
     inkscape:pagecheckerboard="0"
     inkscape:deskcolor="#d1d1d1"
     inkscape:document-units="mm"
     inkscape:zoom="3.2302717"
     inkscape:cx="144.87946"
     inkscape:cy="83.119944"
     inkscape:window-width="1600"
     inkscape:window-height="837"
     inkscape:window-x="-8"
     inkscape:window-y="-8"
     inkscape:window-maximized="1"
     inkscape:current-layer="layer1" /><defs
     id="defs1"><inkscape:path-effect
       effect="fillet_chamfer"
       id="path-effect102"
       is_visible="true"
       lpeversion="1"
       nodesatellites_param="F,0,0,1,0,0,0,1 @ F,0,0,1,0,0,0,1 @ F,0,0,1,0,1.3614038,0,1 @ F,0,0,1,0,0,0,1 @ F,0,0,1,0,0,0,1"
       radius="0"
       unit="px"
       method="auto"
       mode="F"
       chamfer_steps="1"
       flexible="false"
       use_knot_distance="true"
       apply_no_radius="true"
       apply_with_radius="true"
       only_selected="false"
       hide_knots="false" /><inkscape:path-effect
       effect="fillet_chamfer"
       id="path-effect100"
       is_visible="true"
       lpeversion="1"
       nodesatellites_param="F,0,0,1,0,0.60361744,0,1 @ F,0,0,1,0,0,0,1 @ F,0,0,1,0,0,0,1 @ F,0,0,1,0,0,0,1 @ F,0,0,1,0,0,0,1 @ F,0,0,1,0,0,0,1 @ F,0,0,1,0,0,0,1 @ F,0,0,1,0,0,0,1 @ F,0,0,1,0,0,0,1 @ F,0,0,1,0,0,0,1"
       radius="0"
       unit="px"
       method="auto"
       mode="F"
       chamfer_steps="1"
       flexible="false"
       use_knot_distance="true"
       apply_no_radius="true"
       apply_with_radius="true"
       only_selected="false"
       hide_knots="false" /><inkscape:path-effect
       effect="fillet_chamfer"
       id="path-effect84"
       is_visible="true"
       lpeversion="1"
       nodesatellites_param="F,0,0,1,0,0,0,1 @ F,0,0,1,0,0,0,1 @ F,0,0,1,0,1.3614038,0,1 @ F,0,0,1,0,0,0,1 @ F,0,0,1,0,0,0,1"
       radius="0"
       unit="px"
       method="auto"
       mode="F"
       chamfer_steps="1"
       flexible="false"
       use_knot_distance="true"
       apply_no_radius="true"
       apply_with_radius="true"
       only_selected="false"
       hide_knots="false" /><inkscape:path-effect
       effect="fillet_chamfer"
       id="path-effect82"
       is_visible="true"
       lpeversion="1"
       nodesatellites_param="F,0,0,1,0,0.60361744,0,1 @ F,0,0,1,0,0,0,1 @ F,0,0,1,0,0,0,1 @ F,0,0,1,0,0,0,1 @ F,0,0,1,0,0,0,1 @ F,0,0,1,0,0,0,1 @ F,0,0,1,0,0,0,1 @ F,0,0,1,0,0,0,1 @ F,0,0,1,0,0,0,1 @ F,0,0,1,0,0,0,1"
       radius="0"
       unit="px"
       method="auto"
       mode="F"
       chamfer_steps="1"
       flexible="false"
       use_knot_distance="true"
       apply_no_radius="true"
       apply_with_radius="true"
       only_selected="false"
       hide_knots="false" /><inkscape:path-effect
       effect="fillet_chamfer"
       id="path-effect66"
       is_visible="true"
       lpeversion="1"
       nodesatellites_param="F,0,0,1,0,0,0,1 @ F,0,0,1,0,0,0,1 @ F,0,0,1,0,1.3614038,0,1 @ F,0,0,1,0,0,0,1 @ F,0,0,1,0,0,0,1"
       radius="0"
       unit="px"
       method="auto"
       mode="F"
       chamfer_steps="1"
       flexible="false"
       use_knot_distance="true"
       apply_no_radius="true"
       apply_with_radius="true"
       only_selected="false"
       hide_knots="false" /><inkscape:path-effect
       effect="fillet_chamfer"
       id="path-effect64"
       is_visible="true"
       lpeversion="1"
       nodesatellites_param="F,0,0,1,0,0.60361744,0,1 @ F,0,0,1,0,0,0,1 @ F,0,0,1,0,0,0,1 @ F,0,0,1,0,0,0,1 @ F,0,0,1,0,0,0,1 @ F,0,0,1,0,0,0,1 @ F,0,0,1,0,0,0,1 @ F,0,0,1,0,0,0,1 @ F,0,0,1,0,0,0,1 @ F,0,0,1,0,0,0,1"
       radius="0"
       unit="px"
       method="auto"
       mode="F"
       chamfer_steps="1"
       flexible="false"
       use_knot_distance="true"
       apply_no_radius="true"
       apply_with_radius="true"
       only_selected="false"
       hide_knots="false" /><inkscape:path-effect
       effect="fillet_chamfer"
       id="path-effect42"
       is_visible="true"
       lpeversion="1"
       nodesatellites_param="F,0,0,1,0,0.60361744,0,1 @ F,0,0,1,0,0,0,1 @ F,0,0,1,0,0,0,1 @ F,0,0,1,0,0,0,1 @ F,0,0,1,0,0,0,1 @ F,0,0,1,0,0,0,1 @ F,0,0,1,0,0,0,1 @ F,0,0,1,0,0,0,1 @ F,0,0,1,0,0,0,1 @ F,0,0,1,0,0,0,1"
       radius="0"
       unit="px"
       method="auto"
       mode="F"
       chamfer_steps="1"
       flexible="false"
       use_knot_distance="true"
       apply_no_radius="true"
       apply_with_radius="true"
       only_selected="false"
       hide_knots="false" /><inkscape:path-effect
       effect="fillet_chamfer"
       id="path-effect36"
       is_visible="true"
       lpeversion="1"
       nodesatellites_param="F,0,0,1,0,0.60361744,0,1 @ F,0,0,1,0,0,0,1 @ F,0,0,1,0,0,0,1 @ F,0,0,1,0,0,0,1 @ F,0,0,1,0,0,0,1 @ F,0,0,1,0,0,0,1 @ F,0,0,1,0,0,0,1 @ F,0,0,1,0,0,0,1 @ F,0,0,1,0,0,0,1 @ F,0,0,1,0,0,0,1"
       radius="0"
       unit="px"
       method="auto"
       mode="F"
       chamfer_steps="1"
       flexible="false"
       use_knot_distance="true"
       apply_no_radius="true"
       apply_with_radius="true"
       only_selected="false"
       hide_knots="false" /><inkscape:path-effect
       effect="fillet_chamfer"
       id="path-effect34"
       is_visible="true"
       lpeversion="1"
       nodesatellites_param="F,0,0,1,0,0,0,1 @ F,0,0,1,0,0,0,1 @ F,0,0,1,0,1.3614038,0,1 @ F,0,0,1,0,0,0,1 @ F,0,0,1,0,0,0,1"
       radius="0"
       unit="px"
       method="auto"
       mode="F"
       chamfer_steps="1"
       flexible="false"
       use_knot_distance="true"
       apply_no_radius="true"
       apply_with_radius="true"
       only_selected="false"
       hide_knots="false" /><inkscape:path-effect
       effect="fillet_chamfer"
       id="path-effect32"
       is_visible="true"
       lpeversion="1"
       nodesatellites_param="F,0,0,1,0,0,0,1 @ F,0,0,1,0,0,0,1 @ F,0,0,1,0,1.3614038,0,1 @ F,0,0,1,0,0,0,1 @ F,0,0,1,0,0,0,1"
       radius="0"
       unit="px"
       method="auto"
       mode="F"
       chamfer_steps="1"
       flexible="false"
       use_knot_distance="true"
       apply_no_radius="true"
       apply_with_radius="true"
       only_selected="false"
       hide_knots="false" /><inkscape:path-effect
       effect="fillet_chamfer"
       id="path-effect31"
       is_visible="true"
       lpeversion="1"
       nodesatellites_param="F,0,0,1,0,0.60361744,0,1 @ F,0,0,1,0,0,0,1 @ F,0,0,1,0,0,0,1 @ F,0,0,1,0,0,0,1 @ F,0,0,1,0,0,0,1 @ F,0,0,1,0,0,0,1 @ F,0,0,1,0,0,0,1 @ F,0,0,1,0,0,0,1 @ F,0,0,1,0,0,0,1 @ F,0,0,1,0,0,0,1"
       radius="0"
       unit="px"
       method="auto"
       mode="F"
       chamfer_steps="1"
       flexible="false"
       use_knot_distance="true"
       apply_no_radius="true"
       apply_with_radius="true"
       only_selected="false"
       hide_knots="false" /><inkscape:path-effect
       effect="fillet_chamfer"
       id="path-effect29"
       is_visible="true"
       lpeversion="1"
       nodesatellites_param="F,0,0,1,0,0,0,1 @ F,0,0,1,0,0,0,1 @ F,0,0,1,0,0,0,1 @ F,0,0,1,0,0,0,1"
       radius="0"
       unit="px"
       method="auto"
       mode="F"
       chamfer_steps="1"
       flexible="false"
       use_knot_distance="true"
       apply_no_radius="true"
       apply_with_radius="true"
       only_selected="false"
       hide_knots="false" /><inkscape:path-effect
       effect="fillet_chamfer"
       id="path-effect22"
       is_visible="true"
       lpeversion="1"
       nodesatellites_param="F,0,0,1,0,0,0,1 @ F,0,0,1,0,0,0,1 @ F,0,0,1,0,0,0,1 @ F,0,0,1,0,0,0,1"
       radius="0"
       unit="px"
       method="auto"
       mode="F"
       chamfer_steps="1"
       flexible="false"
       use_knot_distance="true"
       apply_no_radius="true"
       apply_with_radius="true"
       only_selected="false"
       hide_knots="false" /><inkscape:path-effect
       effect="fillet_chamfer"
       id="path-effect15"
       is_visible="true"
       lpeversion="1"
       nodesatellites_param="F,0,0,1,0,0,0,1 @ F,0,0,1,0,0,0,1 @ F,0,0,1,0,0,0,1 @ F,0,0,1,0,0,0,1"
       radius="0"
       unit="px"
       method="auto"
       mode="F"
       chamfer_steps="1"
       flexible="false"
       use_knot_distance="true"
       apply_no_radius="true"
       apply_with_radius="true"
       only_selected="false"
       hide_knots="false" /><inkscape:path-effect
       effect="fillet_chamfer"
       id="path-effect3"
       is_visible="true"
       lpeversion="1"
       nodesatellites_param="F,0,0,1,0,0,0,1 @ F,0,0,1,0,0,0,1 @ F,0,0,1,0,0,0,1 @ F,0,0,1,0,0,0,1"
       radius="0"
       unit="px"
       method="auto"
       mode="F"
       chamfer_steps="1"
       flexible="false"
       use_knot_distance="true"
       apply_no_radius="true"
       apply_with_radius="true"
       only_selected="false"
       hide_knots="false" /></defs><g
     inkscape:label="Camada 1"
     inkscape:groupmode="layer"
     id="layer1"><g
       id="g29"
       inkscape:export-filename="tin-ingot.png"
       inkscape:export-xdpi="300"
       inkscape:export-ydpi="300"><path
         style="opacity:1;fill:#dfe3e6;fill-opacity:1;stroke-width:0.172;stroke-dashoffset:1.13386;paint-order:markers fill stroke"
         d="m 86.929798,164.02184 3.475037,-5.90757 8.108426,5.09673 v 7.52925 z"
         id="path1"
         inkscape:path-effect="#path-effect3"
         inkscape:original-d="m 86.929798,164.02184 3.475037,-5.90757 8.108426,5.09673 v 7.52925 z"
         transform="matrix(0.38317753,0,0,0.38317753,-31.456413,-52.825859)" /><path
         style="opacity:1;fill:#9fa9b2;fill-opacity:1;stroke-width:0.0659065;stroke-dashoffset:1.13386;paint-order:markers fill stroke"
         d="M 6.2916541,9.7129301 14.369769,4.7861675 15.656938,7.2717401 6.2916541,12.597969"
         id="path2" /><path
         style="opacity:1;fill:#eaf0f0;fill-opacity:1;stroke-width:0.0659065;stroke-dashoffset:1.13386;paint-order:markers fill stroke"
         d="M 3.1846874,7.7599781 11.395958,3.0995312 14.369769,4.7861675 6.2916548,9.7129301 Z"
         id="path3" /><path
         style="opacity:1;fill:#fdfefe;fill-opacity:1;stroke-width:0.0659065;stroke-dashoffset:1.13386;paint-order:markers fill stroke"
         d="M 3.1846882,7.7599781 6.2916537,10.062028 14.369769,4.7861675 6.2916537,9.7129301 Z"
         id="path4" /><path
         style="opacity:1;fill:#fdfefe;fill-opacity:1;stroke-width:0.0659065;stroke-dashoffset:1.13386;paint-order:markers fill stroke"
         d="M 6.0922753,9.9143011 6.2916537,12.597969 6.5786169,9.8746081 6.2916529,10.062028 Z"
         id="path5" /><path
         style="opacity:1;fill:#fdfefe;fill-opacity:1;stroke-width:0.0659065;stroke-dashoffset:1.13386;paint-order:markers fill stroke"
         d="M 8.1704241,8.8349941 5.1192994,6.6619561 5.9453256,6.1931303 8.9981601,8.2943911 Z"
         id="path6" /><path
         style="opacity:1;fill:#fdfefe;fill-opacity:1;stroke-width:0.0659065;stroke-dashoffset:1.13386;paint-order:markers fill stroke"
         d="M 9.3881201,8.0397091 6.3354459,5.9741175 6.8476987,5.6809714 9.9091411,7.7599781 Z"
         id="path7" /></g><g
       id="g30"
       inkscape:export-filename="cooper-ingot.png"
       inkscape:export-xdpi="300"
       inkscape:export-ydpi="300"><path
         style="opacity:1;fill:#d58a30;fill-opacity:1;stroke-width:0.172;stroke-dashoffset:1.13386;paint-order:markers fill stroke"
         d="m 86.929798,164.02184 3.475037,-5.90757 8.108426,5.09673 v 7.52925 z"
         id="path8"
         inkscape:path-effect="#path-effect15"
         inkscape:original-d="m 86.929798,164.02184 3.475037,-5.90757 8.108426,5.09673 v 7.52925 z"
         transform="matrix(0.38317753,0,0,0.38317753,-15.863695,-52.825859)" /><path
         style="opacity:1;fill:#a04f00;fill-opacity:1;stroke-width:0.0659065;stroke-dashoffset:1.13386;paint-order:markers fill stroke"
         d="m 21.884374,9.7129301 8.078114,-4.9267626 1.28717,2.4855726 -9.365284,5.3262289"
         id="path9" /><path
         style="opacity:1;fill:#e0923b;fill-opacity:1;stroke-width:0.0659065;stroke-dashoffset:1.13386;paint-order:markers fill stroke"
         d="m 18.777406,7.7599781 8.211272,-4.6604469 2.97381,1.6866363 -8.078114,4.9267626 z"
         id="path10" /><path
         style="opacity:1;fill:#fffbb2;fill-opacity:1;stroke-width:0.0659065;stroke-dashoffset:1.13386;paint-order:markers fill stroke"
         d="M 18.777406,7.7599781 21.88437,10.062028 29.962488,4.7861675 21.88437,9.7129301 Z"
         id="path11" /><path
         style="opacity:1;fill:#fffbb2;fill-opacity:1;stroke-width:0.0659065;stroke-dashoffset:1.13386;paint-order:markers fill stroke"
         d="M 21.684995,9.9143011 21.88437,12.597969 22.171336,9.8746081 21.88437,10.062028 Z"
         id="path12" /><path
         style="opacity:1;fill:#fffbb2;fill-opacity:1;stroke-width:0.0659065;stroke-dashoffset:1.13386;paint-order:markers fill stroke"
         d="M 23.763143,8.8349941 20.71202,6.6619561 21.538043,6.1931303 24.59088,8.2943911 Z"
         id="path13" /><path
         style="opacity:1;fill:#fffbb2;fill-opacity:1;stroke-width:0.0659065;stroke-dashoffset:1.13386;paint-order:markers fill stroke"
         d="M 24.980839,8.0397091 21.928164,5.9741175 22.440418,5.6809714 25.501861,7.7599781 Z"
         id="path14" /></g><g
       id="g31"
       inkscape:export-filename="iron-ingot.png"
       inkscape:export-xdpi="300"
       inkscape:export-ydpi="300"><path
         style="opacity:1;fill:#acbed1;fill-opacity:1;stroke-width:0.172;stroke-dashoffset:1.13386;paint-order:markers fill stroke"
         d="m 86.929798,164.02184 3.475037,-5.90757 8.108426,5.09673 v 7.52925 z"
         id="path15"
         inkscape:path-effect="#path-effect22"
         inkscape:original-d="m 86.929798,164.02184 3.475037,-5.90757 8.108426,5.09673 v 7.52925 z"
         transform="matrix(0.38317753,0,0,0.38317753,1.0605807,-52.825859)" /><path
         style="opacity:1;fill:#8fa0b3;fill-opacity:1;stroke-width:0.0659065;stroke-dashoffset:1.13386;paint-order:markers fill stroke"
         d="M 38.808646,9.7129301 46.88676,4.7861675 48.17393,7.2717401 38.808646,12.597969"
         id="path16" /><path
         style="opacity:1;fill:#cbd6e2;fill-opacity:1;stroke-width:0.0659065;stroke-dashoffset:1.13386;paint-order:markers fill stroke"
         d="M 35.701679,7.7599781 43.91295,3.0995312 46.88676,4.7861675 38.808646,9.7129301 Z"
         id="path17" /><path
         style="opacity:1;fill:#fbfcfd;fill-opacity:1;stroke-width:0.0659065;stroke-dashoffset:1.13386;paint-order:markers fill stroke"
         d="M 35.701683,7.7599781 38.808646,10.062028 46.88676,4.7861675 38.808646,9.7129301 Z"
         id="path18" /><path
         style="opacity:1;fill:#fbfcfd;fill-opacity:1;stroke-width:0.0659065;stroke-dashoffset:1.13386;paint-order:markers fill stroke"
         d="m 38.609267,9.9143011 0.199379,2.6836679 0.286961,-2.7233609 -0.286961,0.1874199 z"
         id="path19" /><path
         style="opacity:1;fill:#fbfcfd;fill-opacity:1;stroke-width:0.0659065;stroke-dashoffset:1.13386;paint-order:markers fill stroke"
         d="m 40.687415,8.8349941 -3.051122,-2.173038 0.826025,-0.4688258 3.052833,2.1012608 z"
         id="path20" /><path
         style="opacity:1;fill:#fbfcfd;fill-opacity:1;stroke-width:0.0659065;stroke-dashoffset:1.13386;paint-order:markers fill stroke"
         d="M 41.905111,8.0397091 38.852439,5.9741175 39.36469,5.6809714 42.426133,7.7599781 Z"
         id="path21" /></g><g
       id="g32"
       inkscape:export-filename="damasco-ingot.png"
       inkscape:export-xdpi="300"
       inkscape:export-ydpi="300"><path
         style="opacity:1;fill:#4a6786;fill-opacity:1;stroke-width:0.172;stroke-dashoffset:1.13386;paint-order:markers fill stroke"
         d="m 86.929798,164.02184 3.475037,-5.90757 8.108426,5.09673 v 7.52925 z"
         id="path22"
         inkscape:path-effect="#path-effect29"
         inkscape:original-d="m 86.929798,164.02184 3.475037,-5.90757 8.108426,5.09673 v 7.52925 z"
         transform="matrix(0.38317753,0,0,0.38317753,18.029239,-52.825859)" /><path
         style="opacity:1;fill:#3f4d5d;fill-opacity:1;stroke-width:0.0659065;stroke-dashoffset:1.13386;paint-order:markers fill stroke"
         d="m 55.777302,9.7129301 8.078114,-4.9267626 1.28717,2.4855726 -9.365284,5.3262289"
         id="path23" /><path
         style="opacity:1;fill:#7995b4;fill-opacity:1;stroke-width:0.0659065;stroke-dashoffset:1.13386;paint-order:markers fill stroke"
         d="m 52.670338,7.7599781 8.211268,-4.6604469 2.97381,1.6866363 -8.078114,4.9267626 z"
         id="path24" /><path
         style="opacity:1;fill:#b8d2ec;fill-opacity:1;stroke-width:0.0659065;stroke-dashoffset:1.13386;paint-order:markers fill stroke"
         d="m 52.670342,7.7599781 3.10696,2.3020499 8.078114,-5.2758605 -8.078114,4.9267626 z"
         id="path25" /><path
         style="opacity:1;fill:#b8d2ec;fill-opacity:1;stroke-width:0.0659065;stroke-dashoffset:1.13386;paint-order:markers fill stroke"
         d="m 55.577923,9.9143011 0.199379,2.6836679 0.286962,-2.7233609 -0.286962,0.1874199 z"
         id="path26" /><path
         style="opacity:1;fill:#b8d2ec;fill-opacity:1;stroke-width:0.0659065;stroke-dashoffset:1.13386;paint-order:markers fill stroke"
         d="m 57.656071,8.8349941 -3.05112,-2.173038 0.826024,-0.4688258 3.052833,2.1012608 z"
         id="path27" /><path
         style="opacity:1;fill:#b8d2ec;fill-opacity:1;stroke-width:0.0659065;stroke-dashoffset:1.13386;paint-order:markers fill stroke"
         d="m 58.873767,8.0397091 -3.052671,-2.0655916 0.51225,-0.2931461 3.061443,2.0790067 z"
         id="path28" /></g><g
       id="g102"
       inkscape:export-filename="sandstone-brick.png"
       inkscape:export-xdpi="300"
       inkscape:export-ydpi="300"><path
         style="fill:#d7cec0;fill-opacity:1;stroke-width:0.172;stroke-dashoffset:1.13386;paint-order:markers fill stroke"
         d="m 62.774226,53.53726 -0.03311,-2.549869 0.08191,-0.2662 -0.02048,-0.716691 -0.122862,-0.266197 0.04096,-1.740535 0.430014,-0.163814 0.18429,-0.225245 7.924546,1.330994 0.02048,7.003088 -7.90742,-1.676752 A 0.75500419,0.75500419 50.614062 0 1 62.774226,53.53726 Z"
         id="path29"
         sodipodi:nodetypes="ccccccccccc"
         inkscape:path-effect="#path-effect31"
         inkscape:original-d="m 62.782064,54.140827 -0.04095,-3.153436 0.08191,-0.2662 -0.02048,-0.716691 -0.122862,-0.266197 0.04096,-1.740535 0.430014,-0.163814 0.18429,-0.225245 7.924546,1.330994 0.02048,7.003088 z"
         transform="matrix(0.60363648,0,0,0.60363648,-35.767578,-4.8929702)" /><path
         id="path40"
         style="fill:#fdf4e5;fill-opacity:1;stroke-width:0.103825;stroke-dashoffset:1.13386;paint-order:markers fill stroke"
         d="m 2.4638305,23.845235 -0.1113619,0.136005 -0.2595323,0.09888 -0.024643,1.050607 0.073929,0.16096 0.012478,0.432346 -0.049598,0.160959 0.020276,1.539102 a 0.45574807,0.45574807 0 0 0 0.07892,0.240504 l 0.048351,-1.704428 c 0,0 0.3671021,-0.183546 0.8915182,0 l -0.7037318,-0.371519 -0.1678224,0.09733 0.032441,-0.44264 -0.1575286,-0.594241 0.096389,-0.463228 0.4435757,-0.303203 z" /><path
         id="path30"
         style="fill:#fdf4e5;fill-opacity:1;stroke-width:0.103825;stroke-dashoffset:1.13386;paint-order:markers fill stroke"
         d="m 11.264532,21.459847 -8.8007015,2.385388 2.5653768,0.431098 -0.4516861,0.127895 0.8871513,-0.0549 1.7827243,0.29946 8.1702742,-2.533871 z" /><path
         style="fill:#8c8c8a;fill-opacity:1;stroke-width:0.172;stroke-dashoffset:1.13386;paint-order:markers fill stroke"
         d="m 84.794693,44.741946 0.409538,0.491445 -0.04619,4.126482 a 1.9912913,1.9912913 125.00093 0 1 -1.289263,1.841196 l -12.588802,4.741722 -0.02048,-7.003088 z"
         id="path31"
         sodipodi:nodetypes="cccccc"
         inkscape:path-effect="#path-effect32"
         inkscape:original-d="m 84.794693,44.741946 0.409538,0.491445 -0.06143,5.487801 -13.862827,5.221599 -0.02048,-7.003088 z"
         transform="matrix(0.60363648,0,0,0.60363648,-35.767578,-4.8929702)" /><path
         id="path32"
         style="fill:#727270;fill-opacity:1;stroke-width:0.103825;stroke-dashoffset:1.13386;paint-order:markers fill stroke"
         d="m 15.636964,24.902392 -3.42071,1.649839 -0.741788,-0.197768 c 0,0 0.313629,0.252286 0.121344,0.357169 l -4.3381194,1.516953 0.00187,0.647583 7.5991174,-2.862341 a 1.2020161,1.2020161 0 0 0 0.778285,-1.111435 z" /><path
         id="path34"
         style="fill:#857f7e;fill-opacity:1;stroke-width:0.103825;stroke-dashoffset:1.13386;paint-order:markers fill stroke"
         d="M 4.5279234,27.269377 3.1189001,27.639959 2.1260017,27.428153 A 0.45574807,0.45574807 0 0 0 2.48629,27.86393 l 4.7732725,1.012238 -0.00187,-0.647583 -3.5950831,-0.489742 z" /><path
         style="fill:#b4aa9e;fill-opacity:1;stroke-width:0.103825;stroke-dashoffset:1.13386;paint-order:markers fill stroke"
         d="m 4.5249807,24.753962 -0.3321293,-0.314649 0.4020509,-0.262207 1.031351,-0.06992 -1.0488311,0.297168 z"
         id="path36" /><path
         style="fill:#b4aa9e;fill-opacity:1;stroke-width:0.103825;stroke-dashoffset:1.13386;paint-order:markers fill stroke"
         d="m 2.1546925,25.724191 c 0,0 0.4649142,-0.04376 0.9893291,0.235927 L 2.1423301,25.29157 Z"
         id="path37" /><path
         style="fill:#b4aa9e;fill-opacity:1;stroke-width:0.103825;stroke-dashoffset:1.13386;paint-order:markers fill stroke"
         d="M 5.9583825,26.117442 6.20311,25.925157 6.6226416,25.872713 6.3779147,26.327206 Z"
         id="path38" /><path
         style="fill:#b4aa9e;fill-opacity:1;stroke-width:0.103825;stroke-dashoffset:1.13386;paint-order:markers fill stroke"
         d="m 3.8432415,26.711779 0.034963,-0.419532 0.4894538,-0.227246 -0.3845707,0.34961 z"
         id="path39" /><path
         style="fill:#c9bfb3;fill-opacity:1;stroke-width:0.103825;stroke-dashoffset:1.13386;paint-order:markers fill stroke"
         d="m 7.2580492,28.499428 -0.2452938,-0.304209 0.050609,-3.577346 8.2225356,-2.52374 0.131776,0.02079 0.247133,0.296638 -8.2293184,2.460401 0.00679,3.320174 z"
         id="path42"
         sodipodi:nodetypes="ccccccccc" /><path
         style="opacity:0.5;fill:#b4aa9e;fill-opacity:1;stroke-width:0.103825;stroke-dashoffset:1.13386;paint-order:markers fill stroke"
         d="M 8.6328983,23.005912 8.8601451,22.55142 9.33212,22.586382 9.104872,22.883551 Z"
         id="path43" /><path
         style="opacity:0.5;fill:#e2d9ca;fill-opacity:1;stroke-width:0.103825;stroke-dashoffset:1.13386;paint-order:markers fill stroke"
         d="m 6.5303341,23.462205 0.1236061,0.24721 0.2719326,-0.148326 h 0.2472121 l -0.271934,-0.22249 z"
         id="path44" /><path
         style="opacity:0.5;fill:#727270;fill-opacity:1;stroke-width:0.103825;stroke-dashoffset:1.13386;paint-order:markers fill stroke"
         d="M 8.4585837,26.601793 8.8294019,26.824284 8.928286,26.527629 8.5574697,26.354581 Z"
         id="path45" /><path
         style="opacity:0.5;fill:#727270;fill-opacity:1;stroke-width:0.103825;stroke-dashoffset:1.13386;paint-order:markers fill stroke"
         d="m 13.699471,23.907185 0.346096,-0.469702 0.296654,0.296654 -0.321374,0.222491 z"
         id="path46" /><path
         style="opacity:0.5;fill:#727270;fill-opacity:1;stroke-width:0.103825;stroke-dashoffset:1.13386;paint-order:markers fill stroke"
         d="m 11.894826,24.945474 -0.173048,0.395539 0.123606,0.173048 0.05637,-0.253165 0.174804,-0.09614 0.06118,-0.270948 z"
         id="path47" /></g><g
       id="g103"
       inkscape:export-filename="shale-brick.png"
       inkscape:export-xdpi="300"
       inkscape:export-ydpi="300"><path
         style="fill:#b3b3b3;fill-opacity:1;stroke-width:0.172;stroke-dashoffset:1.13386;paint-order:markers fill stroke"
         d="m 62.774226,53.53726 -0.03311,-2.549869 0.08191,-0.2662 -0.02048,-0.716691 -0.122862,-0.266197 0.04096,-1.740535 0.430014,-0.163814 0.18429,-0.225245 7.924546,1.330994 0.02048,7.003088 -7.90742,-1.676752 A 0.75500419,0.75500419 50.614062 0 1 62.774226,53.53726 Z"
         id="path48"
         sodipodi:nodetypes="ccccccccccc"
         inkscape:path-effect="#path-effect64"
         inkscape:original-d="m 62.782064,54.140827 -0.04095,-3.153436 0.08191,-0.2662 -0.02048,-0.716691 -0.122862,-0.266197 0.04096,-1.740535 0.430014,-0.163814 0.18429,-0.225245 7.924546,1.330994 0.02048,7.003088 z"
         transform="matrix(0.60363648,0,0,0.60363648,-20.696606,-4.8929702)" /><path
         id="path49"
         style="fill:#d4d4d4;fill-opacity:1;stroke-width:0.103825;stroke-dashoffset:1.13386;paint-order:markers fill stroke"
         d="m 17.534802,23.845235 -0.111362,0.136005 -0.259532,0.09888 -0.02464,1.050607 0.07393,0.16096 0.01248,0.432346 -0.0496,0.160959 0.02028,1.539102 a 0.45574807,0.45574807 0 0 0 0.07892,0.240504 l 0.04835,-1.704428 c 0,0 0.367102,-0.183546 0.891518,0 l -0.703731,-0.371519 -0.167823,0.09733 0.03244,-0.44264 -0.157528,-0.594241 0.09639,-0.463228 0.443575,-0.303203 z" /><path
         id="path50"
         style="fill:#d4d4d4;fill-opacity:1;stroke-width:0.103825;stroke-dashoffset:1.13386;paint-order:markers fill stroke"
         d="m 26.335504,21.459847 -8.800702,2.385388 2.565377,0.431098 -0.451686,0.127895 0.887151,-0.0549 1.782725,0.29946 8.170274,-2.533871 z" /><path
         style="fill:#8e8e8e;fill-opacity:1;stroke-width:0.172;stroke-dashoffset:1.13386;paint-order:markers fill stroke"
         d="m 84.794693,44.741946 0.409538,0.491445 -0.04619,4.126482 a 1.9912913,1.9912913 125.00093 0 1 -1.289263,1.841196 l -12.588802,4.741722 -0.02048,-7.003088 z"
         id="path51"
         sodipodi:nodetypes="cccccc"
         inkscape:path-effect="#path-effect66"
         inkscape:original-d="m 84.794693,44.741946 0.409538,0.491445 -0.06143,5.487801 -13.862827,5.221599 -0.02048,-7.003088 z"
         transform="matrix(0.60363648,0,0,0.60363648,-20.696606,-4.8929702)" /><path
         id="path52"
         style="fill:#727270;fill-opacity:1;stroke-width:0.103825;stroke-dashoffset:1.13386;paint-order:markers fill stroke"
         d="m 30.707936,24.902392 -3.42071,1.649839 -0.741788,-0.197768 c 0,0 0.313629,0.252286 0.121344,0.357169 l -4.33812,1.516953 0.0019,0.647583 7.599118,-2.862341 a 1.2020161,1.2020161 0 0 0 0.778286,-1.111435 z" /><path
         id="path53"
         style="fill:#857f7e;fill-opacity:1;stroke-width:0.103825;stroke-dashoffset:1.13386;paint-order:markers fill stroke"
         d="m 19.598895,27.269377 -1.409023,0.370582 -0.992898,-0.211806 a 0.45574807,0.45574807 0 0 0 0.360288,0.435777 l 4.773272,1.012238 -0.0019,-0.647583 -3.595083,-0.489742 z" /><path
         style="fill:#969696;fill-opacity:1;stroke-width:0.103825;stroke-dashoffset:1.13386;paint-order:markers fill stroke"
         d="m 19.595953,24.753962 -0.33213,-0.314649 0.402051,-0.262207 1.031351,-0.06992 -1.048831,0.297168 z"
         id="path54" /><path
         style="fill:#969696;fill-opacity:1;stroke-width:0.103825;stroke-dashoffset:1.13386;paint-order:markers fill stroke"
         d="m 17.225664,25.724191 c 0,0 0.464915,-0.04376 0.989329,0.235927 L 17.213302,25.29157 Z"
         id="path55" /><path
         style="fill:#969696;fill-opacity:1;stroke-width:0.103825;stroke-dashoffset:1.13386;paint-order:markers fill stroke"
         d="m 21.029354,26.117442 0.244728,-0.192285 0.419531,-0.05244 -0.244726,0.454493 z"
         id="path56" /><path
         style="fill:#969696;fill-opacity:1;stroke-width:0.103825;stroke-dashoffset:1.13386;paint-order:markers fill stroke"
         d="m 18.914213,26.711779 0.03496,-0.419532 0.489454,-0.227246 -0.384571,0.34961 z"
         id="path57" /><path
         style="fill:#c6c6c6;fill-opacity:1;stroke-width:0.103825;stroke-dashoffset:1.13386;paint-order:markers fill stroke"
         d="m 22.329021,28.499428 -0.245294,-0.304209 0.05061,-3.577346 8.222536,-2.52374 0.131776,0.02079 0.247133,0.296638 -8.229319,2.460401 0.0068,3.320174 z"
         id="path58"
         sodipodi:nodetypes="ccccccccc" /><path
         style="opacity:0.5;fill:#b1b1b1;fill-opacity:1;stroke-width:0.103825;stroke-dashoffset:1.13386;paint-order:markers fill stroke"
         d="m 23.70387,23.005912 0.227247,-0.454492 0.471975,0.03496 -0.227248,0.297169 z"
         id="path59" /><path
         style="opacity:0.5;fill:#b1b1b1;fill-opacity:1;stroke-width:0.103825;stroke-dashoffset:1.13386;paint-order:markers fill stroke"
         d="m 21.601306,23.462205 0.123606,0.24721 0.271933,-0.148326 h 0.247212 l -0.271934,-0.22249 z"
         id="path60" /><path
         style="opacity:0.5;fill:#737373;fill-opacity:1;stroke-width:0.103825;stroke-dashoffset:1.13386;paint-order:markers fill stroke"
         d="m 23.529556,26.601793 0.370818,0.222491 0.09888,-0.296655 -0.370816,-0.173048 z"
         id="path61" /><path
         style="opacity:0.5;fill:#737373;fill-opacity:1;stroke-width:0.103825;stroke-dashoffset:1.13386;paint-order:markers fill stroke"
         d="m 28.770443,23.907185 0.346096,-0.469702 0.296654,0.296654 -0.321374,0.222491 z"
         id="path62" /><path
         style="opacity:0.5;fill:#737373;fill-opacity:1;stroke-width:0.103825;stroke-dashoffset:1.13386;paint-order:markers fill stroke"
         d="m 26.965798,24.945474 -0.173048,0.395539 0.123606,0.173048 0.05637,-0.253165 0.174804,-0.09614 0.06118,-0.270948 z"
         id="path63" /></g><g
       id="g104"
       inkscape:export-filename="dolomite-brick.png"
       inkscape:export-xdpi="300"
       inkscape:export-ydpi="300"><path
         style="fill:#d9d9d9;fill-opacity:1;stroke-width:0.172;stroke-dashoffset:1.13386;paint-order:markers fill stroke"
         d="m 62.774226,53.53726 -0.03311,-2.549869 0.08191,-0.2662 -0.02048,-0.716691 -0.122862,-0.266197 0.04096,-1.740535 0.430014,-0.163814 0.18429,-0.225245 7.924546,1.330994 0.02048,7.003088 -7.90742,-1.676752 A 0.75500419,0.75500419 50.614062 0 1 62.774226,53.53726 Z"
         id="path66"
         sodipodi:nodetypes="ccccccccccc"
         inkscape:path-effect="#path-effect82"
         inkscape:original-d="m 62.782064,54.140827 -0.04095,-3.153436 0.08191,-0.2662 -0.02048,-0.716691 -0.122862,-0.266197 0.04096,-1.740535 0.430014,-0.163814 0.18429,-0.225245 7.924546,1.330994 0.02048,7.003088 z"
         transform="matrix(0.60363648,0,0,0.60363648,-4.0693925,-4.8929702)" /><path
         id="path67"
         style="fill:#d4d4d4;fill-opacity:1;stroke-width:0.103825;stroke-dashoffset:1.13386;paint-order:markers fill stroke"
         d="m 34.162016,23.845235 -0.111362,0.136005 -0.259532,0.09888 -0.02464,1.050607 0.07393,0.16096 0.01248,0.432346 -0.0496,0.160959 0.02028,1.539102 a 0.45574807,0.45574807 0 0 0 0.07892,0.240504 l 0.04835,-1.704428 c 0,0 0.367102,-0.183546 0.891518,0 l -0.703731,-0.371519 -0.167823,0.09733 0.03244,-0.44264 -0.157528,-0.594241 0.09639,-0.463228 0.443575,-0.303203 z" /><path
         id="path68"
         style="fill:#eeeeee;fill-opacity:1;stroke-width:0.103825;stroke-dashoffset:1.13386;paint-order:markers fill stroke"
         d="m 42.962718,21.459847 -8.800702,2.385388 2.565377,0.431098 -0.451686,0.127895 0.887151,-0.0549 1.782725,0.29946 8.170274,-2.533871 z" /><path
         style="fill:#b8b8b8;fill-opacity:1;stroke-width:0.172;stroke-dashoffset:1.13386;paint-order:markers fill stroke"
         d="m 84.794693,44.741946 0.409538,0.491445 -0.04619,4.126482 a 1.9912913,1.9912913 125.00093 0 1 -1.289263,1.841196 l -12.588802,4.741722 -0.02048,-7.003088 z"
         id="path69"
         sodipodi:nodetypes="cccccc"
         inkscape:path-effect="#path-effect84"
         inkscape:original-d="m 84.794693,44.741946 0.409538,0.491445 -0.06143,5.487801 -13.862827,5.221599 -0.02048,-7.003088 z"
         transform="matrix(0.60363648,0,0,0.60363648,-4.0693925,-4.8929702)" /><path
         id="path70"
         style="fill:#a9a6a5;fill-opacity:1;stroke-width:0.103825;stroke-dashoffset:1.13386;paint-order:markers fill stroke"
         d="m 47.33515,24.902392 -3.42071,1.649839 -0.741788,-0.197768 c 0,0 0.313629,0.252286 0.121344,0.357169 l -4.33812,1.516953 0.0019,0.647583 7.599118,-2.862341 a 1.2020161,1.2020161 0 0 0 0.778286,-1.111435 z" /><path
         id="path71"
         style="fill:#a9a6a5;fill-opacity:1;stroke-width:0.103825;stroke-dashoffset:1.13386;paint-order:markers fill stroke"
         d="m 36.226109,27.269377 -1.409023,0.370582 -0.992898,-0.211806 a 0.45574807,0.45574807 0 0 0 0.360288,0.435777 l 4.773272,1.012238 -0.0019,-0.647583 -3.595083,-0.489742 z" /><path
         style="fill:#bebebe;fill-opacity:1;stroke-width:0.103825;stroke-dashoffset:1.13386;paint-order:markers fill stroke"
         d="m 36.223167,24.753962 -0.33213,-0.314649 0.402051,-0.262207 1.031351,-0.06992 -1.048831,0.297168 z"
         id="path72" /><path
         style="fill:#bebebe;fill-opacity:1;stroke-width:0.103825;stroke-dashoffset:1.13386;paint-order:markers fill stroke"
         d="m 33.852878,25.724191 c 0,0 0.464915,-0.04376 0.989329,0.235927 L 33.840516,25.29157 Z"
         id="path73" /><path
         style="fill:#bebebe;fill-opacity:1;stroke-width:0.103825;stroke-dashoffset:1.13386;paint-order:markers fill stroke"
         d="m 37.656568,26.117442 0.244728,-0.192285 0.419531,-0.05244 -0.244726,0.454493 z"
         id="path74" /><path
         style="fill:#bebebe;fill-opacity:1;stroke-width:0.103825;stroke-dashoffset:1.13386;paint-order:markers fill stroke"
         d="m 35.541427,26.711779 0.03496,-0.419532 0.489454,-0.227246 -0.384571,0.34961 z"
         id="path75" /><path
         style="fill:#d2d2d2;fill-opacity:1;stroke-width:0.103825;stroke-dashoffset:1.13386;paint-order:markers fill stroke"
         d="m 38.956235,28.499428 -0.245294,-0.304209 0.05061,-3.577346 8.222536,-2.52374 0.131776,0.02079 0.247133,0.296638 -8.229319,2.460401 0.0068,3.320174 z"
         id="path76"
         sodipodi:nodetypes="ccccccccc" /><path
         style="opacity:0.5;fill:#b1b1b1;fill-opacity:1;stroke-width:0.103825;stroke-dashoffset:1.13386;paint-order:markers fill stroke"
         d="m 40.331084,23.005912 0.227247,-0.454492 0.471975,0.03496 -0.227248,0.297169 z"
         id="path77" /><path
         style="opacity:0.5;fill:#b1b1b1;fill-opacity:1;stroke-width:0.103825;stroke-dashoffset:1.13386;paint-order:markers fill stroke"
         d="m 38.22852,23.462205 0.123606,0.24721 0.271933,-0.148326 h 0.247212 l -0.271934,-0.22249 z"
         id="path78" /><path
         style="opacity:0.5;fill:#737373;fill-opacity:1;stroke-width:0.103825;stroke-dashoffset:1.13386;paint-order:markers fill stroke"
         d="m 40.15677,26.601793 0.370818,0.222491 0.09888,-0.296655 -0.370816,-0.173048 z"
         id="path79" /><path
         style="opacity:0.5;fill:#737373;fill-opacity:1;stroke-width:0.103825;stroke-dashoffset:1.13386;paint-order:markers fill stroke"
         d="m 45.397657,23.907185 0.346096,-0.469702 0.296654,0.296654 -0.321374,0.222491 z"
         id="path80" /><path
         style="opacity:0.5;fill:#737373;fill-opacity:1;stroke-width:0.103825;stroke-dashoffset:1.13386;paint-order:markers fill stroke"
         d="m 43.593012,24.945474 -0.173048,0.395539 0.123606,0.173048 0.05637,-0.253165 0.174804,-0.09614 0.06118,-0.270948 z"
         id="path81" /></g><g
       id="g105"
       inkscape:export-filename="obsidian-brick.png"
       inkscape:export-xdpi="300"
       inkscape:export-ydpi="300"><path
         style="fill:#4f4f4f;fill-opacity:1;stroke-width:0.172;stroke-dashoffset:1.13386;paint-order:markers fill stroke"
         d="m 62.774226,53.53726 -0.03311,-2.549869 0.08191,-0.2662 -0.02048,-0.716691 -0.122862,-0.266197 0.04096,-1.740535 0.430014,-0.163814 0.18429,-0.225245 7.924546,1.330994 0.02048,7.003088 -7.90742,-1.676752 A 0.75500419,0.75500419 50.614062 0 1 62.774226,53.53726 Z"
         id="path84"
         sodipodi:nodetypes="ccccccccccc"
         inkscape:path-effect="#path-effect100"
         inkscape:original-d="m 62.782064,54.140827 -0.04095,-3.153436 0.08191,-0.2662 -0.02048,-0.716691 -0.122862,-0.266197 0.04096,-1.740535 0.430014,-0.163814 0.18429,-0.225245 7.924546,1.330994 0.02048,7.003088 z"
         transform="matrix(0.60363648,0,0,0.60363648,11.329209,-4.8929702)" /><path
         id="path85"
         style="fill:#686868;fill-opacity:1;stroke-width:0.103825;stroke-dashoffset:1.13386;paint-order:markers fill stroke"
         d="m 49.560618,23.845235 -0.111362,0.136005 -0.259532,0.09888 -0.02464,1.050607 0.07393,0.16096 0.01248,0.432346 -0.0496,0.160959 0.02028,1.539102 a 0.45574807,0.45574807 0 0 0 0.07892,0.240504 l 0.04835,-1.704428 c 0,0 0.367102,-0.183546 0.891518,0 l -0.703731,-0.371519 -0.167823,0.09733 0.03244,-0.44264 -0.157528,-0.594241 0.09639,-0.463228 0.443575,-0.303203 z" /><path
         id="path86"
         style="fill:#686868;fill-opacity:1;stroke-width:0.103825;stroke-dashoffset:1.13386;paint-order:markers fill stroke"
         d="m 58.36132,21.459847 -8.800702,2.385388 2.565377,0.431098 -0.451686,0.127895 0.887151,-0.0549 1.782725,0.29946 8.170274,-2.533871 z" /><path
         style="fill:#3b3b3b;fill-opacity:1;stroke-width:0.172;stroke-dashoffset:1.13386;paint-order:markers fill stroke"
         d="m 84.794693,44.741946 0.409538,0.491445 -0.04619,4.126482 a 1.9912913,1.9912913 125.00093 0 1 -1.289263,1.841196 l -12.588802,4.741722 -0.02048,-7.003088 z"
         id="path87"
         sodipodi:nodetypes="cccccc"
         inkscape:path-effect="#path-effect102"
         inkscape:original-d="m 84.794693,44.741946 0.409538,0.491445 -0.06143,5.487801 -13.862827,5.221599 -0.02048,-7.003088 z"
         transform="matrix(0.60363648,0,0,0.60363648,11.329209,-4.8929702)" /><path
         id="path88"
         style="fill:#2f2e2d;fill-opacity:1;stroke-width:0.103825;stroke-dashoffset:1.13386;paint-order:markers fill stroke"
         d="m 62.733752,24.902392 -3.42071,1.649839 -0.741788,-0.197768 c 0,0 0.313629,0.252286 0.121344,0.357169 l -4.33812,1.516953 0.0019,0.647583 7.599118,-2.862341 a 1.2020161,1.2020161 0 0 0 0.778286,-1.111435 z" /><path
         id="path89"
         style="fill:#2f2e2d;fill-opacity:1;stroke-width:0.103825;stroke-dashoffset:1.13386;paint-order:markers fill stroke"
         d="m 51.624711,27.269377 -1.409023,0.370582 -0.992898,-0.211806 a 0.45574807,0.45574807 0 0 0 0.360288,0.435777 l 4.773272,1.012238 -0.0019,-0.647583 -3.595083,-0.489742 z" /><path
         style="fill:#3e3e3e;fill-opacity:1;stroke-width:0.103825;stroke-dashoffset:1.13386;paint-order:markers fill stroke"
         d="m 51.621769,24.753962 -0.33213,-0.314649 0.402051,-0.262207 1.031351,-0.06992 -1.048831,0.297168 z"
         id="path90" /><path
         style="fill:#3e3e3e;fill-opacity:1;stroke-width:0.103825;stroke-dashoffset:1.13386;paint-order:markers fill stroke"
         d="m 49.25148,25.724191 c 0,0 0.464915,-0.04376 0.989329,0.235927 L 49.239118,25.29157 Z"
         id="path91" /><path
         style="fill:#3e3e3e;fill-opacity:1;stroke-width:0.103825;stroke-dashoffset:1.13386;paint-order:markers fill stroke"
         d="m 53.05517,26.117442 0.244728,-0.192285 0.419531,-0.05244 -0.244726,0.454493 z"
         id="path92" /><path
         style="fill:#3e3e3e;fill-opacity:1;stroke-width:0.103825;stroke-dashoffset:1.13386;paint-order:markers fill stroke"
         d="m 50.940029,26.711779 0.03496,-0.419532 0.489454,-0.227246 -0.384571,0.34961 z"
         id="path93" /><path
         style="fill:#5b5b5b;fill-opacity:1;stroke-width:0.103825;stroke-dashoffset:1.13386;paint-order:markers fill stroke"
         d="m 54.354837,28.499428 -0.245294,-0.304209 0.05061,-3.577346 8.222536,-2.52374 0.131776,0.02079 0.247133,0.296638 -8.229319,2.460401 0.0068,3.320174 z"
         id="path94"
         sodipodi:nodetypes="ccccccccc" /><path
         style="opacity:0.5;fill:#767676;fill-opacity:1;stroke-width:0.103825;stroke-dashoffset:1.13386;paint-order:markers fill stroke"
         d="m 55.729686,23.005912 0.227247,-0.454492 0.471975,0.03496 -0.227248,0.297169 z"
         id="path95" /><path
         style="opacity:0.5;fill:#767676;fill-opacity:1;stroke-width:0.103825;stroke-dashoffset:1.13386;paint-order:markers fill stroke"
         d="m 53.627122,23.462205 0.123606,0.24721 0.271933,-0.148326 h 0.247212 l -0.271934,-0.22249 z"
         id="path96" /><path
         style="opacity:0.5;fill:#242424;fill-opacity:1;stroke-width:0.103825;stroke-dashoffset:1.13386;paint-order:markers fill stroke"
         d="m 55.555372,26.601793 0.370818,0.222491 0.09888,-0.296655 -0.370816,-0.173048 z"
         id="path97" /><path
         style="opacity:0.5;fill:#242424;fill-opacity:1;stroke-width:0.103825;stroke-dashoffset:1.13386;paint-order:markers fill stroke"
         d="m 60.796259,23.907185 0.346096,-0.469702 0.296654,0.296654 -0.321374,0.222491 z"
         id="path98" /><path
         style="opacity:0.5;fill:#242424;fill-opacity:1;stroke-width:0.103825;stroke-dashoffset:1.13386;paint-order:markers fill stroke"
         d="m 58.991614,24.945474 -0.173048,0.395539 0.123606,0.173048 0.05637,-0.253165 0.174804,-0.09614 0.06118,-0.270948 z"
         id="path99" /></g></g></svg>
